<svg width="24" height="24" viewBox="0 0 24 24" fill="none" xmlns="http://www.w3.org/2000/svg">
<path fill-rule="evenodd" clip-rule="evenodd" d="M11.5 20.2643H2.95C2.897 20.2643 2.846 20.2423 2.809 20.2053C2.771 20.1673 2.75 20.1173 2.75 20.0643V18.6133C2.75 17.7833 3.343 17.0513 4.257 16.4293C5.889 15.3153 8.53 14.6133 11.5 14.6133C11.914 14.6133 12.25 14.2773 12.25 13.8633C12.25 13.4503 11.914 13.1133 11.5 13.1133C8.178 13.1133 5.237 13.9443 3.411 15.1893C2.018 16.1393 1.25 17.3463 1.25 18.6133V20.0643C1.25 20.5143 1.429 20.9473 1.748 21.2663C2.067 21.5843 2.499 21.7643 2.95 21.7643H11.5C11.914 21.7633 12.25 21.4273 12.25 21.0133C12.25 20.6003 11.914 20.2633 11.5 20.2643Z" fill="#0A5FFF"/>
<path fill-rule="evenodd" clip-rule="evenodd" d="M11.5 1.25C8.464 1.25 6 3.714 6 6.75C6 9.786 8.464 12.25 11.5 12.25C14.536 12.25 17 9.786 17 6.75C17 3.714 14.536 1.25 11.5 1.25ZM11.5 2.75C13.708 2.75 15.5 4.542 15.5 6.75C15.5 8.958 13.708 10.75 11.5 10.75C9.292 10.75 7.5 8.958 7.5 6.75C7.5 4.542 9.292 2.75 11.5 2.75Z" fill="#0A5FFF"/>
<path fill-rule="evenodd" clip-rule="evenodd" d="M17.4995 13.9375C15.5335 13.9375 13.9375 15.5335 13.9375 17.4995C13.9375 19.4655 15.5335 21.0625 17.4995 21.0625C19.4655 21.0625 21.0625 19.4655 21.0625 17.4995C21.0625 15.5335 19.4655 13.9375 17.4995 13.9375ZM17.4995 15.4375C18.6375 15.4375 19.5625 16.3615 19.5625 17.4995C19.5625 18.6375 18.6375 19.5625 17.4995 19.5625C16.3615 19.5625 15.4365 18.6375 15.4365 17.4995C15.4365 16.3615 16.3615 15.4375 17.4995 15.4375Z" fill="#0A5FFF"/>
<path fill-rule="evenodd" clip-rule="evenodd" d="M18.25 14.687V13C18.25 12.586 17.914 12.25 17.5 12.25C17.086 12.25 16.75 12.586 16.75 13V14.688C16.75 15.101 17.086 15.438 17.5 15.438C17.914 15.437 18.25 15.101 18.25 14.687Z" fill="#0A5FFF"/>
<path fill-rule="evenodd" clip-rule="evenodd" d="M20.0222 16.0402L21.2152 14.8462C21.5082 14.5542 21.5082 14.0782 21.2152 13.7862C20.9232 13.4932 20.4472 13.4932 20.1552 13.7862L18.9612 14.9792C18.6692 15.2722 18.6692 15.7472 18.9612 16.0402C19.2542 16.3322 19.7292 16.3322 20.0222 16.0402Z" fill="#0A5FFF"/>
<path fill-rule="evenodd" clip-rule="evenodd" d="M20.3115 18.25H21.9995C22.4135 18.25 22.7495 17.914 22.7495 17.5C22.7495 17.086 22.4135 16.75 21.9995 16.75H20.3115C19.8985 16.75 19.5625 17.086 19.5625 17.5C19.5615 17.914 19.8985 18.25 20.3115 18.25Z" fill="#0A5FFF"/>
<path fill-rule="evenodd" clip-rule="evenodd" d="M18.9612 20.0183L20.1552 21.2113C20.4472 21.5043 20.9232 21.5043 21.2152 21.2113C21.5082 20.9193 21.5082 20.4433 21.2152 20.1513L20.0222 18.9573C19.7292 18.6653 19.2542 18.6653 18.9612 18.9573C18.6692 19.2503 18.6692 19.7253 18.9612 20.0183Z" fill="#0A5FFF"/>
<path fill-rule="evenodd" clip-rule="evenodd" d="M16.75 20.3125V22.0005C16.75 22.4145 17.086 22.7505 17.5 22.7505C17.914 22.7505 18.25 22.4145 18.25 22.0005V20.3125C18.25 19.8995 17.914 19.5635 17.5 19.5625C17.086 19.5625 16.75 19.8995 16.75 20.3125Z" fill="#0A5FFF"/>
<path fill-rule="evenodd" clip-rule="evenodd" d="M14.9831 18.9573L13.7901 20.1513C13.4971 20.4433 13.4971 20.9193 13.7901 21.2113C14.0821 21.5043 14.5581 21.5043 14.8501 21.2113L16.0441 20.0183C16.3361 19.7253 16.3361 19.2503 16.0441 18.9573C15.7511 18.6653 15.2761 18.6653 14.9831 18.9573Z" fill="#0A5FFF"/>
<path fill-rule="evenodd" clip-rule="evenodd" d="M14.687 16.75H13C12.586 16.75 12.25 17.086 12.25 17.5C12.25 17.914 12.586 18.25 13 18.25H14.687C15.101 18.25 15.438 17.914 15.437 17.5C15.437 17.086 15.101 16.75 14.687 16.75Z" fill="#0A5FFF"/>
<path fill-rule="evenodd" clip-rule="evenodd" d="M16.0441 14.9792L14.8501 13.7862C14.5581 13.4932 14.0821 13.4932 13.7901 13.7862C13.4971 14.0782 13.4971 14.5542 13.7901 14.8462L14.9831 16.0402C15.2761 16.3322 15.7511 16.3322 16.0441 16.0402C16.3361 15.7472 16.3361 15.2722 16.0441 14.9792Z" fill="#0A5FFF"/>
</svg>
