<svg width="92" height="92" viewBox="0 0 92 92" fill="none" xmlns="http://www.w3.org/2000/svg">
<g opacity="0.3" clip-path="url(#clip0_415_24110)">
<path fill-rule="evenodd" clip-rule="evenodd" d="M50.5165 19.6578L84.4748 28.757C84.8747 28.8641 85.2169 29.1265 85.4203 29.4843C85.6312 29.8441 85.6868 30.2707 85.5796 30.6706L70.6167 86.5132C70.5095 86.9132 70.248 87.2548 69.8855 87.4609C69.5304 87.6691 69.103 87.7252 68.703 87.6181C58.7872 84.9611 27.2965 76.5232 17.3882 73.8683C16.9882 73.7611 16.6461 73.4988 16.4352 73.139C16.2318 72.7812 16.1762 72.3546 16.2833 71.9546L23.5626 44.788C23.7859 43.9549 23.2879 43.0967 22.4578 42.8743C21.6201 42.6499 20.7673 43.1461 20.5441 43.9792L13.2648 71.1458C12.9431 72.3464 13.11 73.6254 13.7275 74.7016C14.3527 75.779 15.3795 76.5653 16.5794 76.8868L67.8942 90.6366C69.0941 90.9581 70.3764 90.7905 71.4491 90.168C72.5295 89.5468 73.3135 88.5226 73.6352 87.322C76.448 76.8244 85.7853 41.9771 88.5982 31.4794C88.9199 30.2788 88.753 28.9999 88.1279 27.9216C87.5102 26.8462 86.4835 26.0599 85.2836 25.7384L51.3253 16.6393C50.4876 16.4149 49.6348 16.9111 49.4116 17.7442C49.1884 18.5773 49.6788 19.4334 50.5165 19.6578ZM55.4883 28.2693L43.3562 73.5471C43.1329 74.3802 43.6234 75.2363 44.461 75.4608C45.2911 75.6832 46.1514 75.189 46.3747 74.3559L58.5068 29.0781C58.7301 28.245 58.2321 27.3869 57.402 27.1645C56.5643 26.94 55.7115 27.4362 55.4883 28.2693ZM67.0496 39.4553L58.9615 69.6405C58.7383 70.4736 59.2287 71.3297 60.0664 71.5541C60.8965 71.7765 61.7568 71.2824 61.98 70.4493L70.0681 40.2641C70.2914 39.431 69.7934 38.5728 68.9633 38.3504C68.1256 38.126 67.2728 38.6222 67.0496 39.4553ZM59.2469 41.4086L53.1809 64.0475C52.9576 64.8806 53.4481 65.7367 54.2857 65.9612C55.1158 66.1836 55.9761 65.6894 56.1994 64.8563L62.2654 42.2174C62.4887 41.3843 61.9907 40.5262 61.1606 40.3037C60.323 40.0793 59.4702 40.5755 59.2469 41.4086ZM38.6697 36.7038L33.0081 57.8334C32.7848 58.6665 33.2753 59.5226 34.1129 59.7471C34.943 59.9695 35.8034 59.4753 36.0266 58.6422L41.6882 37.5126C41.9115 36.6795 41.4135 35.8213 40.5834 35.5989C39.7458 35.3745 38.893 35.8707 38.6697 36.7038ZM44.3493 42.674L40.9118 55.5028C40.6886 56.3359 41.1791 57.192 42.0167 57.4164C42.8468 57.6388 43.7071 57.1447 43.9304 56.3116L47.3678 43.4829C47.591 42.6497 47.093 41.7916 46.2629 41.5692C45.4253 41.3448 44.5725 41.8409 44.3493 42.674ZM71.0104 51.8399L68.584 60.8955C68.3608 61.7286 68.8512 62.5847 69.6889 62.8091C70.519 63.0315 71.3793 62.5374 71.6025 61.7043L74.029 52.6487C74.2522 51.8156 73.7542 50.9575 72.9241 50.7351C72.0865 50.5106 71.2337 51.0068 71.0104 51.8399ZM29.6538 43.1849L28.4406 47.7126C28.2174 48.5458 28.7078 49.4019 29.5455 49.6263C30.3756 49.8487 31.2359 49.3546 31.4591 48.5215L32.6724 43.9937C32.8956 43.1606 32.3976 42.3024 31.5675 42.08C30.7299 41.8556 29.8771 42.3518 29.6538 43.1849ZM24.3645 23.4125C24.3043 22.7614 23.8438 22.2166 23.2099 22.0468C22.576 21.8769 21.9048 22.1185 21.5272 22.6522L18.4295 27.0285L13.0959 27.5251C12.4409 27.585 11.8972 28.0443 11.7279 28.6759C11.5587 29.3075 11.7999 29.9772 12.3372 30.3565L16.708 33.4534L17.2025 38.7922C17.2626 39.4433 17.7232 39.9881 18.3571 40.1579C18.9909 40.3278 19.6622 40.0862 20.0397 39.5525L23.1374 35.1762L28.4711 34.6796C29.1261 34.6197 29.6698 34.1604 29.839 33.5288C30.0083 32.8972 29.7671 32.2275 29.2298 31.8482L24.859 28.7513L24.3645 23.4125ZM21.6402 27.905L21.8157 29.7557C21.8558 30.2096 22.0931 30.6218 22.4671 30.8862L23.9831 31.9597L22.1335 32.1314C21.6774 32.1733 21.2658 32.4116 21.0041 32.7847L19.9268 34.2997L19.7588 32.4511C19.7112 31.9951 19.4739 31.5829 19.0999 31.3185L17.5839 30.245L19.4335 30.0733C19.8896 30.0314 20.3012 29.7931 20.5705 29.422L21.6402 27.905ZM43.175 7.42369C43.1149 6.77266 42.6542 6.22783 42.0278 6.06C41.394 5.89015 40.7227 6.13168 40.3452 6.66543L34.0855 15.5075L23.2948 16.5082C22.6473 16.57 22.1036 17.0293 21.9344 17.661C21.7651 18.2926 22.0063 18.9622 22.5361 19.3395L31.3808 25.6015L32.3808 36.3888C32.4409 37.0398 32.9015 37.5846 33.5353 37.7544C34.1617 37.9223 34.8331 37.6808 35.2107 37.147L41.4777 28.3069L52.2609 27.3043C52.9159 27.2444 53.4596 26.7851 53.6288 26.1535C53.7981 25.5218 53.5569 24.8522 53.0195 24.4729L44.1824 18.213L43.175 7.42369ZM40.4581 11.9182L41.1315 19.2153C41.1792 19.6713 41.4165 20.0835 41.7905 20.3479L47.7653 24.5824L40.4737 25.2621C40.0176 25.304 39.606 25.5423 39.3368 25.9134L35.105 31.8963L34.4241 24.5971C34.384 24.1431 34.1467 23.7309 33.7727 23.4665L27.7903 19.2301L35.0895 18.5524C35.5456 18.5104 35.9571 18.2721 36.2189 17.899L40.4581 11.9182ZM25.5198 7.29836L24.0106 6.89395C23.1729 6.66951 22.3201 7.1657 22.0969 7.99881C21.8737 8.83192 22.3641 9.68803 23.2018 9.91247L24.711 10.3169L24.3066 11.8261C24.0834 12.6592 24.5738 13.5154 25.4115 13.7398C26.2416 13.9622 27.1019 13.4681 27.3251 12.6349L27.7295 11.1257L29.2388 11.5301C30.0689 11.7525 30.9292 11.2583 31.1525 10.4252C31.3757 9.59213 30.8777 8.734 30.0476 8.51157L28.5384 8.10717L28.9428 6.59791C29.166 5.7648 28.668 4.90667 27.8379 4.68425C27.0003 4.4598 26.1475 4.95599 25.9242 5.7891L25.5198 7.29836Z" fill="white"/>
</g>
<defs>
<clipPath id="clip0_415_24110">
<rect width="75" height="75" fill="white" transform="translate(19.4116) rotate(15)"/>
</clipPath>
</defs>
</svg>
