<svg width="36" height="36" viewBox="0 0 36 36" fill="none" xmlns="http://www.w3.org/2000/svg">
<g clip-path="url(#clip0_415_20930)">
<path d="M35.4261 27.8003L21.666 3.96713C20.9009 2.64188 19.5304 1.85059 18 1.85059C16.4696 1.85059 15.0991 2.64188 14.334 3.96713L0.573907 27.8003C-0.191302 29.1257 -0.191302 30.7081 0.573907 32.0334C1.33912 33.3588 2.7095 34.15 4.23992 34.15H31.76C33.2904 34.15 34.6609 33.3587 35.4261 32.0335C36.1913 30.7081 36.1913 29.1257 35.4261 27.8003ZM33.5996 30.979C33.2156 31.644 32.5279 32.041 31.76 32.041H4.23992C3.47197 32.041 2.78432 31.644 2.40041 30.979C2.01651 30.3139 2.01651 29.52 2.40041 28.855L16.1606 5.02174C16.5445 4.35673 17.2322 3.95975 18.0001 3.95975C18.7679 3.95975 19.4556 4.35673 19.8395 5.02174L33.5996 28.855C33.9835 29.52 33.9835 30.3139 33.5996 30.979Z" fill="#FF073A"/>
<path d="M19.0544 12.376H16.9453V22.9216H19.0544V12.376Z" fill="#FF073A"/>
<path d="M17.9999 25.0303C17.2245 25.0303 16.5938 25.661 16.5938 26.4364C16.5938 27.2117 17.2245 27.8425 17.9999 27.8425C18.7751 27.8425 19.406 27.2117 19.406 26.4364C19.406 25.661 18.7752 25.0303 17.9999 25.0303Z" fill="#FF073A"/>
</g>
<defs>
<clipPath id="clip0_415_20930">
<rect width="36" height="36" fill="white"/>
</clipPath>
</defs>
</svg>
