<svg width="60" height="60" viewBox="0 0 60 60" fill="none" xmlns="http://www.w3.org/2000/svg">
<rect x="0.5" y="0.5" width="59" height="59" rx="29.5" fill="white" stroke="#FF073A"/>
<g clip-path="url(#clip0_199_1186)">
<path d="M40 21.8518V34.7893C40 35.2597 39.6186 35.6411 39.1482 35.6411C38.6779 35.6411 38.2965 35.2597 38.2965 34.7893V23.9082L21.4541 40.7506C21.2877 40.9169 21.0698 41 20.8518 41C20.6338 41 20.4159 40.9169 20.2495 40.7506C19.9168 40.4179 19.9168 39.8786 20.2495 39.5459L37.0919 22.7035H26.2107C25.7403 22.7035 25.3589 22.3221 25.3589 21.8518C25.3589 21.3814 25.7403 21 26.2107 21H39.1482C39.6186 21 40 21.3814 40 21.8518Z" fill="#FF073A"/>
</g>
<defs>
<clipPath id="clip0_199_1186">
<rect width="20" height="20" fill="white" transform="translate(20 21)"/>
</clipPath>
</defs>
</svg>
