<svg width="40" height="40" viewBox="0 0 40 40" fill="none" xmlns="http://www.w3.org/2000/svg">
<rect width="40" height="40" rx="20" fill="#012169"/>
<path d="M40 7H0V33.6667H40V7Z" fill="#012169"/>
<mask id="mask0_306_25751" style="mask-type:luminance" maskUnits="userSpaceOnUse" x="0" y="7" width="20" height="14">
<path d="M0 7H20V20.3333H0V7Z" fill="white"/>
</mask>
<g mask="url(#mask0_306_25751)">
<path d="M0 7L20 20.3333L0 7ZM20 7L0 20.3333L20 7Z" fill="black"/>
<path d="M0 7L20 20.3333M20 7L0 20.3333" stroke="white" stroke-width="2.3094"/>
</g>
<mask id="mask1_306_25751" style="mask-type:luminance" maskUnits="userSpaceOnUse" x="0" y="7" width="20" height="14">
<path d="M0 7V13.6667H20V20.3333L0 7ZM20 7H10V20.3333H0L20 7Z" fill="white"/>
</mask>
<g mask="url(#mask1_306_25751)">
<path d="M0 7L20 20.3333L0 7ZM20 7L0 20.3333L20 7Z" fill="black"/>
<path d="M0 7L20 20.3333M20 7L0 20.3333" stroke="#E4002B" stroke-width="1.5396"/>
</g>
<path d="M10 7V20.3333V7ZM0 13.6667H20H0Z" fill="black"/>
<path d="M10 7V20.3333M0 13.6667H20" stroke="white" stroke-width="3.849"/>
<path d="M10 7V20.3333V7ZM0 13.6667H20H0Z" fill="black"/>
<path d="M10 7V20.3333M0 13.6667H20" stroke="#E4002B" stroke-width="2.3094"/>
<path d="M10.0384 23.1001L10.8097 25.4984L13.1657 24.6061L11.7716 26.7045L13.9381 27.9902L11.4283 28.2085L11.7739 30.704L10.0384 28.8779L8.30285 30.704L8.64846 28.2085L6.13867 27.9902L8.30518 26.7045L6.91106 24.6061L9.26704 25.4984L10.0384 23.1001Z" fill="white"/>
<path d="M30.4742 27.417L30.8415 28.559L31.9634 28.1342L31.2995 29.1334L32.3312 29.7456L31.1361 29.8496L31.3006 31.0379L30.4742 30.1683L29.6477 31.0379L29.8123 29.8496L28.6172 29.7456L29.6489 29.1334L28.985 28.1342L30.1069 28.559L30.4742 27.417Z" fill="white"/>
<path d="M23.8082 16.8618L24.1755 18.0039L25.2974 17.579L24.6335 18.5782L25.6652 19.1904L24.47 19.2944L24.6346 20.4827L23.8082 19.6131L22.9817 20.4827L23.1463 19.2944L21.9512 19.1904L22.9828 18.5782L22.319 17.579L23.4409 18.0039L23.8082 16.8618Z" fill="white"/>
<path d="M30.4742 9.63916L30.8415 10.7812L31.9634 10.3563L31.2995 11.3555L32.3312 11.9678L31.1361 12.0717L31.3006 13.2601L30.4742 12.3905L29.6477 13.2601L29.8123 12.0717L28.6172 11.9678L29.6489 11.3555L28.985 10.3563L30.1069 10.7812L30.4742 9.63916Z" fill="white"/>
<path d="M36.3998 15.084L36.7671 16.226L37.889 15.8011L37.2252 16.8004L38.2568 17.4126L37.0617 17.5166L37.2263 18.7049L36.3998 17.8353L35.5734 18.7049L35.738 17.5166L34.5428 17.4126L35.5745 16.8004L34.9106 15.8011L36.0325 16.226L36.3998 15.084Z" fill="white"/>
<path d="M33.1427 20.4331L33.4329 21.1447L34.1994 21.2009L33.6123 21.6968L33.7958 22.4431L33.1427 22.038L32.4896 22.4431L32.673 21.6968L32.0859 21.2009L32.8524 21.1447L33.1427 20.4331Z" fill="white"/>
</svg>
