<svg width="50" height="50" viewBox="0 0 50 50" fill="none" xmlns="http://www.w3.org/2000/svg">
<g clip-path="url(#clip0_227_1257)">
<path d="M8.54326 20.632C9.67265 22.0921 10.9191 23.8172 12.2484 25.7593C14.8542 30.1938 17.0646 34.8845 17.5052 35.8322C17.6576 39.5301 19.3597 42.668 19.57 43.042L20.8113 45.5832C21.2197 46.4237 22.0177 46.9886 22.9464 47.0939L23.2539 47.1286C23.7516 47.185 24.2708 47.0947 24.7555 46.8685C24.9968 46.7558 25.2877 46.7792 25.5074 46.9298L25.9934 47.2629C26.5267 47.6285 27.2423 47.6814 27.8236 47.3992L28.6944 46.9762C29.3637 46.6511 29.7659 45.9609 29.7187 45.2183L29.6743 44.5176C29.7633 44.4351 30.027 44.3072 30.2065 44.2201L31.7497 43.4704C31.9953 43.3512 32.2876 43.3728 32.5121 43.5267L32.9983 43.86C33.5382 44.23 34.2396 44.2821 34.8282 43.9962L35.7668 43.5403C36.3556 43.2541 36.7481 42.6706 36.7908 42.0174L36.8294 41.4284C36.8469 41.1573 37.0102 40.9148 37.2554 40.7956L38.9887 39.9535C39.2373 39.8327 39.5318 39.856 39.7577 40.0145L40.2152 40.3351C40.7577 40.7154 41.465 40.7716 42.061 40.4824L43.1447 39.9558C43.7756 39.6494 44.1694 39.0234 44.1727 38.3222L44.1748 37.9055C44.1762 37.614 44.3402 37.3536 44.6027 37.226L44.7486 37.1551C45.3299 36.8727 45.7921 36.3903 46.0485 35.8002L46.1375 35.5974C46.4548 34.8696 46.4376 34.0422 46.0905 33.3275C46.0901 33.3268 46.0898 33.3261 46.0894 33.3254L44.7014 30.4824C44.3223 29.7007 43.7723 29.0054 43.0666 28.4156C41.9194 27.4571 40.3696 27.1367 38.9212 27.5587C38.4826 27.6865 35.053 28.707 33.6806 29.1054C30.5986 30.0001 27.8655 28.3041 27.1594 27.8107L22.519 16.8595C22.3148 16.3604 21.7446 16.121 21.2453 16.3255C20.7462 16.5298 20.5071 17.1 20.7114 17.5991L21.6858 19.9801L13.406 23.9961C12.2246 22.2897 11.1105 20.7587 10.0884 19.4372C4.68742 12.4519 1.94515 3.22926 1.9142 3.1236C1.76273 2.60583 1.22006 2.30934 0.702875 2.46022C0.185104 2.61159 -0.111867 3.15397 0.0394995 3.67154C0.153854 4.06305 2.90696 13.3421 8.54326 20.632ZM22.4431 21.7837L25.2617 28.3418L23.271 31.3652C22.7513 32.1547 22.0271 32.7899 21.1767 33.2023L18.9372 34.2886C18.1742 32.6836 16.4612 29.1755 14.4493 25.661L22.4431 21.7837ZM28.3593 30.6437C29.8663 31.227 31.5112 31.4674 33.1159 31.2251C32.5319 32.1504 31.553 33.1146 30.0098 33.1146C30.0064 33.1146 30.0029 33.1146 29.9996 33.1146C27.9432 33.1089 26.2823 32.2418 25.4098 31.6697L26.6345 29.8089C27.2001 30.0807 27.7589 30.4118 28.3593 30.6437ZM44.3482 34.8148L44.2588 35.0185C44.1866 35.1848 44.0574 35.3198 43.8957 35.3984L43.7498 35.4693C42.6424 36.0074 42.2258 37.0681 42.2202 38.2337L41.2751 38.6929L40.8794 38.4156C40.0733 37.8499 39.0219 37.7662 38.1353 38.1968L36.402 39.039C35.526 39.4646 34.943 40.332 34.8805 41.3017L34.8468 41.8159L34.0414 42.2073L33.6162 41.9158C32.8137 41.3661 31.7715 41.2886 30.8963 41.7138L29.3544 42.4629C28.5322 42.8616 27.6505 43.4786 27.7174 44.519L27.7641 45.2569L27.0367 45.6104C26.0862 44.9589 25.0536 44.5736 23.9289 45.0992C23.8185 45.1507 23.6503 45.2082 23.4731 45.1882L23.1661 45.1535C22.9062 45.124 22.6825 44.9657 22.5671 44.7282L22.0479 43.6651C22.8663 43.6035 23.6784 43.3848 24.4151 43.0226L41.6609 34.5435C42.4479 34.1566 43.1566 33.6048 43.7258 32.9376L44.3343 34.1827C44.4311 34.3824 44.4358 34.6138 44.3482 34.8148ZM39.4674 29.4341C40.2902 29.1944 41.1676 29.3741 41.8144 29.9145C42.1944 30.2321 42.5078 30.5896 42.7486 30.979C42.2201 31.7311 41.6415 32.3761 40.7987 32.7901L23.5535 41.2691C22.7891 41.6451 21.9192 41.7955 21.0728 41.7026C20.6421 40.8374 19.6807 38.6681 19.4826 36.1949L22.029 34.9597C22.8835 34.5453 23.6446 33.9662 24.2713 33.2607C25.3499 33.9822 27.3948 35.0604 29.994 35.0677H30.01C33.2113 35.0677 34.9548 32.3885 35.5841 30.584C36.4189 30.3384 39.0318 29.5608 39.4674 29.4341Z" fill="#FF073A"/>
<path d="M16.8959 3.03503C16.6957 2.53415 16.1274 2.29059 15.6266 2.49059C15.1257 2.69079 14.8821 3.25895 15.0822 3.75983L17.3706 9.4861C17.568 9.98014 18.1454 10.2282 18.6398 10.0305C19.1407 9.83034 19.3844 9.26217 19.1842 8.7613L16.8959 3.03503Z" fill="#FF073A"/>
<path d="M19.0431 13.5545C19.2028 13.9376 19.6016 14.1861 20.0165 14.154C20.4412 14.1211 20.8031 13.8102 20.8971 13.3943C21.0901 12.541 20.0979 11.8837 19.3828 12.3828C19.0115 12.642 18.8721 13.137 19.0431 13.5545Z" fill="#FF073A"/>
<path d="M32.7737 22.3944C34.6374 23.7531 36.8443 24.4714 39.1559 24.4714C41.4674 24.4714 43.6743 23.7532 45.538 22.3944C48.332 20.3573 50.0002 17.0798 50.0002 13.6271C50.0002 12.4788 49.8207 11.3465 49.4668 10.2616C48.0075 5.78817 43.8639 2.78271 39.1559 2.78271C34.4478 2.78271 30.3042 5.78826 28.845 10.2616C28.491 11.3467 28.3115 12.479 28.3115 13.6271C28.3114 17.0797 29.9796 20.3572 32.7737 22.3944ZM42.2686 12.6015L41.0795 16.2609H37.232L36.0429 12.6015L39.1558 10.3399L42.2686 12.6015ZM34.7432 21.3477L37.0201 18.214H41.2914L43.5683 21.3477C42.2299 22.1161 40.7224 22.5181 39.1558 22.5181C37.5892 22.5181 36.0816 22.1161 34.7432 21.3477ZM45.1457 20.196L42.8716 17.066L44.1916 13.0037L47.8611 11.8113C47.9846 12.406 48.047 13.0136 48.047 13.627C48.047 16.1299 46.9774 18.5209 45.1457 20.196ZM47.256 9.95425L43.588 11.146L40.1324 8.63532V4.78876C43.2576 5.12967 45.9625 7.09099 47.256 9.95425ZM38.1792 4.78876V8.63522L34.7235 11.146L31.0556 9.95425C32.3491 7.09099 35.0539 5.12967 38.1792 4.78876ZM30.4506 11.8113L34.12 13.0036L35.44 17.0659L33.1659 20.1959C31.3342 18.5208 30.2646 16.1298 30.2646 13.6269C30.2645 13.0137 30.3269 12.4061 30.4506 11.8113Z" fill="#FF073A"/>
</g>
<defs>
<clipPath id="clip0_227_1257">
<rect width="50" height="50" fill="white"/>
</clipPath>
</defs>
</svg>
