<svg width="24" height="24" viewBox="0 0 24 24" fill="none" xmlns="http://www.w3.org/2000/svg">
<path d="M12.3899 6.41211H6.38989C6.19098 6.41211 6.00021 6.49113 5.85956 6.63178C5.71891 6.77243 5.63989 6.9632 5.63989 7.16211C5.63989 7.36102 5.71891 7.55179 5.85956 7.69244C6.00021 7.83309 6.19098 7.91211 6.38989 7.91211H12.3899C12.5888 7.91211 12.7796 7.83309 12.9202 7.69244C13.0609 7.55179 13.1399 7.36102 13.1399 7.16211C13.1399 6.9632 13.0609 6.77243 12.9202 6.63178C12.7796 6.49113 12.5888 6.41211 12.3899 6.41211Z" fill="white"/>
<path d="M12.3899 10.4258H6.38989C6.19098 10.4258 6.00021 10.5048 5.85956 10.6455C5.71891 10.7861 5.63989 10.9769 5.63989 11.1758C5.63989 11.3747 5.71891 11.5655 5.85956 11.7061C6.00021 11.8468 6.19098 11.9258 6.38989 11.9258H12.3899C12.5888 11.9258 12.7796 11.8468 12.9202 11.7061C13.0609 11.5655 13.1399 11.3747 13.1399 11.1758C13.1399 10.9769 13.0609 10.7861 12.9202 10.6455C12.7796 10.5048 12.5888 10.4258 12.3899 10.4258Z" fill="white"/>
<path d="M12.3899 14.5273H6.38989C6.19098 14.5273 6.00021 14.6064 5.85956 14.747C5.71891 14.8877 5.63989 15.0784 5.63989 15.2773C5.63989 15.4763 5.71891 15.667 5.85956 15.8077C6.00021 15.9483 6.19098 16.0273 6.38989 16.0273H12.3899C12.5888 16.0273 12.7796 15.9483 12.9202 15.8077C13.0609 15.667 13.1399 15.4763 13.1399 15.2773C13.1399 15.0784 13.0609 14.8877 12.9202 14.747C12.7796 14.6064 12.5888 14.5273 12.3899 14.5273Z" fill="white"/>
<path d="M19.4025 0.75H4.59747C4.21272 0.750981 3.83194 0.827861 3.47695 0.976234C3.12196 1.12461 2.79973 1.34156 2.52871 1.61466C2.2577 1.88777 2.04323 2.21166 1.89759 2.56778C1.75195 2.9239 1.678 3.30525 1.67997 3.69V21.9825C1.67948 22.1702 1.72896 22.3547 1.82334 22.5169C1.91771 22.6792 2.05357 22.8134 2.21697 22.9058C2.38038 22.9982 2.56542 23.0454 2.75311 23.0426C2.94081 23.0399 3.12437 22.9872 3.28497 22.89L6.04497 21.2325C6.08661 21.2066 6.13467 21.1928 6.18372 21.1928C6.23277 21.1928 6.28083 21.2066 6.32247 21.2325L9.38997 23.07C9.55131 23.1728 9.73865 23.2275 9.92997 23.2275C10.1225 23.2265 10.3113 23.1748 10.4775 23.0775L13.56 21.2325C13.6016 21.2066 13.6497 21.1928 13.6987 21.1928C13.7478 21.1928 13.7958 21.2066 13.8375 21.2325L16.5825 22.89C16.7436 22.9857 16.9276 23.0363 17.115 23.0363C17.3024 23.0363 17.4863 22.9857 17.6475 22.89C17.8088 22.7977 17.943 22.6646 18.0365 22.5039C18.1299 22.3433 18.1794 22.1609 18.18 21.975V9.33H20.535C21.0078 9.32803 21.4606 9.13933 21.795 8.805C22.1293 8.47068 22.318 8.0178 22.32 7.545V3.69C22.3219 3.30525 22.248 2.9239 22.1024 2.56778C21.9567 2.21166 21.7422 1.88777 21.4712 1.61466C21.2002 1.34156 20.878 1.12461 20.523 0.976234C20.168 0.827861 19.7872 0.750981 19.4025 0.75ZM16.68 21.195L14.61 19.95C14.3342 19.7863 14.0194 19.6999 13.6987 19.6999C13.378 19.6999 13.0632 19.7863 12.7875 19.95L9.93747 21.66L7.09497 19.9425C6.81592 19.7756 6.49658 19.6881 6.17143 19.6894C5.84627 19.6907 5.52765 19.7808 5.24997 19.95L3.17997 21.2025V3.69C3.17698 3.50197 3.21145 3.31522 3.28134 3.14063C3.35124 2.96605 3.45518 2.80712 3.58711 2.6731C3.71903 2.53908 3.87631 2.43265 4.04977 2.36001C4.22323 2.28737 4.40941 2.24998 4.59747 2.25H16.9875C16.7894 2.62732 16.684 3.04637 16.68 3.4725V21.1725V21.195ZM20.82 7.545C20.82 7.62059 20.7899 7.69308 20.7365 7.74653C20.683 7.79997 20.6106 7.83 20.535 7.83H18.18V3.495C18.177 3.33258 18.2064 3.17118 18.2665 3.02026C18.3266 2.86933 18.4162 2.73189 18.53 2.61598C18.6438 2.50007 18.7796 2.408 18.9294 2.34516C19.0792 2.28232 19.24 2.24997 19.4025 2.25C19.7784 2.25 20.139 2.39934 20.4048 2.66518C20.6706 2.93101 20.82 3.29156 20.82 3.6675V7.545Z" fill="white"/>
</svg>
