<svg width="24" height="24" viewBox="0 0 24 24" fill="none" xmlns="http://www.w3.org/2000/svg">
<path d="M12.3906 6.41406H6.39063C6.19171 6.41406 6.00095 6.49308 5.8603 6.63373C5.71964 6.77438 5.64062 6.96515 5.64062 7.16406C5.64062 7.36297 5.71964 7.55374 5.8603 7.69439C6.00095 7.83504 6.19171 7.91406 6.39063 7.91406H12.3906C12.5895 7.91406 12.7803 7.83504 12.921 7.69439C13.0616 7.55374 13.1406 7.36297 13.1406 7.16406C13.1406 6.96515 13.0616 6.77438 12.921 6.63373C12.7803 6.49308 12.5895 6.41406 12.3906 6.41406Z" fill="white"/>
<path d="M12.3906 10.4258H6.39063C6.19171 10.4258 6.00095 10.5048 5.8603 10.6455C5.71964 10.7861 5.64062 10.9769 5.64062 11.1758C5.64062 11.3747 5.71964 11.5655 5.8603 11.7061C6.00095 11.8468 6.19171 11.9258 6.39063 11.9258H12.3906C12.5895 11.9258 12.7803 11.8468 12.921 11.7061C13.0616 11.5655 13.1406 11.3747 13.1406 11.1758C13.1406 10.9769 13.0616 10.7861 12.921 10.6455C12.7803 10.5048 12.5895 10.4258 12.3906 10.4258Z" fill="white"/>
<path d="M12.3906 14.5273H6.39063C6.19171 14.5273 6.00095 14.6064 5.8603 14.747C5.71964 14.8877 5.64062 15.0784 5.64062 15.2773C5.64062 15.4763 5.71964 15.667 5.8603 15.8077C6.00095 15.9483 6.19171 16.0273 6.39063 16.0273H12.3906C12.5895 16.0273 12.7803 15.9483 12.921 15.8077C13.0616 15.667 13.1406 15.4763 13.1406 15.2773C13.1406 15.0784 13.0616 14.8877 12.921 14.747C12.7803 14.6064 12.5895 14.5273 12.3906 14.5273Z" fill="white"/>
<path d="M19.4022 0.75H4.59723C4.21248 0.750981 3.8317 0.827861 3.47671 0.976234C3.12172 1.12461 2.79948 1.34156 2.52847 1.61466C2.25746 1.88777 2.04299 2.21166 1.89735 2.56778C1.7517 2.9239 1.67775 3.30525 1.67973 3.69V21.9825C1.67924 22.1702 1.72872 22.3547 1.82309 22.5169C1.91747 22.6792 2.05333 22.8134 2.21673 22.9058C2.38013 22.9982 2.56518 23.0454 2.75287 23.0426C2.94056 23.0399 3.12413 22.9872 3.28473 22.89L6.04473 21.2325C6.08636 21.2066 6.13443 21.1928 6.18348 21.1928C6.23252 21.1928 6.28059 21.2066 6.32223 21.2325L9.38973 23.07C9.55107 23.1728 9.7384 23.2275 9.92973 23.2275C10.1222 23.2265 10.3111 23.1748 10.4772 23.0775L13.5597 21.2325C13.6014 21.2066 13.6494 21.1928 13.6985 21.1928C13.7475 21.1928 13.7956 21.2066 13.8372 21.2325L16.5822 22.89C16.7434 22.9857 16.9273 23.0363 17.1147 23.0363C17.3021 23.0363 17.4861 22.9857 17.6472 22.89C17.8086 22.7977 17.9427 22.6646 18.0362 22.5039C18.1297 22.3433 18.1792 22.1609 18.1797 21.975V9.33H20.5347C21.0075 9.32803 21.4604 9.13933 21.7947 8.805C22.1291 8.47068 22.3178 8.0178 22.3197 7.545V3.69C22.3217 3.30525 22.2477 2.9239 22.1021 2.56778C21.9565 2.21166 21.742 1.88777 21.471 1.61466C21.2 1.34156 20.8777 1.12461 20.5227 0.976234C20.1678 0.827861 19.787 0.750981 19.4022 0.75ZM16.6797 21.195L14.6097 19.95C14.334 19.7863 14.0192 19.6999 13.6985 19.6999C13.3778 19.6999 13.063 19.7863 12.7872 19.95L9.93723 21.66L7.09473 19.9425C6.81568 19.7756 6.49634 19.6881 6.17118 19.6894C5.84603 19.6907 5.52741 19.7808 5.24973 19.95L3.17973 21.2025V3.69C3.17674 3.50197 3.2112 3.31522 3.2811 3.14063C3.351 2.96605 3.45494 2.80712 3.58686 2.6731C3.71879 2.53908 3.87606 2.43265 4.04952 2.36001C4.22299 2.28737 4.40917 2.24998 4.59723 2.25H16.9872C16.7892 2.62732 16.6838 3.04637 16.6797 3.4725V21.1725V21.195ZM20.8197 7.545C20.8197 7.62059 20.7897 7.69308 20.7363 7.74653C20.6828 7.79997 20.6103 7.83 20.5347 7.83H18.1797V3.495C18.1767 3.33258 18.2061 3.17118 18.2662 3.02026C18.3263 2.86933 18.4159 2.73189 18.5297 2.61598C18.6436 2.50007 18.7793 2.408 18.9291 2.34516C19.0789 2.28232 19.2398 2.24997 19.4022 2.25C19.7782 2.25 20.1387 2.39934 20.4046 2.66518C20.6704 2.93101 20.8197 3.29156 20.8197 3.6675V7.545Z" fill="white"/>
</svg>
