<svg width="70" height="70" viewBox="0 0 70 70" fill="none" xmlns="http://www.w3.org/2000/svg">
<path d="M44.6881 23.5064C40.8241 23.5064 37.6881 20.3704 37.6881 16.5064V1.40039H14.4061C12.0821 1.40039 10.2061 3.27639 10.2061 5.60039V64.4004C10.2061 66.7244 12.0961 68.6004 14.4061 68.6004H55.5941C57.9181 68.6004 59.7941 66.7244 59.7941 64.4004V23.5064H44.6881ZM32.8021 30.7304L40.1801 38.1084L48.2721 30.0164C48.8181 29.4704 49.7001 29.4704 50.2461 30.0164C50.7921 30.5624 50.7921 31.4584 50.2461 32.0044L41.1741 41.0764C40.6281 41.6224 39.7321 41.6224 39.1861 41.0764L31.8081 33.6984L19.8521 45.6544C19.5861 45.9344 19.2221 46.0604 18.8721 46.0604C18.5081 46.0604 18.1581 45.9344 17.8781 45.6544C17.3321 45.1084 17.3321 44.2264 17.8781 43.6804L30.8281 30.7304C31.3741 30.1844 32.2561 30.1844 32.8021 30.7304ZM18.4941 16.5484C16.4753 14.8404 16.9681 9.80879 22.0081 9.54839V8.49839H23.3381V9.56239C24.8781 9.68839 26.3341 10.2344 27.7201 11.1584L26.3481 13.1184C25.4241 12.4464 24.4161 12.0264 23.3381 11.8864V15.8484C23.9653 15.8484 26.0275 16.5736 26.9641 17.3884C28.9605 19.0894 28.7351 24.1476 23.3381 24.4584V25.9704H22.0081V24.4444C20.0761 24.2624 18.3261 23.4784 16.8001 22.1484L18.3541 20.3004C19.5161 21.3364 20.7341 21.9384 22.0081 22.1484V18.0464C20.4121 17.6684 19.2501 17.1644 18.4941 16.5484ZM21.9381 63.0004H15.8061V50.3864H21.9381V63.0004ZM32.6901 63.0004H26.5581V47.7264H32.6901V63.0004ZM43.4421 63.0004H37.3101V54.9644H43.4421V63.0004ZM54.194 63.0004H48.0621V40.6284H54.194V63.0004ZM23.3381 18.4244V22.2044C25.8819 21.9454 26.7443 19.3176 23.3381 18.4244ZM22.0081 11.8164C19.9949 11.9508 19.4405 13.7288 20.3701 14.6584C20.6781 14.9524 21.2241 15.2044 22.0081 15.4564V11.8164Z" fill="#F0FF00"/>
<path d="M44.6883 20.707H59.4163C59.2063 20.259 58.9263 19.839 58.5623 19.475C40.8145 1.72717 41.5943 2.27737 40.4883 1.79297V16.507C40.4883 18.831 42.3643 20.707 44.6883 20.707Z" fill="#F0FF00"/>
</svg>
