<svg width="22" height="22" viewBox="0 0 22 22" fill="none" xmlns="http://www.w3.org/2000/svg">
<path d="M7.33301 5.27051C6.95717 5.27051 6.64551 4.95884 6.64551 4.58301V1.83301C6.64551 1.45717 6.95717 1.14551 7.33301 1.14551C7.70884 1.14551 8.02051 1.45717 8.02051 1.83301V4.58301C8.02051 4.95884 7.70884 5.27051 7.33301 5.27051Z" fill="#949494"/>
<path d="M14.667 5.27051C14.2912 5.27051 13.9795 4.95884 13.9795 4.58301V1.83301C13.9795 1.45717 14.2912 1.14551 14.667 1.14551C15.0428 1.14551 15.3545 1.45717 15.3545 1.83301V4.58301C15.3545 4.95884 15.0428 5.27051 14.667 5.27051Z" fill="#949494"/>
<path d="M7.79167 13.2911C7.6725 13.2911 7.55333 13.2636 7.44333 13.2178C7.32417 13.172 7.2325 13.1078 7.14083 13.0253C6.97583 12.8511 6.875 12.622 6.875 12.3745C6.875 12.2553 6.9025 12.1361 6.94833 12.0261C6.99417 11.9161 7.05833 11.8153 7.14083 11.7236C7.2325 11.6411 7.32417 11.577 7.44333 11.5311C7.77333 11.3936 8.18583 11.467 8.4425 11.7236C8.6075 11.8978 8.70833 12.1361 8.70833 12.3745C8.70833 12.4295 8.69917 12.4936 8.69 12.5578C8.68083 12.6128 8.6625 12.6678 8.635 12.7228C8.61667 12.7778 8.58917 12.8328 8.5525 12.8878C8.525 12.9336 8.47917 12.9795 8.4425 13.0253C8.26833 13.1903 8.03 13.2911 7.79167 13.2911Z" fill="#949494"/>
<path d="M10.9997 13.2913C10.8805 13.2913 10.7613 13.2638 10.6513 13.218C10.5322 13.1721 10.4405 13.108 10.3488 13.0255C10.1838 12.8513 10.083 12.6221 10.083 12.3746C10.083 12.2555 10.1105 12.1363 10.1563 12.0263C10.2022 11.9163 10.2663 11.8155 10.3488 11.7238C10.4405 11.6413 10.5322 11.5771 10.6513 11.5313C10.9813 11.3846 11.3938 11.4671 11.6505 11.7238C11.8155 11.898 11.9163 12.1363 11.9163 12.3746C11.9163 12.4296 11.9072 12.4938 11.898 12.558C11.8888 12.613 11.8705 12.668 11.843 12.723C11.8247 12.778 11.7972 12.833 11.7605 12.888C11.733 12.9338 11.6872 12.9796 11.6505 13.0255C11.4763 13.1905 11.238 13.2913 10.9997 13.2913Z" fill="#949494"/>
<path d="M14.2087 13.2913C14.0895 13.2913 13.9703 13.2638 13.8603 13.218C13.7412 13.1721 13.6495 13.108 13.5578 13.0255C13.5212 12.9796 13.4845 12.9338 13.4478 12.888C13.4112 12.833 13.3837 12.778 13.3653 12.723C13.3378 12.668 13.3195 12.613 13.3103 12.558C13.3012 12.4938 13.292 12.4296 13.292 12.3746C13.292 12.1363 13.3928 11.898 13.5578 11.7238C13.6495 11.6413 13.7412 11.5771 13.8603 11.5313C14.1995 11.3846 14.6028 11.4671 14.8595 11.7238C15.0245 11.898 15.1253 12.1363 15.1253 12.3746C15.1253 12.4296 15.1162 12.4938 15.107 12.558C15.0978 12.613 15.0795 12.668 15.052 12.723C15.0337 12.778 15.0062 12.833 14.9695 12.888C14.942 12.9338 14.8962 12.9796 14.8595 13.0255C14.6853 13.1905 14.447 13.2913 14.2087 13.2913Z" fill="#949494"/>
<path d="M7.79167 16.4995C7.6725 16.4995 7.55333 16.4721 7.44333 16.4263C7.33333 16.3804 7.2325 16.3162 7.14083 16.2337C6.97583 16.0595 6.875 15.8212 6.875 15.5829C6.875 15.4637 6.9025 15.3445 6.94833 15.2345C6.99417 15.1153 7.05833 15.0146 7.14083 14.9321C7.48 14.5929 8.10333 14.5929 8.4425 14.9321C8.6075 15.1063 8.70833 15.3445 8.70833 15.5829C8.70833 15.8212 8.6075 16.0595 8.4425 16.2337C8.26833 16.3987 8.03 16.4995 7.79167 16.4995Z" fill="#949494"/>
<path d="M10.9997 16.4995C10.7613 16.4995 10.523 16.3987 10.3488 16.2337C10.1838 16.0595 10.083 15.8212 10.083 15.5829C10.083 15.4637 10.1105 15.3445 10.1563 15.2345C10.2022 15.1153 10.2663 15.0146 10.3488 14.9321C10.688 14.5929 11.3113 14.5929 11.6505 14.9321C11.733 15.0146 11.7972 15.1153 11.843 15.2345C11.8888 15.3445 11.9163 15.4637 11.9163 15.5829C11.9163 15.8212 11.8155 16.0595 11.6505 16.2337C11.4763 16.3987 11.238 16.4995 10.9997 16.4995Z" fill="#949494"/>
<path d="M14.2087 16.4992C13.9703 16.4992 13.732 16.3983 13.5578 16.2333C13.4753 16.1508 13.4112 16.05 13.3653 15.9308C13.3195 15.8208 13.292 15.7017 13.292 15.5825C13.292 15.4633 13.3195 15.3442 13.3653 15.2342C13.4112 15.115 13.4753 15.0142 13.5578 14.9317C13.7687 14.7208 14.0895 14.62 14.3828 14.6842C14.447 14.6933 14.502 14.7117 14.557 14.7392C14.612 14.7575 14.667 14.785 14.722 14.8217C14.7678 14.8492 14.8137 14.895 14.8595 14.9317C15.0245 15.1058 15.1253 15.3442 15.1253 15.5825C15.1253 15.8208 15.0245 16.0592 14.8595 16.2333C14.6853 16.3983 14.447 16.4992 14.2087 16.4992Z" fill="#949494"/>
<path d="M18.7913 9.01953H3.20801C2.83217 9.01953 2.52051 8.70786 2.52051 8.33203C2.52051 7.9562 2.83217 7.64453 3.20801 7.64453H18.7913C19.1672 7.64453 19.4788 7.9562 19.4788 8.33203C19.4788 8.70786 19.1672 9.01953 18.7913 9.01953Z" fill="#949494"/>
<path d="M14.6667 20.8538H7.33333C3.9875 20.8538 2.0625 18.9288 2.0625 15.583V7.79134C2.0625 4.44551 3.9875 2.52051 7.33333 2.52051H14.6667C18.0125 2.52051 19.9375 4.44551 19.9375 7.79134V15.583C19.9375 18.9288 18.0125 20.8538 14.6667 20.8538ZM7.33333 3.89551C4.71167 3.89551 3.4375 5.16967 3.4375 7.79134V15.583C3.4375 18.2047 4.71167 19.4788 7.33333 19.4788H14.6667C17.2883 19.4788 18.5625 18.2047 18.5625 15.583V7.79134C18.5625 5.16967 17.2883 3.89551 14.6667 3.89551H7.33333Z" fill="#949494"/>
</svg>
