<svg width="14" height="14" viewBox="0 0 14 14" fill="none" xmlns="http://www.w3.org/2000/svg">
<path d="M6.97266 13.9453C3.16504 13.9453 0 10.7803 0 6.97266C0 3.1582 3.1582 0 6.96582 0C10.7803 0 13.9453 3.1582 13.9453 6.97266C13.9453 10.7803 10.7871 13.9453 6.97266 13.9453ZM6.20703 10.3154C6.43945 10.3154 6.6377 10.2061 6.78125 9.98047L9.99414 4.92188C10.0762 4.77832 10.165 4.62109 10.165 4.4707C10.165 4.14941 9.88477 3.94434 9.58398 3.94434C9.40625 3.94434 9.22852 4.05371 9.09863 4.25879L6.17969 8.94824L4.79199 7.15723C4.62109 6.93164 4.4707 6.87012 4.27246 6.87012C3.96484 6.87012 3.72559 7.12305 3.72559 7.43066C3.72559 7.58789 3.78711 7.73828 3.88965 7.875L5.60547 9.98047C5.7832 10.2197 5.97461 10.3154 6.20703 10.3154Z" fill="#0A5FFF"/>
</svg>
