<svg width="80" height="80" viewBox="0 0 80 80" fill="none" xmlns="http://www.w3.org/2000/svg">
<g clip-path="url(#clip0_415_22494)">
<path d="M36.6657 76.614C16.4497 76.614 0 60.165 0 39.9489C0 19.7329 16.4497 3.2832 36.6657 3.2832C43.6955 3.2832 50.5349 5.28631 56.4448 9.07953C57.605 9.82658 57.945 11.3732 57.1979 12.5365C56.4484 13.6997 54.9049 14.036 53.7416 13.2896C48.6417 10.0127 42.7355 8.28305 36.6657 8.28305C19.2059 8.28305 4.99984 22.4891 4.99984 39.9489C4.99984 57.4081 19.2059 71.6142 36.6657 71.6142C54.1249 71.6142 68.331 57.4081 68.331 39.9489C68.331 38.9053 68.2809 37.872 68.1845 36.8558C68.0515 35.4789 69.0579 34.2588 70.4311 34.1257C71.8111 33.9988 73.0275 34.9991 73.1612 36.3724C73.2741 37.5491 73.3308 38.7423 73.3308 39.9489C73.3308 60.165 56.8818 76.614 36.6657 76.614Z" fill="#0A5FFF"/>
<path d="M40.8322 48.2825C40.1926 48.2825 39.5523 48.039 39.0659 47.5495L24.0664 32.55C23.0899 31.5728 23.0899 29.9896 24.0664 29.0131C25.0429 28.0366 26.6261 28.0366 27.6026 29.0131L40.8359 42.2463L75.731 7.35056C76.7082 6.37403 78.2914 6.37403 79.2679 7.35056C80.2444 8.3271 80.2444 9.9103 79.2679 10.8868L42.6022 47.5526C42.1121 48.039 41.4725 48.2825 40.8322 48.2825Z" fill="#0A5FFF"/>
</g>
<defs>
<clipPath id="clip0_415_22494">
<rect width="80" height="80" fill="white"/>
</clipPath>
</defs>
</svg>
