<svg width="22" height="22" viewBox="0 0 22 22" fill="none" xmlns="http://www.w3.org/2000/svg">
<path fill-rule="evenodd" clip-rule="evenodd" d="M4.58443 16.121C4.22647 16.479 4.22653 17.0594 4.58454 17.4173C4.94256 17.7753 5.52295 17.7753 5.8809 17.4172L11.0007 12.2965L16.1209 17.4168C16.4789 17.7747 17.0593 17.7747 17.4173 17.4168C17.7752 17.0588 17.7752 16.4784 17.4173 16.1204L12.297 11.0001L17.4169 5.87925C17.7748 5.52123 17.7748 4.94084 17.4167 4.58289C17.0588 4.22493 16.4783 4.22498 16.1204 4.583L11.0005 9.70375L5.88028 4.58344C5.5223 4.22546 4.9419 4.22546 4.58392 4.58344C4.22593 4.94142 4.22593 5.52182 4.58392 5.87981L9.70435 11.0002L4.58443 16.121Z" fill="white"/>
</svg>
