<svg width="70" height="70" viewBox="0 0 70 70" fill="none" xmlns="http://www.w3.org/2000/svg">
<path d="M3.74633 1.93555H5.24266V9.42829H3.74633C1.6763 9.42829 0 7.74072 0 5.68195C0 4.64685 0.416259 3.71312 1.09126 3.0268C1.77752 2.35181 2.71132 1.93555 3.74633 1.93555ZM66.2537 1.93555H64.7573V9.42829H66.2537C67.2887 9.42829 68.2225 9.01203 68.9087 8.32577C69.5837 7.65077 70 6.71697 70 5.68195C70 3.61185 68.3237 1.93555 66.2537 1.93555ZM7.24526 48.0397C7.24526 50.6048 8.5728 52.9899 10.7441 54.34L13.9617 56.3312V1.93555H7.24526V48.0397ZM24.3684 28.2052L23.3783 25.1789C22.467 26.8327 21.9158 28.644 21.7695 30.5453L24.1771 28.8015C24.3571 28.6665 24.4359 28.4302 24.3684 28.2052ZM28.3848 40.5582H25.2572C26.5284 41.942 28.081 43.0445 29.8248 43.7758L28.891 40.9294C28.8235 40.7045 28.621 40.5582 28.3848 40.5582ZM28.9473 38.6344L30.8261 36.0468C30.7361 35.878 30.6461 35.7206 30.5899 35.5405L29.3523 31.7266C29.296 31.5466 29.2623 31.3666 29.2398 31.1753L25.7522 30.039C25.6396 30.1853 25.5046 30.309 25.3471 30.4216L21.8257 32.9866C22.0395 35.0229 22.7033 36.9131 23.7271 38.5669L28.3847 38.5556C28.5873 38.5556 28.7673 38.5894 28.9473 38.6344ZM26.371 28.1377L29.8698 29.274C29.9936 29.139 30.1173 29.004 30.2748 28.8915L33.5149 26.5402C33.6612 26.4277 33.83 26.3714 33.9874 26.2927V22.2876C33.83 22.2088 33.6612 22.1525 33.5149 22.04L29.836 19.3624C27.9123 20.1837 26.1909 21.455 24.8071 23.1088L26.2697 27.5865C26.3259 27.7665 26.3597 27.9577 26.371 28.1377ZM35.315 20.42L37.8013 18.6086C36.9013 18.4174 35.9675 18.3049 35 18.3049C34.0437 18.3049 33.1099 18.4174 32.1987 18.6086L34.6962 20.42C34.8763 20.555 35.1237 20.555 35.315 20.42ZM34.685 28.1602L31.4449 30.5116C31.2536 30.6466 31.1861 30.8828 31.2536 31.1078L32.4912 34.9218C32.5587 35.1355 32.7612 35.2818 32.9974 35.2818H37.0026C37.2388 35.2818 37.4413 35.1355 37.5088 34.9218L38.7464 31.1078C38.8139 30.8941 38.7351 30.6466 38.5551 30.5116L35.3151 28.1602C35.1237 28.0252 34.8763 28.0252 34.685 28.1602ZM37.0026 37.2843H32.9974C32.8061 37.2843 32.6262 37.2619 32.4461 37.2168L30.5673 39.8156C30.6574 39.9732 30.7361 40.1307 30.8036 40.3107L32.1649 44.5296C33.0761 44.7321 34.0212 44.8446 34.9887 44.8446H35C35.9675 44.8446 36.9126 44.7321 37.8239 44.5296L39.1964 40.3107C39.2527 40.1307 39.3426 39.9619 39.4327 39.8044L37.5539 37.2168C37.3738 37.2619 37.1938 37.2843 37.0026 37.2843ZM41.0977 40.9294L40.164 43.7983C41.7277 43.1458 43.1565 42.1895 44.3829 40.9632C44.5066 40.8282 44.6191 40.6932 44.7428 40.5582L41.604 40.5695C41.379 40.5695 41.1765 40.7157 41.0977 40.9294ZM35.99 22.2988V26.2927C36.1588 26.3602 36.3388 26.4277 36.4851 26.5402L39.7252 28.8915C39.8827 29.004 40.0177 29.139 40.1414 29.2853L43.629 28.1377C43.6403 27.9577 43.6741 27.7777 43.7303 27.5865L45.1929 23.0976C43.8541 21.4888 42.1328 20.1949 40.1751 19.3624L36.4963 22.04C36.3388 22.1525 36.1588 22.2201 35.99 22.2988ZM44.2366 30.039L40.7602 31.1753C40.7377 31.3666 40.704 31.5466 40.6477 31.7266L39.4101 35.5405C39.3539 35.7206 39.2751 35.878 39.1739 36.0468L41.0527 38.6344C41.2327 38.5894 41.4127 38.5669 41.604 38.5669H46.2729C47.3192 36.8793 47.9829 34.9893 48.1967 32.9979L44.6529 30.4216C44.4953 30.309 44.3603 30.1853 44.2366 30.039ZM45.8229 28.8128L48.2192 30.5453C48.0617 28.6103 47.5104 26.7989 46.6217 25.1789L45.6316 28.2165C45.5641 28.4302 45.6429 28.6778 45.8229 28.8128ZM54.0244 1.93555V57.5801L38.9039 66.9516C36.5076 68.4367 33.4924 68.4367 31.0962 66.9516L15.9643 57.5801V1.93555H54.0244ZM50.2668 31.5803C50.2668 23.1651 43.4153 16.3136 35 16.3023C30.2186 16.3023 25.7972 18.4849 22.8946 22.2763C20.8245 24.9651 19.7332 28.1828 19.7332 31.5803C19.7332 31.9179 19.7445 32.2554 19.767 32.5816C20.2844 40.5807 26.9672 46.8471 34.9887 46.8471H35C39.0839 46.8471 42.9091 45.2609 45.8004 42.3695C48.6805 39.4894 50.2668 35.653 50.2668 31.5803ZM56.027 1.93555V56.3312L59.2446 54.34C61.4272 52.9899 62.7547 50.6048 62.7547 48.0397V1.93555H56.027Z" fill="#F0FF00"/>
</svg>
