<svg width="30" height="30" viewBox="0 0 30 30" fill="none" xmlns="http://www.w3.org/2000/svg">
<path d="M19.9278 6.53123C19.9205 6.56181 19.9167 6.59379 19.9168 6.62666C19.9188 6.91871 19.881 7.23082 19.815 7.56412C19.7485 7.89969 19.6492 8.26897 19.5309 8.66711C19.4705 8.87044 19.5759 9.08435 19.7687 9.15847C19.9424 9.24823 20.9867 9.87246 19.1891 11.1201C18.9796 11.2656 18.8603 11.5698 18.6991 11.9808C18.3637 12.8363 17.7947 14.2873 16.2353 14.7361C16.033 14.7943 15.9408 14.913 15.826 15.0608C15.7114 15.2081 15.5448 15.4227 15.0001 15.4227C14.4553 15.4227 14.2887 15.2081 14.1742 15.0608C14.0594 14.913 13.9672 14.7943 13.7648 14.7361C12.2054 14.2873 11.6365 12.8363 11.301 11.9808C11.1399 11.5698 11.0205 11.2656 10.8111 11.1201C8.86424 9.76893 10.2507 9.14892 10.2546 9.14712L10.0906 8.78296L10.2554 9.1483C10.4439 9.06082 10.5323 8.842 10.4635 8.64767C10.2825 8.03257 10.2088 7.49429 10.1399 6.99068C10.1171 6.82403 10.0947 6.66092 10.0802 6.56548C10.0766 6.54119 10.0709 6.51773 10.0634 6.49524L9.30002 6.70272C9.32584 6.87345 9.34134 6.98618 9.35698 7.10058C9.41975 7.55865 9.48612 8.04357 9.62681 8.59147C9.02736 8.99508 7.93578 10.0962 10.3654 11.7824C10.3774 11.7907 10.4584 11.9971 10.5677 12.2758C10.9568 13.2683 11.6168 14.9515 13.5513 15.5082C13.5986 15.5218 13.5255 15.5223 13.5522 15.5567C13.7641 15.8294 14.0724 16.2262 15.0001 16.2262C15.9277 16.2262 16.2361 15.8294 16.4479 15.5567C16.4746 15.5223 16.4015 15.5218 16.4488 15.5082C18.3833 14.9515 19.0433 13.2683 19.4325 12.2758C19.5417 11.9971 19.6227 11.7907 19.6347 11.7824C22.0601 10.099 20.9766 8.99895 20.3765 8.59362C20.4597 8.29603 20.532 8.00655 20.5885 7.72108C20.6563 7.3792 20.6982 7.0529 20.705 6.73967L20.6747 6.73421L19.9278 6.53123Z" fill="#949494"/>
<path fill-rule="evenodd" clip-rule="evenodd" d="M15.0003 0C15.3322 0 15.6012 0.233638 15.6012 0.521809C15.6012 0.633299 15.561 0.736623 15.4924 0.821399C15.3837 0.955796 15.2039 1.04369 15.0003 1.04369C14.7968 1.04369 14.6169 0.955796 14.5082 0.821399C14.4397 0.736623 14.3994 0.633299 14.3994 0.521809C14.3994 0.233638 14.6685 0 15.0003 0Z" fill="#949494"/>
<path fill-rule="evenodd" clip-rule="evenodd" d="M14.812 17.9782C13.715 17.9431 12.6434 17.601 12.0394 16.952C12.2325 17.8495 12.8027 19.5657 14.4158 20.413C14.5288 20.4721 14.5807 20.5996 14.5468 20.7156C14.6862 20.6572 14.8394 20.6249 15 20.6249C15.1607 20.6249 15.3138 20.6572 15.4532 20.7156C15.4193 20.5996 15.4712 20.4721 15.5842 20.413C17.1973 19.5657 17.7674 17.8493 17.9605 16.9519C17.2877 17.675 16.0342 18.0172 14.812 17.9782ZM11.4197 16.4912L6.12758 18.2811C4.84534 18.7148 4.0166 19.6466 4.0166 20.89V30H8.07751V26.7545L8.86631 30H21.2602L22.049 26.7545V30H25.9834V20.89C25.9834 19.6466 25.1546 18.7148 23.8724 18.2811L18.5803 16.4912C18.5261 16.9611 18.1185 19.6754 15.8354 20.8747C15.81 20.888 15.7834 20.8968 15.7565 20.9015C16.0113 21.1167 16.1731 21.4384 16.1731 21.798C16.1731 22.6202 16.1676 23.4424 16.168 24.2646H15.3637L15.1807 22.9572C15.1218 22.9663 15.0614 22.9711 15 22.9711C14.3521 22.9711 13.8269 22.4459 13.8269 21.798C13.8269 21.4384 13.9887 21.1168 14.2434 20.9015C14.2166 20.8968 14.19 20.888 14.1646 20.8748C11.8815 19.6754 11.4739 16.9611 11.4197 16.4912ZM20.0575 20.7159H23.0626V23.0454C23.0626 23.8718 22.3865 24.5479 21.5601 24.5479C20.7337 24.5479 20.0575 23.8718 20.0575 23.0454V20.7159Z" fill="#949494"/>
<path d="M18.7223 13.715C18.7223 13.4931 18.5425 13.3132 18.3205 13.3132C18.0986 13.3132 17.9188 13.4931 17.9188 13.715V18.7504C17.9188 18.9723 18.0986 19.1522 18.3205 19.1522C18.5425 19.1522 18.7223 18.9723 18.7223 18.7504V13.715ZM11.2773 18.7504C11.2773 18.9723 11.4572 19.1522 11.6791 19.1522C11.901 19.1522 12.0809 18.9723 12.0809 18.7504V13.7113C12.0809 13.4894 11.901 13.3096 11.6791 13.3096C11.4572 13.3096 11.2773 13.4894 11.2773 13.7113V18.7504Z" fill="#949494"/>
<path d="M19.6654 21.4919C19.5174 21.4919 19.3975 21.6119 19.3975 21.7598C19.3975 21.9077 19.5174 22.0277 19.6654 22.0277H23.5359C23.6838 22.0277 23.8038 21.9077 23.8038 21.7598C23.8038 21.6119 23.6838 21.4919 23.5359 21.4919H19.6654Z" fill="#949494"/>
<path fill-rule="evenodd" clip-rule="evenodd" d="M19.8843 7.56418C19.9513 7.23089 19.9897 6.91877 19.9877 6.62673C19.9875 6.59385 19.9913 6.56188 19.9987 6.53129C14.624 5.27445 11.1046 6.13599 9.99219 6.49531C9.99987 6.51773 10.0056 6.54126 10.0093 6.56555C10.024 6.66098 10.0467 6.8241 10.0698 6.99075C10.1107 7.28591 10.1534 7.59297 10.2186 7.92038C11.3602 8.2815 13.7574 7.23719 14.939 7.23511C16.1661 7.23304 18.6801 8.36281 19.8163 7.86986C19.8416 7.76516 19.8645 7.66322 19.8843 7.56418Z" fill="#949494"/>
<path fill-rule="evenodd" clip-rule="evenodd" d="M20.3879 6.0721V3.40886C20.3879 3.40886 20.5192 2.18891 18.5938 1.5235L15.4922 0.821411C15.3835 0.955808 15.2036 1.0437 15.0001 1.0437C14.7966 1.0437 14.6167 0.955808 14.508 0.821411L11.4064 1.5235C9.48096 2.18891 9.61224 3.40886 9.61224 3.40886V6.05507L9.82761 5.98552C10.9451 5.62461 12.1973 5.44378 13.3646 5.3725C15.6242 5.23457 17.9207 5.49513 20.1208 6.0096L20.3879 6.0721Z" fill="#949494"/>
</svg>
