<svg width="28" height="28" viewBox="0 0 28 28" fill="none" xmlns="http://www.w3.org/2000/svg">
<path d="M21.7993 10.8934L20.0729 11.5908C19.8506 11.6809 19.617 11.7264 19.379 11.7264C18.8689 11.7264 18.3754 11.5112 18.0263 11.1358C17.6789 10.763 17.4995 10.2564 17.5354 9.74628L17.6658 7.88953L16.4679 6.46503C16.2019 6.14828 16.0689 5.76065 16.0505 5.3634H4.69914C2.64289 5.3634 0.962891 7.0434 0.962891 9.1084V19.5209C0.962891 21.5859 2.64289 23.2572 4.69914 23.2572H7.54289L7.48164 24.9984C7.46414 25.7072 7.84039 26.3547 8.47039 26.6872C8.74164 26.8272 9.03039 26.8972 9.32789 26.8972C9.71289 26.8972 10.0979 26.7659 10.4216 26.5209L14.7616 23.2572H19.7666C21.8229 23.2572 23.5029 21.5859 23.5029 19.5209V11.582L21.7993 10.8934ZM12.6678 17.0884H8.07489C7.64001 17.0884 7.28739 16.7358 7.28739 16.3009C7.28739 15.866 7.64001 15.5134 8.07489 15.5134H12.6678C13.1026 15.5134 13.4553 15.866 13.4553 16.3009C13.4553 16.7358 13.1026 17.0884 12.6678 17.0884ZM16.7391 13.1107H8.07664C7.64176 13.1107 7.28914 12.758 7.28914 12.3232C7.28914 11.8883 7.64176 11.5357 8.07664 11.5357H16.7391C17.174 11.5357 17.5266 11.8883 17.5266 12.3232C17.5266 12.758 17.174 13.1107 16.7391 13.1107Z" fill="#F6921E"/>
<path d="M22.2547 2.14731L23.5226 4.17643L25.844 4.75481C26.229 4.85106 26.3804 5.31656 26.1257 5.62106L24.5875 7.45331L24.7546 9.83943C24.7826 10.2349 24.3862 10.5237 24.0179 10.3749L21.7997 9.47806L19.5816 10.3749C19.2141 10.5237 18.8169 10.2358 18.8449 9.83943L19.012 7.45331L17.4737 5.62106C17.2182 5.31743 17.3705 4.85106 17.7555 4.75481L20.0769 4.17643L21.3447 2.14731C21.5539 1.81043 22.0447 1.81043 22.2547 2.14731Z" fill="#F6921E"/>
</svg>
