<svg width="50" height="50" viewBox="0 0 50 50" fill="none" xmlns="http://www.w3.org/2000/svg">
<path d="M43.75 47.2657H6.25C4.31137 47.2657 2.73438 45.6887 2.73438 43.75V11.718C2.73438 11.0707 3.25928 10.5461 3.90625 10.5461C4.55322 10.5461 5.07812 11.0707 5.07812 11.718V43.75C5.07812 44.3962 5.60379 44.9219 6.25 44.9219H43.75C44.3962 44.9219 44.9219 44.3962 44.9219 43.75V16.4055C44.9219 15.7582 45.4468 15.2336 46.0938 15.2336C46.7407 15.2336 47.2656 15.7582 47.2656 16.4055V43.75C47.2656 45.6887 45.6886 47.2657 43.75 47.2657Z" fill="#FF073A"/>
<path d="M14.4531 29.2969C10.5759 29.2969 7.42188 26.1425 7.42188 22.2656C7.42188 18.3888 10.5759 15.2344 14.4531 15.2344C18.3304 15.2344 21.4844 18.3888 21.4844 22.2656C21.4844 26.1425 18.3304 29.2969 14.4531 29.2969ZM14.4531 17.5781C11.8683 17.5781 9.76562 19.6808 9.76562 22.2656C9.76562 24.8505 11.8683 26.9531 14.4531 26.9531C17.038 26.9531 19.1406 24.8505 19.1406 22.2656C19.1406 19.6808 17.038 17.5781 14.4531 17.5781Z" fill="#FF073A"/>
<path d="M18.5966 27.581C18.2968 27.581 17.997 27.4666 17.7681 27.2377L13.6246 23.0942C13.4048 22.8745 13.2812 22.5765 13.2812 22.2656V16.4062C13.2812 15.7589 13.8062 15.2344 14.4531 15.2344C15.1001 15.2344 15.625 15.7589 15.625 16.4062V21.7804L19.4252 25.5806C19.883 26.038 19.883 26.7803 19.4252 27.2377C19.1963 27.4666 18.8965 27.581 18.5966 27.581Z" fill="#FF073A"/>
<path d="M41.4062 27.7344H25C24.353 27.7344 23.8281 27.2099 23.8281 26.5625V17.9688C23.8281 17.3214 24.353 16.7969 25 16.7969H41.4062C42.0532 16.7969 42.5781 17.3214 42.5781 17.9688V26.5625C42.5781 27.2099 42.0532 27.7344 41.4062 27.7344ZM26.1719 25.3906H40.2344V19.1406H26.1719V25.3906Z" fill="#FF073A"/>
<path d="M31.25 42.5785H8.59375C7.94678 42.5785 7.42188 42.054 7.42188 41.4066V32.0312C7.42188 31.3839 7.94678 30.8594 8.59375 30.8594C9.24072 30.8594 9.76562 31.3839 9.76562 32.0312V40.2348H31.25C31.897 40.2348 32.4219 40.7593 32.4219 41.4066C32.4219 42.054 31.897 42.5785 31.25 42.5785Z" fill="#FF073A"/>
<path d="M12.7129 42.5781C12.0659 42.5781 11.541 42.0536 11.541 41.4062V37.5C11.541 36.8526 12.0659 36.3281 12.7129 36.3281C13.3599 36.3281 13.8848 36.8526 13.8848 37.5V41.4062C13.8848 42.0536 13.3599 42.5781 12.7129 42.5781Z" fill="#FF073A"/>
<path d="M16.832 42.5781C16.1851 42.5781 15.6602 42.0532 15.6602 41.4062L15.6609 34.375C15.6609 33.7276 16.1858 33.2031 16.8328 33.2031C17.4798 33.2031 18.0047 33.728 18.0047 34.375L18.0039 41.4062C18.0039 42.0536 17.479 42.5781 16.832 42.5781Z" fill="#FF073A"/>
<path d="M20.9521 42.5781C20.3052 42.5781 19.7803 42.0536 19.7803 41.4062V32.0312C19.7803 31.3839 20.3052 30.8594 20.9521 30.8594C21.5991 30.8594 22.124 31.3839 22.124 32.0312V41.4062C22.124 42.0536 21.5991 42.5781 20.9521 42.5781Z" fill="#FF073A"/>
<path d="M25.0713 42.5781C24.4243 42.5781 23.8994 42.0536 23.8994 41.4062V35.1562C23.8994 34.5089 24.4243 33.9844 25.0713 33.9844C25.7183 33.9844 26.2432 34.5089 26.2432 35.1562V41.4062C26.2432 42.0536 25.7183 42.5781 25.0713 42.5781Z" fill="#FF073A"/>
<path d="M29.1904 42.5781C28.5435 42.5781 28.0186 42.0532 28.0186 41.4062L28.0193 32.0312C28.0193 31.3839 28.5442 30.8594 29.1912 30.8594C29.8382 30.8594 30.3631 31.3843 30.3631 32.0312L30.3623 41.4062C30.3623 42.0536 29.8374 42.5781 29.1904 42.5781Z" fill="#FF073A"/>
<path d="M41.4062 33.9844H35.9375C35.2905 33.9844 34.7656 33.4599 34.7656 32.8125C34.7656 32.1651 35.2905 31.6406 35.9375 31.6406H41.4062C42.0532 31.6406 42.5781 32.1651 42.5781 32.8125C42.5781 33.4599 42.0532 33.9844 41.4062 33.9844Z" fill="#FF073A"/>
<path d="M41.4062 38.2812H35.9375C35.2905 38.2812 34.7656 37.7567 34.7656 37.1094C34.7656 36.462 35.2905 35.9375 35.9375 35.9375H41.4062C42.0532 35.9375 42.5781 36.462 42.5781 37.1094C42.5781 37.7567 42.0532 38.2812 41.4062 38.2812Z" fill="#FF073A"/>
<path d="M41.4062 42.5781H35.9375C35.2905 42.5781 34.7656 42.0536 34.7656 41.4062C34.7656 40.7589 35.2905 40.2344 35.9375 40.2344H41.4062C42.0532 40.2344 42.5781 40.7589 42.5781 41.4062C42.5781 42.0536 42.0532 42.5781 41.4062 42.5781Z" fill="#FF073A"/>
<path d="M46.0938 12.8899H3.90625C3.25928 12.8899 2.73438 12.3653 2.73438 11.718V6.25C2.73438 4.31137 4.31137 2.73438 6.25 2.73438H43.75C45.6886 2.73438 47.2656 4.31137 47.2656 6.25V11.718C47.2656 12.3653 46.7407 12.8899 46.0938 12.8899ZM5.07812 10.5461H44.9219V6.25C44.9219 5.60379 44.3962 5.07812 43.75 5.07812H6.25C5.60379 5.07812 5.07812 5.60379 5.07812 6.25V10.5461Z" fill="#FF073A"/>
<path d="M10.1562 8.98438H8.59375C7.94678 8.98438 7.42188 8.45985 7.42188 7.8125C7.42188 7.16515 7.94678 6.64062 8.59375 6.64062H10.1562C10.8032 6.64062 11.3281 7.16515 11.3281 7.8125C11.3281 8.45985 10.8032 8.98438 10.1562 8.98438Z" fill="#FF073A"/>
<path d="M16.4062 8.98438H14.8438C14.1968 8.98438 13.6719 8.45985 13.6719 7.8125C13.6719 7.16515 14.1968 6.64062 14.8438 6.64062H16.4062C17.0532 6.64062 17.5781 7.16515 17.5781 7.8125C17.5781 8.45985 17.0532 8.98438 16.4062 8.98438Z" fill="#FF073A"/>
<path d="M22.6562 8.98438H21.0938C20.4468 8.98438 19.9219 8.45985 19.9219 7.8125C19.9219 7.16515 20.4468 6.64062 21.0938 6.64062H22.6562C23.3032 6.64062 23.8281 7.16515 23.8281 7.8125C23.8281 8.45985 23.3032 8.98438 22.6562 8.98438Z" fill="#FF073A"/>
</svg>
