<svg width="30" height="30" viewBox="0 0 30 30" fill="none" xmlns="http://www.w3.org/2000/svg">
<path d="M18.9763 10.839C18.5733 10.141 18.3985 9.33458 18.4763 8.53239C18.554 7.73021 18.8806 6.97239 19.4101 6.36487C19.9397 5.75735 20.6459 5.3305 21.43 5.14399C22.214 4.95749 23.0368 5.02065 23.7832 5.32465L21.3881 9.01857C21.3443 9.08129 21.319 9.15503 21.315 9.23141C21.3111 9.3078 21.3286 9.38377 21.3656 9.4507C21.4026 9.51764 21.4576 9.57286 21.5244 9.61009C21.5912 9.64732 21.6672 9.66508 21.7436 9.66135L26.155 9.43383C26.045 10.2321 25.6882 10.9761 25.1347 11.5617C24.5811 12.1473 23.8584 12.5454 23.0675 12.7002C22.2767 12.855 21.4573 12.7588 20.7238 12.4251C19.9902 12.0914 19.3793 11.5368 18.9764 10.839H18.9763ZM26.1698 8.61334H26.1816C26.137 8.03515 25.9633 7.47432 25.6733 6.97215C25.3833 6.46997 24.9843 6.03924 24.5058 5.71166C24.5041 5.71494 24.5008 5.71828 24.4991 5.72162L22.5026 8.80266L26.1698 8.61334ZM12.5702 16.5858H14.2559V9.65971H12.5701L12.5702 16.5858ZM6.11742 16.5858H7.80328V10.1995H6.11719L6.11742 16.5858ZM2.89025 16.5858H4.57617V12.2757H2.89008L2.89025 16.5858ZM9.34301 16.5858H11.0289V12.7208H9.34283L9.34301 16.5858ZM3.93979 9.88893L6.91453 7.62504L9.94078 10.2626C10.0145 10.3269 10.1087 10.3627 10.2065 10.3636C10.3042 10.3645 10.3991 10.3305 10.474 10.2676L14.0951 7.21313C14.1781 7.14309 14.2299 7.04293 14.2391 6.93469C14.2483 6.82645 14.2141 6.71899 14.1441 6.63595C14.0741 6.55291 13.9739 6.5011 13.8657 6.4919C13.7574 6.48271 13.65 6.51689 13.5669 6.58693L10.2132 9.41566L7.21518 6.80303C7.14482 6.73539 7.05266 6.69506 6.95525 6.68927C6.85783 6.68348 6.76154 6.71262 6.68367 6.77145L3.44344 9.23959C3.35843 9.30584 3.30303 9.40298 3.28928 9.50987C3.27553 9.61676 3.30454 9.72475 3.37001 9.81036C3.43547 9.89597 3.53209 9.95227 3.63885 9.967C3.74561 9.98174 3.85387 9.95372 3.94008 9.88904L3.93979 9.88893ZM18.3667 15.7654H17.1227C17.0139 15.7654 16.9096 15.8086 16.8327 15.8855C16.7557 15.9624 16.7125 16.0667 16.7125 16.1755C16.7125 16.2843 16.7557 16.3886 16.8327 16.4655C16.9096 16.5425 17.0139 16.5857 17.1227 16.5857H18.3667C18.4755 16.5857 18.5798 16.5425 18.6568 16.4655C18.7337 16.3886 18.7769 16.2843 18.7769 16.1755C18.7769 16.0667 18.7337 15.9624 18.6568 15.8855C18.5798 15.8086 18.4755 15.7654 18.3667 15.7654ZM27.5285 14.0779H19.7736C19.6648 14.0779 19.5605 14.1211 19.4836 14.198C19.4066 14.2749 19.3634 14.3792 19.3634 14.488C19.3634 14.5968 19.4066 14.7011 19.4836 14.778C19.5605 14.855 19.6648 14.8982 19.7736 14.8982H27.5285C27.6373 14.8982 27.7416 14.855 27.8185 14.778C27.8955 14.7011 27.9387 14.5968 27.9387 14.488C27.9387 14.3792 27.8955 14.2749 27.8185 14.198C27.7416 14.1211 27.6373 14.0779 27.5285 14.0779ZM27.5285 15.7654H19.7736C19.6648 15.7654 19.5605 15.8086 19.4836 15.8855C19.4066 15.9624 19.3634 16.0667 19.3634 16.1755C19.3634 16.2843 19.4066 16.3886 19.4836 16.4655C19.5605 16.5425 19.6648 16.5857 19.7736 16.5857H27.5285C27.6373 16.5857 27.7416 16.5425 27.8185 16.4655C27.8955 16.3886 27.9387 16.2843 27.9387 16.1755C27.9387 16.0667 27.8955 15.9624 27.8185 15.8855C27.7416 15.8086 27.6373 15.7654 27.5285 15.7654ZM18.3667 14.0779H17.1227C17.0139 14.0779 16.9096 14.1211 16.8327 14.198C16.7557 14.2749 16.7125 14.3792 16.7125 14.488C16.7125 14.5968 16.7557 14.7011 16.8327 14.778C16.9096 14.855 17.0139 14.8982 17.1227 14.8982H18.3667C18.4755 14.8982 18.5798 14.855 18.6568 14.778C18.7337 14.7011 18.7769 14.5968 18.7769 14.488C18.7769 14.3792 18.7337 14.2749 18.6568 14.198C18.5798 14.1211 18.4755 14.0779 18.3667 14.0779ZM30 4.2334V21.3877C29.9989 21.8217 29.826 22.2376 29.5192 22.5445C29.2123 22.8514 28.7963 23.0243 28.3623 23.0254H16.8604C17.025 24.2442 17.3361 25.4388 17.7871 26.5831H19.3849C19.4937 26.5831 19.598 26.6263 19.6749 26.7032C19.7519 26.7802 19.7951 26.8845 19.7951 26.9933C19.7951 27.102 19.7519 27.2064 19.6749 27.2833C19.598 27.3602 19.4937 27.4034 19.3849 27.4034H10.6168C10.508 27.4034 10.4037 27.3602 10.3268 27.2833C10.2498 27.2064 10.2066 27.102 10.2066 26.9933C10.2066 26.8845 10.2498 26.7802 10.3268 26.7032C10.4037 26.6263 10.508 26.5831 10.6168 26.5831H12.2146C12.6643 25.4385 12.9749 24.244 13.1398 23.0254H1.6377C1.20392 23.0235 0.788428 22.8504 0.481697 22.5437C0.174967 22.2369 0.00183516 21.8214 0 21.3877L0 4.2334C0.0010675 3.79938 0.173953 3.38345 0.480849 3.07655C0.787745 2.76966 1.20368 2.59677 1.6377 2.5957H28.3623C28.7966 2.596 29.2129 2.76864 29.52 3.0757C29.8271 3.38276 29.9997 3.79914 30 4.2334ZM16.0132 20.9126C16.0129 20.8039 15.9696 20.6998 15.8928 20.6229C15.8159 20.546 15.7117 20.5027 15.603 20.5025H14.3988C14.29 20.5025 14.1857 20.5457 14.1087 20.6226C14.0318 20.6995 13.9886 20.8039 13.9886 20.9126C13.9886 21.0214 14.0318 21.1257 14.1087 21.2027C14.1857 21.2796 14.29 21.3228 14.3988 21.3228H15.6029C15.6568 21.3228 15.7101 21.3122 15.7599 21.2916C15.8097 21.271 15.8549 21.2408 15.893 21.2027C15.9311 21.1646 15.9614 21.1194 15.982 21.0696C16.0026 21.0199 16.0132 20.9665 16.0132 20.9126ZM29.1797 4.2334C29.1798 4.12605 29.1587 4.01973 29.1176 3.92053C29.0766 3.82134 29.0164 3.73121 28.9405 3.65532C28.8645 3.57942 28.7744 3.51923 28.6752 3.47821C28.576 3.43719 28.4697 3.41613 28.3623 3.41625H1.6377C1.42112 3.41679 1.21356 3.50305 1.0604 3.65617C0.907234 3.80929 0.820916 4.01682 0.820312 4.2334V18.8016H29.1797V4.2334Z" fill="#949494"/>
</svg>
