<svg width="300" height="159" viewBox="0 0 300 159" fill="none" xmlns="http://www.w3.org/2000/svg">
<g clip-path="url(#clip0_701_8665)">
<rect width="300" height="159" fill="#C5C5C5"/>
<g clip-path="url(#clip1_701_8665)">
<path d="M-972 100C-972 67.0017 -972 50.5025 -961.749 40.2513C-951.497 30 -934.998 30 -902 30H-351H10.5357C15.1142 30 17.4035 30 19.3295 30.214C35.6001 32.0213 48.4442 44.8655 50.2516 61.136C50.4655 63.0621 50.4655 65.3513 50.4655 69.9299C50.4655 74.5084 50.4655 76.7977 50.6795 78.7238C52.4868 94.9943 65.331 107.838 81.6015 109.646C83.5276 109.86 85.8169 109.86 90.3954 109.86H200C232.998 109.86 249.497 109.86 259.749 120.111C270 130.362 270 146.861 270 179.86V1017C270 1050 270 1066.5 259.749 1076.75C249.497 1087 232.998 1087 200 1087H-902C-934.998 1087 -951.497 1087 -961.749 1076.75C-972 1066.5 -972 1050 -972 1017V100Z" fill="#03202F"/>
</g>
</g>
<defs>
<clipPath id="clip0_701_8665">
<rect width="300" height="159" fill="white"/>
</clipPath>
<clipPath id="clip1_701_8665">
<path d="M0 0H300V159H0V0Z" fill="white"/>
</clipPath>
</defs>
</svg>
