<svg width="24" height="24" viewBox="0 0 24 24" fill="none" xmlns="http://www.w3.org/2000/svg">
<path d="M8.4375 14.625H2.8125C1.26169 14.625 0 15.8867 0 17.4375V21.1875C0 22.7383 1.26169 24 2.8125 24H8.4375C9.98831 24 11.25 22.7383 11.25 21.1875V17.4375C11.25 15.8867 9.98831 14.625 8.4375 14.625ZM9.375 21.1875C9.375 21.7044 8.95444 22.125 8.4375 22.125H2.8125C2.29556 22.125 1.875 21.7044 1.875 21.1875V17.4375C1.875 16.9206 2.29556 16.5 2.8125 16.5H8.4375C8.95444 16.5 9.375 16.9206 9.375 17.4375V21.1875ZM21.1875 0H15.5625C14.0117 0 12.75 1.26169 12.75 2.8125V6.5625C12.75 8.11331 14.0117 9.375 15.5625 9.375H21.1875C22.7383 9.375 24 8.11331 24 6.5625V2.8125C24 1.26169 22.7383 0 21.1875 0ZM22.125 6.5625C22.125 7.07944 21.7044 7.5 21.1875 7.5H15.5625C15.0456 7.5 14.625 7.07944 14.625 6.5625V2.8125C14.625 2.29556 15.0456 1.875 15.5625 1.875H21.1875C21.7044 1.875 22.125 2.29556 22.125 2.8125V6.5625ZM21.1875 10.875H15.5625C14.0117 10.875 12.75 12.1367 12.75 13.6875V21.1875C12.75 22.7383 14.0117 24 15.5625 24H21.1875C22.7383 24 24 22.7383 24 21.1875V13.6875C24 12.1367 22.7383 10.875 21.1875 10.875ZM22.125 21.1875C22.125 21.7044 21.7044 22.125 21.1875 22.125H15.5625C15.0456 22.125 14.625 21.7044 14.625 21.1875V13.6875C14.625 13.1706 15.0456 12.75 15.5625 12.75H21.1875C21.7044 12.75 22.125 13.1706 22.125 13.6875V21.1875ZM8.4375 0H2.8125C1.26169 0 0 1.26169 0 2.8125V10.3125C0 11.8633 1.26169 13.125 2.8125 13.125H8.4375C9.98831 13.125 11.25 11.8633 11.25 10.3125V2.8125C11.25 1.26169 9.98831 0 8.4375 0ZM9.375 10.3125C9.375 10.8294 8.95444 11.25 8.4375 11.25H2.8125C2.29556 11.25 1.875 10.8294 1.875 10.3125V2.8125C1.875 2.29556 2.29556 1.875 2.8125 1.875H8.4375C8.95444 1.875 9.375 2.29556 9.375 2.8125V10.3125Z" fill="white"/>
</svg>
