<svg width="30" height="30" viewBox="0 0 30 30" fill="none" xmlns="http://www.w3.org/2000/svg">
<g clip-path="url(#clip0_258_1599)">
<path d="M27.4266 3.8625C27.1781 3.78281 26.9156 3.91875 26.8406 4.16719C26.7609 4.41563 26.8969 4.67813 27.1453 4.75313C27.7313 4.94063 28.125 5.47969 28.125 6.09375V20.625H1.875V6.09375C1.875 5.32031 2.50781 4.6875 3.28125 4.6875H12.1312C12.3891 4.6875 12.6 4.47656 12.6 4.21875C12.6 3.96094 12.3891 3.75 12.1312 3.75H3.28125C1.9875 3.75 0.9375 4.8 0.9375 6.09375V22.9688C0.9375 24.2625 1.9875 25.3125 3.28125 25.3125H26.7188C28.0125 25.3125 29.0625 24.2625 29.0625 22.9688V6.09375C29.0625 5.06719 28.4062 4.16719 27.4266 3.8625ZM15.9375 23.4375H14.0625C13.8047 23.4375 13.5938 23.2266 13.5938 22.9688C13.5938 22.7109 13.8047 22.5 14.0625 22.5H15.9375C16.1953 22.5 16.4062 22.7109 16.4062 22.9688C16.4062 23.2266 16.1953 23.4375 15.9375 23.4375Z" fill="#F6921E"/>
<path d="M20.105 28.3828L19.0409 26.25H10.9643L9.89558 28.3828C9.82058 28.5281 9.82996 28.7016 9.91433 28.8422C9.99871 28.9781 10.1487 29.0625 10.3128 29.0625H19.6878C19.8518 29.0625 20.0018 28.9781 20.0862 28.8422C20.1706 28.7016 20.18 28.5281 20.105 28.3828Z" fill="#F6921E"/>
<path d="M23.4375 16.875H15.9375C15.6797 16.875 15.4688 16.6641 15.4688 16.4062C15.4688 16.1484 15.6797 15.9375 15.9375 15.9375H23.4375C23.6953 15.9375 23.9062 16.1484 23.9062 16.4062C23.9062 16.6641 23.6953 16.875 23.4375 16.875Z" fill="#F6921E"/>
<path d="M23.4375 18.75H15.9375C15.6797 18.75 15.4688 18.5391 15.4688 18.2812C15.4688 18.0234 15.6797 17.8125 15.9375 17.8125H23.4375C23.6953 17.8125 23.9062 18.0234 23.9062 18.2812C23.9062 18.5391 23.6953 18.75 23.4375 18.75Z" fill="#F6921E"/>
<path d="M11.25 18.75H3.75C3.49219 18.75 3.28125 18.5391 3.28125 18.2812V10.7812C3.28125 10.5234 3.49219 10.3125 3.75 10.3125C4.00781 10.3125 4.21875 10.5234 4.21875 10.7812V17.8125H11.25C11.5078 17.8125 11.7188 18.0234 11.7188 18.2812C11.7188 18.5391 11.5078 18.75 11.25 18.75Z" fill="#F6921E"/>
<path d="M5.6252 15.4691C5.50332 15.4691 5.38613 15.4223 5.29238 15.3332C5.10957 15.1504 5.10957 14.8551 5.29238 14.6723L7.16738 12.7973C7.3502 12.6145 7.64551 12.6145 7.82832 12.7973L8.90176 13.8707L10.9127 11.8598C11.0955 11.677 11.3908 11.677 11.5736 11.8598C11.7564 12.0426 11.7564 12.3379 11.5736 12.5207L9.22988 14.8645C9.04707 15.0473 8.75176 15.0473 8.56895 14.8645L7.49551 13.791L5.95332 15.3332C5.85957 15.427 5.74238 15.4691 5.62051 15.4691H5.6252Z" fill="#F6921E"/>
<path d="M22.9312 7.47656H26.6953C26.4609 3.975 23.6578 1.17188 20.1562 0.9375V4.70156C21.5906 4.90781 22.725 6.04219 22.9312 7.47656Z" fill="#F6921E"/>
<path d="M22.9312 8.41406C22.8516 8.95781 22.6406 9.46406 22.3125 9.90937L24.975 12.5719C25.4859 11.9859 25.8984 11.3391 26.1891 10.6406C26.4797 9.9375 26.6438 9.19219 26.6953 8.41875H22.9312V8.41406Z" fill="#F6921E"/>
<path d="M19.6875 11.2266C17.8781 11.2266 16.4062 9.75469 16.4062 7.94531C16.4062 6.29531 17.6297 4.93125 19.2188 4.70156V0.9375C15.5625 1.18125 12.6562 4.22813 12.6562 7.94531C12.6562 11.6625 15.8109 14.9766 19.6875 14.9766C21.4078 14.9766 23.025 14.3578 24.3141 13.2328L21.6516 10.5703C21.0844 10.9922 20.4047 11.2266 19.6875 11.2266Z" fill="#F6921E"/>
</g>
<defs>
<clipPath id="clip0_258_1599">
<rect width="30" height="30" fill="white"/>
</clipPath>
</defs>
</svg>
