<svg width="50" height="50" viewBox="0 0 50 50" fill="none" xmlns="http://www.w3.org/2000/svg">
<path d="M29.6169 47.3981C28.5601 47.3981 27.6158 46.6257 26.6986 45.8757C26.1382 45.4169 25.37 44.7888 24.9992 44.7888C24.6288 44.7888 23.8606 45.4169 23.3002 45.8757C22.2955 46.6971 21.1559 47.631 19.9012 47.3435C18.6064 47.0492 17.9726 45.6877 17.4132 44.4872C17.134 43.8867 16.7111 42.9789 16.4106 42.8336C16.0919 42.6778 15.1023 42.9179 14.4476 43.0752C13.1731 43.382 11.7294 43.7278 10.7085 42.9138C9.68405 42.0955 9.70228 40.6054 9.71947 39.2914C9.7278 38.6211 9.7403 37.6086 9.52467 37.3377C9.31165 37.0711 8.32572 36.8601 7.67311 36.7205C6.38249 36.4445 4.92103 36.1315 4.34811 34.944C3.78353 33.7747 4.44238 32.4487 5.02259 31.2789C5.32415 30.6726 5.77936 29.7554 5.69967 29.4039C5.6278 29.0888 4.84342 28.4799 4.32467 28.0768C3.27415 27.2622 2.08301 26.3372 2.08301 24.9997C2.08301 23.6622 3.27415 22.7377 4.3252 21.9221C4.84395 21.5195 5.62832 20.9106 5.7002 20.595C5.77988 20.2435 5.32467 19.3263 5.02363 18.7195C4.4429 17.5497 3.78457 16.2242 4.34967 15.0539C4.92259 13.8669 6.38405 13.5539 7.67415 13.2778C8.32676 13.1382 9.3127 12.9273 9.5252 12.6612C9.74186 12.3898 9.72936 11.3768 9.72103 10.7065C9.70436 9.39241 9.68613 7.90283 10.7101 7.0846C11.7304 6.27001 13.1752 6.61689 14.4492 6.92314C15.1049 7.08043 16.0934 7.31845 16.4117 7.16533C16.7127 7.02002 17.1351 6.11272 17.4148 5.51168C17.9736 4.31064 18.607 2.9497 19.9018 2.65543C21.1549 2.37106 22.2966 3.30126 23.3007 4.12314C23.8617 4.58199 24.6299 5.21012 25.0002 5.21012C25.3705 5.21012 26.1387 4.58199 26.6992 4.12366C27.7044 3.30127 28.8434 2.36897 30.0986 2.65543C31.3929 2.9497 32.0268 4.31116 32.5861 5.5122C32.8658 6.11272 33.2882 7.02054 33.5893 7.16585C33.9085 7.31949 34.8966 7.08095 35.5512 6.92366C36.8257 6.61741 38.27 6.27054 39.2908 7.08512C40.3153 7.90335 40.2971 9.39293 40.2799 10.7075C40.2715 11.3778 40.2591 12.3908 40.4747 12.6612C40.6877 12.9273 41.6736 13.1388 42.3262 13.2783C43.6169 13.5544 45.0783 13.8669 45.6512 15.0544C46.2158 16.2242 45.557 17.5502 44.9768 18.72C44.6752 19.3268 44.22 20.2435 44.2997 20.595C44.3716 20.9106 45.1559 21.5195 45.6747 21.9221C46.7252 22.7377 47.9163 23.6622 47.9163 24.9997C47.9163 26.3372 46.7252 27.2617 45.6742 28.0773C45.1554 28.4799 44.371 29.0882 44.2992 29.4049C44.2195 29.7565 44.6747 30.6731 44.9757 31.2799C45.5564 32.4497 46.2148 33.7752 45.6497 34.9455C45.0768 36.1325 43.6153 36.4455 42.3252 36.7211C41.6726 36.8612 40.6867 37.0721 40.4736 37.3382C40.2575 37.6096 40.27 38.6226 40.2783 39.2929C40.295 40.6065 40.3132 42.0961 39.2893 42.9143C38.2689 43.7289 36.8242 43.3815 35.5502 43.0757C34.8945 42.9185 33.9059 42.6794 33.5877 42.8341C33.2867 42.9789 32.8643 43.8867 32.5846 44.4872C32.0257 45.6888 31.3924 47.0497 30.0976 47.344C29.9351 47.381 29.7747 47.3981 29.6169 47.3981ZM16.0882 40.7028C16.52 40.7028 16.9341 40.7726 17.3158 40.9565C18.2861 41.4242 18.8028 42.5341 19.3023 43.6075C19.5497 44.1388 20.0643 45.244 20.3627 45.3117C20.6403 45.3606 21.5466 44.6174 21.9809 44.2622C22.9174 43.4966 23.8851 42.7049 24.9992 42.7049C26.1132 42.7049 27.0814 43.4971 28.0174 44.2622C28.4518 44.6174 29.3309 45.3461 29.6367 45.3117C29.9341 45.2435 30.4492 44.1388 30.696 43.6075C31.195 42.5341 31.7117 41.4252 32.6825 40.9565C33.67 40.4799 34.8721 40.77 36.0361 41.0497C36.596 41.1841 37.7632 41.4648 37.9882 41.2856C38.2169 41.1033 38.2018 39.8976 38.1945 39.3185C38.1794 38.1247 38.1637 36.8909 38.845 36.0377C39.5221 35.1898 40.7247 34.9325 41.8882 34.6836C42.458 34.5617 43.6429 34.308 43.7726 34.0398C43.8934 33.7882 43.3632 32.7195 43.1085 32.2059C42.5747 31.1304 42.0221 30.0179 42.2669 28.9429C42.5038 27.9002 43.4658 27.1533 44.3955 26.4315C44.8986 26.0419 45.833 25.3169 45.833 24.9997C45.833 24.6825 44.8986 23.9575 44.3965 23.5674C43.4663 22.8455 42.5044 22.0992 42.2674 21.056C42.0231 19.981 42.5757 18.8685 43.1096 17.7929C43.3643 17.2794 43.895 16.2112 43.7736 15.9591C43.6439 15.6903 42.4591 15.4372 41.8898 15.3153C40.7262 15.0664 39.5231 14.8091 38.846 13.9617C38.1653 13.1091 38.1809 11.8747 38.196 10.6815C38.2033 10.1023 38.2184 8.89606 37.9898 8.71377C37.7658 8.5346 36.5981 8.81533 36.0372 8.9497C34.8736 9.22939 33.6716 9.51897 32.6835 9.04241C31.7132 8.57418 31.1966 7.46481 30.6971 6.39189C30.4497 5.86064 29.9356 4.75543 29.6367 4.68772C29.3502 4.63824 28.4523 5.38199 28.0179 5.73668C27.082 6.50283 26.1143 7.29449 25.0002 7.29449C23.8861 7.29449 22.9184 6.50231 21.982 5.73668C21.5476 5.38147 20.6413 4.64137 20.3627 4.6872C20.0648 4.75491 19.5497 5.86012 19.3028 6.39137C18.8033 7.46429 18.2872 8.57366 17.3169 9.04189C16.3294 9.51793 15.1273 9.22939 13.9627 8.94918C13.4028 8.81429 12.2346 8.53408 12.0106 8.71272C11.782 8.89554 11.7971 10.1013 11.8044 10.6804C11.8195 11.8742 11.8351 13.1086 11.1538 13.9606C10.4768 14.8086 9.27415 15.0658 8.11061 15.3148C7.54082 15.4367 6.35592 15.6903 6.22624 15.9586C6.1054 16.2101 6.63561 17.2789 6.8903 17.7924C7.42415 18.8679 7.97676 19.9804 7.73197 21.0554C7.49499 22.0981 6.53301 22.845 5.60332 23.5669C5.10072 23.9575 4.16634 24.6825 4.16634 24.9997C4.16634 25.3169 5.10072 26.0424 5.6028 26.432C6.53301 27.1539 7.49499 27.8997 7.73197 28.9429C7.97624 30.0179 7.42363 31.1299 6.88978 32.2059C6.63509 32.7195 6.10436 33.7877 6.22572 34.0398C6.3554 34.3091 7.5403 34.5622 8.11009 34.6841C9.27311 34.933 10.4762 35.1903 11.1533 36.0382C11.8341 36.8909 11.8184 38.1247 11.8033 39.3185C11.796 39.8976 11.7809 41.1039 12.0096 41.2862C12.2335 41.4627 13.4012 41.1846 13.9622 41.0497C14.6752 40.8778 15.4038 40.7028 16.0882 40.7028ZM18.4445 33.0278L33.0278 18.4445C33.4346 18.0377 33.4346 17.3783 33.0278 16.9716C32.621 16.5648 31.9617 16.5648 31.5549 16.9716L16.9715 31.5549C16.5648 31.9617 16.5648 32.6211 16.9715 33.0278C17.1752 33.2315 17.4413 33.333 17.708 33.333C17.9747 33.333 18.2408 33.2315 18.4445 33.0278ZM19.7913 23.4372C17.7814 23.4372 16.1455 21.8018 16.1455 19.7914C16.1455 17.781 17.7814 16.1455 19.7913 16.1455C21.8012 16.1455 23.4372 17.781 23.4372 19.7914C23.4372 21.8018 21.8012 23.4372 19.7913 23.4372ZM19.7913 18.2289C18.9299 18.2289 18.2288 18.9299 18.2288 19.7914C18.2288 20.6528 18.9299 21.3539 19.7913 21.3539C20.6528 21.3539 21.3538 20.6528 21.3538 19.7914C21.3538 18.9299 20.6528 18.2289 19.7913 18.2289ZM30.208 33.8539C28.1981 33.8539 26.5622 32.2179 26.5622 30.208C26.5622 28.1981 28.1981 26.5622 30.208 26.5622C32.2179 26.5622 33.8538 28.1981 33.8538 30.208C33.8538 32.2179 32.2179 33.8539 30.208 33.8539ZM30.208 28.6455C29.3466 28.6455 28.6455 29.3466 28.6455 30.208C28.6455 31.0695 29.3466 31.7705 30.208 31.7705C31.0695 31.7705 31.7705 31.0695 31.7705 30.208C31.7705 29.3466 31.0695 28.6455 30.208 28.6455Z" fill="#FF073A"/>
</svg>
