<svg width="22" height="22" viewBox="0 0 22 22" fill="none" xmlns="http://www.w3.org/2000/svg">
<path d="M10.5758 14.9072C10.8275 15.1591 11.2356 15.1589 11.4872 14.9072L14.2486 12.1458C14.5004 11.8941 14.5004 11.4859 14.2486 11.2343C13.997 10.9826 13.589 10.9826 13.3372 11.2343L11.676 12.8955V8.23828C11.676 7.88228 11.3873 7.59375 11.0315 7.59375C10.6755 7.59375 10.3869 7.88228 10.3869 8.23828V12.8955L8.72577 11.2343C8.474 10.9826 8.06596 10.9826 7.81419 11.2343C7.56259 11.4859 7.56259 11.8941 7.81419 12.1458L10.5758 14.9072Z" fill="#0A5FFF"/>
<path d="M13.793 16.5684H8.27002C7.91418 16.5684 7.62549 16.8569 7.62549 17.2129C7.62549 17.5687 7.91418 17.8574 8.27002 17.8574H13.793C14.1488 17.8574 14.4375 17.5687 14.4375 17.2129C14.4375 16.8569 14.149 16.5684 13.793 16.5684Z" fill="#0A5FFF"/>
<path d="M17.2447 0H7.57962C7.40875 0 7.24477 0.0679779 7.12392 0.188827L2.9818 4.33095C2.86095 4.4518 2.79297 4.61578 2.79297 4.78665V19.9748C2.79297 21.0914 3.70152 22 4.81821 22H17.2447C18.3582 22 19.27 21.0997 19.27 19.9748V2.02524C19.27 0.911743 18.3698 0 17.2447 0ZM7.62544 1.51012V4.0963C7.62544 4.50232 7.29529 4.83247 6.88927 4.83247H4.30309L7.62544 1.51012ZM17.9809 19.9748C17.9809 20.3757 17.6568 20.7109 17.2447 20.7109H4.81821C4.41235 20.7109 4.08203 20.3806 4.08203 19.9748V6.1217H6.88927C8.00595 6.1217 8.91451 5.21315 8.91451 4.09647V1.28906H17.2447C17.6459 1.28906 17.9809 1.61334 17.9809 2.02524V19.9748Z" fill="#0A5FFF"/>
</svg>
