<svg width="50" height="50" viewBox="0 0 50 50" fill="none" xmlns="http://www.w3.org/2000/svg">
<path fill-rule="evenodd" clip-rule="evenodd" d="M25.2534 36.4361H6.1078C5.67466 36.4361 5.32348 36.085 5.32348 35.6518V33.1402C5.32348 32.7071 5.67466 32.3559 6.1078 32.3559H7.83809V24.3773C7.83809 23.9441 8.18927 23.593 8.62241 23.593H13.7669C14.2002 23.593 14.5512 23.9441 14.5512 24.3773V32.3559H17.3926V19.2038C17.3926 18.7707 17.7438 18.4195 18.1769 18.4195H23.3214C23.7547 18.4195 24.1057 18.7707 24.1057 19.2038V32.3559H25.2534V27.4823C25.2534 26.2653 25.9397 25.2031 26.9449 24.663V13.804C26.9449 13.3709 27.296 13.0197 27.7292 13.0197H32.8759C33.3092 13.0197 33.6602 13.3709 33.6602 13.804V24.2844H36.4994V8.94581C36.4994 8.51267 36.8505 8.16149 37.2837 8.16149H42.4283C42.8614 8.16149 43.2126 8.51267 43.2126 8.94581V24.2844H46.1161C47.8771 24.2844 49.314 25.7213 49.314 27.4823V39.5717C49.314 41.333 47.8775 42.7658 46.1161 42.7658H44.8594V46.8962C44.8594 47.2163 44.6649 47.5042 44.3679 47.6237C44.071 47.7433 43.7312 47.6703 43.5095 47.4395L39.0199 42.7658H28.4512C26.69 42.7658 25.2534 41.333 25.2534 39.5717V36.4361ZM9.40672 32.3559H12.9826C12.9826 30.3449 12.9826 25.1616 12.9826 25.1616H9.40672V32.3559ZM18.9612 32.3559H22.5371C22.5371 29.5234 22.5371 19.9882 22.5371 19.9882H18.9612V32.3559ZM25.2534 33.9245H6.89211V34.8675H25.2534V33.9245ZM28.5135 24.2844H32.0916V14.5884H28.5135V24.2844ZM38.068 24.2844H41.644C41.644 21.155 41.644 9.73012 41.644 9.73012H38.068V24.2844ZM26.822 39.5717C26.822 40.4686 27.5544 41.1972 28.4512 41.1972H39.354C39.5674 41.1972 39.7717 41.2842 39.9196 41.4382L43.2907 44.9476V41.9815C43.2907 41.5484 43.6419 41.1972 44.0751 41.1972H46.1161C47.013 41.1972 47.7453 40.4686 47.7453 39.5717V27.4823C47.7453 26.5851 47.0133 25.8531 46.1161 25.8531H28.4512C27.5541 25.8531 26.822 26.5851 26.822 27.4823V39.5717ZM36.7693 38.8675C35.6211 38.173 33.8982 36.9364 32.6904 35.4895C31.8002 34.4233 31.1979 33.237 31.1771 32.0667V32.0666C31.1456 30.2752 32.1402 28.9931 33.4795 28.5239C34.5986 28.1319 36.0044 28.3011 37.2828 29.3253C38.5611 28.3025 39.9671 28.1331 41.0865 28.5246C42.4266 28.9935 43.4217 30.2751 43.3904 32.0666V32.0667C43.3695 33.237 42.7671 34.4233 41.877 35.4895C40.6693 36.9364 38.9462 38.173 37.7983 38.8674C37.4731 39.0664 37.0945 39.0664 36.7693 38.8675ZM37.2837 37.341C38.3045 36.6936 39.6829 35.6702 40.6728 34.4843C41.3154 33.7144 41.8069 32.8838 41.8219 32.0389C41.8397 31.0261 41.3261 30.2703 40.5685 30.0053C39.7584 29.7219 38.7399 29.9994 37.8494 30.9304C37.7013 31.0851 37.4965 31.1726 37.2824 31.1726C37.0683 31.1725 36.8635 31.0849 36.7155 30.9301C35.8252 29.9986 34.8075 29.7207 33.9981 30.0043C33.2407 30.2696 32.7277 31.0259 32.7454 32.0389C32.7605 32.8838 33.2519 33.7144 33.8947 34.4843C34.8846 35.6702 36.2629 36.6936 37.2837 37.341ZM9.52094 2.31934C14.3968 2.31934 18.3553 6.27796 18.3553 11.1537C18.3553 16.0296 14.3968 19.9882 9.52094 19.9882C4.64505 19.9882 0.686523 16.0296 0.686523 11.1537C0.686523 6.27796 4.64505 2.31934 9.52094 2.31934ZM9.52094 3.88796C5.51084 3.88796 2.25515 7.14365 2.25515 11.1537C2.25515 15.1638 5.51084 18.4195 9.52094 18.4195C13.531 18.4195 16.7867 15.1638 16.7867 11.1537C16.7867 7.14365 13.531 3.88796 9.52094 3.88796ZM6.98554 5.8409C7.59368 5.8409 8.16603 6.07806 8.59535 6.50738C9.02456 6.93669 9.26182 7.51345 9.26182 8.11718C9.26182 9.37375 8.24662 10.3934 6.98554 10.3934C5.72888 10.3934 4.70927 9.37826 4.70927 8.11718C4.70927 6.86051 5.72888 5.8409 6.98554 5.8409ZM6.98554 7.40953C6.59486 7.40953 6.2779 7.72649 6.2779 8.11718C6.2779 8.50924 6.59486 8.82473 6.98554 8.82473C7.3776 8.82473 7.69319 8.50777 7.69319 8.11718C7.69319 7.92943 7.61956 7.75002 7.48613 7.61649C7.3526 7.48306 7.17466 7.40953 6.98554 7.40953ZM12.0378 6.34345C12.2904 5.99189 12.7808 5.91149 13.1324 6.16414C13.484 6.41669 13.5644 6.90718 13.3118 7.25865L7.05976 15.9612C6.80711 16.3128 6.31672 16.3931 5.96515 16.1405C5.61358 15.888 5.53319 15.3975 5.78574 15.0459L12.0378 6.34345ZM12.0563 11.9141C12.6646 11.9141 13.2368 12.1513 13.6661 12.5806C14.0954 13.0099 14.3326 13.5823 14.3326 14.1904C14.3326 15.4471 13.313 16.4667 12.0563 16.4667C10.7998 16.4667 9.78005 15.4471 9.78005 14.1904C9.78005 12.9337 10.7998 11.9141 12.0563 11.9141ZM12.0563 13.4828C11.6657 13.4828 11.3487 13.7997 11.3487 14.1904C11.3487 14.5811 11.6657 14.8981 12.0563 14.8981C12.447 14.8981 12.764 14.5811 12.764 14.1904C12.764 14.0013 12.6904 13.8233 12.5569 13.6898C12.4235 13.5563 12.2454 13.4828 12.0563 13.4828Z" fill="#FF073A"/>
</svg>
