<svg width="98" height="98" viewBox="0 0 98 98" fill="none" xmlns="http://www.w3.org/2000/svg">
<g opacity="0.3" clip-path="url(#clip0_415_23880)">
<path d="M87.4942 27.8387L37.8941 14.5484C37.6413 14.3588 37.3261 14.2743 37.0124 14.3121L26.2196 11.4202C21.8022 10.2416 17.2642 12.8616 16.0763 17.2764L4.60617 60.0835C3.42754 64.5009 6.04756 69.0389 10.4624 70.2268L71.737 86.6453C76.1543 87.8239 80.6923 85.2039 81.8802 80.7891L93.3504 37.9819C94.529 33.5646 91.909 29.0266 87.4942 27.8387ZM90.9675 37.3434L82.8723 67.5552L36.78 55.2048C38.9039 54.6024 40.5568 52.931 41.1348 50.8005C42.0339 47.4449 39.9989 43.9737 36.5987 43.0626C34.5202 42.5035 32.3008 43.0234 30.6872 44.4473L38.0062 17.1324L86.8557 30.2216C89.9551 31.0556 91.7949 34.2423 90.9675 37.3434ZM18.4627 44.7256C19.0416 42.6659 21.1782 41.4633 23.2386 42.0368C23.9121 42.2172 24.5264 42.5707 25.0209 43.063C25.8115 43.8464 26.2233 44.9344 26.1487 46.0453L25.7531 51.6758L20.5601 49.1848C18.8801 48.3962 17.9988 46.5232 18.4627 44.7256ZM28.9638 52.5361L31.4357 47.462C32.3369 45.6839 34.4268 44.8629 36.2969 45.5535C38.1665 46.2433 39.2224 48.2251 38.7519 50.162C38.255 51.9501 36.5559 53.1317 34.7065 52.9753L28.9638 52.5361ZM25.5811 13.8031L35.6233 16.4939L28.3041 43.8095C27.9922 42.8701 27.4647 42.0169 26.7642 41.3175C25.9646 40.5196 24.969 39.9457 23.8777 39.654C20.4769 38.7428 16.9796 40.7316 16.0804 44.0872C15.5158 46.2213 16.1113 48.4959 17.6496 50.0789L10.364 48.1267L18.4592 17.9149C19.2933 14.8155 22.4799 12.9757 25.5811 13.8031ZM6.98907 60.722L9.72549 50.5096L23.6998 54.254L16.5669 58.3721C15.9768 58.7128 15.7748 59.4668 16.1155 60.0569C16.4562 60.647 17.2102 60.8491 17.8003 60.5084L24.9331 56.3902L21.1431 70.5347L11.1009 67.8439C8.00148 67.0098 6.16168 63.8232 6.98907 60.722ZM72.3755 84.2624L23.526 71.1732L27.316 57.0287L32.8671 66.6434C33.2078 67.2335 33.9617 67.4355 34.5518 67.0948C35.142 66.7541 35.344 66.0002 35.0033 65.41L29.4522 55.7954L82.2338 69.9381L79.4973 80.1506C78.6633 83.25 75.4767 85.0898 72.3755 84.2624Z" fill="white"/>
</g>
<defs>
<clipPath id="clip0_415_23880">
<rect width="80" height="80" fill="white" transform="translate(20.7056) rotate(15)"/>
</clipPath>
</defs>
</svg>
