<svg width="50" height="50" viewBox="0 0 50 50" fill="none" xmlns="http://www.w3.org/2000/svg">
<path d="M10.3968 31.8623H4.51439C2.89678 31.8623 1.57324 33.1858 1.57324 34.8035V49.0191C1.57324 49.5583 2.01439 49.9995 2.5536 49.9995H12.3575C12.8967 49.9995 13.3378 49.5583 13.3378 49.0191V34.8035C13.3379 33.1858 12.0145 31.8623 10.3968 31.8623ZM11.3772 48.0388H3.53404V34.8035C3.53404 34.2643 3.97519 33.8232 4.51439 33.8232H10.3968C10.936 33.8232 11.3771 34.2643 11.3771 34.8035L11.3772 48.0388Z" fill="#FF073A"/>
<path d="M27.0638 24.0195H21.1814C19.5638 24.0195 18.2402 25.3431 18.2402 26.9607V49.0195C18.2402 49.5587 18.6814 49.9999 19.2206 49.9999H29.0245C29.5637 49.9999 30.0048 49.5587 30.0048 49.0195V26.9607C30.0049 25.3431 28.6814 24.0195 27.0638 24.0195ZM28.0441 48.0391H20.2009V26.9607C20.2009 26.4215 20.6421 25.9803 21.1813 25.9803H27.0637C27.6029 25.9803 28.044 26.4215 28.044 26.9607V48.0391H28.0441Z" fill="#FF073A"/>
<path d="M43.7298 20.0977H37.8474C36.2298 20.0977 34.9062 21.4212 34.9062 23.0388V49.0193C34.9062 49.5585 35.3474 49.9996 35.8866 49.9996H45.6905C46.2297 49.9996 46.6708 49.5585 46.6708 49.0193V23.0388C46.6709 21.4212 45.3474 20.0977 43.7298 20.0977ZM44.7101 48.0388H36.867V23.0388C36.867 22.4996 37.3081 22.0585 37.8473 22.0585H43.7297C44.2689 22.0585 44.7101 22.4996 44.7101 23.0388V48.0388H44.7101Z" fill="#FF073A"/>
<path d="M48.3774 5.54901C48.2597 5.19611 47.9558 4.93136 47.5832 4.88234L43.4656 4.2843L41.6224 0.549009C41.4558 0.215717 41.1126 0 40.7401 0C40.3676 0 40.0244 0.215717 39.8577 0.549009L38.0146 4.2843L33.897 4.88234C33.5245 4.93136 33.2205 5.19602 33.1028 5.54901C32.9852 5.902 33.0832 6.29412 33.348 6.55878L36.1617 9.30391L27.1813 13.2647C26.4754 12.3529 25.3676 11.7647 24.1225 11.7647C21.9558 11.7647 20.2009 13.5196 20.2009 15.6863C20.2009 15.902 20.2205 16.1176 20.2499 16.3235L10.5244 20.6078C9.80869 19.7058 8.70087 19.1176 7.45577 19.1176C5.28906 19.1176 3.53418 20.8725 3.53418 23.0392C3.53418 25.2059 5.28906 26.9608 7.45577 26.9608C9.62248 26.9608 11.3774 25.2059 11.3774 23.0392C11.3774 22.8235 11.3578 22.6079 11.3283 22.4019L21.0538 18.1176C21.7695 19.0196 22.8773 19.6079 24.1224 19.6079C26.2891 19.6079 28.044 17.853 28.044 15.6863C28.044 15.4706 28.0244 15.2549 27.995 15.049L35.9852 11.5196L35.6323 13.5589C35.5734 13.9314 35.7205 14.2942 36.0244 14.5196C36.3283 14.7353 36.7303 14.7648 37.0538 14.5981L40.74 12.6569L44.4263 14.5981C44.5734 14.6765 44.7303 14.7059 44.887 14.7059C45.093 14.7059 45.289 14.6471 45.4655 14.5196C45.7694 14.3039 45.9164 13.9314 45.8576 13.5589L45.1517 9.45108L48.1321 6.54915C48.397 6.29412 48.495 5.902 48.3774 5.54901ZM7.45577 25C6.37737 25 5.49498 24.1176 5.49498 23.0392C5.49498 21.9608 6.37737 21.0784 7.45577 21.0784C8.53418 21.0784 9.41657 21.9608 9.41657 23.0392C9.41657 24.1176 8.53418 25 7.45577 25ZM24.1224 17.6471C23.044 17.6471 22.1616 16.7647 22.1616 15.6863C22.1616 14.6079 23.044 13.7255 24.1224 13.7255C25.2008 13.7255 26.0832 14.6079 26.0832 15.6863C26.0832 16.7647 25.2008 17.6471 24.1224 17.6471ZM43.4067 8.41181C43.1714 8.63733 43.0734 8.96081 43.1224 9.28439L43.5733 11.9413L41.191 10.6864C41.0439 10.6079 40.887 10.5785 40.7302 10.5785C40.5733 10.5785 40.4165 10.6177 40.2695 10.6864L37.8871 11.9413L38.2106 10.0687L38.3479 9.28439C38.4067 8.97071 38.2989 8.63733 38.0635 8.41181L36.1321 6.52945L38.7988 6.14713C39.1223 6.09811 39.3969 5.902 39.5341 5.60793L40.7302 3.19618L41.9263 5.60793C42.0734 5.90209 42.3478 6.09811 42.6616 6.14713L45.3283 6.52945L43.4067 8.41181Z" fill="#FF073A"/>
</svg>
