<svg width="165" height="165" viewBox="0 0 165 165" fill="none" xmlns="http://www.w3.org/2000/svg">
<path d="M82.5 165C128.063 165 165 128.063 165 82.5C165 36.9365 128.063 0 82.5 0C36.9365 0 0 36.9365 0 82.5C0 128.063 36.9365 165 82.5 165Z" fill="#FAFAFA"/>
<path d="M82.4997 153.586C121.759 153.586 153.585 121.76 153.585 82.5C153.585 43.2405 121.759 11.4144 82.4997 11.4144C43.2402 11.4144 11.4141 43.2405 11.4141 82.5C11.4141 121.76 43.2402 153.586 82.4997 153.586Z" fill="white"/>
<path d="M82.4998 154.985C42.5313 154.985 10.0146 122.469 10.0146 82.5031C10.0146 42.5377 42.5344 10.0179 82.4998 10.0179C122.465 10.0179 154.985 42.5346 154.985 82.5031C154.985 122.472 122.468 154.985 82.4998 154.985ZM82.4998 12.8139C44.0761 12.8139 12.8137 44.0763 12.8137 82.5C12.8137 120.924 44.0761 152.186 82.4998 152.186C120.924 152.186 152.186 120.924 152.186 82.5C152.186 44.0763 120.927 12.8139 82.4998 12.8139Z" fill="#03202F"/>
<path d="M83.3739 104.701C101.45 104.701 116.104 90.0694 116.104 72.0205C116.104 53.9716 101.45 39.3401 83.3739 39.3401C65.2977 39.3401 50.644 53.9716 50.644 72.0205C50.644 90.0694 65.2977 104.701 83.3739 104.701Z" fill="white"/>
<path d="M83.3739 104.701C65.3252 104.701 50.644 90.0414 50.644 72.0205C50.644 53.9996 65.3283 39.3401 83.3739 39.3401C101.42 39.3401 116.104 53.9996 116.104 72.0205C116.104 90.0414 101.423 104.701 83.3739 104.701ZM83.3739 40.4152C65.9215 40.4152 51.7192 54.5928 51.7192 72.0205C51.7192 89.4482 65.9184 103.626 83.3739 103.626C100.829 103.626 115.029 89.4482 115.029 72.0205C115.029 54.5928 100.829 40.4152 83.3739 40.4152Z" fill="#03202F"/>
<path d="M91.3385 41.4286C91.3385 41.4286 109.335 44.8023 113.679 62.8911C113.679 62.8911 108.176 50.2027 98.5308 51.6393C98.5308 51.6393 99.0097 46.1925 91.3354 41.4286H91.3385Z" fill="#03202F"/>
<path d="M71.7732 48.4324C71.7732 48.4324 73.5342 59.5854 60.855 68.894C60.855 68.894 78.9346 66.4008 78.1529 87.3783C78.1529 87.3783 81.9684 65.8725 104.188 75.4375C104.188 75.4375 87.8137 61.7357 98.5342 51.6424C98.5342 51.6424 83.0127 55.5166 71.7732 48.4355V48.4324Z" fill="#03202F"/>
<path d="M55.1332 57.7564C55.1332 57.7564 52.4114 69.3389 60.858 68.894C60.858 68.894 52.8902 76.182 60.2741 89.4668C60.2741 89.4668 55.3803 83.4732 55.3803 87.3783C55.3803 87.3783 46.0223 74.6373 55.1363 57.7564H55.1332Z" fill="#03202F"/>
<path d="M114.88 68.9681C114.88 68.9681 117.253 78.3354 104.188 75.4344C104.188 75.4344 111.34 83.7698 97.4434 95.0031C97.4434 95.0031 105.581 91.3482 105.501 94.5922C105.501 94.5922 116.898 84.9283 114.877 68.9681H114.88Z" fill="#03202F"/>
<path d="M60.271 89.4668C60.271 89.4668 66.1812 99.2727 61.5191 95.6364C61.5191 95.6364 71.8565 106.672 89.207 103.638C89.207 103.638 89.2626 97.9443 97.4466 95.0062C97.4466 95.0062 74.7668 99.4488 78.5359 85.8459C78.5359 85.8459 71.7577 96.7764 60.271 89.4668Z" fill="#03202F"/>
<path d="M58.7017 52.2417C58.7017 52.2417 66.1998 41.1104 82.0025 40.443C82.0025 40.443 72.1718 41.8611 71.7732 48.4293C71.7732 48.4293 64.2442 46.2234 58.7017 52.2417Z" fill="#03202F"/>
<path d="M50.7615 132C49.4701 129.828 50.0726 126.698 51.2867 125.061C51.2744 124.752 50.7893 120.797 50.5329 120.655C21.5166 104.543 43.8596 56.4249 41.9689 65.3689C35.2122 97.314 58.0032 106.885 58.0032 106.885C60.2864 106.848 65.9432 106.32 70.7071 106.857C71.0841 106.153 71.2663 105.677 71.2663 105.677C71.3498 104.454 73.4506 105.47 76.2867 107.429C80.0713 107.429 92.0801 102.198 99.881 98.0833C107.883 93.86 116.879 96.3192 116.879 96.3192C116.879 96.3192 119.366 98.1482 120.327 100.487C121.149 102.986 119.762 107.376 114.927 112.573C114.964 112.613 103.879 122.839 100.922 125.144C100.941 125.169 93.7113 130.393 93.1274 130.77C88.6045 133.671 80.3216 135.367 72.496 136.349C71.6958 136.538 62.3872 137.313 60.7343 137.415C58.3523 137.48 53.7305 136.989 50.7615 131.996V132Z" fill="#03202F"/>
<path d="M140.248 61.3773C148.238 84.3135 126.401 103.209 129.515 98.6487C140.631 82.3702 133.38 65.2607 133.38 65.2607L140.248 61.3773Z" fill="#FF073A"/>
<path d="M26.8615 57.6576C16.1967 74.2604 30.436 93.1401 28.7461 88.9786C22.7154 74.1214 32.0055 60.9046 32.0055 60.9046L26.8615 57.6576Z" fill="#FF073A"/>
<path d="M116.157 97.7218C116.157 97.7218 107.225 94.4593 95.7075 102.999C95.7075 102.999 65.27 124.384 54.1387 124.554C54.1387 124.554 59.7059 129.21 97.0792 103.993C97.0792 103.993 105.829 97.1472 116.157 97.7218Z" fill="white"/>
<path fill-rule="evenodd" clip-rule="evenodd" d="M77.4699 108.272L74.3558 109.468L66.3818 119.336L70.7565 116.901L77.4699 108.272Z" fill="white"/>
<path fill-rule="evenodd" clip-rule="evenodd" d="M72.8079 110.225L71.3126 110.599L62.6436 121.282L65.0873 119.978L72.8079 110.225Z" fill="white"/>
<path fill-rule="evenodd" clip-rule="evenodd" d="M67.8617 108.764C67.8617 108.764 66.1965 108.461 65.0564 109.962C65.0564 109.962 54.9415 119.654 51.1631 120.059C51.1631 120.059 54.3329 121.483 65.7299 110.426C65.7299 110.426 66.802 109.403 67.8617 108.761V108.764Z" fill="white"/>
<path d="M35.6976 87.1991C35.6976 87.1991 32.7904 105.405 47.7218 117.714L50.2614 116.793C50.2614 116.793 35.8953 106.789 35.6976 87.1991Z" fill="white"/>
<path d="M114.908 111.105L116.734 112.595L119.752 111.105L120.021 107.837L118.239 106.987L114.908 111.105Z" fill="#03202F"/>
<path d="M112.038 113.194L113.571 113.728L113.963 117.535L110.982 119.768L107.209 118.091L112.038 113.194Z" fill="#03202F"/>
<path d="M105.473 119.768L106.582 121.016L105.853 125.274L102.029 126.967L99.0503 124.65L105.473 119.768Z" fill="#03202F"/>
<path d="M75.9162 134.833L74.7855 137.344L71.5724 138.043L69.5396 135.62L75.9162 134.833Z" fill="#03202F"/>
<path d="M60.339 136.408C60.2711 136.408 59.1372 138.552 59.1372 138.552L55.8315 138.994L54.2466 136.436L54.9602 134.32L60.3421 136.408H60.339Z" fill="#03202F"/>
<path d="M58.8003 138.308C58.8003 138.308 58.8157 137.709 59.1865 137.082C59.5603 136.455 60.0423 135.685 60.0423 135.685L58.8003 138.308Z" fill="white"/>
<path d="M58.7821 138.271C58.7821 138.271 59.3475 137.159 59.0478 136.865C58.6833 136.51 56.1313 138.549 56.1313 138.549L58.779 138.268L58.7821 138.271Z" fill="#818F97"/>
<path d="M56.1312 138.552C56.1312 138.552 58.9395 137.69 58.5533 136.881C58.1393 135.997 54.7563 136.251 54.7563 136.251L56.1312 138.552Z" fill="white"/>
<path d="M60.0424 135.685C60.0424 135.685 59.406 137.422 58.887 136.597C58.7541 136.387 58.646 133.414 58.646 133.414L60.0424 135.685Z" fill="#2E4652"/>
<path d="M54.7563 136.251C54.7563 136.251 58.0065 137.258 58.4359 136.424C58.8159 135.682 56.0292 133.674 56.0292 133.674" fill="#1C3644"/>
<path d="M58.6461 133.414C58.6461 133.414 59.4895 136.374 58.8716 136.408C58.6986 136.291 56.0293 133.677 56.0293 133.677L58.6461 133.418V133.414Z" fill="#03202F"/>
<path d="M58.368 137.449L59.1002 137.4L59.4771 136.634L59.1249 135.917L58.3927 135.966L58.0127 136.733L58.368 137.449Z" fill="white"/>
<path d="M58.4636 130.316C58.4636 130.316 58.4234 129.716 58.7355 129.058C59.0475 128.4 59.4553 127.588 59.4553 127.588L58.4636 130.316Z" fill="white"/>
<path d="M58.4389 130.282C58.4389 130.282 58.8992 129.123 58.5717 128.858C58.1763 128.539 55.8252 130.807 55.8252 130.807L58.4358 130.279L58.4389 130.282Z" fill="#818F97"/>
<path d="M55.8285 130.81C55.8285 130.81 58.5442 129.692 58.0839 128.919C57.5865 128.079 54.2437 128.647 54.2437 128.647L55.8285 130.81Z" fill="white"/>
<path d="M59.4555 127.588C59.4555 127.588 58.9859 129.377 58.3896 128.604C58.2382 128.406 57.8521 125.459 57.8521 125.459L59.4555 127.588Z" fill="#2E4652"/>
<path d="M54.2437 128.647C54.2437 128.647 57.5741 129.346 57.9232 128.478C58.2322 127.702 55.2724 125.966 55.2724 125.966" fill="#1C3644"/>
<path d="M57.8522 125.459C57.8522 125.459 58.9675 128.326 58.3558 128.416C58.1735 128.317 55.2725 125.963 55.2725 125.963L57.8522 125.459Z" fill="#03202F"/>
<path d="M57.9539 129.503L58.6768 129.386L58.9796 128.589L58.5625 127.906L57.8365 128.026L57.5337 128.82L57.9539 129.503Z" fill="white"/>
<path d="M74.5226 136.686C74.5226 136.686 74.4948 136.102 74.8316 135.435C75.1714 134.771 75.6132 133.946 75.6132 133.946L74.5195 136.683L74.5226 136.686Z" fill="white"/>
<path d="M74.501 136.652C74.501 136.652 75.0045 135.484 74.674 135.25C74.2723 134.965 71.7822 137.344 71.7822 137.344L74.501 136.652Z" fill="#818F97"/>
<path d="M71.7792 137.347C71.7792 137.347 74.6215 136.068 74.1612 135.342C73.6669 134.555 70.1851 135.339 70.1851 135.339L71.7792 137.347Z" fill="white"/>
<path d="M75.6166 133.946C75.6166 133.946 75.0852 135.728 74.489 135.012C74.3345 134.829 74.0039 131.972 74.0039 131.972L75.6166 133.946Z" fill="#2E4652"/>
<path d="M70.1885 135.339C70.1885 135.339 73.6271 135.796 74.0071 134.922C74.3438 134.144 71.3161 132.645 71.3161 132.645" fill="#1C3644"/>
<path d="M74.0038 131.975C74.0038 131.975 75.0943 134.706 74.4579 134.836C74.2695 134.752 71.3159 132.645 71.3159 132.645L74.0038 131.975Z" fill="#03202F"/>
<path d="M74.0129 135.923L74.7668 135.759L75.1004 134.956L74.6803 134.32L73.9264 134.483L73.5928 135.287L74.0129 135.923Z" fill="white"/>
<path d="M74.2385 125.746C74.2385 125.746 74.1242 125.101 74.393 124.335C74.6618 123.568 75.0201 122.617 75.0201 122.617L74.2354 125.746H74.2385Z" fill="white"/>
<path d="M74.2076 125.716C74.2076 125.716 74.5814 124.378 74.1952 124.146C73.7225 123.865 71.3931 126.72 71.3931 126.72L74.2107 125.716H74.2076Z" fill="#818F97"/>
<path d="M71.3931 126.72C71.3931 126.72 74.257 125.054 73.6639 124.291C73.0213 123.46 69.4004 124.631 69.4004 124.631L71.3931 126.717V126.72Z" fill="white"/>
<path d="M75.02 122.62C75.02 122.62 74.7049 124.643 73.9603 123.899C73.7719 123.707 73.0088 120.572 73.0088 120.572L75.0169 122.617L75.02 122.62Z" fill="#2E4652"/>
<path d="M69.4004 124.634C69.4004 124.634 73.151 124.841 73.4352 123.84C73.6886 122.947 70.2284 121.551 70.2284 121.551" fill="#1C3644"/>
<path d="M73.0118 120.572C73.0118 120.572 74.5658 123.503 73.9047 123.701C73.6915 123.624 70.2251 121.548 70.2251 121.548L73.0118 120.572Z" fill="#03202F"/>
<path d="M73.5836 124.949L74.3684 124.699L74.6124 123.782L74.0718 123.114L73.287 123.361L73.043 124.279L73.5836 124.949Z" fill="white"/>
<path d="M105.201 124.705C105.201 124.705 105.007 123.973 105.235 123.074C105.464 122.175 105.779 121.06 105.779 121.06L105.201 124.705Z" fill="#03202F"/>
<path d="M105.164 124.671C105.164 124.671 105.455 123.111 104.991 122.87C104.423 122.58 102.047 126.018 102.047 126.018L105.164 124.671Z" fill="#818F97"/>
<path d="M102.047 126.018C102.047 126.018 105.152 123.911 104.395 123.074C103.576 122.166 99.5601 123.757 99.5601 123.757L102.047 126.015V126.018Z" fill="white"/>
<path d="M105.779 121.063C105.779 121.063 105.622 123.408 104.701 122.604C104.463 122.397 103.28 118.848 103.28 118.848L105.782 121.06L105.779 121.063Z" fill="#2E4652"/>
<path d="M99.5601 123.757C99.5601 123.757 103.867 123.738 104.089 122.567C104.287 121.526 100.193 120.158 100.193 120.158" fill="#1C3644"/>
<path d="M103.276 118.848C103.276 118.848 105.349 122.107 104.611 122.379C104.358 122.305 100.19 120.158 100.19 120.158L103.273 118.848H103.276Z" fill="#03202F"/>
<path d="M104.373 123.834L105.242 123.494L105.43 122.425L104.747 121.693L103.876 122.033L103.688 123.102L104.373 123.834Z" fill="white"/>
<path d="M103.573 110.732C103.573 110.732 103.261 109.901 103.418 108.804C103.579 107.707 103.811 106.345 103.811 106.345L103.573 110.728V110.732Z" fill="white"/>
<path d="M103.527 110.695C103.527 110.695 103.681 108.81 103.11 108.606C102.415 108.359 100.063 112.795 100.063 112.795L103.527 110.695Z" fill="#818F97"/>
<path d="M100.067 112.795C100.067 112.795 103.422 109.802 102.446 108.943C101.386 108.007 96.9092 110.546 96.9092 110.546L100.067 112.795Z" fill="white"/>
<path d="M103.811 106.345C103.811 106.345 103.91 109.128 102.742 108.337C102.442 108.133 100.641 104.154 100.641 104.154L103.811 106.345Z" fill="#2E4652"/>
<path d="M96.9062 110.546C96.9062 110.546 101.908 109.811 102.025 108.399C102.131 107.142 97.2121 106.206 97.2121 106.206" fill="#1C3644"/>
<path d="M100.641 104.154C100.641 104.154 103.437 107.645 102.615 108.09C102.312 108.044 97.2148 106.206 97.2148 106.206L100.644 104.154H100.641Z" fill="#03202F"/>
<path d="M102.507 109.842L103.477 109.298L103.567 108.01L102.686 107.259L101.713 107.803L101.624 109.091L102.507 109.842Z" fill="white"/>
<path d="M113.299 117.46C113.299 117.46 111.42 116.441 111.411 115.687C111.402 114.933 112.978 114.47 112.978 114.47L113.299 117.46Z" fill="white"/>
<path d="M113.262 117.439C113.262 117.439 113.472 115.835 113.045 115.733C112.53 115.613 111.062 119.092 111.062 119.092L113.262 117.439Z" fill="#818F97"/>
<path d="M111.065 119.092C111.065 119.092 113.397 116.583 112.616 116.064C111.766 115.499 108.593 117.776 108.593 117.776L111.065 119.092Z" fill="white"/>
<path d="M112.978 114.47C112.978 114.47 113.599 116.605 112.682 116.157C111.77 115.706 110.503 113.194 110.503 113.194L112.978 114.47Z" fill="#2E4652"/>
<path d="M108.594 117.779C108.594 117.779 112.211 116.561 112.242 115.922C112.295 114.89 108.322 114.813 108.322 114.813" fill="#1C3644"/>
<path d="M110.503 113.194C110.503 113.194 113.157 115.295 112.629 115.65C112.452 115.505 108.322 114.813 108.322 114.813L110.503 113.194Z" fill="#03202F"/>
<path d="M112.666 116.756L113.287 116.327L113.206 115.446L112.502 114.995L111.881 115.428L111.961 116.308L112.666 116.756Z" fill="white"/>
<path d="M111.955 104.658C111.955 104.658 109.823 103.298 109.931 102.433C110.039 101.568 112.035 101.197 112.035 101.197L111.955 104.655V104.658Z" fill="white"/>
<path d="M111.915 104.63C111.915 104.63 112.449 103.067 111.949 102.906C111.34 102.714 108.967 106.301 108.967 106.301L111.915 104.627V104.63Z" fill="#818F97"/>
<path d="M109.01 106.258C109.01 106.258 112.211 103.925 111.34 103.255C110.391 102.523 106.202 104.506 106.202 104.506L109.01 106.261V106.258Z" fill="white"/>
<path d="M112.038 101.197C112.038 101.197 112.563 104.16 111.519 103.552C110.475 102.946 109.224 99.4859 109.224 99.4859L112.041 101.194L112.038 101.197Z" fill="#2E4652"/>
<path d="M106.255 104.448C106.255 104.448 111.334 103.651 111.325 102.813C111.322 102.399 106.394 101.021 106.394 101.021" fill="#1C3644"/>
<path d="M109.221 99.489C109.221 99.489 112.218 102.356 111.516 102.708C111.325 102.523 106.301 101.123 106.301 101.123L109.221 99.489Z" fill="#03202F"/>
<path d="M111.306 104.04L112.134 103.607L112.174 102.591L111.386 102.004L110.558 102.436L110.518 103.453L111.306 104.04Z" fill="white"/>
<path d="M119.082 110.926C119.082 110.926 117.624 109.854 117.75 109.212C117.877 108.566 119.342 108.34 119.342 108.34L119.085 110.926H119.082Z" fill="white"/>
<path d="M119.054 110.901C119.054 110.901 119.203 109.786 118.85 109.653C118.421 109.496 116.833 112.079 116.833 112.079L119.054 110.901Z" fill="#818F97"/>
<path d="M116.833 112.079C116.833 112.079 119.107 110.327 118.517 109.802C117.877 109.23 114.908 110.691 114.908 110.691L116.833 112.079Z" fill="white"/>
<path d="M119.342 108.34C119.342 108.34 119.357 110.206 118.637 109.728C117.921 109.246 117.408 106.99 117.408 106.99L119.342 108.343V108.34Z" fill="#2E4652"/>
<path d="M114.908 110.695C114.908 110.695 118.127 110.194 118.236 109.36C118.334 108.618 115.208 108.136 115.208 108.136" fill="#1C3644"/>
<path d="M117.408 106.987C117.408 106.987 119.264 109.054 118.739 109.301C118.613 109.159 115.208 108.133 115.208 108.133L117.408 106.987Z" fill="#03202F"/>
<path d="M118.511 110.24L119.132 109.938L119.221 109.178L118.687 108.72L118.063 109.023L117.976 109.783L118.511 110.24Z" fill="white"/>
<path d="M120.806 100.595C120.806 100.595 120.581 100.051 120.259 99.4396C119.935 98.8248 119.292 98.2841 119.292 98.2841L120.806 100.598V100.595Z" fill="white"/>
<path d="M120.766 100.592C120.766 100.592 120.408 99.6836 120.021 99.7763C119.549 99.8937 119.663 102.866 119.663 102.866L120.766 100.589V100.592Z" fill="#03202F"/>
<path d="M119.66 102.866C119.66 102.866 120.485 100.2 119.629 100.104C118.699 99.9988 117.09 102.826 117.09 102.826L119.66 102.866Z" fill="white"/>
<path d="M119.289 98.281C119.289 98.281 120.837 99.9092 119.901 99.9246C118.968 99.9401 116.734 98.2717 116.734 98.2717L119.289 98.281Z" fill="#2E4652"/>
<path d="M117.093 102.826C117.093 102.826 119.966 100.533 119.502 99.7763C119.088 99.0997 115.631 100.512 115.631 100.512" fill="#1C3644"/>
<path d="M116.734 98.2717C116.734 98.2717 119.932 99.3809 119.648 99.8937C119.444 99.8474 115.628 100.512 115.628 100.512L116.731 98.2717H116.734Z" fill="#03202F"/>
<path d="M120.188 100.462L120.516 99.8474L120.08 99.1615L119.32 99.0905L118.993 99.7053L119.425 100.391L120.188 100.462Z" fill="white"/>
<path d="M31.9653 47.9875L31.023 49.3871L38.861 54.6546C39.173 54.8647 39.2225 55.1242 39.0155 55.4362L38.3759 56.3878C38.1659 56.6998 37.9063 56.7493 37.5943 56.5423L29.7563 51.2747L28.814 52.6743C28.6039 52.9863 28.3475 53.0388 28.0386 52.8318L27.087 52.1923C26.775 51.9822 26.7255 51.7227 26.9325 51.4107L30.0838 46.7239C30.2939 46.4119 30.5534 46.3625 30.8654 46.5695L31.817 47.209C32.1228 47.416 32.1723 47.6755 31.9622 47.9844L31.9653 47.9875Z" fill="#03202F"/>
<path d="M45.3952 47.6971L44.6259 48.5498C44.3757 48.8279 44.11 48.8402 43.832 48.59L40.5417 45.6117L38.8177 47.5179L42.108 50.4962C42.3861 50.7464 42.4015 51.0121 42.1544 51.284L41.3789 52.1398C41.1318 52.4147 40.8692 52.424 40.5911 52.1738L32.3268 44.6941C32.0487 44.4439 32.0333 44.1782 32.2804 43.9063L33.0559 43.0505C33.303 42.7756 33.5656 42.7663 33.8437 43.0166L37.134 45.9948L38.8579 44.0886L35.5676 41.1104C35.2896 40.8601 35.2772 40.5944 35.5275 40.3164L36.2967 39.4637C36.5439 39.1887 36.8065 39.1794 37.0845 39.4297L45.3489 46.9093C45.6269 47.1595 45.6424 47.4252 45.3921 47.6971H45.3952Z" fill="#03202F"/>
<path d="M50.4126 43.3688L47.9658 45.4263C47.5116 45.8094 46.9864 45.9732 46.3932 45.9238C45.8001 45.8743 45.3119 45.621 44.9288 45.1637L38.7808 37.851C38.5398 37.5636 38.5614 37.301 38.8488 37.057L42.4789 34.0046C42.7662 33.7636 43.0288 33.7852 43.2729 34.0725L44.0113 34.953C44.2492 35.2373 44.2244 35.4968 43.9371 35.7409L41.6107 37.6965L43.3717 39.7881L45.315 38.1537C45.6023 37.9128 45.8649 37.9344 46.1059 38.2217L46.8443 39.1022C47.0853 39.3895 47.0637 39.6521 46.7763 39.8931L44.8331 41.5274L46.5941 43.619L48.9544 41.6325C49.2417 41.3915 49.5043 41.4131 49.7484 41.7004L50.4837 42.5748C50.7247 42.8621 50.7031 43.1247 50.4157 43.3657L50.4126 43.3688Z" fill="#03202F"/>
<path d="M58.2846 38.4194L56.4866 39.3957C55.9552 39.683 55.3836 39.7386 54.7657 39.5594C54.1509 39.3803 53.6999 39.025 53.4095 38.4936L53.1994 38.1074C53.0202 37.7768 53.0974 37.5235 53.4249 37.3443L54.4352 36.7975C54.7596 36.6214 55.0129 36.6986 55.1921 37.0261L55.396 37.403L57.2095 36.4205L52.7051 28.1191C52.5259 27.7886 52.6 27.5352 52.9244 27.3591L53.9408 26.8092C54.2652 26.6331 54.5186 26.7103 54.6978 27.0378L59.2022 35.3392C59.4926 35.8737 59.5421 36.4514 59.3536 37.0662C59.1651 37.681 58.8068 38.1321 58.2846 38.4132V38.4194Z" fill="#03202F"/>
<path d="M65.3902 35.3794L63.0453 36.2444C62.4799 36.4545 61.9022 36.4267 61.3214 36.161C60.7375 35.8953 60.342 35.4813 60.1319 34.9129L56.8571 26.0461C56.7273 25.6939 56.8386 25.4529 57.1908 25.3232L58.2597 24.9277C58.6119 24.7979 58.8529 24.9092 58.9826 25.2614L62.2544 34.122L64.6364 33.2415L61.3646 24.3809C61.2349 24.0287 61.343 23.7877 61.689 23.661L62.7672 23.2625C63.1194 23.1327 63.3604 23.2439 63.4902 23.5961L66.7588 32.4475C66.9689 33.019 66.9349 33.5968 66.6569 34.1838C66.3757 34.7708 65.9556 35.1662 65.3933 35.3732L65.3902 35.3794Z" fill="#03202F"/>
<path d="M72.8175 33.4299L70.4231 33.9304C69.8361 34.054 69.2739 33.9428 68.7363 33.5968C68.1987 33.2507 67.8681 32.7842 67.7446 32.1911L66.1535 24.5971C66.0299 24.0101 66.1473 23.4478 66.5057 22.9072C66.8641 22.3665 67.3368 22.036 67.9207 21.9124L70.2996 21.415C70.8866 21.2914 71.4519 21.4057 71.9957 21.7579C72.5394 22.1101 72.8731 22.5797 72.9967 23.1636L73.077 23.5467C73.1542 23.9082 73.009 24.1275 72.6476 24.2017L71.523 24.4365C71.1553 24.5137 70.936 24.3716 70.8588 24.0101L70.7784 23.627L68.3779 24.1306L69.9659 31.7091L72.3664 31.2055L71.8072 28.53L70.8371 28.7339C70.4757 28.8112 70.2563 28.6629 70.1791 28.2983L69.9443 27.1738C69.867 26.8061 70.0091 26.5868 70.3706 26.5095L73.0152 25.9565C73.3767 25.8793 73.596 26.0276 73.6733 26.3921L74.5847 30.7421C74.7082 31.3384 74.5939 31.9037 74.2325 32.4413C73.8741 32.9758 73.4014 33.3064 72.8144 33.4299H72.8175Z" fill="#03202F"/>
<path d="M80.4421 32.5834L78.0015 32.7317C77.4021 32.7688 76.8645 32.5772 76.3826 32.1571C75.9006 31.7369 75.6411 31.2271 75.604 30.6247L75.1313 22.8825C75.0943 22.2862 75.292 21.7456 75.7245 21.2605C76.157 20.7785 76.673 20.519 77.2693 20.482L79.6945 20.3337C80.2938 20.2966 80.8345 20.4912 81.3226 20.9176C81.8108 21.3439 82.0734 21.8568 82.1105 22.453L82.1352 22.8423C82.1568 23.213 81.9838 23.4077 81.6161 23.4293L80.4699 23.5004C80.0961 23.522 79.8984 23.349 79.8737 22.9813L79.849 22.5921L77.4021 22.7435L77.8748 30.4702L80.3217 30.3219L80.1548 27.5939L79.1631 27.6557C78.7955 27.6773 78.5977 27.5012 78.5761 27.1274L78.505 25.9812C78.4834 25.6074 78.6564 25.4097 79.0241 25.3849L81.7212 25.2212C82.0888 25.1996 82.2866 25.3757 82.3082 25.7495L82.5801 30.186C82.6171 30.7946 82.4194 31.3384 81.9869 31.8141C81.5544 32.293 81.0384 32.5494 80.4421 32.5865V32.5834Z" fill="#03202F"/>
<path d="M88.4932 32.846L85.6015 32.6421C85.0083 32.602 84.5171 32.3548 84.1216 31.9037C83.7262 31.4527 83.5501 30.9305 83.5933 30.3405L84.2606 20.8094C84.2854 20.4356 84.4862 20.2626 84.86 20.2873L86.0062 20.3676C86.38 20.3924 86.553 20.5932 86.5283 20.967L85.8672 30.3899L88.6477 30.5845C89.0153 30.6092 89.1883 30.8101 89.1605 31.1839L89.0802 32.3208C89.0555 32.6946 88.8578 32.8676 88.487 32.8429L88.4932 32.846Z" fill="#03202F"/>
<path d="M91.5583 33.328L90.4244 33.1457C90.0537 33.087 89.8992 32.8707 89.9579 32.5L91.7405 21.4953C91.7992 21.1246 92.0155 20.9701 92.3862 21.0288L93.5201 21.2111C93.8908 21.2698 94.0453 21.486 93.9866 21.8568L92.204 32.8615C92.1453 33.2322 91.929 33.3867 91.5583 33.328Z" fill="#03202F"/>
<path d="M97.4526 34.3197L96.7914 27.8503L95.2498 33.5103C95.1509 33.8717 94.9223 34.0046 94.5608 33.9057L93.4672 33.6091C93.1057 33.5103 92.9728 33.2816 93.0717 32.9202L95.9974 22.1626C96.0963 21.8012 96.3249 21.6683 96.6864 21.7672L98.1199 22.1564C98.3609 22.2213 98.4968 22.3851 98.5308 22.6415L99.1981 29.1201L100.74 23.4509C100.839 23.0895 101.067 22.9566 101.429 23.0555L102.513 23.3521C102.875 23.4509 103.007 23.6796 102.909 24.041L99.9829 34.7893C99.8871 35.1446 99.6585 35.2774 99.3032 35.1786L97.8697 34.7955C97.6163 34.7306 97.4773 34.573 97.4495 34.3166L97.4526 34.3197Z" fill="#03202F"/>
<path d="M104.797 37.471L102.557 36.4885C102.007 36.2475 101.615 35.8305 101.38 35.2373C101.142 34.6441 101.145 34.0695 101.389 33.5164L104.506 26.4137C104.747 25.8669 105.171 25.4745 105.776 25.2428C106.382 25.0111 106.959 25.0142 107.506 25.2552L109.731 26.2315C110.277 26.4724 110.673 26.8926 110.911 27.4951C111.149 28.0975 111.149 28.6721 110.911 29.2221L110.753 29.5805C110.605 29.9203 110.361 30.013 110.021 29.8647L108.971 29.4044C108.628 29.253 108.529 29.0089 108.677 28.6691L108.835 28.3107L106.589 27.3251L103.477 34.4124L105.724 35.3979L106.823 32.8955L105.915 32.4969C105.575 32.3486 105.483 32.1015 105.634 31.7585L106.097 30.7081C106.249 30.3652 106.493 30.2663 106.833 30.4146L109.307 31.5021C109.647 31.6504 109.74 31.8976 109.588 32.2405L107.803 36.3093C107.559 36.8685 107.132 37.2609 106.53 37.4864C105.927 37.715 105.35 37.7058 104.803 37.4648L104.797 37.471Z" fill="#03202F"/>
<path d="M115.937 43.7395C115.406 43.7889 114.92 43.6561 114.482 43.3379L112.529 41.9167C112.044 41.5645 111.751 41.0702 111.649 40.4399C111.547 39.8097 111.67 39.2474 112.029 38.7593L116.595 32.4876C116.947 32.0026 117.441 31.7122 118.081 31.6164C118.717 31.5206 119.28 31.6473 119.762 31.9995L121.702 33.4114C122.187 33.7636 122.48 34.2641 122.589 34.9067C122.697 35.5524 122.573 36.1178 122.221 36.5997L122.008 36.8901C121.791 37.1898 121.529 37.2269 121.226 37.0075L120.299 36.3309C120 36.1116 119.959 35.8552 120.179 35.5555L120.395 35.2589L118.424 33.8254L113.867 40.0847L115.838 41.5182L116.091 41.1721C116.311 40.8694 116.573 40.8261 116.87 41.0424L117.797 41.719C118.1 41.9383 118.14 42.2009 117.92 42.5037L117.667 42.8497C117.281 43.3811 116.703 43.6746 115.94 43.7364L115.937 43.7395Z" fill="#03202F"/>
<path d="M120.528 48.6827L118.43 46.6838C118.001 46.2729 117.778 45.7693 117.763 45.173C117.748 44.5737 117.945 44.0608 118.353 43.6314L124.946 36.7171C125.206 36.4453 125.471 36.4391 125.74 36.6986L126.571 37.4926C126.843 37.7521 126.849 38.0178 126.59 38.2866L120.071 45.1205L122.088 47.0452C122.357 47.3017 122.36 47.5643 122.101 47.8361L121.313 48.661C121.053 48.9329 120.791 48.9391 120.522 48.6857L120.528 48.6827Z" fill="#03202F"/>
<path d="M124.436 53.2829L122.873 51.3334C122.496 50.8607 122.339 50.3077 122.406 49.6713C122.471 49.0348 122.74 48.5251 123.213 48.1482L130.584 42.2318C130.878 41.997 131.14 42.0248 131.375 42.3183L132.089 43.2081C132.324 43.5016 132.296 43.7642 132.002 43.999L124.637 49.9092L126.225 51.8895L133.59 45.9794C133.884 45.7446 134.143 45.7724 134.375 46.0597L135.095 46.9556C135.33 47.2491 135.302 47.5117 135.008 47.7465L127.646 53.6505C127.17 54.0305 126.611 54.1819 125.966 54.1016C125.32 54.0213 124.81 53.7494 124.436 53.2798V53.2829Z" fill="#03202F"/>
<path d="M128.595 59.6163L126.55 56.1344C126.361 55.8162 126.429 55.5629 126.754 55.3713L136.365 49.7238C136.689 49.5353 136.943 49.5971 137.131 49.9184L139.176 53.4003C139.476 53.9131 139.55 54.4816 139.393 55.1087C139.235 55.7359 138.898 56.2024 138.382 56.5052L136.631 57.534C136.186 57.7966 135.71 57.8862 135.203 57.8028L134.604 57.7101L134.381 58.3033C134.202 58.779 133.893 59.1436 133.458 59.4L131.694 60.4381C131.172 60.7439 130.603 60.815 129.982 60.6482C129.361 60.4813 128.901 60.1384 128.595 59.6225V59.6163ZM129.367 56.4619L130.547 58.4701L132.905 57.086L131.725 55.0778L129.367 56.4619ZM133.683 53.9255L134.863 55.9336L137.221 54.5495L136.041 52.5414L133.683 53.9255Z" fill="#03202F"/>
<path d="M82.4999 150.626C44.9351 150.626 14.374 120.065 14.374 82.5C14.374 44.9351 44.9351 14.3741 82.4999 14.3741C120.065 14.3741 150.626 44.9351 150.626 82.5C150.626 120.065 120.065 150.626 82.4999 150.626ZM82.4999 15.7736C45.7074 15.7736 15.7736 45.7075 15.7736 82.5C15.7736 119.292 45.7074 149.226 82.4999 149.226C119.292 149.226 149.226 119.292 149.226 82.5C149.226 45.7075 119.296 15.7736 82.4999 15.7736Z" fill="#FF073A"/>
</svg>
