<svg width="20" height="20" viewBox="0 0 20 20" fill="none" xmlns="http://www.w3.org/2000/svg">
<path d="M11.9126 10.0147C11.9126 11.0202 11.0974 11.8355 10.0918 11.8355C9.08625 11.8355 8.271 11.0202 8.271 10.0147C8.271 9.0091 9.08625 8.19385 10.0918 8.19385C11.0974 8.19385 11.9126 9.0091 11.9126 10.0147Z" fill="white"/>
<path d="M13.1458 4.55225H7.04075C5.71186 4.55225 4.63086 5.63325 4.63086 6.96214V13.0672C4.63086 14.3961 5.71186 15.4771 7.04075 15.4771H13.1458C14.4747 15.4771 15.5557 14.3961 15.5557 13.0672V6.96214C15.5557 5.63325 14.4747 4.55225 13.1458 4.55225ZM10.0933 13.027C8.43224 13.027 7.08091 11.6757 7.08091 10.0147C7.08091 8.35363 8.43224 7.0023 10.0933 7.0023C11.7543 7.0023 13.1056 8.35363 13.1056 10.0147C13.1056 11.6757 11.7543 13.027 10.0933 13.027ZM13.5475 7.16296C13.2147 7.16296 12.945 6.89326 12.945 6.56049C12.945 6.22772 13.2147 5.95802 13.5475 5.95802C13.8802 5.95802 14.1499 6.22772 14.1499 6.56049C14.1499 6.89326 13.8802 7.16296 13.5475 7.16296Z" fill="white"/>
<path d="M14.7266 0H5.27344C2.36572 0 0 2.36572 0 5.27344V14.7266C0 17.6343 2.36572 20 5.27344 20H14.7266C17.6343 20 20 17.6343 20 14.7266V5.27344C20 2.36572 17.6343 0 14.7266 0ZM16.4844 12.9688C16.4844 14.9072 14.9072 16.4844 12.9688 16.4844H7.03125C5.09277 16.4844 3.51562 14.9072 3.51562 12.9688V7.03125C3.51562 5.09277 5.09277 3.51562 7.03125 3.51562H12.9688C14.9072 3.51562 16.4844 5.09277 16.4844 7.03125V12.9688Z" fill="white"/>
</svg>
