<svg width="44" height="44" viewBox="0 0 44 44" fill="none" xmlns="http://www.w3.org/2000/svg">
<g opacity="0.3">
<path d="M32.8276 22.7471C30.1401 22.7376 27.5693 23.8444 25.7293 25.8035C23.0829 23.6922 19.7951 22.5479 16.4097 22.5607H16.383C12.3143 22.5693 8.53857 24.1508 5.7402 27.0292C2.89711 29.9345 1.3425 33.9055 1.35111 38.2143C1.35278 38.4502 1.44529 38.6758 1.60892 38.8449C1.77588 39.0122 2.00313 39.1053 2.23954 39.1028L25.5604 39.0583C25.6138 39.1205 25.6668 39.1739 25.7205 39.2361C28.7822 42.4765 33.6491 43.2343 37.5515 41.0788C41.4539 38.923 43.4035 34.4003 42.2909 30.0831C41.1783 25.766 37.2859 22.7485 32.8276 22.7471ZM3.15464 37.317C3.34133 33.8255 4.69176 30.6363 7.01034 28.2643C9.47145 25.7324 12.8029 24.3375 16.383 24.3375H16.4097C19.3978 24.3258 22.3004 25.3348 24.6365 27.1981C22.6682 30.2382 22.5384 34.1166 24.2989 37.2817L3.15464 37.317ZM32.8276 40.5154C28.4116 40.5154 24.832 36.9356 24.832 32.5195C24.832 28.104 28.4116 24.5239 32.8276 24.5239C37.2437 24.5239 40.8232 28.104 40.8232 32.5195C40.8232 36.9356 37.2437 40.5154 32.8276 40.5154Z" fill="white"/>
<path d="M16.3919 20.4453C21.5781 20.4453 25.7824 16.2409 25.7824 11.0548C25.7824 5.86841 21.5781 1.66406 16.3919 1.66406C11.2058 1.66406 7.00146 5.86841 7.00146 11.0548C7.00647 16.2387 11.2078 20.4403 16.3919 20.4453ZM16.3919 3.44092C20.5971 3.44092 24.0056 6.84991 24.0056 11.0548C24.0056 15.2594 20.5971 18.6684 16.3919 18.6684C12.187 18.6684 8.77833 15.2594 8.77833 11.0548C8.78333 6.85186 12.189 3.4462 16.3919 3.44092Z" fill="white"/>
<path d="M35.8217 29.8091L31.5304 33.3006L29.958 31.4615C29.6391 31.0884 29.0785 31.0448 28.7056 31.3637C28.3325 31.6826 28.2889 32.2435 28.6078 32.6166L30.74 35.1127C30.9092 35.3094 31.1556 35.423 31.4154 35.4236C31.6187 35.4258 31.8165 35.3563 31.9746 35.2283L36.9413 31.1859C37.3163 30.8758 37.371 30.3208 37.0641 29.943C36.7565 29.5649 36.2023 29.5054 35.8217 29.8091Z" fill="white"/>
</g>
</svg>
