<svg width="24" height="24" viewBox="0 0 24 24" fill="none" xmlns="http://www.w3.org/2000/svg">
<path d="M4.00531 21.7491C3.72791 21.7477 3.45477 21.6808 3.20814 21.5539C2.96151 21.4269 2.7484 21.2434 2.58617 21.0184C2.42394 20.7934 2.3172 20.5332 2.27464 20.2591C2.23209 19.985 2.25493 19.7047 2.34131 19.4411L3.18231 16.9411C3.28125 16.6618 3.27161 16.3556 3.15531 16.0831C2.19184 14.001 1.99177 11.6464 2.59016 9.43163C3.18855 7.2169 4.54724 5.28337 6.42814 3.96985C8.30904 2.65634 10.5922 2.04661 12.8775 2.24751C15.1629 2.44841 17.3046 3.44712 18.9275 5.06865C20.5504 6.69017 21.5509 8.83109 21.7537 11.1163C21.9565 13.4014 21.3487 15.6851 20.0368 17.5671C18.7248 19.4491 16.7924 20.8094 14.5782 21.4096C12.364 22.0099 10.0091 21.8118 7.92631 20.8501C7.64856 20.7304 7.33567 20.7211 7.05131 20.8241L4.56231 21.6601C4.38259 21.7193 4.19454 21.7494 4.00531 21.7491ZM12.0053 3.74907C10.6213 3.74627 9.25886 4.0923 8.04391 4.7552C6.82896 5.4181 5.80065 6.37649 5.05399 7.54184C4.30732 8.70718 3.86637 10.0419 3.77187 11.4227C3.67737 12.8035 3.93237 14.1859 4.51331 15.4421C4.79208 16.0609 4.82567 16.7624 4.60731 17.4051L3.76431 19.9171C3.74901 19.9612 3.74692 20.0088 3.75828 20.0541C3.76965 20.0994 3.79399 20.1404 3.82831 20.1721C3.86044 20.2063 3.90178 20.2306 3.94737 20.242C3.99296 20.2533 4.04085 20.2513 4.08531 20.2361L6.58531 19.3971C7.23365 19.1736 7.94302 19.2072 8.56731 19.4911C9.68757 20.005 10.9088 20.2612 12.1411 20.2409C13.3735 20.2207 14.5856 19.9244 15.6884 19.374C16.7911 18.8235 17.7565 18.0328 18.5134 17.0601C19.2703 16.0874 19.7995 14.9574 20.0622 13.7532C20.3248 12.5489 20.3141 11.3012 20.031 10.1016C19.7478 8.90209 19.1994 7.78127 18.426 6.82162C17.6525 5.86198 16.6738 5.08791 15.5618 4.55635C14.4498 4.0248 13.2328 3.74928 12.0003 3.75007L12.0053 3.74907ZM13.0203 9.00007C13.0203 8.73485 12.915 8.4805 12.7274 8.29296C12.5399 8.10542 12.2855 8.00007 12.0203 8.00007H12.0103C11.813 8.00204 11.6206 8.06236 11.4575 8.17344C11.2944 8.28451 11.1677 8.44137 11.0936 8.62426C11.0194 8.80715 11.001 9.0079 11.0408 9.20122C11.0805 9.39453 11.1765 9.57178 11.3167 9.71063C11.457 9.84949 11.6352 9.94374 11.8289 9.98152C12.0226 10.0193 12.2231 9.99892 12.4053 9.92295C12.5874 9.84698 12.743 9.71881 12.8524 9.55458C12.9619 9.39036 13.0203 9.19742 13.0203 9.00007ZM12.7503 15.0001V12.0001C12.7503 11.8012 12.6713 11.6104 12.5306 11.4697C12.39 11.3291 12.1992 11.2501 12.0003 11.2501C11.8014 11.2501 11.6106 11.3291 11.47 11.4697C11.3293 11.6104 11.2503 11.8012 11.2503 12.0001V15.0001C11.2503 15.199 11.3293 15.3897 11.47 15.5304C11.6106 15.671 11.8014 15.7501 12.0003 15.7501C12.1992 15.7501 12.39 15.671 12.5306 15.5304C12.6713 15.3897 12.7503 15.199 12.7503 15.0001Z" fill="#0A5FFF"/>
</svg>
