<svg width="18" height="18" viewBox="0 0 18 18" fill="none" xmlns="http://www.w3.org/2000/svg">
<g clip-path="url(#clip0_310_4751)">
<path d="M12.7474 1.49219H5.24912C3.17854 1.49219 1.5 3.16107 1.5 5.21975V12.6749C1.5 14.7335 3.17854 16.4024 5.24912 16.4024H12.7474C14.8179 16.4024 16.4965 14.7335 16.4965 12.6749V5.21975C16.4965 3.16107 14.8179 1.49219 12.7474 1.49219Z" stroke="#FF073A" stroke-width="2" stroke-linecap="round" stroke-linejoin="round"/>
<path d="M11.9974 8.47823C12.0899 9.09868 11.9834 9.73234 11.6928 10.2891C11.4022 10.8458 10.9425 11.2973 10.379 11.5793C9.8155 11.8613 9.1769 11.9595 8.55405 11.8598C7.9312 11.7602 7.35581 11.4678 6.90973 11.0243C6.46364 10.5808 6.16957 10.0087 6.06935 9.3894C5.96912 8.77014 6.06784 8.13521 6.35147 7.57495C6.6351 7.01468 7.0892 6.5576 7.64916 6.26871C8.20913 5.97982 8.84646 5.87385 9.4705 5.96585C10.107 6.0597 10.6964 6.35461 11.1514 6.80702C11.6064 7.25943 11.903 7.84535 11.9974 8.47823Z" stroke="#FF073A" stroke-width="2" stroke-linecap="round" stroke-linejoin="round"/>
<ellipse cx="13.1211" cy="4.84483" rx="1.125" ry="1.11827" fill="white"/>
</g>
<defs>
<clipPath id="clip0_310_4751">
<rect width="17.9958" height="17.8923" fill="white"/>
</clipPath>
</defs>
</svg>
