<svg width="149" height="91" viewBox="0 0 149 91" fill="none" xmlns="http://www.w3.org/2000/svg">
<g opacity="0.3" clip-path="url(#clip0_310_3732)">
<path d="M146.249 90.9099C147.707 90.9099 148.889 89.7279 148.889 88.2699C148.889 86.8119 147.707 85.6299 146.249 85.6299C144.791 85.6299 143.609 86.8119 143.609 88.2699C143.609 89.7279 144.791 90.9099 146.249 90.9099Z" fill="#0A5FFF"/>
<path d="M122.31 90.9099C123.768 90.9099 124.95 89.7279 124.95 88.2699C124.95 86.8119 123.768 85.6299 122.31 85.6299C120.852 85.6299 119.67 86.8119 119.67 88.2699C119.67 89.7279 120.852 90.9099 122.31 90.9099Z" fill="#0A5FFF"/>
<path d="M98.3802 90.9104C98.9048 90.9123 99.4181 90.7586 99.8552 90.4686C100.292 90.1787 100.634 89.7654 100.836 89.2814C101.038 88.7973 101.092 88.2642 100.991 87.7495C100.889 87.2348 100.638 86.7617 100.268 86.3901C99.8975 86.0185 99.4253 85.7651 98.911 85.662C98.3967 85.5589 97.8633 85.6108 97.3785 85.8111C96.8937 86.0114 96.4793 86.3511 96.1876 86.7871C95.896 87.2231 95.7402 87.7358 95.7402 88.2603C95.7402 88.9614 96.0181 89.6339 96.5129 90.1306C97.0078 90.6273 97.6792 90.9077 98.3802 90.9104Z" fill="#0A5FFF"/>
<path d="M74.4498 90.9104C74.9739 90.9104 75.4863 90.7549 75.9221 90.4638C76.3579 90.1726 76.6975 89.7587 76.8981 89.2745C77.0986 88.7903 77.1511 88.2574 77.0488 87.7434C76.9466 87.2293 76.6942 86.7572 76.3236 86.3865C75.953 86.0159 75.4808 85.7635 74.9668 85.6613C74.4527 85.559 73.9199 85.6115 73.4357 85.8121C72.9514 86.0127 72.5376 86.3523 72.2465 86.7881C71.9553 87.2239 71.7998 87.7362 71.7998 88.2603C71.7998 88.6083 71.8683 88.953 72.0015 89.2745C72.1346 89.596 72.3299 89.8881 72.5759 90.1342C72.822 90.3802 73.1142 90.5755 73.4357 90.7087C73.7572 90.8419 74.1018 90.9104 74.4498 90.9104Z" fill="#0A5FFF"/>
<path d="M50.5101 90.9099C51.9681 90.9099 53.1501 89.7279 53.1501 88.2699C53.1501 86.8119 51.9681 85.6299 50.5101 85.6299C49.0521 85.6299 47.8701 86.8119 47.8701 88.2699C47.8701 89.7279 49.0521 90.9099 50.5101 90.9099Z" fill="#0A5FFF"/>
<path d="M27.5901 90.5952C28.9386 90.0408 29.5823 88.4982 29.0279 87.1497C28.4735 85.8012 26.9308 85.1575 25.5823 85.7119C24.2338 86.2664 23.5901 87.809 24.1445 89.1575C24.6989 90.506 26.2416 91.1497 27.5901 90.5952Z" fill="#0A5FFF"/>
<path d="M2.65017 85.6602C2.1252 85.6582 1.61153 85.8122 1.17421 86.1026C0.736895 86.393 0.395678 86.8068 0.193868 87.2915C-0.00794293 87.7761 -0.0612624 88.3097 0.0406694 88.8247C0.142601 89.3397 0.395167 89.8128 0.766377 90.184C1.13759 90.5552 1.61065 90.8078 2.12563 90.9097C2.64061 91.0116 3.17433 90.9583 3.65896 90.7565C4.14359 90.5547 4.55737 90.2135 4.8478 89.7762C5.13822 89.3389 5.29216 88.8252 5.29018 88.3002C5.28755 87.6008 5.00858 86.9308 4.51406 86.4363C4.01953 85.9418 3.34953 85.6628 2.65017 85.6602Z" fill="#0A5FFF"/>
<path d="M146.249 69.4997C147.707 69.4997 148.889 68.3178 148.889 66.8597C148.889 65.4017 147.707 64.2197 146.249 64.2197C144.791 64.2197 143.609 65.4017 143.609 66.8597C143.609 68.3178 144.791 69.4997 146.249 69.4997Z" fill="#0A5FFF"/>
<path d="M122.31 69.4997C123.768 69.4997 124.95 68.3178 124.95 66.8597C124.95 65.4017 123.768 64.2197 122.31 64.2197C120.852 64.2197 119.67 65.4017 119.67 66.8597C119.67 68.3178 120.852 69.4997 122.31 69.4997Z" fill="#0A5FFF"/>
<path d="M98.3803 69.5002C98.9052 69.5022 99.419 69.3482 99.8563 69.0578C100.294 68.7673 100.635 68.3535 100.837 67.8689C101.038 67.3843 101.092 66.8506 100.99 66.3357C100.888 65.8207 100.635 65.3475 100.264 64.9763C99.893 64.6051 99.4198 64.3526 98.9048 64.2506C98.3898 64.1487 97.8562 64.202 97.3716 64.4038C96.887 64.6056 96.4732 64.9469 96.1828 65.3842C95.8923 65.8215 95.7383 66.3352 95.7403 66.8602C95.7429 67.5595 96.022 68.2295 96.5165 68.724C97.011 69.2185 97.6809 69.4976 98.3803 69.5002Z" fill="#0A5FFF"/>
<path d="M74.4498 69.5002C74.9744 69.5002 75.4871 69.3445 75.9231 69.0529C76.3591 68.7612 76.6988 68.3468 76.8991 67.862C77.0993 67.3772 77.1512 66.8438 77.0481 66.3295C76.9451 65.8152 76.6917 65.343 76.3201 64.9728C75.9485 64.6026 75.4753 64.351 74.9606 64.2499C74.4459 64.1488 73.9128 64.2027 73.4287 64.4048C72.9447 64.6069 72.5316 64.9481 72.2416 65.3852C71.9516 65.8223 71.7978 66.3356 71.7998 66.8602C71.7998 67.2077 71.8684 67.5518 72.0017 67.8728C72.135 68.1937 72.3304 68.4852 72.5766 68.7305C72.8228 68.9758 73.115 69.17 73.4364 69.3021C73.7579 69.4342 74.1023 69.5015 74.4498 69.5002Z" fill="#0A5FFF"/>
<path d="M50.5101 69.4997C51.9681 69.4997 53.1501 68.3178 53.1501 66.8597C53.1501 65.4017 51.9681 64.2197 50.5101 64.2197C49.0521 64.2197 47.8701 65.4017 47.8701 66.8597C47.8701 68.3178 49.0521 69.4997 50.5101 69.4997Z" fill="#0A5FFF"/>
<path d="M27.5921 69.193C28.9406 68.6385 29.5843 67.0959 29.0299 65.7474C28.4754 64.3989 26.9328 63.7551 25.5843 64.3096C24.2358 64.864 23.592 66.4067 24.1465 67.7552C24.7009 69.1037 26.2436 69.7474 27.5921 69.193Z" fill="#0A5FFF"/>
<path d="M2.65004 69.5002C3.17459 69.5002 3.68731 69.3445 4.12331 69.0529C4.55931 68.7612 4.89899 68.3468 5.09926 67.862C5.29954 67.3772 5.3515 66.8438 5.24843 66.3295C5.14537 65.8152 4.89189 65.343 4.52028 64.9728C4.14867 64.6026 3.67561 64.351 3.16091 64.2499C2.6462 64.1488 2.11309 64.2027 1.62905 64.4048C1.145 64.6069 0.731771 64.9481 0.441791 65.3852C0.151812 65.8223 -0.00196055 66.3356 1.88721e-05 66.8602C1.63788e-05 67.2077 0.0686259 67.5518 0.201923 67.8728C0.33522 68.1937 0.530667 68.4852 0.776874 68.7305C1.02308 68.9758 1.31528 69.17 1.63674 69.3021C1.95819 69.4342 2.30251 69.5015 2.65004 69.5002Z" fill="#0A5FFF"/>
<path d="M146.249 48.0896C147.707 48.0896 148.889 46.9076 148.889 45.4496C148.889 43.9915 147.707 42.8096 146.249 42.8096C144.791 42.8096 143.609 43.9915 143.609 45.4496C143.609 46.9076 144.791 48.0896 146.249 48.0896Z" fill="#0A5FFF"/>
<path d="M122.31 48.0896C123.768 48.0896 124.95 46.9076 124.95 45.4496C124.95 43.9915 123.768 42.8096 122.31 42.8096C120.852 42.8096 119.67 43.9915 119.67 45.4496C119.67 46.9076 120.852 48.0896 122.31 48.0896Z" fill="#0A5FFF"/>
<path d="M98.3802 48.0998C98.9048 48.1018 99.4181 47.9481 99.8552 47.6581C100.292 47.3681 100.634 46.9549 100.836 46.4708C101.038 45.9868 101.092 45.4537 100.991 44.939C100.889 44.4243 100.638 43.9512 100.268 43.5795C99.8975 43.2079 99.4253 42.9545 98.911 42.8515C98.3967 42.7484 97.8633 42.8003 97.3785 43.0006C96.8937 43.2008 96.4793 43.5405 96.1876 43.9765C95.896 44.4125 95.7402 44.9252 95.7402 45.4498C95.7402 46.1509 96.0181 46.8234 96.5129 47.3201C97.0078 47.8168 97.6792 48.0972 98.3802 48.0998Z" fill="#0A5FFF"/>
<path d="M74.4498 48.0998C74.9739 48.0998 75.4863 47.9444 75.9221 47.6532C76.3579 47.362 76.6975 46.9482 76.8981 46.4639C77.0986 45.9797 77.1511 45.4469 77.0488 44.9328C76.9466 44.4188 76.6942 43.9465 76.3236 43.5759C75.953 43.2053 75.4808 42.953 74.9668 42.8507C74.4527 42.7485 73.9199 42.801 73.4357 43.0015C72.9514 43.2021 72.5376 43.5418 72.2465 43.9776C71.9553 44.4133 71.7998 44.9257 71.7998 45.4498C71.7998 45.7978 71.8683 46.1424 72.0015 46.4639C72.1346 46.7855 72.3299 47.0775 72.5759 47.3236C72.822 47.5697 73.1142 47.7649 73.4357 47.8981C73.7572 48.0313 74.1018 48.0998 74.4498 48.0998Z" fill="#0A5FFF"/>
<path d="M50.5101 48.0896C51.9681 48.0896 53.1501 46.9076 53.1501 45.4496C53.1501 43.9915 51.9681 42.8096 50.5101 42.8096C49.0521 42.8096 47.8701 43.9915 47.8701 45.4496C47.8701 46.9076 49.0521 48.0896 50.5101 48.0896Z" fill="#0A5FFF"/>
<path d="M27.5911 47.7915C28.9396 47.2371 29.5833 45.6944 29.0289 44.3459C28.4744 42.9974 26.9318 42.3538 25.5833 42.9082C24.2348 43.4626 23.591 45.0052 24.1455 46.3537C24.6999 47.7022 26.2426 48.346 27.5911 47.7915Z" fill="#0A5FFF"/>
<path d="M2.65002 48.0998C3.17414 48.0998 3.68652 47.9444 4.12231 47.6532C4.5581 47.362 4.89769 46.9482 5.09827 46.4639C5.29884 45.9797 5.3514 45.4469 5.24915 44.9328C5.14689 44.4188 4.89454 43.9465 4.52393 43.5759C4.15332 43.2053 3.68104 42.953 3.16699 42.8507C2.65294 42.7485 2.12021 42.801 1.63599 43.0015C1.15176 43.2021 0.737841 43.5418 0.446655 43.9776C0.15547 44.4133 0 44.9257 0 45.4498C0 46.1526 0.279274 46.8266 0.776245 47.3236C1.27322 47.8206 1.9472 48.0998 2.65002 48.0998Z" fill="#0A5FFF"/>
<path d="M146.249 26.6902C147.707 26.6902 148.889 25.5082 148.889 24.0502C148.889 22.5921 147.707 21.4102 146.249 21.4102C144.791 21.4102 143.609 22.5921 143.609 24.0502C143.609 25.5082 144.791 26.6902 146.249 26.6902Z" fill="#0A5FFF"/>
<path d="M122.31 26.6902C123.768 26.6902 124.95 25.5082 124.95 24.0502C124.95 22.5921 123.768 21.4102 122.31 21.4102C120.852 21.4102 119.67 22.5921 119.67 24.0502C119.67 25.5082 120.852 26.6902 122.31 26.6902Z" fill="#0A5FFF"/>
<path d="M98.3803 26.6604C98.9052 26.6623 99.419 26.5083 99.8563 26.2179C100.294 25.9275 100.635 25.5137 100.837 25.0291C101.038 24.5444 101.092 24.0108 100.99 23.4958C100.888 22.9808 100.635 22.5078 100.264 22.1366C99.893 21.7653 99.4198 21.5127 98.9048 21.4108C98.3898 21.3089 97.8562 21.3622 97.3716 21.564C96.887 21.7658 96.4732 22.107 96.1828 22.5443C95.8923 22.9817 95.7383 23.4954 95.7403 24.0203C95.7429 24.7197 96.022 25.3897 96.5165 25.8842C97.011 26.3788 97.6809 26.6577 98.3803 26.6604Z" fill="#0A5FFF"/>
<path d="M74.4498 26.6604C74.9744 26.6604 75.4871 26.5047 75.9231 26.213C76.3591 25.9214 76.6988 25.507 76.8991 25.0222C77.0993 24.5374 77.1512 24.004 77.0481 23.4897C76.9451 22.9754 76.6917 22.5032 76.3201 22.133C75.9485 21.7628 75.4753 21.5112 74.9606 21.4101C74.4459 21.3089 73.9128 21.3629 73.4287 21.565C72.9447 21.7671 72.5316 22.1083 72.2416 22.5454C71.9516 22.9825 71.7978 23.4958 71.7998 24.0203C71.7998 24.3679 71.8684 24.712 72.0017 25.033C72.135 25.3539 72.3304 25.6454 72.5766 25.8906C72.8228 26.1359 73.115 26.3302 73.4364 26.4623C73.7579 26.5944 74.1023 26.6617 74.4498 26.6604Z" fill="#0A5FFF"/>
<path d="M50.5101 26.6902C51.9681 26.6902 53.1501 25.5082 53.1501 24.0502C53.1501 22.5921 51.9681 21.4102 50.5101 21.4102C49.0521 21.4102 47.8701 22.5921 47.8701 24.0502C47.8701 25.5082 49.0521 26.6902 50.5101 26.6902Z" fill="#0A5FFF"/>
<path d="M27.594 26.3892C28.9425 25.8348 29.5863 24.2922 29.0318 22.9437C28.4774 21.5952 26.9347 20.9514 25.5862 21.5059C24.2377 22.0603 23.594 23.603 24.1484 24.9515C24.7029 26.3 26.2455 26.9437 27.594 26.3892Z" fill="#0A5FFF"/>
<path d="M2.65004 26.6604C3.17459 26.6604 3.68731 26.5047 4.12331 26.213C4.55931 25.9214 4.89899 25.507 5.09926 25.0222C5.29954 24.5374 5.3515 24.004 5.24843 23.4897C5.14537 22.9754 4.89189 22.5032 4.52028 22.133C4.14867 21.7628 3.67561 21.5112 3.16091 21.4101C2.6462 21.3089 2.11309 21.3629 1.62905 21.565C1.145 21.7671 0.731771 22.1083 0.441791 22.5454C0.151812 22.9825 -0.00196055 23.4958 1.88721e-05 24.0203C1.63788e-05 24.3679 0.0686259 24.712 0.201923 25.033C0.33522 25.3539 0.530667 25.6454 0.776874 25.8906C1.02308 26.1359 1.31528 26.3302 1.63674 26.4623C1.95819 26.5944 2.30251 26.6617 2.65004 26.6604Z" fill="#0A5FFF"/>
<path d="M146.249 5.28C147.707 5.28 148.889 4.09803 148.889 2.64C148.889 1.18197 147.707 0 146.249 0C144.791 0 143.609 1.18197 143.609 2.64C143.609 4.09803 144.791 5.28 146.249 5.28Z" fill="#0A5FFF"/>
<path d="M122.31 5.28C123.768 5.28 124.95 4.09803 124.95 2.64C124.95 1.18197 123.768 0 122.31 0C120.852 0 119.67 1.18197 119.67 2.64C119.67 4.09803 120.852 5.28 122.31 5.28Z" fill="#0A5FFF"/>
<path d="M98.3802 5.29024C98.9048 5.29222 99.4181 5.13851 99.8552 4.84853C100.292 4.55855 100.634 4.14532 100.836 3.66127C101.038 3.17723 101.092 2.64412 100.991 2.12941C100.889 1.61471 100.638 1.14159 100.268 0.769978C99.8975 0.398368 99.4253 0.144953 98.911 0.0418894C98.3967 -0.0611745 97.8633 -0.00927669 97.3785 0.190998C96.8937 0.391273 96.4793 0.730946 96.1876 1.16695C95.896 1.60295 95.7402 2.11567 95.7402 2.64022C95.7402 3.34131 96.0181 4.01383 96.5129 4.51052C97.0078 5.0072 97.6792 5.2876 98.3802 5.29024Z" fill="#0A5FFF"/>
<path d="M74.4498 5.29023C74.9739 5.29023 75.4863 5.13483 75.9221 4.84364C76.3579 4.55245 76.6975 4.13859 76.8981 3.65437C77.0986 3.17015 77.1511 2.63729 77.0488 2.12324C76.9466 1.60919 76.6942 1.13698 76.3236 0.76637C75.953 0.395761 75.4808 0.143401 74.9668 0.04115C74.4527 -0.0611008 73.9199 -0.00860433 73.4357 0.191968C72.9514 0.39254 72.5376 0.732191 72.2465 1.16798C71.9553 1.60377 71.7998 2.11609 71.7998 2.64021C71.7998 2.98821 71.8683 3.33286 72.0015 3.65437C72.1346 3.97588 72.3299 4.26798 72.5759 4.51405C72.822 4.76013 73.1142 4.95534 73.4357 5.08851C73.7572 5.22169 74.1018 5.29023 74.4498 5.29023Z" fill="#0A5FFF"/>
<path d="M50.5101 5.28C51.9681 5.28 53.1501 4.09803 53.1501 2.64C53.1501 1.18197 51.9681 0 50.5101 0C49.0521 0 47.8701 1.18197 47.8701 2.64C47.8701 4.09803 49.0521 5.28 50.5101 5.28Z" fill="#0A5FFF"/>
<path d="M27.592 4.97708C28.9406 4.42265 29.5843 2.87999 29.0298 1.53149C28.4754 0.182988 26.9328 -0.460681 25.5843 0.0937553C24.2358 0.648191 23.592 2.19079 24.1465 3.53929C24.7009 4.88779 26.2435 5.53152 27.592 4.97708Z" fill="#0A5FFF"/>
<path d="M2.65002 5.29023C3.17414 5.29023 3.68652 5.13483 4.12231 4.84364C4.5581 4.55245 4.89769 4.13859 5.09827 3.65437C5.29884 3.17015 5.3514 2.63729 5.24915 2.12324C5.14689 1.60919 4.89454 1.13698 4.52393 0.76637C4.15332 0.395761 3.68104 0.143401 3.16699 0.04115C2.65294 -0.0611008 2.12021 -0.00860433 1.63599 0.191968C1.15176 0.39254 0.737841 0.732191 0.446655 1.16798C0.15547 1.60377 0 2.11609 0 2.64021C0 3.34303 0.279274 4.01708 0.776245 4.51405C1.27322 5.01102 1.9472 5.29023 2.65002 5.29023Z" fill="#0A5FFF"/>
</g>
<defs>
<clipPath id="clip0_310_3732">
<rect width="148.89" height="90.91" fill="white"/>
</clipPath>
</defs>
</svg>
