<svg width="1180" height="245" viewBox="0 0 1180 245" fill="none" xmlns="http://www.w3.org/2000/svg">
<path fill-rule="evenodd" clip-rule="evenodd" d="M460.288 0.820049C459.188 0.844594 458.096 0.896845 457.012 0.976085L456.953 0.158015C458.05 0.0777651 459.156 0.0248534 460.269 0L460.288 0.820049ZM465.216 0.895329C464.665 0.86633 464.115 0.844282 463.568 0.8291L463.59 0.00916099C464.145 0.0245315 464.701 0.0468524 465.259 0.0762088C465.819 0.105724 466.378 0.142295 466.935 0.185833L466.871 1.00359C466.321 0.960594 465.769 0.924477 465.216 0.895329ZM453.748 1.29892C452.656 1.43523 451.573 1.59908 450.501 1.78968L450.357 0.982078C451.444 0.789008 452.54 0.623052 453.646 0.484986L453.748 1.29892ZM473.429 1.85619C472.35 1.65887 471.26 1.48845 470.161 1.34567L470.267 0.532251C471.38 0.676852 472.483 0.849451 473.577 1.04929L473.429 1.85619ZM447.285 2.44757C446.215 2.69557 445.156 2.97046 444.109 3.27142L443.882 2.48307C444.943 2.17819 446.016 1.89973 447.1 1.64851L447.285 2.44757ZM479.865 3.3806C478.81 3.07216 477.744 2.78999 476.667 2.53486L476.856 1.73669C477.947 1.9951 479.027 2.28092 480.095 2.59334L479.865 3.3806ZM750.534 3.55721C749.432 3.52477 748.334 3.51558 747.242 3.5292L747.232 2.70902C748.336 2.69525 749.445 2.70454 750.558 2.73731L750.534 3.55721ZM743.946 3.63982C742.845 3.70009 741.749 3.7835 740.66 3.88961L740.58 3.07321C741.681 2.96598 742.789 2.88169 743.901 2.82079L743.946 3.63982ZM755.471 3.85713C754.92 3.80648 754.371 3.76167 753.822 3.72264L753.881 2.90446C754.435 2.94389 754.99 2.98916 755.546 3.04033C756.087 3.09016 756.627 3.14532 757.164 3.20576L757.073 4.02088C756.541 3.96105 756.006 3.90645 755.471 3.85713ZM737.388 4.27846C736.297 4.43165 735.213 4.60763 734.136 4.80594L733.988 3.99925C735.076 3.79884 736.171 3.62099 737.274 3.46618L737.388 4.27846ZM440.98 4.2593C439.943 4.61672 438.918 5.00009 437.907 5.40857L437.6 4.64802C438.624 4.23423 439.662 3.84587 440.713 3.4838L440.98 4.2593ZM486.106 5.56512C485.089 5.14831 484.058 4.75685 483.014 4.39154L483.285 3.61733C484.342 3.98736 485.387 4.38388 486.417 4.80607L486.106 5.56512ZM763.409 4.9942C762.364 4.7899 761.311 4.60603 760.25 4.44307L760.374 3.63231C761.446 3.79697 762.511 3.98275 763.566 4.1892L763.409 4.9942ZM730.91 5.47124C729.838 5.71643 728.773 5.98392 727.716 6.27322L727.499 5.48209C728.567 5.18972 729.644 4.91939 730.728 4.67161L730.91 5.47124ZM769.651 6.48325C768.626 6.1935 767.591 5.92385 766.547 5.67481L766.737 4.87694C767.792 5.1286 768.838 5.40109 769.874 5.69391L769.651 6.48325ZM434.898 6.71596C433.904 7.17871 432.925 7.66621 431.961 8.17762L431.576 7.45296C432.553 6.93495 433.545 6.44113 434.552 5.97239L434.898 6.71596ZM492.087 8.38679C491.118 7.86612 490.133 7.36962 489.134 6.89812L489.484 6.15629C490.496 6.63386 491.493 7.13677 492.475 7.66414L492.087 8.38679ZM724.556 7.21117C723.508 7.54671 722.469 7.90397 721.44 8.28243L721.157 7.51257C722.197 7.1301 723.247 6.76907 724.306 6.42997L724.556 7.21117ZM775.742 8.47987C774.744 8.10639 773.736 7.75249 772.718 7.41867L772.973 6.63922C774.002 6.97657 775.021 7.33423 776.03 7.71167L775.742 8.47987ZM186.893 9.67133C185.814 9.59981 184.734 9.55444 183.654 9.53517L183.669 8.71504C184.762 8.73455 185.855 8.78048 186.947 8.85287L186.893 9.67133ZM718.372 9.48487C717.357 9.90782 716.352 10.3517 715.358 10.8161L715.011 10.073C716.016 9.60371 717.031 9.15512 718.057 8.72771L718.372 9.48487ZM180.413 9.55566C179.333 9.5886 178.254 9.64763 177.177 9.73271L177.112 8.91501C178.202 8.82889 179.295 8.76913 180.388 8.73578L180.413 9.55566ZM1001.43 9.76364C1000.32 9.69448 999.219 9.64976 998.121 9.62895L998.137 8.80885C999.247 8.82987 1000.36 8.87508 1001.48 8.94497L1001.43 9.76364ZM994.815 9.6385C993.709 9.6659 992.61 9.71753 991.518 9.79284L991.461 8.97453C992.566 8.89839 993.677 8.8462 994.794 8.8185L994.815 9.6385ZM781.653 10.9765C780.688 10.5208 779.711 10.0841 778.724 9.66691L779.043 8.9113C780.041 9.33294 781.028 9.77429 782.003 10.2348L781.653 10.9765ZM429.102 9.78917C428.162 10.3517 427.238 10.9376 426.331 11.546L425.874 10.8647C426.793 10.2485 427.729 9.65508 428.681 9.0853L429.102 9.78917ZM193.331 10.4124C192.264 10.2368 191.193 10.0874 190.121 9.96392L190.214 9.14905C191.3 9.274 192.384 9.42531 193.464 9.60304L193.331 10.4124ZM1006.37 10.2306C1005.82 10.1606 1005.27 10.0968 1004.72 10.0389L1004.8 9.22319C1005.36 9.28163 1005.92 9.34615 1006.47 9.41682C1007.03 9.48776 1007.59 9.56493 1008.15 9.64826L1008.03 10.4594C1007.48 10.377 1006.92 10.3007 1006.37 10.2306ZM173.952 10.0659C172.881 10.2029 171.813 10.3658 170.748 10.5545L170.605 9.74688C171.682 9.55581 172.764 9.39093 173.848 9.2523L173.952 10.0659ZM988.223 10.0936C987.123 10.2187 986.03 10.368 984.946 10.5407L984.817 9.7307C985.913 9.55602 987.018 9.40512 988.13 9.27858L988.223 10.0936ZM497.745 11.8139C496.833 11.1952 495.905 10.5992 494.96 10.0269L495.385 9.32535C496.342 9.90501 497.282 10.5086 498.205 11.1353L497.745 11.8139ZM199.667 11.7728C198.621 11.4945 197.57 11.2422 196.515 11.0157L196.687 10.2138C197.755 10.443 198.819 10.6984 199.878 10.9801L199.667 11.7728ZM1014.55 11.7489C1013.48 11.485 1012.4 11.2447 1011.3 11.0288L1011.46 10.2241C1012.57 10.4425 1013.66 10.6855 1014.75 10.9525L1014.55 11.7489ZM981.696 11.1333C980.614 11.3557 979.54 11.6017 978.476 11.8706L978.275 11.0754C979.351 10.8034 980.437 10.5547 981.531 10.3298L981.696 11.1333ZM167.571 11.1975C166.519 11.4372 165.471 11.7026 164.429 11.9936L164.208 11.2035C165.263 10.909 166.324 10.6404 167.389 10.3978L167.571 11.1975ZM712.404 12.2735C711.428 12.7805 710.465 13.3076 709.513 13.8543L709.105 13.1431C710.066 12.5907 711.04 12.058 712.025 11.5457L712.404 12.2735ZM787.333 13.9531C786.409 13.419 785.473 12.9032 784.524 12.4061L784.905 11.6795C785.864 12.1819 786.81 12.7032 787.744 13.2429L787.333 13.9531ZM1020.93 13.6388C1019.89 13.2756 1018.83 12.9356 1017.76 12.6193L1018 11.8328C1019.08 12.1527 1020.15 12.4967 1021.2 12.8641L1020.93 13.6388ZM205.841 13.7406C204.827 13.3621 203.805 13.0092 202.778 12.6819L203.028 11.9004C204.067 12.2317 205.101 12.5889 206.128 12.972L205.841 13.7406ZM975.287 12.7532C974.229 13.0718 973.181 13.4133 972.144 13.7771L971.873 13.0031C972.921 12.6352 973.981 12.2899 975.051 11.9678L975.287 12.7532ZM161.33 12.9406C160.306 13.2808 159.289 13.6463 158.279 14.037L157.983 13.272C159.005 12.8765 160.035 12.5066 161.071 12.1622L161.33 12.9406ZM423.652 13.443C422.775 14.0986 421.916 14.7761 421.075 15.4744L420.551 14.8433C421.402 14.1361 422.273 13.45 423.161 12.786L423.652 13.443ZM503.018 15.807C502.175 15.0973 501.313 14.4088 500.433 13.7425L500.928 13.0885C501.819 13.7634 502.692 14.4607 503.546 15.1795L503.018 15.807ZM1027.11 16.1179C1026.1 15.6579 1025.08 15.2203 1024.05 14.8057L1024.35 14.0444C1025.4 14.4639 1026.43 14.9066 1027.45 15.3719L1027.11 16.1179ZM969.051 14.94C968.027 15.3516 967.014 15.7853 966.012 16.2404L965.673 15.4937C966.685 15.0335 967.71 14.5951 968.746 14.1789L969.051 14.94ZM211.797 16.2977C210.823 15.8222 209.84 15.3719 208.85 14.9468L209.173 14.1931C210.176 14.6234 211.171 15.0792 212.157 15.5605L211.797 16.2977ZM155.286 15.2801C154.3 15.7175 153.324 16.1797 152.357 16.6665L151.988 15.9339C152.967 15.441 153.955 14.9732 154.953 14.5304L155.286 15.2801ZM706.692 15.5556C705.762 16.1428 704.846 16.7492 703.944 17.3743L703.477 16.6999C704.389 16.0683 705.315 15.4555 706.253 14.8622L706.692 15.5556ZM792.748 17.3894C791.871 16.7804 790.98 16.1887 790.076 15.6149L790.515 14.9223C791.429 15.5022 792.329 16.1001 793.216 16.7155L792.748 17.3894ZM1033.02 19.1664C1032.06 18.6136 1031.09 18.0821 1030.1 17.5727L1030.48 16.8435C1031.48 17.3588 1032.46 17.8965 1033.43 18.4557L1033.02 19.1664ZM963.033 17.6756C962.05 18.1765 961.079 18.6985 960.121 19.241L959.717 18.5273C960.685 17.9789 961.666 17.4511 962.661 16.9447L963.033 17.6756ZM418.604 17.6344C417.798 18.3755 417.012 19.1367 416.246 19.9171L415.66 19.3424C416.436 18.5521 417.232 17.7813 418.048 17.0307L418.604 17.6344ZM216.086 18.5866C215.618 18.3144 215.147 18.0483 214.674 17.7885L215.069 17.0695C215.548 17.3326 216.024 17.6018 216.498 17.8774C216.982 18.1583 217.461 18.4447 217.936 18.7364L217.507 19.4352C217.038 19.1471 216.564 18.8641 216.086 18.5866ZM507.852 20.3213C507.086 19.5283 506.299 18.7549 505.493 18.002L506.053 17.4025C506.869 18.165 507.666 18.9483 508.442 19.7514L507.852 20.3213ZM149.498 18.1938C148.56 18.7244 147.632 19.2792 146.715 19.8581L146.277 19.1646C147.205 18.5786 148.144 18.017 149.094 17.4799L149.498 18.1938ZM797.863 21.2609C797.038 20.5816 796.199 19.9187 795.346 19.2727L795.841 18.6186C796.703 19.2715 797.551 19.9414 798.385 20.6278L797.863 21.2609ZM701.274 19.3066C700.398 19.9695 699.536 20.6505 698.689 21.3492L698.167 20.7164C699.023 20.0104 699.894 19.3222 700.78 18.6525L701.274 19.3066ZM1038.63 22.7558C1037.72 22.1152 1036.8 21.4949 1035.87 20.8954L1036.31 20.2047C1037.26 20.8111 1038.19 21.4386 1039.1 22.0865L1038.63 22.7558ZM957.282 20.9331C956.347 21.5187 955.426 22.1243 954.519 22.7492L954.054 22.0739C954.97 21.4421 955.902 20.8299 956.847 20.2379L957.282 20.9331ZM222.961 23.1689C222.086 22.504 221.192 21.8589 220.28 21.2345L220.743 20.5576C221.666 21.1897 222.571 21.8426 223.457 22.5157L222.961 23.1689ZM144.018 21.6538C143.576 21.9638 143.137 22.2796 142.701 22.6013L141.417 23.5484L140.93 22.8883L142.214 21.9412C142.655 21.6156 143.1 21.2959 143.547 20.9822L144.018 21.6538ZM414.007 22.3165C413.281 23.135 412.575 23.9719 411.892 24.8262L411.251 24.3137C411.944 23.4486 412.658 22.6011 413.393 21.7722L414.007 22.3165ZM512.197 25.3081C511.516 24.4402 510.813 23.5901 510.089 22.7588L510.707 22.2199C511.441 23.0618 512.153 23.9227 512.843 24.8017L512.197 25.3081ZM802.642 25.5384C801.876 24.7937 801.094 24.0643 800.296 23.3507L800.843 22.7395C801.649 23.4606 802.439 24.1976 803.214 24.9501L802.642 25.5384ZM696.191 23.4984C695.374 24.2321 694.572 24.983 693.786 25.7505L693.213 25.1636C694.007 24.3881 694.818 23.6294 695.644 22.888L696.191 23.4984ZM951.839 24.6851C950.959 25.3502 950.094 26.034 949.246 26.736L948.723 26.1039C949.581 25.3943 950.455 24.7031 951.344 24.0308L951.839 24.6851ZM1043.87 26.8528C1043.03 26.1305 1042.17 25.427 1041.3 24.7431L1041.8 24.0967C1042.69 24.7884 1043.56 25.5 1044.41 26.2307L1043.87 26.8528ZM228.02 27.4224C227.214 26.6737 226.388 25.9434 225.543 25.2325L226.071 24.6047C226.927 25.3243 227.763 26.0635 228.579 26.8214L228.02 27.4224ZM138.85 25.4426L136.282 27.3369L135.795 26.6768L138.363 24.7826L138.85 25.4426ZM409.907 27.4399C409.268 28.3274 408.651 29.2313 408.057 30.1509L407.368 29.7059C407.97 28.7747 408.594 27.8593 409.241 26.9605L409.907 27.4399ZM807.056 30.1929C806.353 29.3877 805.633 28.5967 804.897 27.8204L805.492 27.256C806.235 28.0404 806.963 28.8396 807.674 29.6532L807.056 30.1929ZM516.007 30.7149C515.419 29.7811 514.807 28.8633 514.172 27.9624L514.843 27.4899C515.486 28.4023 516.106 29.3318 516.701 30.2776L516.007 30.7149ZM691.477 28.1016C690.725 28.901 689.989 29.7166 689.269 30.5477L688.649 30.011C689.376 29.1712 690.12 28.3471 690.88 27.5393L691.477 28.1016ZM946.745 28.898C945.926 29.637 945.124 30.3936 944.34 31.1671L943.764 30.5828C944.557 29.801 945.368 29.0363 946.195 28.2893L946.745 28.898ZM1048.71 31.4199C1047.94 30.6223 1047.15 29.8421 1046.35 29.0801L1046.91 28.4835C1047.73 29.2542 1048.53 30.0433 1049.3 30.8501L1048.71 31.4199ZM133.715 29.2311L131.148 31.1254L130.661 30.4653L133.228 28.5711L133.715 29.2311ZM232.635 32.1548C231.906 31.3297 231.157 30.5215 230.386 29.7312L230.973 29.1586C231.753 29.9586 232.512 30.7766 233.25 31.6119L232.635 32.1548ZM811.075 35.1918C810.44 34.3317 809.787 33.4847 809.117 32.6513L809.756 32.1374C810.433 32.9794 811.093 33.8353 811.735 34.7043L811.075 35.1918ZM128.58 33.0196L126.013 34.9139L125.526 34.2538L128.093 32.3596L128.58 33.0196ZM406.348 32.9524C405.802 33.8997 405.28 34.8617 404.783 35.8374L404.052 35.4649C404.556 34.4767 405.085 33.5025 405.637 32.5431L406.348 32.9524ZM687.166 33.0841C686.484 33.9435 685.819 34.8179 685.172 35.7067L684.509 35.2241C685.163 34.3259 685.834 33.4424 686.524 32.574L687.166 33.0841ZM942.035 33.5385C941.285 34.3455 940.552 35.1687 939.837 36.0076L939.212 35.4755C939.935 34.6276 940.676 33.7955 941.435 32.9798L942.035 33.5385ZM519.24 36.4858C518.751 35.4956 518.237 34.5195 517.698 33.5585L518.414 33.1576C518.959 34.131 519.48 35.1196 519.976 36.1225L519.24 36.4858ZM1053.11 36.4161C1052.42 35.5502 1051.7 34.7002 1050.97 33.867L1051.59 33.3251C1052.33 34.1679 1053.05 35.0275 1053.75 35.9033L1053.11 36.4161ZM236.76 37.3195C236.116 36.4261 235.45 35.548 234.761 34.6861L235.402 34.1742C236.099 35.0467 236.774 35.9356 237.425 36.8399L236.76 37.3195ZM123.445 36.8081L120.878 38.7023L120.391 38.0423L122.958 36.148L123.445 36.8081ZM814.674 40.502C814.11 39.5926 813.528 38.6951 812.929 37.81L813.608 37.3499C814.214 38.2442 814.802 39.1511 815.371 40.07L814.674 40.502ZM683.291 38.4111C682.683 39.3246 682.095 40.252 681.525 41.1927L680.823 40.7679C681.399 39.8172 681.994 38.8801 682.608 37.957L683.291 38.4111ZM937.747 38.5699C937.069 39.4388 936.41 40.3226 935.771 41.2207L935.102 40.7448C935.749 39.8371 936.415 38.9437 937.1 38.0655L937.747 38.5699ZM403.368 38.7988C402.922 39.7962 402.502 40.8064 402.107 41.8283L401.342 41.5326C401.742 40.4975 402.168 39.4744 402.619 38.4642L403.368 38.7988ZM1057.03 41.7978C1056.42 40.871 1055.78 39.9587 1055.13 39.0616L1055.79 38.579C1056.45 39.4863 1057.09 40.4091 1057.71 41.3464L1057.03 41.7978ZM521.858 42.5592C521.474 41.523 521.064 40.4993 520.628 39.4886L521.381 39.1639C521.823 40.1876 522.238 41.2246 522.627 42.274L521.858 42.5592ZM240.356 42.8657C239.803 41.9128 239.226 40.9733 238.626 40.0483L239.315 39.602C239.922 40.5384 240.506 41.4893 241.065 42.454L240.356 42.8657ZM118.31 40.5966L115.743 42.4908L115.256 41.8308L117.823 39.9365L118.31 40.5966ZM817.826 46.0877C817.339 45.1352 816.833 44.1934 816.307 43.2627L817.022 42.8596C817.552 43.7999 818.064 44.7516 818.557 45.7141L817.826 46.0877ZM933.912 43.9545C933.312 44.8787 932.733 45.8164 932.174 46.7669L931.467 46.3511C932.032 45.3902 932.618 44.4424 933.223 43.5082L933.912 43.9545ZM679.879 44.0468C679.351 45.0082 678.843 45.9823 678.355 46.9687L677.619 46.6049C678.113 45.6081 678.626 44.6237 679.16 43.6521L679.879 44.0468ZM113.175 44.3851L110.608 46.2793L110.121 45.6193L112.688 43.725L113.175 44.3851ZM1060.43 47.5188C1059.9 46.539 1059.36 45.5721 1058.79 44.6188L1059.5 44.1997C1060.07 45.1639 1060.62 46.1419 1061.15 47.1329L1060.43 47.5188ZM401.003 44.9183C400.663 45.9554 400.349 47.0032 400.061 48.061L399.27 47.8458C399.561 46.7744 399.879 45.713 400.224 44.6625L401.003 44.9183ZM243.388 48.7392C242.932 47.7358 242.45 46.7441 241.945 45.7651L242.673 45.3888C243.185 46.3798 243.672 47.3836 244.135 48.3993L243.388 48.7392ZM523.831 48.8711C523.556 47.7998 523.255 46.739 522.927 45.6894L523.709 45.4447C524.042 46.5079 524.347 47.5824 524.625 48.6675L523.831 48.8711ZM108.04 48.1735L105.473 50.0678L104.986 49.4077L107.553 47.5135L108.04 48.1735ZM820.511 51.9129C820.103 50.9231 819.676 49.9429 819.228 48.9726L819.973 48.6293C820.425 49.6097 820.857 50.6003 821.269 51.6005L820.511 51.9129ZM930.56 49.6532C930.044 50.6259 929.549 51.6108 929.075 52.6071L928.334 52.2548C928.813 51.2476 929.314 50.252 929.836 49.2687L930.56 49.6532ZM676.956 49.9533C676.513 50.9549 676.089 51.9681 675.687 52.9923L674.923 52.6924C675.33 51.6573 675.758 50.6333 676.206 49.6211L676.956 49.9533ZM1063.28 53.5307C1062.85 52.5062 1062.4 51.4929 1061.92 50.4915L1062.67 50.1397C1063.15 51.1525 1063.6 52.1775 1064.04 53.2138L1063.28 53.5307ZM399.283 51.2482C399.052 52.314 398.848 53.3888 398.672 54.4715L397.862 54.3397C398.041 53.2428 398.247 52.1541 398.481 51.0744L399.283 51.2482ZM102.906 51.962L101.622 52.9092C101.176 53.238 100.729 53.564 100.28 53.8871L99.8008 53.2215C100.247 52.9002 100.692 52.5761 101.135 52.2491L102.419 51.302L102.906 51.962ZM245.827 54.8828C245.472 53.8387 245.09 52.8044 244.684 51.7808L245.446 51.4781C245.857 52.5142 246.244 53.5612 246.604 54.6181L245.827 54.8828ZM525.137 55.354C524.975 54.2589 524.785 53.1725 524.568 52.0955L525.372 51.9336C525.592 53.0245 525.784 54.1249 525.948 55.234L525.137 55.354ZM822.708 57.9401C822.383 56.9196 822.037 55.9073 821.672 54.9038L822.442 54.6229C822.812 55.637 823.161 56.6599 823.489 57.6912L822.708 57.9401ZM97.5715 55.7909C96.6586 56.4169 95.7402 57.0312 94.8165 57.6338L94.3683 56.9468C95.2867 56.3476 96.1999 55.7368 97.1076 55.1144L97.5715 55.7909ZM927.722 55.6225C927.293 56.6363 926.887 57.6608 926.503 58.6953L925.734 58.4099C926.122 57.3639 926.533 56.3281 926.966 55.3033L927.722 55.6225ZM674.548 56.0828C674.191 57.1181 673.856 58.1638 673.542 59.2194L672.755 58.9854C673.073 57.9187 673.412 56.8619 673.772 55.8156L674.548 56.0828ZM1065.56 59.7825C1065.23 58.7218 1064.88 57.6707 1064.5 56.6299L1065.27 56.3487C1065.65 57.4014 1066.01 58.4646 1066.35 59.5376L1065.56 59.7825ZM398.229 57.7225C398.11 58.8058 398.019 59.8961 397.956 60.9926L397.137 60.9456C397.201 59.8349 397.293 58.7304 397.413 57.633L398.229 57.7225ZM247.649 61.237C247.397 60.1622 247.12 59.0952 246.817 58.0371L247.605 57.8111C247.912 58.8822 248.193 59.9622 248.448 61.0502L247.649 61.237ZM525.764 61.9376C525.716 60.8305 525.639 59.7303 525.535 58.6376L526.352 58.5599C526.457 59.6665 526.535 60.7808 526.583 61.902L525.764 61.9376ZM92.0247 59.4094C91.0837 59.9927 90.1375 60.5642 89.1863 61.1237L88.7704 60.4167C89.7161 59.8604 90.6569 59.2922 91.5925 58.7122L92.0247 59.4094ZM824.399 64.1252C824.159 63.0813 823.899 62.0443 823.617 61.015L824.409 60.7987C824.693 61.8389 824.956 62.8868 825.198 63.9418L824.399 64.1252ZM925.421 61.8206C925.085 62.8677 924.771 63.9242 924.48 64.9893L923.689 64.7734C923.983 63.6964 924.3 62.6283 924.64 61.5696L925.421 61.8206ZM86.3132 62.7693C85.3472 63.3079 84.3764 63.8343 83.401 64.3488L83.0184 63.6233C83.9881 63.1118 84.9534 62.5883 85.9138 62.0529L86.3132 62.7693ZM672.669 62.3966C672.402 63.4585 672.156 64.5295 671.932 65.6093L671.129 65.4429C671.355 64.3517 671.604 63.2694 671.874 62.1963L672.669 62.3966ZM1067.25 66.2207C1067.02 65.1328 1066.76 64.0529 1066.48 62.9817L1067.28 62.7738C1067.56 63.8574 1067.82 64.9497 1068.05 66.0502L1067.25 66.2207ZM397.853 64.2734C397.847 65.3628 397.869 66.4574 397.92 67.5565L397.101 67.5944C397.049 66.4812 397.027 65.3724 397.033 64.2689L397.853 64.2734ZM248.834 67.7401C248.69 66.6448 248.519 65.5556 248.322 64.4733L249.129 64.3262C249.328 65.4218 249.501 66.5244 249.647 67.6331L248.834 67.7401ZM80.4529 65.8603C79.4639 66.3529 78.4705 66.8334 77.4728 67.3017L77.1243 66.5592C78.1162 66.0936 79.1039 65.6159 80.0872 65.1261L80.4529 65.8603ZM525.788 66.9037C525.807 66.3495 525.818 65.7966 525.822 65.2451L526.643 65.2515C526.638 65.8099 526.627 66.3698 526.608 66.931L526.552 68.6132L525.732 68.586L525.788 66.9037ZM825.572 70.4316C825.42 69.3703 825.246 68.3148 825.051 67.2657L825.857 67.1157C826.055 68.1759 826.231 69.2426 826.384 70.3152L825.572 70.4316ZM74.4562 68.6753C73.4453 69.1215 72.4305 69.5554 71.4118 69.977L71.0981 69.2191C72.1109 68.7999 73.1199 68.3685 74.125 67.9249L74.4562 68.6753ZM923.682 68.1955C923.44 69.2679 923.222 70.3482 923.028 71.4359L922.22 71.2916C922.417 70.1918 922.637 69.0995 922.882 68.0152L923.682 68.1955ZM671.332 68.8515C671.155 69.93 671.001 71.0166 670.868 72.1107L670.054 72.0124C670.188 70.9068 670.344 69.8089 670.522 68.7191L671.332 68.8515ZM1068.33 72.7888C1068.2 71.6833 1068.04 70.5842 1067.87 69.4923L1068.68 69.3598C1068.86 70.4644 1069.01 71.5762 1069.14 72.6945L1068.33 72.7888ZM68.3357 71.2084C67.3049 71.6072 66.2705 71.9936 65.2327 72.3677L64.9546 71.596C65.9864 71.2241 67.0148 70.8399 68.0397 70.4434L68.3357 71.2084ZM398.156 70.8287C398.261 71.9101 398.395 72.9951 398.557 74.083L397.746 74.204C397.582 73.1025 397.446 72.0037 397.339 70.9085L398.156 70.8287ZM249.371 74.3278C249.335 73.2229 249.273 72.1222 249.184 71.0266L250.001 70.9599C250.092 72.069 250.155 73.1832 250.191 74.3016L249.371 74.3278ZM525.509 75.3149L525.621 71.9504L526.44 71.9777L526.328 75.3421L525.509 75.3149ZM62.1045 73.4542C61.0561 73.8048 60.0045 74.1429 58.9499 74.4685L58.7079 73.6847C59.7564 73.361 60.802 73.0249 61.8444 72.6763L62.1045 73.4542ZM826.219 76.8119C826.155 75.7421 826.069 74.6769 825.962 73.6169L826.778 73.5342C826.887 74.6055 826.973 75.6819 827.038 76.7631L826.219 76.8119ZM922.519 74.7054C922.375 75.7934 922.254 76.888 922.158 77.9885L921.341 77.9172C921.438 76.8044 921.56 75.6976 921.706 74.5975L922.519 74.7054ZM55.7748 75.4085C54.7115 75.71 53.6454 75.9989 52.5768 76.2752L52.3715 75.481C53.4339 75.2063 54.4938 74.9191 55.551 74.6194L55.7748 75.4085ZM670.542 75.3875C670.498 75.9357 670.461 76.4856 670.429 77.0373L670.339 78.5916L669.52 78.5441L669.61 76.9899C669.642 76.4325 669.68 75.8769 669.724 75.3231L670.542 75.3875ZM1068.78 79.4268C1068.76 78.3136 1068.71 77.2053 1068.63 76.1025L1069.45 76.0465C1069.53 77.162 1069.58 78.2831 1069.6 79.4091L1068.78 79.4268ZM49.3605 77.0672C48.285 77.3188 47.2071 77.5579 46.1271 77.7843L45.9588 76.9815C47.0326 76.7564 48.1043 76.5187 49.1737 76.2685L49.3605 77.0672ZM399.123 77.3138C399.23 77.8509 399.345 78.3886 399.467 78.9267L399.821 80.4855L399.021 80.6669L398.667 79.1081C398.544 78.5634 398.428 78.0191 398.318 77.4753L399.123 77.3138ZM42.8769 78.4265C41.791 78.628 40.7032 78.8169 39.6138 78.9931L39.4829 78.1833C40.566 78.0082 41.6475 77.8204 42.7272 77.62L42.8769 78.4265ZM249.346 79.2869C249.369 78.7349 249.385 78.1837 249.395 77.6332L250.215 77.6475C250.205 78.2046 250.189 78.7626 250.165 79.3213L250.098 80.9296L249.278 80.8952L249.346 79.2869ZM36.3375 79.4841C35.2434 79.6351 34.1479 79.7735 33.0513 79.8991L32.9579 79.0842C34.0483 78.9593 35.1375 78.8217 36.2253 78.6716L36.3375 79.4841ZM525.285 82.0438L525.397 78.6793L526.216 78.7066L526.105 82.071L525.285 82.0438ZM3.29391 80.197C2.19495 80.0933 1.0969 79.977 0 79.8479L0.0958919 79.0332C1.18651 79.1616 2.27826 79.2773 3.37093 79.3804L3.29391 80.197ZM29.7564 80.238C28.6565 80.3383 27.5557 80.4258 26.4541 80.5006L26.3986 79.6822C27.4938 79.6079 28.5883 79.5208 29.6819 79.4211L29.7564 80.238ZM9.90176 80.6663C8.79895 80.6136 7.69659 80.5481 6.59492 80.4698L6.65303 79.6516C7.7484 79.7294 8.84444 79.7946 9.94094 79.847L9.90176 80.6663ZM23.1471 80.6868C22.0439 80.7361 20.9403 80.7727 19.8363 80.7965L19.8187 79.9764C20.9162 79.9528 22.0136 79.9164 23.1105 79.8674L23.1471 80.6868ZM16.5241 80.8297C15.42 80.828 14.3158 80.8135 13.2119 80.7862L13.2321 79.9662C14.3297 79.9933 15.4276 80.0077 16.5254 80.0094L16.5241 80.8297ZM826.336 83.2238C826.36 82.1507 826.363 81.0812 826.344 80.0158L827.164 80.0009C827.183 81.0776 827.181 82.1583 827.156 83.2426L826.336 83.2238ZM921.944 81.2852C921.898 82.3825 921.876 83.485 921.878 84.5923L921.058 84.5942C921.056 83.4748 921.078 82.36 921.125 81.2505L921.944 81.2852ZM670.159 81.7001L669.979 84.8087L669.16 84.7613L669.34 81.6527L670.159 81.7001ZM1068.61 86.0782C1068.69 84.9666 1068.75 83.8584 1068.77 82.7544L1069.59 82.775C1069.57 83.8917 1069.51 85.0125 1069.43 86.1368L1068.61 86.0782ZM400.528 83.603L401.235 86.7206L400.435 86.902L399.728 83.7844L400.528 83.603ZM249.008 87.3283L249.143 84.1117L249.963 84.1461L249.828 87.3627L249.008 87.3283ZM525.061 88.7727L525.173 85.4082L525.993 85.4355L525.881 88.7999L525.061 88.7727ZM825.925 89.6268C826.038 88.5589 826.128 87.4936 826.196 86.4312L827.014 86.4837C826.946 87.5572 826.854 88.6337 826.741 89.7127L825.925 89.6268ZM669.798 87.9173L669.618 91.0258L668.799 90.9784L668.98 87.8698L669.798 87.9173ZM921.96 87.8993C922.011 88.9932 922.087 90.091 922.187 91.1922L921.37 91.2666C921.269 90.1534 921.192 89.0436 921.141 87.9377L921.96 87.8993ZM1068.08 91.0474C1068.16 90.4947 1068.23 89.9427 1068.3 89.3913L1069.11 89.4875C1069.05 90.0451 1068.98 90.6033 1068.9 91.1622L1068.79 91.9115L1067.98 91.7967L1068.08 91.0474ZM401.942 89.8381L402.649 92.9557L401.849 93.1371L401.142 90.0195L401.942 89.8381ZM248.738 93.7614L248.873 90.5449L249.693 90.5793L249.558 93.7958L248.738 93.7614ZM524.837 95.5016L524.949 92.1371L525.769 92.1644L525.657 95.5288L524.837 95.5016ZM825.276 94.3978C825.365 93.8669 825.448 93.3365 825.525 92.8066L826.337 92.9253C826.259 93.4607 826.175 93.9965 826.085 94.5328L825.815 96.1522L825.006 96.0171L825.276 94.3978ZM1067.66 94.0446L1067.77 93.2953L1068.58 93.4101L1068.47 94.1594C1068.4 94.6962 1068.33 95.2317 1068.26 95.766L1067.45 95.6688C1067.51 95.1287 1067.58 94.5872 1067.66 94.0446ZM669.438 94.1344L669.258 97.2429L668.439 97.1955L668.619 94.0869L669.438 94.1344ZM922.559 94.4777C922.707 95.5663 922.878 96.6578 923.075 97.7515L922.268 97.8967C922.069 96.7913 921.895 95.6881 921.746 94.5878L922.559 94.4777ZM403.356 96.0732L404.063 99.1908L403.263 99.3722L402.556 96.2546L403.356 96.0732ZM248.468 100.195L248.603 96.978L249.423 97.0124L249.287 100.229L248.468 100.195ZM524.613 102.23L524.725 98.866L525.545 98.8933L525.433 102.258L524.613 102.23ZM1066.96 102.151C1067 101.071 1067.05 99.9856 1067.14 98.8945L1067.95 98.9561C1067.87 100.035 1067.82 101.109 1067.78 102.176L1066.96 102.151ZM823.924 102.495L824.465 99.2559L825.274 99.3909L824.733 102.63L823.924 102.495ZM669.078 100.352L668.898 103.46L668.079 103.413L668.259 100.304L669.078 100.352ZM923.728 100.984C923.849 101.523 923.976 102.063 924.109 102.603L924.499 104.188L923.703 104.384L923.312 102.799C923.178 102.254 923.05 101.708 922.927 101.163L923.728 100.984ZM404.77 102.308L405.478 105.426L404.678 105.607L403.971 102.49L404.77 102.308ZM248.198 106.628L248.333 103.411L249.152 103.446L249.017 106.662L248.198 106.628ZM1067.06 108.643C1066.99 107.569 1066.95 106.487 1066.94 105.399L1067.76 105.387C1067.77 106.463 1067.81 107.532 1067.87 108.594L1067.06 108.643ZM524.39 108.959L524.501 105.595L525.321 105.622L525.209 108.987L524.39 108.959ZM822.843 108.972L823.384 105.733L824.193 105.868L823.652 109.107L822.843 108.972ZM668.718 106.569L668.538 109.677L667.719 109.63L667.899 106.521L668.718 106.569ZM925.281 107.357L926.062 110.526L925.265 110.722L924.484 107.553L925.281 107.357ZM406.185 108.543L406.892 111.661L406.092 111.842L405.385 108.725L406.185 108.543ZM247.928 113.061L248.063 109.844L248.882 109.879L248.747 113.095L247.928 113.061ZM1067.74 115.112C1067.58 114.046 1067.44 112.972 1067.33 111.89L1068.14 111.803C1068.26 112.873 1068.39 113.934 1068.56 114.988L1067.74 115.112ZM821.762 115.45L822.302 112.211L823.111 112.346L822.571 115.585L821.762 115.45ZM524.222 114.006L524.278 112.324L525.098 112.351L525.042 114.033C525.024 114.568 525.012 115.102 525.006 115.634L524.186 115.625C524.192 115.087 524.204 114.547 524.222 114.006ZM668.358 112.786L668.177 115.894L667.359 115.847L667.539 112.738L668.358 112.786ZM926.843 113.695L927.624 116.864L926.828 117.06L926.047 113.891L926.843 113.695ZM407.599 114.779L408.306 117.896L407.506 118.077L406.799 114.96L407.599 114.779ZM247.658 119.494L247.793 116.277L248.612 116.312L248.477 119.528L247.658 119.494ZM1069.03 121.486C1068.77 120.437 1068.53 119.378 1068.31 118.309L1069.12 118.147C1069.33 119.203 1069.57 120.25 1069.83 121.286L1069.03 121.486ZM820.68 121.927L821.221 118.688L822.03 118.823L821.489 122.062L820.68 121.927ZM524.399 122.072C524.316 121.005 524.257 119.931 524.221 118.851L525.041 118.824C525.076 119.892 525.135 120.953 525.217 122.009L524.399 122.072ZM667.997 119.003L667.907 120.557C667.875 121.121 667.836 121.684 667.79 122.245L666.972 122.178C667.017 121.624 667.056 121.068 667.088 120.51L667.178 118.955L667.997 119.003ZM928.405 120.032L929.186 123.201L928.39 123.398L927.609 120.229L928.405 120.032ZM409.013 121.014L409.72 124.131L408.92 124.313L408.213 121.195L409.013 121.014ZM247.388 125.927L247.523 122.71L248.342 122.745L248.207 125.961L247.388 125.927ZM1070.9 127.708C1070.54 126.69 1070.21 125.66 1069.89 124.62L1070.68 124.384C1070.99 125.412 1071.32 126.429 1071.68 127.435L1070.9 127.708ZM819.599 128.405L820.14 125.166L820.949 125.301L820.408 128.54L819.599 128.405ZM525.188 128.478C525.009 127.421 524.853 126.355 524.721 125.282L525.535 125.182C525.666 126.243 525.82 127.296 525.996 128.342L525.188 128.478ZM667.439 125.6C667.295 126.72 667.126 127.833 666.932 128.936L666.124 128.793C666.316 127.703 666.483 126.603 666.625 125.496L667.439 125.6ZM929.968 126.37L930.749 129.539L929.952 129.736L929.171 126.567L929.968 126.37ZM410.427 127.249L411.134 130.366L410.334 130.548L409.627 127.43L410.427 127.249ZM247.117 132.36L247.253 129.144L248.072 129.178L247.937 132.395L247.117 132.36ZM1073.35 133.734C1072.9 132.752 1072.47 131.757 1072.06 130.751L1072.82 130.442C1073.22 131.437 1073.65 132.42 1074.1 133.39L1073.35 133.734ZM526.551 134.789C526.277 133.751 526.026 132.704 525.798 131.649L526.599 131.476C526.825 132.519 527.073 133.554 527.344 134.579L526.551 134.789ZM818.517 134.882L819.058 131.643L819.867 131.778L819.327 135.017L818.517 134.882ZM666.269 132.244C666.022 133.345 665.749 134.437 665.452 135.517L664.661 135.3C664.955 134.231 665.224 133.153 665.469 132.064L666.269 132.244ZM931.53 132.708L932.311 135.877L931.515 136.074L930.733 132.905L931.53 132.708ZM411.841 133.484L412.548 136.601L411.748 136.783L411.041 133.665L411.841 133.484ZM246.847 138.793L246.982 135.577L247.802 135.611L247.667 138.828L246.847 138.793ZM1076.35 139.503C1075.81 138.567 1075.28 137.616 1074.78 136.653L1075.51 136.275C1076.01 137.227 1076.52 138.166 1077.06 139.092L1076.35 139.503ZM528.478 140.948C528.111 139.939 527.767 138.92 527.445 137.89L528.227 137.645C528.546 138.663 528.886 139.671 529.249 140.668L528.478 140.948ZM817.436 141.36L817.977 138.121L818.786 138.256L818.245 141.495L817.436 141.36ZM664.481 138.749C664.131 139.821 663.756 140.882 663.358 141.931L662.591 141.64C662.985 140.603 663.355 139.554 663.701 138.494L664.481 138.749ZM933.092 139.046L933.873 142.215L933.077 142.412L932.296 139.243L933.092 139.046ZM413.255 139.719L413.609 141.278C413.73 141.813 413.846 142.348 413.957 142.883L413.154 143.049C413.044 142.519 412.929 141.989 412.809 141.459L412.455 139.9L413.255 139.719ZM1079.86 144.974C1079.24 144.091 1078.63 143.192 1078.04 142.279L1078.73 141.836C1079.31 142.738 1079.91 143.626 1080.53 144.499L1079.86 144.974ZM246.577 145.226L246.712 142.01L247.532 142.044L247.397 145.261L246.577 145.226ZM530.954 146.908C530.497 145.936 530.062 144.952 529.649 143.956L530.406 143.641C530.815 144.625 531.245 145.598 531.696 146.56L530.954 146.908ZM816.355 147.837L816.895 144.598L817.704 144.733L817.164 147.972L816.355 147.837ZM662.087 145.057C661.638 146.09 661.165 147.111 660.669 148.119L659.933 147.757C660.423 146.761 660.891 145.752 661.335 144.73L662.087 145.057ZM934.655 145.384L935.436 148.553L934.639 148.75L933.858 145.581L934.655 145.384ZM414.558 146.091C414.74 147.172 414.9 148.252 415.039 149.33L414.226 149.435C414.088 148.367 413.929 147.297 413.75 146.227L414.558 146.091ZM1083.86 150.101C1083.16 149.277 1082.47 148.438 1081.8 147.582L1082.45 147.078C1083.11 147.923 1083.79 148.754 1084.48 149.568L1083.86 150.101ZM246.307 151.66L246.442 148.443L247.262 148.477L247.127 151.694L246.307 151.66ZM533.956 152.621C533.414 151.693 532.892 150.752 532.391 149.798L533.117 149.417C533.612 150.359 534.128 151.29 534.664 152.207L533.956 152.621ZM659.109 151.111C658.565 152.097 657.998 153.069 657.41 154.026L656.711 153.596C657.293 152.65 657.853 151.689 658.391 150.714L659.109 151.111ZM815.273 154.315L815.814 151.076L816.623 151.211L816.082 154.45L815.273 154.315ZM936.217 151.722L936.998 154.891L936.202 155.088L935.42 151.919L936.217 151.722ZM1088.3 154.846C1087.53 154.089 1086.77 153.315 1086.03 152.524L1086.63 151.963C1087.36 152.745 1088.11 153.511 1088.88 154.259L1088.3 154.846ZM415.396 152.582C415.494 153.67 415.57 154.757 415.626 155.84L414.807 155.882C414.752 154.809 414.676 153.733 414.579 152.655L415.396 152.582ZM246.105 156.484L246.172 154.876L246.992 154.911L246.924 156.519C246.901 157.067 246.883 157.614 246.871 158.159L246.051 158.14C246.064 157.59 246.081 157.038 246.105 156.484ZM537.459 158.043C536.835 157.166 536.231 156.276 535.647 155.371L536.336 154.926C536.914 155.82 537.511 156.701 538.127 157.567L537.459 158.043ZM655.576 156.858C654.942 157.788 654.287 158.703 653.611 159.601L652.956 159.108C653.624 158.22 654.271 157.316 654.898 156.396L655.576 156.858ZM1093.16 159.174C1092.32 158.489 1091.49 157.786 1090.68 157.064L1091.23 156.452C1092.03 157.166 1092.84 157.861 1093.67 158.538L1093.16 159.174ZM814.192 160.792L814.733 157.553L815.542 157.688L815.001 160.927L814.192 160.792ZM937.779 158.06L938.56 161.229L937.764 161.425L936.983 158.256L937.779 158.06ZM415.731 159.109C415.744 160.204 415.737 161.294 415.708 162.382L414.888 162.36C414.916 161.284 414.924 160.203 414.91 159.12L415.731 159.109ZM541.432 163.129C540.732 162.312 540.051 161.479 539.389 160.63L540.035 160.125C540.69 160.964 541.364 161.788 542.055 162.596L541.432 163.129ZM1098.37 163.05C1097.48 162.444 1096.59 161.817 1095.72 161.17L1096.21 160.512C1097.07 161.151 1097.94 161.771 1098.83 162.371L1098.37 163.05ZM246.151 164.735C246.092 163.64 246.054 162.539 246.038 161.433L246.858 161.42C246.874 162.516 246.912 163.606 246.97 164.691L246.151 164.735ZM651.52 162.249C650.802 163.116 650.064 163.965 649.307 164.797L648.701 164.244C649.449 163.422 650.178 162.583 650.888 161.726L651.52 162.249ZM1180 163.79L1176.69 165.144L1176.38 164.385L1179.69 163.03L1180 163.79ZM813.381 165.65L813.651 164.031L814.46 164.166L814.19 165.785C814.099 166.33 814.015 166.873 813.938 167.415L813.126 167.3C813.204 166.751 813.289 166.201 813.381 165.65ZM1103.92 166.444C1102.97 165.92 1102.03 165.375 1101.11 164.81L1101.54 164.11C1102.45 164.669 1103.38 165.208 1104.31 165.726L1103.92 166.444ZM939.342 164.398L939.732 165.983C939.869 166.537 939.997 167.091 940.118 167.645L939.317 167.82C939.198 167.273 939.071 166.726 938.936 166.179L938.545 164.594L939.342 164.398ZM545.842 167.841C545.072 167.089 544.32 166.32 543.584 165.534L544.183 164.974C544.91 165.751 545.654 166.511 546.415 167.255L545.842 167.841ZM415.559 165.648C415.487 166.737 415.395 167.823 415.282 168.903L414.466 168.818C414.578 167.748 414.67 166.673 414.74 165.594L415.559 165.648ZM1173.39 166.498L1170.08 167.852L1169.77 167.093L1173.07 165.739L1173.39 166.498ZM646.978 167.238C646.183 168.033 645.369 168.81 644.538 169.568L643.985 168.962C644.807 168.213 645.612 167.445 646.398 166.658L646.978 167.238ZM1109.75 169.327C1108.75 168.89 1107.77 168.432 1106.8 167.951L1107.16 167.216C1108.12 167.691 1109.09 168.144 1110.08 168.576L1109.75 169.327ZM246.759 171.301C246.616 170.215 246.493 169.124 246.392 168.026L247.208 167.95C247.309 169.037 247.43 170.119 247.572 171.193L246.759 171.301ZM1166.77 169.206L1165.12 169.884C1164.61 170.091 1164.1 170.293 1163.59 170.488L1163.3 169.722C1163.8 169.529 1164.3 169.33 1164.81 169.124L1166.46 168.447L1166.77 169.206ZM550.654 172.142C549.82 171.461 549.002 170.762 548.2 170.045L548.746 169.434C549.539 170.142 550.348 170.834 551.173 171.507L550.654 172.142ZM1115.81 171.668C1114.78 171.324 1113.76 170.957 1112.75 170.567L1113.05 169.801C1114.05 170.187 1115.05 170.55 1116.07 170.89L1115.81 171.668ZM812.513 173.904C812.561 172.806 812.636 171.702 812.739 170.594L813.556 170.67C813.454 171.765 813.38 172.854 813.333 173.939L812.513 173.904ZM1160.55 171.585C1159.51 171.932 1158.47 172.255 1157.43 172.552L1157.21 171.764C1158.23 171.47 1159.26 171.151 1160.28 170.807L1160.55 171.585ZM940.754 170.989C940.936 172.115 941.087 173.239 941.206 174.362L940.39 174.448C940.273 173.341 940.124 172.231 939.944 171.12L940.754 170.989ZM641.991 171.782C641.126 172.499 640.243 173.197 639.344 173.874L638.851 173.219C639.739 172.549 640.612 171.86 641.468 171.15L641.991 171.782ZM1122.07 173.446C1121.01 173.198 1119.96 172.925 1118.92 172.629L1119.14 171.84C1120.17 172.133 1121.21 172.402 1122.25 172.648L1122.07 173.446ZM414.879 172.152C414.723 173.233 414.546 174.309 414.349 175.379L413.542 175.231C413.737 174.171 413.912 173.105 414.067 172.035L414.879 172.152ZM1154.29 173.376C1153.23 173.628 1152.17 173.855 1151.12 174.056L1150.96 173.251C1152.01 173.052 1153.05 172.828 1154.1 172.578L1154.29 173.376ZM1128.46 174.638C1127.38 174.489 1126.31 174.314 1125.25 174.116L1125.4 173.31C1126.45 173.506 1127.5 173.678 1128.57 173.826L1128.46 174.638ZM555.831 175.997C554.939 175.393 554.062 174.77 553.199 174.127L553.689 173.47C554.542 174.104 555.409 174.721 556.291 175.318L555.831 175.997ZM1147.9 174.593C1146.82 174.747 1145.75 174.875 1144.67 174.978L1144.6 174.162C1145.66 174.06 1146.72 173.933 1147.79 173.781L1147.9 174.593ZM1134.93 175.23C1133.84 175.182 1132.76 175.108 1131.69 175.01L1131.76 174.193C1132.83 174.29 1133.89 174.363 1134.97 174.41L1134.93 175.23ZM1141.44 175.214C1140.35 175.268 1139.26 175.295 1138.18 175.298L1138.18 174.478C1139.25 174.475 1140.32 174.448 1141.4 174.395L1141.44 175.214ZM247.878 177.804C247.649 176.731 247.441 175.651 247.254 174.563L248.063 174.424C248.248 175.501 248.454 176.571 248.68 177.634L247.878 177.804ZM636.602 175.84C635.674 176.474 634.73 177.086 633.771 177.676L633.341 176.978C634.289 176.394 635.222 175.789 636.14 175.163L636.602 175.84ZM561.332 179.373C560.389 178.851 559.46 178.309 558.544 177.747L558.973 177.048C559.878 177.604 560.797 178.14 561.729 178.655L561.332 179.373ZM812.558 180.549C812.495 179.449 812.46 178.342 812.452 177.228L813.272 177.223C813.28 178.323 813.315 179.416 813.377 180.503L812.558 180.549ZM941.473 177.754C941.531 178.893 941.557 180.027 941.552 181.157L940.732 181.153C940.737 180.039 940.711 178.919 940.654 177.796L941.473 177.754ZM413.695 178.582C413.455 179.647 413.196 180.706 412.916 181.758L412.124 181.547C412.4 180.506 412.657 179.457 412.894 178.403L413.695 178.582ZM630.857 179.377C629.874 179.921 628.877 180.442 627.866 180.94L627.504 180.204C628.503 179.712 629.489 179.197 630.46 178.659L630.857 179.377ZM567.113 182.241C566.127 181.806 565.152 181.35 564.19 180.872L564.555 180.137C565.506 180.609 566.469 181.06 567.444 181.49L567.113 182.241ZM249.501 184.194C249.189 183.143 248.898 182.084 248.627 181.016L249.422 180.814C249.69 181.872 249.979 182.921 250.287 183.961L249.501 184.194ZM624.806 182.36C623.776 182.808 622.735 183.233 621.681 183.634L621.389 182.868C622.431 182.471 623.461 182.051 624.478 181.608L624.806 182.36ZM573.13 184.576C572.108 184.231 571.096 183.865 570.095 183.476L570.392 182.712C571.381 183.096 572.381 183.458 573.392 183.798L573.13 184.576ZM813.271 187.15C813.097 186.061 812.95 184.964 812.831 183.859L813.646 183.771C813.764 184.862 813.91 185.946 814.081 187.021L813.271 187.15ZM618.5 184.76C617.434 185.109 616.357 185.434 615.27 185.734L615.051 184.943C616.126 184.646 617.191 184.325 618.245 183.98L618.5 184.76ZM941.444 184.559C941.376 185.695 941.276 186.826 941.147 187.949L940.332 187.855C940.46 186.746 940.558 185.631 940.625 184.51L941.444 184.559ZM412.015 184.903C411.694 185.946 411.353 186.982 410.993 188.009L410.219 187.738C410.576 186.72 410.913 185.695 411.231 184.662L412.015 184.903ZM579.334 186.357C578.284 186.107 577.243 185.833 576.211 185.537L576.438 184.748C577.457 185.041 578.486 185.312 579.524 185.559L579.334 186.357ZM611.997 186.554C610.903 186.801 609.8 187.023 608.689 187.219L608.546 186.412C609.645 186.218 610.735 185.998 611.816 185.754L611.997 186.554ZM585.676 187.572C584.606 187.416 583.544 187.238 582.491 187.036L582.645 186.23C583.686 186.43 584.736 186.606 585.794 186.76L585.676 187.572ZM605.353 187.728C604.242 187.871 603.124 187.989 601.998 188.08L601.931 187.263C603.044 187.172 604.15 187.056 605.249 186.915L605.353 187.728ZM251.623 190.444C251.23 189.419 250.855 188.385 250.501 187.341L251.278 187.077C251.629 188.111 251.999 189.135 252.389 190.15L251.623 190.444ZM592.095 188.211C591.016 188.152 589.944 188.069 588.878 187.963L588.959 187.147C590.013 187.252 591.073 187.334 592.139 187.392L592.095 188.211ZM598.63 188.276C598.068 188.295 597.504 188.308 596.939 188.315C596.398 188.321 595.858 188.322 595.319 188.316L595.328 187.496C595.86 187.501 596.394 187.501 596.929 187.495C597.488 187.488 598.046 187.475 598.601 187.456L598.63 188.276ZM814.651 193.644C814.367 192.577 814.109 191.5 813.879 190.414L814.681 190.243C814.909 191.316 815.163 192.38 815.444 193.433L814.651 193.644ZM409.852 191.073C409.452 192.088 409.032 193.095 408.594 194.092L407.843 193.762C408.277 192.774 408.692 191.778 409.089 190.772L409.852 191.073ZM940.662 191.318C940.469 192.439 940.246 193.552 939.993 194.655L939.193 194.471C939.443 193.383 939.664 192.285 939.854 191.179L940.662 191.318ZM254.227 196.503C253.755 195.512 253.301 194.511 252.866 193.499L253.62 193.175C254.05 194.177 254.5 195.169 254.968 196.15L254.227 196.503ZM816.685 199.968C816.293 198.934 815.928 197.889 815.588 196.832L816.369 196.581C816.704 197.625 817.065 198.657 817.452 199.678L816.685 199.968ZM407.22 197.06C406.743 198.041 406.247 199.012 405.733 199.973L405.01 199.586C405.519 198.635 406.01 197.673 406.482 196.701L407.22 197.06ZM939.14 197.95C938.825 199.042 938.48 200.124 938.107 201.194L937.332 200.923C937.701 199.867 938.041 198.8 938.352 197.723L939.14 197.95ZM257.299 202.343C256.75 201.391 256.219 200.428 255.706 199.454L256.432 199.072C256.94 200.037 257.466 200.991 258.009 201.933L257.299 202.343ZM404.137 202.826C403.586 203.768 403.018 204.698 402.432 205.617L401.74 205.176C402.32 204.266 402.883 203.344 403.429 202.412L404.137 202.826ZM819.346 206.052C818.852 205.063 818.383 204.06 817.938 203.044L818.69 202.715C819.129 203.718 819.592 204.709 820.08 205.686L819.346 206.052ZM936.898 204.375C936.465 205.426 936.004 206.463 935.516 207.486L934.776 207.133C935.258 206.123 935.712 205.1 936.139 204.063L936.898 204.375ZM260.814 207.924C260.193 207.018 259.589 206.099 259.002 205.167L259.696 204.73C260.277 205.652 260.876 206.562 261.491 207.46L260.814 207.924ZM400.621 208.34C400.001 209.237 399.363 210.121 398.708 210.993L398.052 210.5C398.701 209.637 399.332 208.761 399.947 207.873L400.621 208.34ZM822.603 211.837C822.013 210.902 821.446 209.951 820.902 208.985L821.617 208.583C822.154 209.537 822.714 210.476 823.297 211.4L822.603 211.837ZM264.752 213.217C264.063 212.361 263.389 211.491 262.732 210.609L263.39 210.119C264.041 210.993 264.708 211.854 265.391 212.702L264.752 213.217ZM933.967 210.517C933.423 211.513 932.852 212.494 932.255 213.459L931.558 213.027C932.147 212.075 932.71 211.107 933.247 210.124L933.967 210.517ZM396.695 213.57C396.008 214.416 395.305 215.249 394.585 216.068L393.969 215.527C394.681 214.715 395.378 213.89 396.059 213.053L396.695 213.57ZM826.42 217.271C825.74 216.398 825.081 215.508 824.444 214.601L825.115 214.13C825.744 215.025 826.395 215.905 827.067 216.767L826.42 217.271ZM269.087 218.189C268.333 217.389 267.594 216.574 266.872 215.744L267.49 215.205C268.206 216.027 268.937 216.834 269.684 217.626L269.087 218.189ZM930.385 216.303C929.737 217.233 929.062 218.146 928.364 219.04L927.717 218.535C928.407 217.653 929.072 216.752 929.712 215.833L930.385 216.303ZM392.381 218.484C391.632 219.274 390.866 220.051 390.086 220.813L389.513 220.226C390.286 219.472 391.043 218.702 391.786 217.919L392.381 218.484ZM830.757 222.3C829.993 221.498 829.249 220.678 828.526 219.839L829.148 219.303C829.862 220.132 830.596 220.942 831.35 221.734L830.757 222.3ZM273.792 222.812C272.979 222.072 272.179 221.317 271.395 220.546L271.97 219.961C272.747 220.724 273.538 221.473 274.344 222.206L273.792 222.812ZM926.196 221.664C925.45 222.518 924.68 223.353 923.887 224.166L923.3 223.593C924.082 222.791 924.842 221.968 925.578 221.125L926.196 221.664ZM387.703 223.053C386.895 223.784 386.073 224.5 385.236 225.2L384.709 224.571C385.538 223.877 386.353 223.169 387.153 222.445L387.703 223.053ZM835.568 226.876C834.728 226.153 833.907 225.41 833.105 224.647L833.671 224.053C834.463 224.807 835.274 225.541 836.103 226.255L835.568 226.876ZM278.839 227.06C277.971 226.385 277.116 225.693 276.275 224.985L276.803 224.357C277.636 225.058 278.483 225.744 279.343 226.412L278.839 227.06ZM921.446 226.538C920.612 227.305 919.755 228.05 918.878 228.772L918.356 228.139C919.222 227.426 920.067 226.691 920.891 225.934L921.446 226.538ZM382.688 227.249C381.827 227.915 380.952 228.565 380.063 229.199L379.587 228.531C380.467 227.904 381.333 227.26 382.187 226.6L382.688 227.249ZM840.807 230.955C839.9 230.319 839.01 229.66 838.137 228.981L838.641 228.333C839.503 229.005 840.383 229.655 841.279 230.284L840.807 230.955ZM284.199 230.905C283.281 230.299 282.375 229.675 281.482 229.034L281.96 228.368C282.844 229.002 283.742 229.62 284.651 230.221L284.199 230.905ZM916.191 230.861C915.278 231.531 914.345 232.178 913.393 232.799L912.945 232.112C913.884 231.499 914.805 230.861 915.705 230.2L916.191 230.861ZM377.363 231.047C376.453 231.644 375.53 232.224 374.595 232.787L374.172 232.085C375.098 231.527 376.012 230.952 376.913 230.361L377.363 231.047ZM289.84 234.325C288.878 233.791 287.926 233.239 286.987 232.67L287.412 231.968C288.343 232.532 289.285 233.079 290.238 233.607L289.84 234.325ZM846.426 234.494C845.46 233.951 844.508 233.384 843.572 232.795L844.01 232.101C844.934 232.683 845.874 233.243 846.828 233.779L846.426 234.494ZM371.762 234.419C370.809 234.944 369.843 235.451 368.866 235.94L368.499 235.206C369.467 234.722 370.423 234.22 371.367 233.7L371.762 234.419ZM910.492 234.579C909.512 235.144 908.514 235.683 907.497 236.196L907.128 235.464C908.13 234.958 909.116 234.426 910.083 233.869L910.492 234.579ZM295.73 237.295C294.728 236.838 293.737 236.362 292.756 235.867L293.125 235.135C294.097 235.625 295.078 236.096 296.07 236.549L295.73 237.295ZM852.369 237.454C851.353 237.011 850.35 236.542 849.36 236.049L849.726 235.315C850.703 235.801 851.694 236.264 852.697 236.703L852.369 237.454ZM365.912 237.348C364.922 237.796 363.921 238.226 362.909 238.637L362.6 237.877C363.602 237.47 364.593 237.044 365.573 236.601L365.912 237.348ZM904.417 237.645C903.382 238.097 902.33 238.523 901.262 238.921L900.976 238.152C902.029 237.76 903.067 237.34 904.089 236.893L904.417 237.645ZM301.834 239.798C300.799 239.421 299.774 239.023 298.758 238.607L299.07 237.848C300.075 238.26 301.091 238.654 302.115 239.028L301.834 239.798ZM858.582 239.801C857.525 239.462 856.479 239.097 855.445 238.706L855.735 237.939C856.756 238.325 857.789 238.685 858.832 239.02L858.582 239.801ZM359.857 239.81C358.835 240.18 357.802 240.531 356.759 240.863L356.51 240.082C357.543 239.753 358.566 239.405 359.578 239.038L359.857 239.81ZM898.042 240.021C896.964 240.357 895.872 240.664 894.766 240.943L894.565 240.148C895.657 239.872 896.735 239.569 897.798 239.238L898.042 240.021ZM865.001 241.507C863.915 241.277 862.837 241.02 861.771 240.736L861.981 239.943C863.035 240.223 864.098 240.477 865.171 240.705L865.001 241.507ZM308.115 241.815C307.053 241.519 305.999 241.203 304.954 240.868L305.205 240.087C306.239 240.419 307.283 240.732 308.334 241.024L308.115 241.815ZM891.445 241.686C890.888 241.794 890.328 241.896 889.765 241.99C889.214 242.083 888.664 242.168 888.115 242.246L887.999 241.434C888.542 241.357 889.085 241.272 889.629 241.181C890.185 241.088 890.738 240.988 891.287 240.881L891.445 241.686ZM353.624 241.796C352.578 242.085 351.523 242.355 350.459 242.605L350.271 241.807C351.325 241.559 352.37 241.291 353.406 241.005L353.624 241.796ZM871.556 242.551C870.451 242.432 869.354 242.286 868.265 242.112L868.394 241.302C869.469 241.473 870.553 241.618 871.644 241.735L871.556 242.551ZM884.821 242.635C883.713 242.739 882.61 242.814 881.512 242.863L881.476 242.043C882.561 241.996 883.651 241.921 884.745 241.819L884.821 242.635ZM314.534 243.332C313.453 243.121 312.379 242.889 311.312 242.637L311.501 241.839C312.557 242.088 313.621 242.318 314.692 242.527L314.534 243.332ZM878.187 242.926C877.074 242.919 875.967 242.884 874.866 242.822L874.913 242.003C875.999 242.064 877.093 242.099 878.192 242.105L878.187 242.926ZM347.261 243.293C346.194 243.501 345.119 243.69 344.036 243.859L343.91 243.048C344.983 242.881 346.048 242.694 347.104 242.488L347.261 243.293ZM321.055 244.341C319.958 244.215 318.867 244.068 317.783 243.9L317.909 243.089C318.982 243.255 320.062 243.401 321.148 243.526L321.055 244.341ZM340.802 244.3C340.26 244.364 339.715 244.423 339.169 244.476C338.618 244.531 338.068 244.579 337.519 244.623L337.454 243.805C337.998 243.762 338.543 243.714 339.089 243.66C339.63 243.607 340.169 243.549 340.706 243.486L340.802 244.3ZM327.63 244.836C326.528 244.796 325.431 244.735 324.34 244.653L324.401 243.835C325.482 243.916 326.568 243.977 327.66 244.016L327.63 244.836ZM334.232 244.82C333.127 244.865 332.026 244.889 330.929 244.892L330.927 244.072C332.013 244.069 333.104 244.045 334.199 244.001L334.232 244.82Z" fill="white"/>
<circle cx="247.771" cy="174.417" r="8.20254" fill="#0A5FFF"/>
<circle cx="397.468" cy="68.195" r="4.5114" fill="#0A5FFF"/>
<circle cx="669.792" cy="78.0386" r="6.97216" fill="#0A5FFF"/>
<circle cx="825.64" cy="216.66" r="4.5114" fill="#0A5FFF"/>
<circle cx="944.578" cy="30.4626" r="3.69114" fill="#0A5FFF"/>
<circle cx="1071.31" cy="128.484" r="6.56203" fill="#0A5FFF"/>
</svg>
