<svg width="80" height="80" viewBox="0 0 80 80" fill="none" xmlns="http://www.w3.org/2000/svg">
<path d="M64.4444 73.3327H15.5556C14.0827 73.3309 12.6706 72.745 11.6291 71.7035C10.5876 70.6621 10.0018 69.25 10 67.7771V12.2216C10.0018 10.7487 10.5876 9.33664 11.6291 8.29515C12.6706 7.25366 14.0827 6.66778 15.5556 6.66602H64.4444C65.9173 6.66778 67.3294 7.25366 68.3709 8.29515C69.4124 9.33664 69.9982 10.7487 70 12.2216V67.7771C69.9982 69.25 69.4124 70.6621 68.3709 71.7035C67.3294 72.745 65.9173 73.3309 64.4444 73.3327ZM15.5556 8.88824C14.6715 8.88824 13.8237 9.23943 13.1985 9.86455C12.5734 10.4897 12.2222 11.3375 12.2222 12.2216V67.7771C12.2222 68.6612 12.5734 69.509 13.1985 70.1341C13.8237 70.7593 14.6715 71.1105 15.5556 71.1105H64.4444C65.3285 71.1105 66.1763 70.7593 66.8015 70.1341C67.4266 69.509 67.7778 68.6612 67.7778 67.7771V12.2216C67.7778 11.3375 67.4266 10.4897 66.8015 9.86455C66.1763 9.23943 65.3285 8.88824 64.4444 8.88824H15.5556Z" fill="#F0FF00"/>
<path d="M25.5557 43.334H18.889C17.048 43.334 15.5557 44.8264 15.5557 46.6673V64.4451C15.5557 66.286 17.048 67.7784 18.889 67.7784H25.5557C27.3966 67.7784 28.889 66.286 28.889 64.4451V46.6673C28.889 44.8264 27.3966 43.334 25.5557 43.334Z" fill="#F0FF00"/>
<path d="M43.3335 43.334H36.6668C34.8259 43.334 33.3335 44.8264 33.3335 46.6673V64.4451C33.3335 66.286 34.8259 67.7784 36.6668 67.7784H43.3335C45.1744 67.7784 46.6668 66.286 46.6668 64.4451V46.6673C46.6668 44.8264 45.1744 43.334 43.3335 43.334Z" fill="#F0FF00"/>
<path d="M61.1113 43.334H54.4447C52.6037 43.334 51.1113 44.8264 51.1113 46.6673V64.4451C51.1113 66.286 52.6037 67.7784 54.4447 67.7784H61.1113C62.9523 67.7784 64.4447 66.286 64.4447 64.4451V46.6673C64.4447 44.8264 62.9523 43.334 61.1113 43.334Z" fill="#F0FF00"/>
<path d="M41.1112 25.5547H18.889C17.048 25.5547 15.5557 27.0471 15.5557 28.888V35.5547C15.5557 37.3956 17.048 38.888 18.889 38.888H41.1112C42.9522 38.888 44.4446 37.3956 44.4446 35.5547V28.888C44.4446 27.0471 42.9522 25.5547 41.1112 25.5547Z" fill="#F0FF00"/>
<path d="M63.3331 27.7769H49.9998C49.7051 27.7769 49.4225 27.6598 49.2141 27.4515C49.0057 27.2431 48.8887 26.9605 48.8887 26.6658C48.8887 26.3711 49.0057 26.0885 49.2141 25.8801C49.4225 25.6717 49.7051 25.5547 49.9998 25.5547H63.3331C63.6278 25.5547 63.9104 25.6717 64.1188 25.8801C64.3272 26.0885 64.4442 26.3711 64.4442 26.6658C64.4442 26.9605 64.3272 27.2431 64.1188 27.4515C63.9104 27.6598 63.6278 27.7769 63.3331 27.7769Z" fill="#F0FF00"/>
<path d="M63.3331 33.3336H49.9998C49.7051 33.3336 49.4225 33.2165 49.2141 33.0081C49.0057 32.7997 48.8887 32.5171 48.8887 32.2224C48.8887 31.9278 49.0057 31.6451 49.2141 31.4368C49.4225 31.2284 49.7051 31.1113 49.9998 31.1113H63.3331C63.6278 31.1113 63.9104 31.2284 64.1188 31.4368C64.3272 31.6451 64.4442 31.9278 64.4442 32.2224C64.4442 32.5171 64.3272 32.7997 64.1188 33.0081C63.9104 33.2165 63.6278 33.3336 63.3331 33.3336Z" fill="#F0FF00"/>
<path d="M63.3331 38.8882H49.9998C49.7051 38.8882 49.4225 38.7712 49.2141 38.5628C49.0057 38.3544 48.8887 38.0718 48.8887 37.7771C48.8887 37.4824 49.0057 37.1998 49.2141 36.9915C49.4225 36.7831 49.7051 36.666 49.9998 36.666H63.3331C63.6278 36.666 63.9104 36.7831 64.1188 36.9915C64.3272 37.1998 64.4442 37.4824 64.4442 37.7771C64.4442 38.0718 64.3272 38.3544 64.1188 38.5628C63.9104 38.7712 63.6278 38.8882 63.3331 38.8882Z" fill="#F0FF00"/>
<path d="M64.4444 6.66602H15.5556C14.0827 6.66778 12.6706 7.25366 11.6291 8.29515C10.5876 9.33664 10.0018 10.7487 10 12.2216V21.1105C10 21.4051 10.1171 21.6878 10.3254 21.8961C10.5338 22.1045 10.8164 22.2216 11.1111 22.2216H30.1111C32.45 22.2199 34.7145 21.3999 36.5122 19.9038L38.2344 18.4682C39.6352 17.3028 41.4001 16.6651 43.2222 16.666H68.8889C69.1836 16.666 69.4662 16.549 69.6746 16.3406C69.8829 16.1322 70 15.8496 70 15.5549V12.2216C69.9982 10.7487 69.4124 9.33664 68.3709 8.29515C67.3294 7.25366 65.9173 6.66778 64.4444 6.66602ZM17.7778 16.666C17.3383 16.666 16.9086 16.5357 16.5432 16.2915C16.1777 16.0473 15.8929 15.7003 15.7247 15.2942C15.5565 14.8881 15.5125 14.4413 15.5983 14.0103C15.684 13.5792 15.8956 13.1832 16.2064 12.8724C16.5172 12.5617 16.9132 12.35 17.3442 12.2643C17.7753 12.1785 18.2221 12.2225 18.6282 12.3907C19.0342 12.5589 19.3813 12.8438 19.6255 13.2092C19.8697 13.5746 20 14.0043 20 14.4438C20 15.0332 19.7659 15.5984 19.3491 16.0151C18.9324 16.4319 18.3671 16.666 17.7778 16.666ZM24.4444 16.666C24.0049 16.666 23.5753 16.5357 23.2098 16.2915C22.8444 16.0473 22.5596 15.7003 22.3914 15.2942C22.2232 14.8881 22.1792 14.4413 22.2649 14.0103C22.3507 13.5792 22.5623 13.1832 22.8731 12.8724C23.1839 12.5617 23.5798 12.35 24.0109 12.2643C24.442 12.1785 24.8888 12.2225 25.2949 12.3907C25.7009 12.5589 26.048 12.8438 26.2922 13.2092C26.5363 13.5746 26.6667 14.0043 26.6667 14.4438C26.6667 15.0332 26.4325 15.5984 26.0158 16.0151C25.599 16.4319 25.0338 16.666 24.4444 16.666ZM31.1111 16.666C30.6716 16.666 30.242 16.5357 29.8765 16.2915C29.5111 16.0473 29.2262 15.7003 29.058 15.2942C28.8899 14.8881 28.8458 14.4413 28.9316 14.0103C29.0173 13.5792 29.229 13.1832 29.5398 12.8724C29.8505 12.5617 30.2465 12.35 30.6776 12.2643C31.1086 12.1785 31.5555 12.2225 31.9615 12.3907C32.3676 12.5589 32.7146 12.8438 32.9588 13.2092C33.203 13.5746 33.3333 14.0043 33.3333 14.4438C33.3333 15.0332 33.0992 15.5984 32.6825 16.0151C32.2657 16.4319 31.7005 16.666 31.1111 16.666Z" fill="#F0FF00"/>
</svg>
