<svg width="50" height="50" viewBox="0 0 50 50" fill="none" xmlns="http://www.w3.org/2000/svg">
<path d="M47.6562 36.7188H35.9375V30.4688C35.9375 30.2615 35.8552 30.0628 35.7087 29.9163C35.5622 29.7698 35.3634 29.6875 35.1562 29.6875H14.8438C14.6365 29.6875 14.4378 29.7698 14.2913 29.9163C14.1448 30.0628 14.0625 30.2615 14.0625 30.4688V36.7188H2.34375C2.13655 36.7188 1.93784 36.8011 1.79132 36.9476C1.64481 37.0941 1.5625 37.2928 1.5625 37.5V47.6562C1.5625 47.8635 1.64481 48.0622 1.79132 48.2087C1.93784 48.3552 2.13655 48.4375 2.34375 48.4375H47.6562C47.8634 48.4375 48.0622 48.3552 48.2087 48.2087C48.3552 48.0622 48.4375 47.8635 48.4375 47.6562V37.5C48.4375 37.2928 48.3552 37.0941 48.2087 36.9476C48.0622 36.8011 47.8634 36.7188 47.6562 36.7188ZM14.0625 46.875H3.125V38.2812H14.0625V46.875ZM34.375 37.5V46.875H15.625V31.25H34.375V37.5ZM46.875 46.875H35.9375V38.2812H46.875V46.875Z" fill="#FF073A"/>
<path d="M17.519 18.5735L16.0221 27.2102C15.9972 27.3537 16.0129 27.5013 16.0674 27.6363C16.122 27.7713 16.2132 27.8885 16.3307 27.9744C16.4483 28.0604 16.5875 28.1118 16.7327 28.1228C16.878 28.1338 17.0234 28.104 17.1526 28.0367L25.0002 23.9539L32.8479 28.0367C32.9771 28.104 33.1225 28.1338 33.2677 28.1228C33.4129 28.1118 33.5521 28.0604 33.6697 27.9744C33.7873 27.8885 33.8785 27.7713 33.933 27.6363C33.9875 27.5013 34.0032 27.3537 33.9783 27.2102L32.4815 18.5735L38.8236 12.4555C38.929 12.354 39.0037 12.2251 39.0394 12.0832C39.075 11.9414 39.0701 11.7924 39.0253 11.6532C38.9804 11.514 38.8974 11.3902 38.7857 11.2959C38.6739 11.2015 38.5379 11.1404 38.3932 11.1196L29.6205 9.85862L25.7033 1.99534C25.6313 1.87407 25.529 1.77362 25.4064 1.70386C25.2838 1.6341 25.1452 1.59741 25.0041 1.59741C24.8631 1.59741 24.7244 1.6341 24.6019 1.70386C24.4793 1.77362 24.3769 1.87407 24.3049 1.99534L20.3799 9.85862L11.6072 11.1196C11.4625 11.1404 11.3265 11.2015 11.2148 11.2959C11.103 11.3902 11.02 11.514 10.9751 11.6532C10.9303 11.7924 10.9254 11.9414 10.9611 12.0832C10.9967 12.2251 11.0714 12.354 11.1768 12.4555L17.519 18.5735ZM28.1252 23.818L25.3612 22.3797C25.2495 22.3222 25.1258 22.2922 25.0002 22.2922C24.8747 22.2922 24.7509 22.3222 24.6393 22.3797L21.8752 23.818V20.3125C21.8752 19.8981 22.0398 19.5007 22.3329 19.2077C22.6259 18.9146 23.0233 18.75 23.4377 18.75H26.5627C26.9771 18.75 27.3745 18.9146 27.6676 19.2077C27.9606 19.5007 28.1252 19.8981 28.1252 20.3125V23.818ZM23.4377 14.8438C23.4377 14.5347 23.5294 14.2326 23.701 13.9757C23.8727 13.7187 24.1168 13.5185 24.4023 13.4002C24.6878 13.282 25.0019 13.251 25.305 13.3113C25.6081 13.3716 25.8865 13.5204 26.1051 13.7389C26.3236 13.9574 26.4724 14.2359 26.5327 14.5389C26.593 14.842 26.562 15.1562 26.4438 15.4417C26.3255 15.7272 26.1252 15.9713 25.8683 16.1429C25.6113 16.3146 25.3092 16.4063 25.0002 16.4063C24.5858 16.4063 24.1884 16.2417 23.8954 15.9486C23.6023 15.6556 23.4377 15.2582 23.4377 14.8438ZM21.008 11.3461C21.1329 11.3281 21.2516 11.2801 21.3539 11.2062C21.4563 11.1324 21.5391 11.0348 21.5955 10.9219L25.0002 4.09456L28.4049 10.9219C28.4613 11.0348 28.5442 11.1324 28.6465 11.2062C28.7488 11.2801 28.8675 11.3281 28.9924 11.3461L36.5901 12.4399L31.0986 17.7344C31.0069 17.8229 30.9382 17.9326 30.8986 18.0538C30.8589 18.175 30.8496 18.3041 30.8713 18.4297L32.1697 25.9203L29.6877 24.6313V20.3125C29.6855 19.5603 29.4115 18.8342 28.9162 18.2679C28.4209 17.7017 27.7377 17.3336 26.9924 17.2313C27.4879 16.8213 27.8449 16.2684 28.0145 15.648C28.1842 15.0276 28.1583 14.37 27.9404 13.7649C27.7225 13.1598 27.3232 12.6367 26.797 12.2669C26.2708 11.8971 25.6434 11.6986 25.0002 11.6986C24.3571 11.6986 23.7296 11.8971 23.2034 12.2669C22.6772 12.6367 22.2779 13.1598 22.06 13.7649C21.8421 14.37 21.8162 15.0276 21.9859 15.648C22.1556 16.2684 22.5125 16.8213 23.008 17.2313C22.2627 17.3336 21.5795 17.7017 21.0842 18.2679C20.589 18.8342 20.315 19.5603 20.3127 20.3125V24.6313L17.8307 25.9227L19.1291 18.4321C19.1508 18.3064 19.1415 18.1773 19.1019 18.0561C19.0622 17.9349 18.9935 17.8253 18.9018 17.7367L13.4104 12.4391L21.008 11.3461Z" fill="#FF073A"/>
<path d="M3.90625 35.1561H11.7188C11.926 35.1561 12.1247 35.0738 12.2712 34.9273C12.4177 34.7808 12.5 34.5821 12.5 34.3749V29.6874C12.4978 28.9351 12.2238 28.209 11.7285 27.6428C11.2332 27.0766 10.55 26.7084 9.80469 26.6061C10.3002 26.1961 10.6571 25.6432 10.8268 25.0229C10.9965 24.4025 10.9706 23.7449 10.7527 23.1398C10.5348 22.5347 10.1355 22.0115 9.60933 21.6417C9.08313 21.2719 8.45565 21.0735 7.8125 21.0735C7.16935 21.0735 6.54187 21.2719 6.01567 21.6417C5.48947 22.0115 5.09019 22.5347 4.8723 23.1398C4.65441 23.7449 4.62853 24.4025 4.7982 25.0229C4.96786 25.6432 5.3248 26.1961 5.82031 26.6061C5.07503 26.7084 4.39182 27.0766 3.89654 27.6428C3.40125 28.209 3.12724 28.9351 3.125 29.6874V34.3749C3.125 34.5821 3.20731 34.7808 3.35382 34.9273C3.50034 35.0738 3.69905 35.1561 3.90625 35.1561ZM7.8125 22.6561C8.12153 22.6561 8.42363 22.7478 8.68058 22.9195C8.93753 23.0912 9.1378 23.3352 9.25606 23.6207C9.37432 23.9062 9.40527 24.2204 9.34498 24.5235C9.28469 24.8266 9.13587 25.105 8.91735 25.3235C8.69883 25.542 8.42042 25.6908 8.11733 25.7511C7.81423 25.8114 7.50007 25.7805 7.21456 25.6622C6.92905 25.5439 6.68502 25.3437 6.51333 25.0867C6.34164 24.8298 6.25 24.5277 6.25 24.2186C6.25 23.8042 6.41462 23.4068 6.70765 23.1138C7.00067 22.8208 7.3981 22.6561 7.8125 22.6561ZM4.6875 29.6874C4.6875 29.273 4.85212 28.8756 5.14515 28.5825C5.43817 28.2895 5.8356 28.1249 6.25 28.1249H9.375C9.7894 28.1249 10.1868 28.2895 10.4799 28.5825C10.7729 28.8756 10.9375 29.273 10.9375 29.6874V33.5936H4.6875V29.6874Z" fill="#FF073A"/>
<path d="M37.5 29.6874V34.3749C37.5 34.5821 37.5823 34.7808 37.7288 34.9273C37.8753 35.0738 38.074 35.1561 38.2812 35.1561H46.0938C46.301 35.1561 46.4997 35.0738 46.6462 34.9273C46.7927 34.7808 46.875 34.5821 46.875 34.3749V29.6874C46.8728 28.9351 46.5988 28.209 46.1035 27.6428C45.6082 27.0766 44.925 26.7084 44.1797 26.6061C44.6752 26.1961 45.0321 25.6432 45.2018 25.0229C45.3715 24.4025 45.3456 23.7449 45.1277 23.1398C44.9098 22.5347 44.5105 22.0115 43.9843 21.6417C43.4581 21.2719 42.8306 21.0735 42.1875 21.0735C41.5444 21.0735 40.9169 21.2719 40.3907 21.6417C39.8645 22.0115 39.4652 22.5347 39.2473 23.1398C39.0294 23.7449 39.0035 24.4025 39.1732 25.0229C39.3429 25.6432 39.6998 26.1961 40.1953 26.6061C39.45 26.7084 38.7668 27.0766 38.2715 27.6428C37.7762 28.209 37.5022 28.9351 37.5 29.6874ZM42.1875 22.6561C42.4965 22.6561 42.7986 22.7478 43.0556 22.9195C43.3125 23.0912 43.5128 23.3352 43.6311 23.6207C43.7493 23.9062 43.7803 24.2204 43.72 24.5235C43.6597 24.8266 43.5109 25.105 43.2924 25.3235C43.0738 25.542 42.7954 25.6908 42.4923 25.7511C42.1892 25.8114 41.8751 25.7805 41.5896 25.6622C41.304 25.5439 41.06 25.3437 40.8883 25.0867C40.7166 24.8298 40.625 24.5277 40.625 24.2186C40.625 23.8042 40.7896 23.4068 41.0826 23.1138C41.3757 22.8208 41.7731 22.6561 42.1875 22.6561ZM43.75 28.1249C44.1644 28.1249 44.5618 28.2895 44.8549 28.5825C45.1479 28.8756 45.3125 29.273 45.3125 29.6874V33.5936H39.0625V29.6874C39.0625 29.273 39.2271 28.8756 39.5201 28.5825C39.8132 28.2895 40.2106 28.1249 40.625 28.1249H43.75Z" fill="#FF073A"/>
<path d="M32.8867 5.13208L34.2836 2.33833L35.6805 3.03677L34.2836 5.83052L32.8867 5.13208Z" fill="#FF073A"/>
<path d="M41.3354 10.1926L44.3229 9.27075L44.7839 10.7645L41.7964 11.6864L41.3354 10.1926Z" fill="#FF073A"/>
<path d="M14.3022 3.02637L15.6991 2.32793L17.096 5.12168L15.6991 5.82012L14.3022 3.02637Z" fill="#FF073A"/>
<path d="M5.23877 10.7578L5.69806 9.26434L8.685 10.1829L8.22571 11.6764L5.23877 10.7578Z" fill="#FF073A"/>
<path d="M24.9998 36.1718L29.1865 39.6609L30.1881 38.4609L25.5006 34.5547C25.3601 34.4373 25.1829 34.373 24.9998 34.373C24.8168 34.373 24.6395 34.4373 24.499 34.5547L19.8115 38.4609L20.8131 39.6609L24.9998 36.1718Z" fill="#FF073A"/>
<path d="M24.9998 40.0781L29.1865 43.5672L30.1881 42.3672L25.5006 38.4609C25.3601 38.3436 25.1829 38.2793 24.9998 38.2793C24.8168 38.2793 24.6395 38.3436 24.499 38.4609L19.8115 42.3672L20.8131 43.5672L24.9998 40.0781Z" fill="#FF073A"/>
</svg>
