<svg width="29" height="32" viewBox="0 0 29 32" fill="none" xmlns="http://www.w3.org/2000/svg">
<path d="M1.99501 12.54H13.8225V7.41C13.8225 2.91604 17.6984 -0.566796 22.1516 0.0768419C25.8275 0.608132 28.5 3.85797 28.5 7.57204L28.5 12.4997C28.5 12.6794 28.3544 12.825 28.1747 12.825H25.2628C25.0831 12.825 24.9375 12.6794 24.9375 12.4997V7.41C24.9375 5.41499 23.2275 3.70499 21.2325 3.70499C19.095 3.5625 17.385 5.2725 17.385 7.41V12.54H17.955C19.0568 12.54 19.95 13.4332 19.95 14.535V29.505C19.95 30.6068 19.0568 31.5 17.955 31.5H1.99501C0.893196 31.5 0 30.6068 0 29.505V14.535C0 13.4377 0.897753 12.54 1.99501 12.54Z" fill="#FF073A"/>
</svg>
