<svg width="23" height="30" viewBox="0 0 23 30" fill="none" xmlns="http://www.w3.org/2000/svg">
<path d="M20.125 11.25H19.1667V7.5C19.1667 3.36365 15.7283 0 11.5 0C7.27173 0 3.83333 3.36365 3.83333 7.5V11.25H2.875C1.29057 11.25 0 12.5111 0 14.0625V27.1875C0 28.7389 1.29057 30 2.875 30H20.125C21.7094 30 23 28.7389 23 27.1875V14.0625C23 12.5111 21.7094 11.25 20.125 11.25ZM6.38897 7.5C6.38897 4.74243 8.68115 2.50008 11.5 2.50008C14.3188 2.50008 16.611 4.74243 16.611 7.5V11.25H6.38897V7.5Z" fill="#FF073A"/>
</svg>
