<svg width="24" height="24" viewBox="0 0 24 24" fill="none" xmlns="http://www.w3.org/2000/svg">
<path fill-rule="evenodd" clip-rule="evenodd" d="M21.6979 15.8339C21.6979 17.8606 20.0493 19.5066 18.0252 19.5066H5.97562C3.95151 19.5066 2.30287 17.8606 2.30287 15.8339V8.16698C2.30287 7.49057 2.48807 6.85527 2.80954 6.31002L8.68898 12.1895C9.56859 13.0716 10.7465 13.5577 12.0016 13.5577C13.2542 13.5577 14.4321 13.0716 15.3117 12.1895L21.1911 6.31002C21.5127 6.85527 21.6978 7.49052 21.6978 8.16698V15.8339H21.6979ZM18.0251 4.49427H5.97562C5.13974 4.49427 4.36813 4.77716 3.75088 5.24784L9.68948 11.189C10.3042 11.8011 11.1246 12.1406 12.0016 12.1406C12.8761 12.1406 13.6965 11.8011 14.3112 11.189L20.2498 5.24784C19.6326 4.77716 18.861 4.49427 18.0251 4.49427ZM18.0251 3.07715H5.97562C3.16963 3.07715 0.885742 5.36104 0.885742 8.16702V15.834C0.885742 18.6426 3.16963 20.9239 5.97562 20.9239H18.0251C20.8311 20.9239 23.115 18.6426 23.115 15.834V8.16698C23.115 5.36099 20.8311 3.07715 18.0251 3.07715Z" fill="white"/>
</svg>
