<svg width="50" height="50" viewBox="0 0 50 50" fill="none" xmlns="http://www.w3.org/2000/svg">
<path d="M22.0703 41.2109H16.2109C15.4018 41.2109 14.7461 41.8667 14.7461 42.6758C14.7461 43.4849 15.4018 44.1406 16.2109 44.1406H22.0703C22.8794 44.1406 23.5352 43.4849 23.5352 42.6758C23.5352 41.8667 22.8794 41.2109 22.0703 41.2109Z" fill="#FF073A"/>
<path d="M42.5781 11.8164H35.2539V4.39453C35.2539 1.97144 33.2825 0 30.8594 0H7.42188C4.99878 0 3.02734 1.97144 3.02734 4.39453V45.6055C3.02734 48.0286 4.99878 50 7.42188 50H30.8594C33.2825 50 35.2539 48.0286 35.2539 45.6055V32.3242H42.5781C45.0012 32.3242 46.9727 30.3528 46.9727 27.9297V16.2109C46.9727 13.7878 45.0012 11.8164 42.5781 11.8164ZM24.6059 2.92969L23.8609 5.85938H14.4203L13.6753 2.92969H24.6059ZM32.3242 45.6055C32.3242 46.413 31.6669 47.0703 30.8594 47.0703H7.42188C6.6143 47.0703 5.95703 46.413 5.95703 45.6055V4.39453C5.95703 3.58696 6.6143 2.92969 7.42188 2.92969H10.6525L11.6745 6.94923C11.9499 8.03261 12.9227 8.78906 14.0408 8.78906H24.2405C25.3586 8.78906 26.3313 8.03261 26.6068 6.94923L27.6287 2.92969H30.8594C31.6669 2.92969 32.3242 3.58696 32.3242 4.39453V11.8164H22.0703C19.6472 11.8164 17.6758 13.7878 17.6758 16.2109V36.7188C17.6758 38.0188 19.2543 38.6768 20.1763 37.7544L25.6069 32.3242H32.3242V45.6055ZM44.043 27.9297C44.043 28.7373 43.3857 29.3945 42.5781 29.3945H25C24.6117 29.3945 24.239 29.549 23.9643 29.8237L20.6055 33.1821V16.2109C20.6055 15.4034 21.2627 14.7461 22.0703 14.7461H42.5781C43.3857 14.7461 44.043 15.4034 44.043 16.2109V27.9297Z" fill="#FF073A"/>
<path d="M25 20.6055H33.7891C34.5982 20.6055 35.2539 19.9497 35.2539 19.1406C35.2539 18.3315 34.5982 17.6758 33.7891 17.6758H25C24.1909 17.6758 23.5352 18.3315 23.5352 19.1406C23.5352 19.9497 24.1909 20.6055 25 20.6055Z" fill="#FF073A"/>
<path d="M39.6484 23.5352H25C24.1909 23.5352 23.5352 24.1909 23.5352 25C23.5352 25.8091 24.1909 26.4648 25 26.4648H39.6484C40.4575 26.4648 41.1133 25.8091 41.1133 25C41.1133 24.1909 40.4575 23.5352 39.6484 23.5352Z" fill="#FF073A"/>
</svg>
