<svg width="50" height="50" viewBox="0 0 50 50" fill="none" xmlns="http://www.w3.org/2000/svg">
<g clip-path="url(#clip0_227_1212)">
<path d="M25 39.0908C26.7294 39.0908 28.1313 37.6889 28.1313 35.9595C28.1313 34.2301 26.7294 32.8281 25 32.8281C23.2706 32.8281 21.8687 34.2301 21.8687 35.9595C21.8687 37.6889 23.2706 39.0908 25 39.0908Z" stroke="#FF073A" stroke-width="1.5" stroke-miterlimit="10" stroke-linecap="round" stroke-linejoin="round"/>
<path d="M23.1968 33.1986C23.0978 32.9644 23.043 32.707 23.043 32.4368C23.043 31.3559 23.9191 30.4797 25 30.4797C26.0809 30.4797 26.957 31.3559 26.957 32.4368C26.957 32.6834 26.9114 32.9193 26.8282 33.1366" stroke="#FF073A" stroke-width="1.5" stroke-miterlimit="10" stroke-linecap="round" stroke-linejoin="round"/>
<path d="M26.5653 39.0908V40.6564C26.5653 41.5211 25.8644 42.2221 24.9997 42.2221C24.1351 42.2221 23.4341 41.5211 23.4341 40.6564V39.0908" stroke="#FF073A" stroke-width="1.5" stroke-miterlimit="10" stroke-linecap="round" stroke-linejoin="round"/>
<path d="M28.1311 49.2676V46.5335C28.1311 45.7588 28.3227 44.9962 28.6888 44.3135L32.3375 37.5104C32.7063 36.8227 32.924 36.0642 32.976 35.2857L33.5148 27.2183C33.5667 26.4416 32.9507 25.783 32.1722 25.783C31.4936 25.783 30.9211 26.2882 30.8369 26.9617L29.7517 35.6392L26.5654 40.6567" stroke="#FF073A" stroke-width="1.5" stroke-miterlimit="10" stroke-linecap="round" stroke-linejoin="round"/>
<path d="M25 45.3533V46.1361" stroke="#FF073A" stroke-width="1.5" stroke-miterlimit="10" stroke-linecap="round" stroke-linejoin="round"/>
<path d="M21.8688 49.2676V46.5335C21.8688 45.7588 21.6772 44.9962 21.3111 44.3135L17.6623 37.5104C17.2935 36.8227 17.0758 36.0642 17.0239 35.2857L16.485 27.2183C16.4331 26.4416 17.0491 25.783 17.8277 25.783C18.5063 25.783 19.0787 26.2882 19.1629 26.9617L20.2482 35.6392L23.4344 40.6567" stroke="#FF073A" stroke-width="1.5" stroke-miterlimit="10" stroke-linecap="round" stroke-linejoin="round"/>
<path d="M27.9062 39.0554L30.2866 40.8407" stroke="#FF073A" stroke-width="1.5" stroke-miterlimit="10" stroke-linecap="round" stroke-linejoin="round"/>
<path d="M22.0937 39.0554L19.7134 40.8407" stroke="#FF073A" stroke-width="1.5" stroke-miterlimit="10" stroke-linecap="round" stroke-linejoin="round"/>
<path d="M40.6563 39.0908C42.3856 39.0908 43.7876 37.6889 43.7876 35.9595C43.7876 34.2301 42.3856 32.8281 40.6563 32.8281C38.9269 32.8281 37.5249 34.2301 37.5249 35.9595C37.5249 37.6889 38.9269 39.0908 40.6563 39.0908Z" stroke="#FF073A" stroke-width="1.5" stroke-miterlimit="10" stroke-linecap="round" stroke-linejoin="round"/>
<path d="M38.853 33.1986C38.754 32.9644 38.6992 32.707 38.6992 32.4368C38.6992 31.3559 39.5754 30.4797 40.6563 30.4797C41.7371 30.4797 42.6133 31.3559 42.6133 32.4368C42.6133 32.6834 42.5677 32.9193 42.4845 33.1366" stroke="#FF073A" stroke-width="1.5" stroke-miterlimit="10" stroke-linecap="round" stroke-linejoin="round"/>
<path d="M42.2221 39.0908V40.6564C42.2221 41.5211 41.5211 42.2221 40.6564 42.2221C39.7918 42.2221 39.0908 41.5211 39.0908 40.6564V39.0908" stroke="#FF073A" stroke-width="1.5" stroke-miterlimit="10" stroke-linecap="round" stroke-linejoin="round"/>
<path d="M43.7878 49.2676V46.5335C43.7878 45.7588 43.9794 44.9962 44.3455 44.3135L47.9942 37.5104C48.3631 36.8227 48.5808 36.0642 48.6327 35.2857L49.1716 27.2183C49.2234 26.4416 48.6074 25.783 47.8289 25.783C47.1503 25.783 46.5778 26.2882 46.4937 26.9617L45.4084 35.6392L42.2222 40.6567" stroke="#FF073A" stroke-width="1.5" stroke-miterlimit="10" stroke-linecap="round" stroke-linejoin="round"/>
<path d="M40.6562 45.3533V46.1361" stroke="#FF073A" stroke-width="1.5" stroke-miterlimit="10" stroke-linecap="round" stroke-linejoin="round"/>
<path d="M32.8535 25.9392C33.0412 25.8395 33.2556 25.7827 33.484 25.7827C34.1626 25.7827 34.7351 26.288 34.8192 26.9614L35.9045 35.639L39.0907 40.6564" stroke="#FF073A" stroke-width="1.5" stroke-miterlimit="10" stroke-linecap="round" stroke-linejoin="round"/>
<path d="M37.5249 49.2675V46.5334C37.5249 45.7587 37.3333 44.9961 36.9672 44.3134L34.4512 39.6223" stroke="#FF073A" stroke-width="1.5" stroke-miterlimit="10" stroke-linecap="round" stroke-linejoin="round"/>
<path d="M43.5625 39.0554L45.9429 40.8407" stroke="#FF073A" stroke-width="1.5" stroke-miterlimit="10" stroke-linecap="round" stroke-linejoin="round"/>
<path d="M37.75 39.0554L35.3696 40.8407" stroke="#FF073A" stroke-width="1.5" stroke-miterlimit="10" stroke-linecap="round" stroke-linejoin="round"/>
<path d="M9.34375 39.0908C11.0731 39.0908 12.4751 37.6889 12.4751 35.9595C12.4751 34.2301 11.0731 32.8281 9.34375 32.8281C7.61435 32.8281 6.2124 34.2301 6.2124 35.9595C6.2124 37.6889 7.61435 39.0908 9.34375 39.0908Z" stroke="#FF073A" stroke-width="1.5" stroke-miterlimit="10" stroke-linecap="round" stroke-linejoin="round"/>
<path d="M7.54053 33.1986C7.4415 32.9644 7.38672 32.707 7.38672 32.4368C7.38672 31.3559 8.26289 30.4797 9.34375 30.4797C10.4246 30.4797 11.3008 31.3559 11.3008 32.4368C11.3008 32.6834 11.2552 32.9193 11.172 33.1366" stroke="#FF073A" stroke-width="1.5" stroke-miterlimit="10" stroke-linecap="round" stroke-linejoin="round"/>
<path d="M10.9096 39.0908V40.6564C10.9096 41.5211 10.2086 42.2221 9.34395 42.2221C8.4793 42.2221 7.77832 41.5211 7.77832 40.6564V39.0908" stroke="#FF073A" stroke-width="1.5" stroke-miterlimit="10" stroke-linecap="round" stroke-linejoin="round"/>
<path d="M17.1166 25.9237C16.9363 25.8337 16.7326 25.783 16.5165 25.783C15.8379 25.783 15.2654 26.2882 15.1812 26.9617L14.0959 35.6392L10.9097 40.6567" stroke="#FF073A" stroke-width="1.5" stroke-miterlimit="10" stroke-linecap="round" stroke-linejoin="round"/>
<path d="M12.4751 49.2676V46.5335C12.4751 45.7588 12.6667 44.9962 13.0328 44.3135L16.6815 37.5104C16.8928 37.1166 17.0544 36.6996 17.1638 36.2688" stroke="#FF073A" stroke-width="1.5" stroke-miterlimit="10" stroke-linecap="round" stroke-linejoin="round"/>
<path d="M9.34375 45.3533V46.1361" stroke="#FF073A" stroke-width="1.5" stroke-miterlimit="10" stroke-linecap="round" stroke-linejoin="round"/>
<path d="M6.21252 49.2676V46.5335C6.21252 45.7588 6.02092 44.9962 5.65481 44.3135L2.00608 37.5104C1.63723 36.8227 1.41955 36.0642 1.3676 35.2857L0.828733 27.2183C0.776878 26.4416 1.39289 25.783 2.17141 25.783C2.85002 25.783 3.42248 26.2882 3.50666 26.9617L4.59192 35.6392L7.77815 40.6567" stroke="#FF073A" stroke-width="1.5" stroke-miterlimit="10" stroke-linecap="round" stroke-linejoin="round"/>
<path d="M12.25 39.0554L14.6304 40.8407" stroke="#FF073A" stroke-width="1.5" stroke-miterlimit="10" stroke-linecap="round" stroke-linejoin="round"/>
<path d="M6.4375 39.0554L4.05713 40.8407" stroke="#FF073A" stroke-width="1.5" stroke-miterlimit="10" stroke-linecap="round" stroke-linejoin="round"/>
<path d="M36.7009 15.1015C36.0123 16.1645 35.7585 17.0721 36.1311 17.4447C36.5037 17.8172 37.4113 17.5634 38.4743 16.8748C38.976 16.5498 39.6085 16.5498 40.1103 16.8748C41.1733 17.5635 42.0809 17.8172 42.4535 17.4447C42.826 17.0721 42.5723 16.1644 41.8836 15.1015C41.5586 14.5997 41.5586 13.9671 41.8836 13.4655C42.5723 12.4025 42.826 11.4949 42.4535 11.1223C42.0809 10.7497 41.1733 11.0035 40.1103 11.6921C39.6085 12.0171 38.976 12.0171 38.4743 11.6921C37.4113 11.0035 36.5037 10.7497 36.1311 11.1223C35.7585 11.4949 36.0123 12.4025 36.7009 13.4655C37.0259 13.9671 37.0259 14.5997 36.7009 15.1015Z" stroke="#FF073A" stroke-width="1.5" stroke-miterlimit="10" stroke-linecap="round" stroke-linejoin="round"/>
<path d="M26.1975 22.452L24.9389 21.1934C24.5913 20.8458 24.5913 20.2823 24.9389 19.9348L26.1975 18.6762C26.545 18.3286 27.1085 18.3286 27.4561 18.6762L28.7147 19.9348C29.0622 20.2823 29.0622 20.8458 28.7147 21.1934L27.4561 22.452C27.1085 22.7995 26.545 22.7995 26.1975 22.452Z" stroke="#FF073A" stroke-width="1.5" stroke-miterlimit="10" stroke-linecap="round" stroke-linejoin="round"/>
<path d="M6.34653 12.7991L5.2395 11.692C4.93384 11.3864 4.93384 10.8907 5.2395 10.5849L6.34663 9.47778C6.65229 9.17212 7.148 9.17212 7.45376 9.47778L8.56089 10.5849C8.86655 10.8906 8.86655 11.3863 8.56089 11.692L7.45376 12.7992C7.1479 13.1048 6.65229 13.1048 6.34653 12.7991Z" stroke="#FF073A" stroke-width="1.5" stroke-miterlimit="10" stroke-linecap="round" stroke-linejoin="round"/>
<path d="M32.2944 3.67368L31.4919 2.87124C31.1863 2.56558 31.1863 2.06987 31.4919 1.76411L32.2944 0.96167C32.6 0.656006 33.0958 0.656006 33.4015 0.96167L34.204 1.76411C34.5096 2.06978 34.5096 2.56548 34.204 2.87124L33.4015 3.67368C33.0958 3.97944 32.6001 3.97944 32.2944 3.67368Z" stroke="#FF073A" stroke-width="1.5" stroke-miterlimit="10" stroke-linecap="round" stroke-linejoin="round"/>
<path d="M18.4528 5.57563C18.2138 6.1564 17.7147 6.60942 17.1057 6.78442C15.7242 7.18149 14.8232 7.82808 14.8232 8.56069C14.8232 9.29331 15.7243 9.93979 17.1058 10.337C17.7871 10.5329 18.331 11.0766 18.5268 11.758C18.9239 13.1394 19.5704 14.0405 20.303 14.0405C21.0356 14.0405 21.6821 13.1394 22.0793 11.758C22.2752 11.0766 22.8189 10.5328 23.5003 10.337C24.8817 9.93979 25.7828 9.29331 25.7828 8.56069C25.7828 7.82808 24.8817 7.18159 23.5004 6.78442C22.819 6.58853 22.2752 6.04478 22.0793 5.36333C21.6821 3.98188 21.0356 3.08081 20.303 3.08081" stroke="#FF073A" stroke-width="1.5" stroke-miterlimit="10" stroke-linecap="round" stroke-linejoin="round"/>
<path d="M10.9092 3.86377L11.692 4.64658" stroke="#FF073A" stroke-width="1.5" stroke-miterlimit="10" stroke-linecap="round" stroke-linejoin="round"/>
<path d="M38.3081 5.4293L39.0909 4.64648" stroke="#FF073A" stroke-width="1.5" stroke-miterlimit="10" stroke-linecap="round" stroke-linejoin="round"/>
<path d="M11.6919 14.8232L12.4747 15.6061" stroke="#FF073A" stroke-width="1.5" stroke-miterlimit="10" stroke-linecap="round" stroke-linejoin="round"/>
<path d="M28.9141 11.6919L29.697 12.4747" stroke="#FF073A" stroke-width="1.5" stroke-miterlimit="10" stroke-linecap="round" stroke-linejoin="round"/>
<path d="M46.9189 18.7373L47.7019 19.5201" stroke="#FF073A" stroke-width="1.5" stroke-miterlimit="10" stroke-linecap="round" stroke-linejoin="round"/>
<path d="M17.9546 19.5201L18.7374 18.7373" stroke="#FF073A" stroke-width="1.5" stroke-miterlimit="10" stroke-linecap="round" stroke-linejoin="round"/>
<path d="M39.8735 24.2171L40.6563 23.4343" stroke="#FF073A" stroke-width="1.5" stroke-miterlimit="10" stroke-linecap="round" stroke-linejoin="round"/>
<path d="M7.77783 23.4344L8.56064 22.6516" stroke="#FF073A" stroke-width="1.5" stroke-miterlimit="10" stroke-linecap="round" stroke-linejoin="round"/>
</g>
<defs>
<clipPath id="clip0_227_1212">
<rect width="50" height="50" fill="white"/>
</clipPath>
</defs>
</svg>
