<svg width="28" height="28" viewBox="0 0 28 28" fill="none" xmlns="http://www.w3.org/2000/svg">
<g clip-path="url(#clip0_258_1591)">
<path d="M9 21.5V18.3L3.5275 15.382C3.20278 15.2078 3.00015 14.8692 3.00015 14.5007C3.00015 14.1323 3.20278 13.7937 3.5275 13.6195L9 10.7V7.5C9.00165 5.84383 10.3438 4.50165 12 4.5H16V2C16 0.89543 15.1046 0 14 0H13.809L12.7235 2.171C12.4708 2.68038 11.9506 3.00187 11.382 3H4.618C4.0494 3.00187 3.52917 2.68038 3.2765 2.171L2.191 0H2C0.89543 0 0 0.89543 0 2V26C0 27.1046 0.89543 28 2 28H14C15.1046 28 16 27.1046 16 26V24.5H12C10.3438 24.4983 9.00165 23.1562 9 21.5ZM12.5 26.5C12.5 26.7761 12.2761 27 12 27H4C3.72386 27 3.5 26.7761 3.5 26.5C3.5 26.2239 3.72386 26 4 26H12C12.2761 26 12.5 26.2239 12.5 26.5Z" fill="#F6921E"/>
<path d="M26 5.5H12C10.8954 5.5 10 6.39543 10 7.5V11C10.0002 11.1847 9.89846 11.3545 9.7355 11.4415L4 14.5L9.737 17.5575C9.89969 17.6451 10.0008 17.8152 10 18V21.5C10 22.6046 10.8954 23.5 12 23.5H26C27.1046 23.5 28 22.6046 28 21.5V7.5C28 6.39543 27.1046 5.5 26 5.5ZM25.3 18.6C25.112 18.8529 24.8151 19.0014 24.5 19H21.5C21.5 20.3807 20.3807 21.5 19 21.5C17.6193 21.5 16.5 20.3807 16.5 19H13.5C13.1852 19 12.8889 18.8518 12.7 18.6C12.5111 18.3482 12.4519 18.0222 12.54 17.72L13.787 14.016C13.9288 13.5232 14.0005 13.0128 14 12.5C14 9.73858 16.2386 7.5 19 7.5C21.7614 7.5 24 9.73858 24 12.5C23.9999 13.0196 24.0736 13.5366 24.219 14.0355L25.454 17.7L25.46 17.72C25.5495 18.0221 25.4901 18.3488 25.3 18.6Z" fill="#F6921E"/>
<path d="M19 20.5C19.8284 20.5 20.5 19.8284 20.5 19H17.5C17.5 19.8284 18.1716 20.5 19 20.5Z" fill="#F6921E"/>
<path d="M23.0001 12.5C23.0001 10.2909 21.2093 8.5 19.0001 8.5C16.791 8.5 15.0001 10.2909 15.0001 12.5C15.0003 13.1146 14.9129 13.7261 14.7406 14.316L13.4941 18.0195L16.9711 18.0135C17.0235 18.005 17.0768 18.005 17.1291 18.0135L20.9616 18.007C20.9765 18.0063 20.9913 18.0063 21.0061 18.007L24.5001 18L23.2661 14.3355C23.0902 13.7395 23.0006 13.1214 23.0001 12.5Z" fill="#F6921E"/>
<path d="M4.61759 2H11.3816C11.5711 2.00061 11.7445 1.89336 11.8286 1.7235L12.6906 0H3.30859L4.17059 1.7235C4.25468 1.89336 4.42806 2.00061 4.61759 2Z" fill="#F6921E"/>
</g>
<defs>
<clipPath id="clip0_258_1591">
<rect width="28" height="28" fill="white"/>
</clipPath>
</defs>
</svg>
