<svg width="24" height="24" viewBox="0 0 24 24" fill="none" xmlns="http://www.w3.org/2000/svg">
<path d="M18.1672 16.25H5.82744V17.75H18.1672V16.25ZM17.5724 8.87846L17.9173 11.9229L19.4078 11.7541L19.0629 8.70961L17.5724 8.87846ZM6.07729 11.9229L6.42217 8.87846L4.9317 8.70961L4.58683 11.7541L6.07729 11.9229ZM5.02436 14.3657C5.60902 13.6775 5.97505 12.8255 6.07729 11.9229L4.58683 11.7541C4.51768 12.3645 4.2705 12.9363 3.88123 13.3944L5.02436 14.3657ZM17.9173 11.9229C18.0196 12.8255 18.3856 13.6775 18.9702 14.3657L20.1134 13.3944C19.7241 12.9363 19.4769 12.3645 19.4078 11.7541L17.9173 11.9229ZM5.82744 16.25C4.94064 16.25 4.37656 15.1281 5.02436 14.3657L3.88123 13.3944C2.46221 15.0647 3.57558 17.75 5.82744 17.75V16.25ZM18.1672 17.75C20.419 17.75 21.5324 15.0647 20.1134 13.3944L18.9702 14.3657C19.618 15.1281 19.054 16.25 18.1672 16.25V17.75ZM19.0629 8.70961C18.6477 5.04473 15.6252 2.25 11.9973 2.25V3.75C14.8275 3.75 17.2392 5.93698 17.5724 8.87846L19.0629 8.70961ZM6.42217 8.87846C6.75538 5.93698 9.16707 3.75 11.9973 3.75V2.25C8.36942 2.25 5.34686 5.04473 4.9317 8.70961L6.42217 8.87846Z" fill="#0A5FFF"/>
<path d="M15.7025 19.2634C15.8479 18.8755 15.6513 18.4433 15.2634 18.2979C14.8755 18.1525 14.4433 18.3491 14.2979 18.737L15.7025 19.2634ZM9.7025 18.737C9.55714 18.3491 9.12487 18.1525 8.737 18.2979C8.34913 18.4433 8.15254 18.8755 8.2979 19.2634L9.7025 18.737ZM14.2979 18.737C13.9752 19.5981 13.0848 20.2502 12.0002 20.2502V21.7502C13.6857 21.7502 15.1518 20.7327 15.7025 19.2634L14.2979 18.737ZM12.0002 20.2502C10.9156 20.2502 10.0252 19.5981 9.7025 18.737L8.2979 19.2634C8.84855 20.7327 10.3147 21.7502 12.0002 21.7502V20.2502Z" fill="#0A5FFF"/>
</svg>
