<svg width="24" height="24" viewBox="0 0 24 24" fill="none" xmlns="http://www.w3.org/2000/svg">
<g clip-path="url(#clip0_498_9278)">
<path d="M16.2188 8.4375C16.2188 6.85069 15.338 5.46595 14.0398 4.74577C14.5181 4.24134 14.8125 3.56086 14.8125 2.8125C14.8125 1.26169 13.5508 0 12 0C10.4492 0 9.1875 1.26169 9.1875 2.8125C9.1875 3.56086 9.48187 4.24134 9.96019 4.74577C8.66203 5.46595 7.78125 6.85069 7.78125 8.4375V10.5469H16.2188V8.4375ZM10.5938 2.8125C10.5938 2.03709 11.2246 1.40625 12 1.40625C12.7754 1.40625 13.4062 2.03709 13.4062 2.8125C13.4062 3.58791 12.7754 4.21875 12 4.21875C11.2246 4.21875 10.5938 3.58791 10.5938 2.8125ZM14.8125 9.14062H9.1875V8.4375C9.1875 6.88669 10.4492 5.625 12 5.625C13.5508 5.625 14.8125 6.88669 14.8125 8.4375V9.14062Z" fill="#0A5FFF"/>
<path d="M6.25856 18.1989C6.73688 17.6945 7.03125 17.014 7.03125 16.2656C7.03125 14.7148 5.76956 13.4531 4.21875 13.4531C2.66794 13.4531 1.40625 14.7148 1.40625 16.2656C1.40625 17.014 1.70063 17.6945 2.17894 18.1989C0.880781 18.9191 0 20.3038 0 21.8906V24H8.4375V21.8906C8.4375 20.3038 7.55672 18.9191 6.25856 18.1989ZM2.8125 16.2656C2.8125 15.4902 3.44334 14.8594 4.21875 14.8594C4.99416 14.8594 5.625 15.4902 5.625 16.2656C5.625 17.041 4.99416 17.6719 4.21875 17.6719C3.44334 17.6719 2.8125 17.041 2.8125 16.2656ZM7.03125 22.5938H1.40625V21.8906C1.40625 20.3398 2.66794 19.0781 4.21875 19.0781C5.76956 19.0781 7.03125 20.3398 7.03125 21.8906V22.5938Z" fill="#0A5FFF"/>
<path d="M21.8211 18.1989C22.2994 17.6945 22.5938 17.014 22.5938 16.2656C22.5938 14.7148 21.3321 13.4531 19.7812 13.4531C18.2304 13.4531 16.9688 14.7148 16.9688 16.2656C16.9688 17.014 17.2631 17.6945 17.7414 18.1989C16.4433 18.9191 15.5625 20.3038 15.5625 21.8906V24H24V21.8906C24 20.3038 23.1192 18.9191 21.8211 18.1989ZM18.375 16.2656C18.375 15.4902 19.0058 14.8594 19.7812 14.8594C20.5567 14.8594 21.1875 15.4902 21.1875 16.2656C21.1875 17.041 20.5567 17.6719 19.7812 17.6719C19.0058 17.6719 18.375 17.041 18.375 16.2656ZM22.5938 22.5938H16.9688V21.8906C16.9688 20.3398 18.2304 19.0781 19.7812 19.0781C21.3321 19.0781 22.5938 20.3398 22.5938 21.8906V22.5938Z" fill="#0A5FFF"/>
<path d="M12.7028 11.9531H11.2966V15.0628L8.60352 16.6177L9.30664 17.8355L11.9997 16.2806L14.6928 17.8355L15.3959 16.6177L12.7028 15.0628V11.9531Z" fill="#0A5FFF"/>
<path d="M9.65039 21.6387L9.86977 20.2493L11.2591 20.4687L11.0398 21.858L9.65039 21.6387Z" fill="#0A5FFF"/>
<path d="M12.7383 20.4941L14.1277 20.2748L14.347 21.6641L12.9577 21.8835L12.7383 20.4941Z" fill="#0A5FFF"/>
<path d="M21.1875 10.5938H22.5938V12H21.1875V10.5938Z" fill="#0A5FFF"/>
<path d="M20.5195 7.78906L21.8569 7.35453L22.2914 8.69187L20.9541 9.12641L20.5195 7.78906Z" fill="#0A5FFF"/>
<path d="M19.0195 5.32422L20.1571 4.49737L20.984 5.63503L19.8464 6.46188L19.0195 5.32422Z" fill="#0A5FFF"/>
<path d="M16.8359 3.45117L17.6628 2.31352L18.8005 3.14039L17.9736 4.27805L16.8359 3.45117Z" fill="#0A5FFF"/>
<path d="M1.40625 10.5938H2.8125V12H1.40625V10.5938Z" fill="#0A5FFF"/>
<path d="M1.70703 8.69141L2.14156 7.35406L3.47891 7.78859L3.04437 9.12594L1.70703 8.69141Z" fill="#0A5FFF"/>
<path d="M3.01758 5.64062L3.84445 4.50297L4.98211 5.32984L4.15523 6.4675L3.01758 5.64062Z" fill="#0A5FFF"/>
<path d="M5.20508 3.13867L6.34273 2.3118L7.16961 3.44945L6.03195 4.27633L5.20508 3.13867Z" fill="#0A5FFF"/>
</g>
<defs>
<clipPath id="clip0_498_9278">
<rect width="24" height="24" fill="white"/>
</clipPath>
</defs>
</svg>
