<svg width="60" height="60" viewBox="0 0 60 60" fill="none" xmlns="http://www.w3.org/2000/svg">
<rect width="60" height="60" rx="15" fill="white"/>
<path d="M22.3091 22.6367H16.1455C14.5091 22.6367 13.1455 24.0004 13.1455 25.6367V34.6367C13.1455 35.7276 14.0182 36.6549 15.1637 36.6549H15.7637V46.9094C15.7637 47.2367 15.9819 47.4549 16.3091 47.4549H22.1455C22.4728 47.4549 22.691 47.2367 22.691 46.9094V36.6004H23.291C24.3819 36.6004 25.3091 35.7276 25.3091 34.5822V25.5822C25.3091 23.9458 23.9455 22.6367 22.3091 22.6367ZM24.2182 34.5822C24.2182 35.0731 23.8364 35.5094 23.291 35.5094H22.691V26.8367C22.691 26.5094 22.4728 26.2913 22.1455 26.2913C21.8182 26.2913 21.6001 26.5094 21.6001 26.8367V36.0549V46.364H19.7455V36.0549C19.7455 35.7276 19.5273 35.5094 19.2001 35.5094C18.8728 35.5094 18.6546 35.7276 18.6546 36.0549V46.364H16.8546V36.0549C16.8546 36.0004 16.8546 35.9458 16.8001 35.8913V26.8367C16.8001 26.5094 16.5819 26.2913 16.2546 26.2913C15.9273 26.2913 15.7091 26.5094 15.7091 26.8367V35.5094H15.1637C14.6728 35.5094 14.2364 35.1276 14.2364 34.5822V25.5822C14.2364 24.5458 15.1091 23.6731 16.1455 23.6731H22.3091C23.3455 23.6731 24.2182 24.5458 24.2182 25.5822V34.5822Z" fill="#FF073A"/>
<path d="M19.2543 21.1639C21.2179 21.1639 22.8543 19.5275 22.8543 17.5639C22.8543 15.6002 21.2179 13.9639 19.2543 13.9639C17.2907 13.9639 15.6543 15.6002 15.6543 17.5639C15.6543 19.5275 17.2361 21.1639 19.2543 21.1639ZM19.2543 15.0548C20.6179 15.0548 21.7634 16.2002 21.7634 17.5639C21.7634 18.9275 20.6179 20.073 19.2543 20.073C17.8907 20.073 16.7452 18.9275 16.7452 17.5639C16.7452 16.2002 17.8361 15.0548 19.2543 15.0548Z" fill="#FF073A"/>
<path d="M42.4907 21.1641C44.8362 21.1641 46.7998 19.255 46.7998 16.855C46.7998 14.455 44.8907 12.5459 42.4907 12.5459C40.0907 12.5459 38.1816 14.455 38.1816 16.855C38.1816 19.255 40.1453 21.1641 42.4907 21.1641ZM42.4907 13.6368C44.2362 13.6368 45.7089 15.055 45.7089 16.855C45.7089 18.655 44.2907 20.0732 42.4907 20.0732C40.6907 20.0732 39.2725 18.655 39.2725 16.855C39.2725 15.055 40.7453 13.6368 42.4907 13.6368Z" fill="#FF073A"/>
<path d="M41.7279 18.3274C41.9461 18.6002 42.3825 18.5456 42.5461 18.2729L44.1279 16.0365C44.2916 15.8183 44.237 15.4365 44.0188 15.2729C43.7461 15.1092 43.4188 15.1638 43.2552 15.382L42.0552 17.0729L41.7825 16.7456C41.5643 16.5274 41.237 16.5274 41.0188 16.6911C40.8007 16.9092 40.8007 17.2365 40.9643 17.4547L41.7279 18.3274Z" fill="#FF073A"/>
<path d="M42.4907 23.3457C40.1453 23.3457 38.1816 25.2548 38.1816 27.6548C38.1816 30.0548 40.0907 31.9639 42.4907 31.9639C44.8907 31.9639 46.7998 30.0548 46.7998 27.6548C46.7998 25.2548 44.8907 23.3457 42.4907 23.3457ZM42.4907 30.873C40.7453 30.873 39.2725 29.4548 39.2725 27.6548C39.2725 25.8548 40.6907 24.4366 42.4907 24.4366C44.2907 24.4366 45.7089 25.8548 45.7089 27.6548C45.7089 29.4548 44.2907 30.873 42.4907 30.873Z" fill="#FF073A"/>
<path d="M43.2542 26.2367L42.0542 27.9276L41.7815 27.6004C41.5633 27.3822 41.236 27.3822 41.0179 27.5458C40.7997 27.764 40.7997 28.0913 40.9633 28.3095L41.727 29.1276C41.9451 29.4004 42.3815 29.3458 42.5997 29.0731L44.1815 26.8367C44.3451 26.564 44.2906 26.2367 44.0724 26.0731C43.7451 25.964 43.4179 26.0186 43.2542 26.2367Z" fill="#FF073A"/>
<path d="M42.4907 34.2002C40.1453 34.2002 38.1816 36.1093 38.1816 38.5093C38.1816 40.9093 40.0907 42.8184 42.4907 42.8184C44.8907 42.8184 46.7998 40.9093 46.7998 38.5093C46.7998 36.1093 44.8907 34.2002 42.4907 34.2002ZM42.4907 41.7275C40.7453 41.7275 39.2725 40.3093 39.2725 38.5093C39.2725 36.7093 40.6907 35.2911 42.4907 35.2911C44.2907 35.2911 45.7089 36.7093 45.7089 38.5093C45.7089 40.3093 44.2907 41.7275 42.4907 41.7275Z" fill="#FF073A"/>
<path d="M36.109 15.1641H28.2544C27.9272 15.1641 27.709 15.3822 27.709 15.7095C27.709 16.0368 27.9272 16.255 28.2544 16.255H36.109C36.4363 16.255 36.6544 16.0368 36.6544 15.7095C36.6544 15.3822 36.4363 15.1641 36.109 15.1641Z" fill="#FF073A"/>
<path d="M28.2544 20.4005H33.4908C33.8181 20.4005 34.0363 20.1823 34.0363 19.855C34.0363 19.5278 33.8181 19.3096 33.4908 19.3096H28.2544C27.9272 19.3096 27.709 19.5278 27.709 19.855C27.709 20.1823 27.9272 20.4005 28.2544 20.4005Z" fill="#FF073A"/>
<path d="M36.109 25.0371H28.2544C27.9272 25.0371 27.709 25.2553 27.709 25.5826C27.709 25.9098 27.9272 26.128 28.2544 26.128H36.109C36.4363 26.128 36.6544 25.9098 36.6544 25.5826C36.6544 25.2553 36.4363 25.0371 36.109 25.0371Z" fill="#FF073A"/>
<path d="M36.109 29.1826H28.2544C27.9272 29.1826 27.709 29.4008 27.709 29.7281C27.709 30.0553 27.9272 30.2735 28.2544 30.2735H36.109C36.4363 30.2735 36.6544 30.0553 36.6544 29.7281C36.6544 29.4553 36.4363 29.1826 36.109 29.1826Z" fill="#FF073A"/>
<path d="M36.109 34.9092H28.2544C27.9272 34.9092 27.709 35.1274 27.709 35.4546C27.709 35.7819 27.9272 36.0001 28.2544 36.0001H36.109C36.4363 36.0001 36.6544 35.7819 36.6544 35.4546C36.6544 35.1274 36.4363 34.9092 36.109 34.9092Z" fill="#FF073A"/>
<path d="M31.1453 39.0547H28.2544C27.9272 39.0547 27.709 39.2729 27.709 39.6001C27.709 39.9274 27.9272 40.1456 28.2544 40.1456H31.1453C31.4726 40.1456 31.6908 39.9274 31.6908 39.6001C31.6908 39.2729 31.4181 39.0547 31.1453 39.0547Z" fill="#FF073A"/>
</svg>
