<svg width="60" height="60" viewBox="0 0 60 60" fill="none" xmlns="http://www.w3.org/2000/svg">
<rect width="60" height="60" rx="15" fill="white"/>
<path fill-rule="evenodd" clip-rule="evenodd" d="M34.5506 25.4497C33.6507 24.5498 32.504 23.9369 31.2558 23.6886C30.0075 23.4403 28.7137 23.5678 27.5378 24.0548C26.362 24.5419 25.357 25.3667 24.6499 26.4249C23.9428 27.4831 23.5654 28.7273 23.5654 30C23.5654 31.2727 23.9428 32.5168 24.6499 33.5751C25.357 34.6333 26.362 35.4581 27.5378 35.9451C28.7137 36.4322 30.0075 36.5596 31.2558 36.3113C32.504 36.063 33.6507 35.4502 34.5506 34.5502C35.7573 33.3434 36.4351 31.7066 36.4351 30C36.4351 28.2933 35.7573 26.6566 34.5506 25.4497ZM30 22.1745C31.5478 22.1745 33.0609 22.6335 34.3478 23.4935C35.6348 24.3534 36.6378 25.5757 37.2301 27.0057C37.8224 28.4357 37.9774 30.0092 37.6753 31.5273C37.3733 33.0454 36.6279 34.4398 35.5334 35.5342C34.4389 36.6287 33.0444 37.3739 31.5263 37.6758C30.0082 37.9777 28.4347 37.8226 27.0047 37.2302C25.5747 36.6378 24.3526 35.6346 23.4927 34.3476C22.6329 33.0605 22.1741 31.5474 22.1742 29.9996C22.1744 27.9242 22.999 25.9339 24.4666 24.4664C25.9342 22.9989 27.9246 22.1745 30 22.1745ZM22.9533 15.8837C25.2816 15.2373 27.5334 14.3415 29.6695 13.2118C29.7698 13.1575 29.8819 13.1287 29.9959 13.1279C30.11 13.1272 30.2225 13.1546 30.3234 13.2076C32.4615 14.3398 34.7157 15.2375 37.0467 15.8851C39.4014 16.5355 41.8175 16.9387 44.2558 17.0881C44.3473 17.0877 44.4379 17.1053 44.5226 17.14C44.6072 17.1747 44.6841 17.2259 44.7488 17.2904C44.8136 17.355 44.865 17.4318 44.8999 17.5163C44.9349 17.6008 44.9528 17.6914 44.9526 17.7828V26.3968V26.4017C44.9013 31.6934 43.661 35.9762 41.2078 39.3568C38.7546 42.7374 35.0998 45.1977 30.2229 46.8366C30.0801 46.8848 29.9255 46.8848 29.7827 46.8366C24.9058 45.1977 21.2531 42.7395 18.7978 39.3568C16.3516 35.9902 15.112 31.7286 15.0508 26.4678C15.0495 26.4444 15.0495 26.4209 15.0508 26.3975V17.7828C15.0509 17.606 15.1184 17.4358 15.2397 17.3071C15.361 17.1784 15.5268 17.1008 15.7033 17.0902C18.1555 16.9424 20.5854 16.538 22.9533 15.8837ZM30 14.6012C34.2433 16.79 38.8116 18.0514 43.5626 18.4276V26.3968C43.5126 31.3834 42.3588 35.3968 40.0779 38.5419C37.8335 41.6356 34.481 43.9039 29.9972 45.4473C25.5133 43.9039 22.1608 41.6342 19.9165 38.5419C17.6461 35.4095 16.493 31.4115 16.4353 26.4488C16.4353 26.432 16.4353 26.4144 16.4353 26.3968V18.429C21.1884 18.0528 25.7566 16.7914 30 14.6012ZM32.4926 27.3277C32.6179 27.1931 32.7915 27.1138 32.9754 27.1072C33.1592 27.1006 33.3381 27.1673 33.4727 27.2926C33.6074 27.4179 33.6867 27.5916 33.6933 27.7754C33.6999 27.9592 33.6332 28.1381 33.5079 28.2727L29.4108 32.6792C29.3427 32.753 29.2594 32.8112 29.1666 32.8496C29.0738 32.888 28.9738 32.9058 28.8735 32.9017C28.7732 32.8976 28.6749 32.8718 28.5856 32.826C28.4962 32.7801 28.4179 32.7154 28.3561 32.6363L26.4844 30.5621C26.4234 30.4947 26.3763 30.416 26.3457 30.3303C26.3152 30.2447 26.3018 30.1539 26.3063 30.0631C26.3108 29.9724 26.3332 29.8834 26.3722 29.8012C26.4111 29.7191 26.4658 29.6454 26.5332 29.5844C26.6694 29.4613 26.8488 29.3972 27.0322 29.4064C27.123 29.4109 27.212 29.4333 27.2941 29.4722C27.3763 29.5112 27.4499 29.5659 27.5109 29.6333L28.9066 31.1752L32.4926 27.3277Z" fill="#FF073A"/>
</svg>
