<svg width="60" height="60" viewBox="0 0 60 60" fill="none" xmlns="http://www.w3.org/2000/svg">
<rect width="60" height="60" rx="15" fill="white"/>
<path d="M45.3497 34.0827V26.0586C45.3497 25.4619 45.1127 24.8896 44.6907 24.4676C44.2688 24.0456 43.6965 23.8086 43.0997 23.8086C42.503 23.8086 41.9307 24.0456 41.5087 24.4676C41.0868 24.8896 40.8497 25.4619 40.8497 26.0586V29.9929C40.3936 29.7345 39.8564 29.6591 39.3468 29.7818C38.8372 29.9044 38.3932 30.2161 38.1047 30.6537L35.8187 34.0892L35.3327 34.2602C34.1189 34.6945 33.1011 35.5498 32.4642 36.6706C31.8272 37.7914 31.6133 39.1035 31.8613 40.3686L32.0387 41.248C31.9534 41.3044 31.8832 41.3807 31.8339 41.4703C31.7846 41.5599 31.7578 41.6601 31.7559 41.7623V45.4292C31.7559 45.5997 31.8236 45.7632 31.9441 45.8837C32.0647 46.0043 32.2282 46.072 32.3987 46.072H40.1657C40.3362 46.072 40.4997 46.0043 40.6203 45.8837C40.7408 45.7632 40.8086 45.5997 40.8086 45.4292V41.77C40.8073 41.6128 40.7477 41.4616 40.6414 41.3457L45.2366 34.4389C45.3087 34.334 45.3481 34.21 45.3497 34.0827ZM39.528 44.7863H33.0467V42.4129H39.528V44.7863ZM39.2567 41.1182V41.1272H33.3424L33.1406 40.1192C32.9513 39.1581 33.1132 38.161 33.5969 37.3092C34.0806 36.4574 34.8539 35.8075 35.7763 35.4777L36.4641 35.2335C36.5955 35.1873 36.7083 35.0998 36.7856 34.984L39.1886 31.3699C39.3066 31.1975 39.4872 31.0779 39.692 31.0366C39.8968 30.9953 40.1097 31.0355 40.2853 31.1487C40.3741 31.207 40.4503 31.2826 40.5093 31.3709C40.5683 31.4593 40.6088 31.5586 40.6286 31.663C40.6493 31.7665 40.6495 31.873 40.6289 31.9764C40.6084 32.0799 40.5677 32.1783 40.509 32.266L40.4357 32.3766L39.708 33.4695L37.7511 36.4099C37.7043 36.4801 37.6717 36.5589 37.6553 36.6417C37.6389 36.7245 37.639 36.8098 37.6555 36.8926C37.6721 36.9754 37.7047 37.0541 37.7517 37.1243C37.7987 37.1944 37.859 37.2547 37.9292 37.3015C38.0711 37.3961 38.2447 37.4305 38.4119 37.3972C38.4947 37.3806 38.5734 37.3479 38.6436 37.301C38.7138 37.254 38.774 37.1937 38.8209 37.1235L41.157 33.6147L41.5813 32.9719L42.0249 32.3046C42.0952 32.1991 42.1328 32.0752 42.1329 31.9485V26.0637C42.1322 25.8739 42.188 25.6881 42.2931 25.5299C42.3981 25.3718 42.5477 25.2484 42.723 25.1753C42.8691 25.1138 43.0281 25.0894 43.1859 25.1042C43.3437 25.1191 43.4954 25.1727 43.6274 25.2605C43.7594 25.3482 43.8676 25.4672 43.9425 25.6069C44.0173 25.7466 44.0564 25.9027 44.0563 26.0612V33.8886L39.2567 41.1182Z" fill="#FF073A"/>
<path d="M28.133 40.3716C28.381 39.1065 28.1671 37.7944 27.5301 36.6736C26.8932 35.5528 25.8754 34.6975 24.6616 34.2631L24.1756 34.0921L21.8999 30.6567C21.6106 30.2181 21.1652 29.906 20.6541 29.784C20.143 29.662 19.6047 29.7391 19.1484 29.9997V26.0654C19.1484 25.77 19.0902 25.4774 18.9772 25.2044C18.8641 24.9314 18.6984 24.6834 18.4894 24.4744C18.2805 24.2655 18.0325 24.0998 17.7595 23.9867C17.4865 23.8736 17.1939 23.8154 16.8984 23.8154C16.603 23.8154 16.3104 23.8736 16.0374 23.9867C15.7644 24.0998 15.5164 24.2655 15.3074 24.4744C15.0985 24.6834 14.9328 24.9314 14.8197 25.2044C14.7066 25.4774 14.6484 25.77 14.6484 26.0654V34.0883C14.6485 34.2151 14.6861 34.339 14.7564 34.4444L19.3516 41.3513C19.2453 41.4672 19.1857 41.6183 19.1844 41.7756V45.4283C19.1844 45.5988 19.2522 45.7623 19.3727 45.8829C19.4933 46.0034 19.6568 46.0711 19.8273 46.0711H27.5956C27.7661 46.0711 27.9296 46.0034 28.0502 45.8829C28.1707 45.7623 28.2384 45.5988 28.2384 45.4283V41.7691C28.2365 41.6669 28.2097 41.5667 28.1604 41.4771C28.1111 41.3875 28.0409 41.3113 27.9556 41.2549L28.133 40.3716ZM15.9354 33.8864V26.0603C15.935 25.9014 15.974 25.7448 16.0489 25.6046C16.1238 25.4645 16.2322 25.345 16.3646 25.257C16.4969 25.169 16.649 25.1152 16.8072 25.1003C16.9654 25.0854 17.1249 25.11 17.2713 25.1719C17.4468 25.2451 17.5966 25.3687 17.7019 25.527C17.8072 25.6854 17.8631 25.8714 17.8627 26.0616V31.9463C17.8628 32.0731 17.9004 32.197 17.9707 32.3024L21.176 37.1187C21.2229 37.189 21.2831 37.2493 21.3533 37.2962C21.4234 37.3432 21.5022 37.3759 21.585 37.3924C21.6677 37.409 21.753 37.409 21.8358 37.3926C21.9186 37.3762 21.9974 37.3436 22.0677 37.2968C22.1379 37.2499 22.1982 37.1897 22.2452 37.1195C22.2921 37.0494 22.3248 36.9706 22.3414 36.8878C22.3579 36.8051 22.358 36.7198 22.3415 36.637C22.3251 36.5542 22.2926 36.4754 22.2457 36.4051L20.2876 33.4711L19.4866 32.2677C19.4267 32.1796 19.385 32.0803 19.364 31.9758C19.343 31.8713 19.3432 31.7637 19.3644 31.6592C19.3856 31.5548 19.4274 31.4556 19.4875 31.3676C19.5476 31.2795 19.6246 31.2044 19.7142 31.1466C19.8916 31.03 20.1074 30.9871 20.3159 31.027C20.42 31.0471 20.5191 31.0876 20.6074 31.1464C20.6956 31.2051 20.7714 31.2807 20.8302 31.369L23.2344 34.9831C23.3118 35.0989 23.4245 35.1864 23.5559 35.2326L24.245 35.4769C25.1671 35.8069 25.9402 36.4569 26.4236 37.3087C26.9071 38.1604 27.0688 39.1574 26.8794 40.1183L26.6776 41.1263H20.7633V41.1173L15.9354 33.8864ZM26.9527 44.7854H20.4714V42.412H26.9527V44.7854Z" fill="#FF073A"/>
<path d="M38.3569 23.857V17.899C38.3571 17.7737 38.3207 17.6512 38.2521 17.5463C38.1836 17.4415 38.086 17.3589 37.9712 17.3088L30.2569 13.9814C30.1758 13.946 30.0882 13.9277 29.9997 13.9277C29.9112 13.9277 29.8237 13.946 29.7426 13.9814L22.0283 17.3088C21.9135 17.3589 21.8159 17.4415 21.7473 17.5463C21.6788 17.6512 21.6424 17.7737 21.6426 17.899V23.857C21.6408 25.0693 21.9065 26.2671 22.4208 27.365C22.935 28.4628 23.6852 29.4337 24.6177 30.2084L29.5883 34.351C29.7038 34.4472 29.8494 34.4999 29.9997 34.4999C30.1501 34.4999 30.2956 34.4472 30.4112 34.351L35.3817 30.2084C36.3143 29.4337 37.0644 28.4628 37.5787 27.365C38.0929 26.2671 38.3586 25.0693 38.3569 23.857ZM34.5576 29.2287L29.9997 33.0215L25.4406 29.2287C24.6525 28.5733 24.0187 27.752 23.5844 26.8235C23.1501 25.8949 22.9261 24.882 22.9283 23.857V18.3284L29.9997 15.2723L37.0712 18.322V23.857C37.0735 24.8822 36.8493 25.8952 36.4148 26.8238C35.9803 27.7524 35.3462 28.5736 34.5576 29.2287Z" fill="#FF073A"/>
<path d="M32.4425 20.545L29.0354 23.9483L27.5568 22.4735C27.4971 22.4138 27.4261 22.3664 27.348 22.334C27.2699 22.3017 27.1862 22.285 27.1017 22.285C27.0172 22.285 26.9334 22.3017 26.8554 22.334C26.7773 22.3664 26.7063 22.4138 26.6465 22.4735C26.5868 22.5333 26.5394 22.6043 26.507 22.6824C26.4747 22.7605 26.458 22.8442 26.458 22.9287C26.458 23.0132 26.4747 23.0969 26.507 23.175C26.5394 23.2531 26.5868 23.3241 26.6465 23.3838L28.5751 25.3124C28.6348 25.3723 28.7058 25.4198 28.7839 25.4522C28.862 25.4846 28.9457 25.5013 29.0302 25.5013C29.1148 25.5013 29.1985 25.4846 29.2766 25.4522C29.3547 25.4198 29.4257 25.3723 29.4854 25.3124L33.3425 21.4553C33.4632 21.3345 33.5311 21.1708 33.5311 21.0001C33.5311 20.8294 33.4632 20.6657 33.3425 20.545C33.2218 20.4243 33.0581 20.3564 32.8874 20.3564C32.7167 20.3564 32.553 20.4243 32.4322 20.545H32.4425Z" fill="#FF073A"/>
</svg>
