<svg width="60" height="60" viewBox="0 0 60 60" fill="none" xmlns="http://www.w3.org/2000/svg">
<rect width="60" height="60" rx="15" fill="white"/>
<path d="M24.9485 42.3751C24.8768 42.3752 24.8058 42.3616 24.7392 42.3352L21.9267 41.2102C21.8439 41.1772 21.7701 41.125 21.7115 41.0579C21.6528 40.9908 21.6109 40.9108 21.5892 40.8243L21.0267 38.5743C21.003 38.4801 21.0042 38.3813 21.03 38.2877C21.0558 38.1941 21.1055 38.1087 21.1741 38.0399L23.4241 35.7899C23.5019 35.7121 23.6008 35.6588 23.7086 35.6366C23.8163 35.6144 23.9283 35.6243 24.0305 35.6651L24.8348 35.9857L24.4197 37.0314L23.959 36.848L22.1962 38.6109L22.6113 40.2725L24.8641 41.1725L25.511 40.6876L25.7225 40.5296L25.8406 40.6876H26.636C26.6377 40.8027 26.633 40.9178 26.6219 41.0324C26.6137 41.1107 26.5894 41.1864 26.5507 41.2549C26.512 41.3234 26.4597 41.3832 26.3969 41.4307L25.2848 42.2626C25.1878 42.3354 25.0698 42.3749 24.9485 42.3751Z" fill="#FF073A"/>
<path d="M23.1178 46.6721L20.2603 45.7214C20.1704 45.6916 20.0895 45.6396 20.0251 45.5701C19.9607 45.5007 19.9149 45.4162 19.8918 45.3243L19.3293 43.0743C19.3057 42.98 19.307 42.8813 19.3329 42.7876C19.3588 42.694 19.4086 42.6086 19.4773 42.5399L21.7273 40.2899C21.8051 40.2121 21.904 40.1588 22.0117 40.1366C22.1195 40.1144 22.2314 40.1243 22.3337 40.1651L25.1462 41.2901C25.233 41.3248 25.3099 41.3808 25.3697 41.4528C25.4295 41.5248 25.4704 41.6106 25.4887 41.7024L25.8774 43.6486L24.7743 43.8691L24.4453 42.2216L22.2605 41.3474L20.4977 43.1103L20.9083 44.7517L23.475 45.6044L23.1178 46.6721Z" fill="#FF073A"/>
<path d="M18.664 47.7566L17.8687 46.9612L19.8149 45.0149L19.3992 43.3533L17.1492 42.4533L15.4313 43.7375L15.8909 46.0393L14.7878 46.2598L14.2613 43.6126C14.2401 43.5083 14.2488 43.4 14.2867 43.3004C14.3245 43.2008 14.3899 43.114 14.4751 43.0501L16.7251 41.3626C16.8023 41.3047 16.893 41.2676 16.9887 41.2549C17.0844 41.2422 17.1817 41.2543 17.2713 41.2901L20.0838 42.4151C20.1666 42.4481 20.2404 42.5002 20.2991 42.5673C20.3577 42.6344 20.3996 42.7145 20.4213 42.8009L20.9838 45.0509C21.0074 45.1452 21.0062 45.244 20.9802 45.3376C20.9543 45.4313 20.9046 45.5166 20.8358 45.5853L18.664 47.7566Z" fill="#FF073A"/>
<path d="M21.5627 38.9831C21.4912 38.9832 21.4204 38.9696 21.354 38.9432L18.5415 37.8182C18.4547 37.7834 18.3779 37.7276 18.3181 37.6557C18.2582 37.5838 18.2173 37.4981 18.1989 37.4064L17.6364 34.5939C17.6151 34.4896 17.6238 34.3814 17.6615 34.2818C17.6992 34.1822 17.7645 34.0954 17.8496 34.0314L18.5752 33.4858L18.7502 33.7181V33.375H18.9133C19.0314 33.375 19.1464 33.4121 19.2422 33.4812C19.338 33.5502 19.4096 33.6476 19.4469 33.7596C19.4843 33.8716 19.4854 33.9925 19.4502 34.1052C19.415 34.2179 19.3452 34.3167 19.2508 34.3875L18.8081 34.7205L19.2412 36.8872L21.4271 37.7625L23.1905 35.9996L23.0977 35.625L24.1901 35.355L24.3589 36.0356C24.3821 36.1297 24.3806 36.2282 24.3546 36.3215C24.3286 36.4148 24.2789 36.4998 24.2104 36.5683L21.9604 38.8183C21.8549 38.9238 21.7118 38.9831 21.5627 38.9831Z" fill="#FF073A"/>
<path d="M16.4999 39.5627C16.4621 39.563 16.4244 39.5592 16.3874 39.5514L13.5749 38.9889C13.4668 38.9669 13.3676 38.9135 13.2895 38.8355C13.2115 38.7575 13.1582 38.6583 13.1361 38.5502L12.9111 37.4252L14.0136 37.2002L14.1655 37.9573L16.3638 38.3972L18.1311 37.0753L17.7115 34.9777L17.0416 34.8433L17.2632 33.7402L18.2982 33.9489C18.4069 33.9708 18.5067 34.0244 18.5851 34.1028C18.6634 34.1813 18.7169 34.2812 18.7386 34.3899L19.3011 37.2024C19.3224 37.3068 19.3136 37.4151 19.2758 37.5147C19.238 37.6142 19.1726 37.701 19.0874 37.7649L16.8374 39.4524C16.7397 39.5246 16.6213 39.5633 16.4999 39.5627Z" fill="#FF073A"/>
<path d="M14.8118 44.0621C14.774 44.0624 14.7363 44.0586 14.6993 44.0508L12.9105 43.6908L13.1327 42.5878L14.674 42.8983L16.443 41.5747L16.0212 39.4777L13.8229 39.0378L13.0793 39.5958L12.4043 38.6958L13.3493 37.9871C13.4127 37.939 13.4857 37.905 13.5633 37.8876C13.6409 37.8701 13.7214 37.8695 13.7993 37.8858L16.6118 38.4483C16.7206 38.4701 16.8205 38.5237 16.899 38.6021C16.9775 38.6806 17.031 38.7805 17.0528 38.8893L17.6153 41.7018C17.6366 41.8062 17.6278 41.9145 17.59 42.0141C17.5521 42.1137 17.4868 42.2004 17.4015 42.2643L15.1515 43.9518C15.0533 44.0245 14.934 44.0632 14.8118 44.0621Z" fill="#FF073A"/>
<path d="M19.3125 48C17.8662 48 16.4524 47.5711 15.2499 46.7676C14.0474 45.9641 13.1101 44.8221 12.5566 43.4859C12.0032 42.1497 11.8584 40.6794 12.1405 39.2609C12.4227 37.8424 13.1191 36.5395 14.1418 35.5168C15.1645 34.4941 16.4674 33.7977 17.8859 33.5155C19.3044 33.2334 20.7747 33.3782 22.1109 33.9316C23.4471 34.4851 24.5891 35.4224 25.3926 36.6249C26.1961 37.8274 26.625 39.2412 26.625 40.6875C26.6228 42.6262 25.8516 44.4849 24.4808 45.8558C23.1099 47.2266 21.2512 47.9978 19.3125 48ZM19.3125 34.5C18.0887 34.5 16.8924 34.8629 15.8749 35.5428C14.8574 36.2227 14.0643 37.189 13.596 38.3196C13.1277 39.4503 13.0051 40.6944 13.2439 41.8946C13.4826 43.0949 14.0719 44.1974 14.9373 45.0627C15.8026 45.9281 16.9051 46.5174 18.1054 46.7561C19.3056 46.9949 20.5497 46.8723 21.6804 46.404C22.811 45.9357 23.7773 45.1426 24.4572 44.1251C25.1371 43.1076 25.5 41.9113 25.5 40.6875C25.4981 39.0471 24.8456 37.4744 23.6856 36.3144C22.5256 35.1545 20.9529 34.5019 19.3125 34.5Z" fill="#FF073A"/>
<path d="M30 27.75C28.6578 27.7485 27.371 27.2147 26.4219 26.2656C25.4728 25.3165 24.939 24.0297 24.9375 22.6875V18.75C24.9377 18.6389 24.9705 18.5303 25.032 18.4378L26.157 16.7503C26.2084 16.6733 26.278 16.6102 26.3596 16.5665C26.4413 16.5228 26.5324 16.5 26.625 16.5H33.375C33.4676 16.5 33.5587 16.5228 33.6404 16.5665C33.722 16.6102 33.7916 16.6733 33.843 16.7503L34.968 18.4378C35.0295 18.5303 35.0623 18.6389 35.0625 18.75V22.6875C35.061 24.0297 34.5272 25.3165 33.5781 26.2656C32.629 27.2147 31.3422 27.7485 30 27.75ZM26.0625 18.9188V22.6875C26.0625 23.7318 26.4773 24.7333 27.2158 25.4717C27.9542 26.2102 28.9557 26.625 30 26.625C31.0443 26.625 32.0458 26.2102 32.7842 25.4717C33.5227 24.7333 33.9375 23.7318 33.9375 22.6875V18.9188L33.0741 17.625H26.9259L26.0625 18.9188Z" fill="#FF073A"/>
<path d="M34.5 23.8125V22.6875C34.7984 22.6875 35.0845 22.569 35.2955 22.358C35.5065 22.147 35.625 21.8609 35.625 21.5625V21C35.625 20.8508 35.5657 20.7077 35.4602 20.6023C35.3548 20.4968 35.2117 20.4375 35.0625 20.4375H34.5V19.3125H35.0625C35.5101 19.3125 35.9393 19.4903 36.2557 19.8068C36.5722 20.1232 36.75 20.5524 36.75 21V21.5625C36.75 22.1592 36.5129 22.7315 36.091 23.1535C35.669 23.5754 35.0967 23.8125 34.5 23.8125Z" fill="#FF073A"/>
<path d="M25.5 23.8125C24.9033 23.8125 24.331 23.5754 23.909 23.1535C23.4871 22.7315 23.25 22.1592 23.25 21.5625V21C23.25 20.5524 23.4278 20.1232 23.7443 19.8068C24.0607 19.4903 24.4899 19.3125 24.9375 19.3125H25.5V20.4375H24.9375C24.7883 20.4375 24.6452 20.4968 24.5398 20.6023C24.4343 20.7077 24.375 20.8508 24.375 21V21.5625C24.375 21.8609 24.4935 22.147 24.7045 22.358C24.9155 22.569 25.2016 22.6875 25.5 22.6875V23.8125Z" fill="#FF073A"/>
<path d="M35.6206 19.9447L34.5046 19.8053L35.0593 15.375C35.0851 15.0507 35.0461 14.7244 34.9444 14.4153C34.8427 14.1063 34.6804 13.8206 34.4669 13.575C34.3473 13.438 34.2005 13.3273 34.0359 13.2499C33.8714 13.1724 33.6925 13.1299 33.5107 13.125H26.4873C26.3085 13.1302 26.1327 13.1718 25.9706 13.2474C25.8085 13.3229 25.6635 13.4308 25.5446 13.5643C25.3311 13.8072 25.1678 14.09 25.0642 14.3963C24.9606 14.7027 24.9187 15.0265 24.941 15.3491L23.816 15.4009C23.7853 14.9262 23.8504 14.4502 24.0075 14.0012C24.1647 13.5522 24.4106 13.1394 24.7306 12.7875C24.9543 12.5434 25.2255 12.3477 25.5276 12.2122C25.8297 12.0768 26.1563 12.0046 26.4873 12H33.5129C33.8485 12.0048 34.1795 12.0792 34.485 12.2183C34.7904 12.3574 35.0637 12.5583 35.2876 12.8083C35.6098 13.1697 35.8549 13.5929 36.0079 14.0523C36.1609 14.5116 36.2186 14.9973 36.1775 15.4796L35.6206 19.9447Z" fill="#FF073A"/>
<path d="M23.9531 16.5713L25.0691 16.4318L25.4909 19.806L24.3749 19.9455L23.9531 16.5713Z" fill="#FF073A"/>
<path d="M37.875 48H22.125C21.9758 48 21.8327 47.9407 21.7273 47.8352C21.6218 47.7298 21.5625 47.5867 21.5625 47.4375V46.875H37.2838L36.75 36.2156C36.7476 36.1725 36.7507 36.1292 36.759 36.0868L37.7827 30.4528L32.1493 29.4285C32.0197 29.4049 31.9025 29.3366 31.8181 29.2354C31.7337 29.1343 31.6875 29.0067 31.6875 28.875V26.625H32.8125V28.4059L38.5382 29.4465C38.6845 29.4738 38.814 29.558 38.8983 29.6806C38.9827 29.8033 39.015 29.9543 38.9882 30.1007L37.8778 36.2241L38.4375 47.4094C38.4413 47.4856 38.4296 47.5618 38.403 47.6333C38.3765 47.7048 38.3356 47.7702 38.283 47.8254C38.2304 47.8807 38.1671 47.9246 38.097 47.9547C38.0268 47.9847 37.9513 48.0001 37.875 48Z" fill="#FF073A"/>
<path d="M21.8271 34.6001L21.0092 30.1001C20.9824 29.9537 21.0147 29.8027 21.0991 29.6801C21.1834 29.5575 21.3129 29.4733 21.4592 29.4459L27.1871 28.4059V26.625H28.3121V28.875C28.3121 29.0067 28.2659 29.1343 28.1815 29.2354C28.0971 29.3366 27.9799 29.4049 27.8503 29.4285L22.2163 30.4528L22.9329 34.3993L21.8271 34.6001Z" fill="#FF073A"/>
<path d="M37.4252 39.5517L37.2002 38.4492L42.2571 37.4367L41.3447 33.4835C41.1758 32.7565 40.8013 32.0936 40.2659 31.5737C39.7305 31.0539 39.0568 30.6991 38.3252 30.5517L38.5457 29.4492C39.4896 29.639 40.3588 30.0965 41.0496 30.7671C41.7404 31.4377 42.2234 32.2931 42.441 33.2309L43.4839 37.7489C43.5007 37.8222 43.5027 37.8982 43.4896 37.9723C43.4766 38.0464 43.4488 38.1172 43.4079 38.1803C43.3673 38.2437 43.3142 38.2982 43.252 38.3405C43.1897 38.3828 43.1196 38.4122 43.0457 38.4267L37.4252 39.5517Z" fill="#FF073A"/>
<path d="M37.2061 36.7803L42.8334 35.6559L43.0539 36.7596L37.4266 37.8839L37.2061 36.7803Z" fill="#FF073A"/>
<path d="M41.25 48H37.875V46.875H40.6875V41.8125H41.8125V47.4375C41.8125 47.5867 41.7532 47.7298 41.6477 47.8352C41.5423 47.9407 41.3992 48 41.25 48Z" fill="#FF073A"/>
<path d="M40.6875 39.5625H41.8125V40.6875H40.6875V39.5625Z" fill="#FF073A"/>
<path d="M19.0185 32.5171L18.0273 31.9838C18.3756 31.3349 18.8631 30.7711 19.455 30.3329C20.0469 29.8947 20.7284 29.5929 21.4507 29.4492L21.6712 30.5517C21.1114 30.6633 20.5833 30.8973 20.1246 31.2371C19.666 31.5769 19.2882 32.014 19.0185 32.5171Z" fill="#FF073A"/>
<path d="M30 31.6875C28.1387 31.6875 26.625 30.4258 26.625 28.875H27.75C27.75 29.8054 28.7591 30.5625 30 30.5625C31.2409 30.5625 32.25 29.8054 32.25 28.875H33.375C33.375 30.4258 31.8613 31.6875 30 31.6875Z" fill="#FF073A"/>
<path d="M30 33.375C27.2083 33.375 24.9375 31.3562 24.9375 28.875H26.0625C26.0625 30.7363 27.8293 32.25 30 32.25C32.1707 32.25 33.9375 30.7363 33.9375 28.875H35.0625C35.0625 31.3562 32.7917 33.375 30 33.375Z" fill="#FF073A"/>
</svg>
