<svg width="60" height="60" viewBox="0 0 60 60" fill="none" xmlns="http://www.w3.org/2000/svg">
<rect width="60" height="60" rx="15" fill="white"/>
<g clip-path="url(#clip0_680_4871)">
<path d="M32.8125 15.375H27.1875C26.7399 15.375 26.3107 15.1972 25.9943 14.8807C25.6778 14.5643 25.5 14.1351 25.5 13.6875C25.5 13.2399 25.6778 12.8107 25.9943 12.4943C26.3107 12.1778 26.7399 12 27.1875 12H32.8125C33.2601 12 33.6893 12.1778 34.0057 12.4943C34.3222 12.8107 34.5 13.2399 34.5 13.6875C34.5 14.1351 34.3222 14.5643 34.0057 14.8807C33.6893 15.1972 33.2601 15.375 32.8125 15.375ZM27.1875 13.125C27.0383 13.125 26.8952 13.1843 26.7898 13.2898C26.6843 13.3952 26.625 13.5383 26.625 13.6875C26.625 13.8367 26.6843 13.9798 26.7898 14.0852C26.8952 14.1907 27.0383 14.25 27.1875 14.25H32.8125C32.9617 14.25 33.1048 14.1907 33.2102 14.0852C33.3157 13.9798 33.375 13.8367 33.375 13.6875C33.375 13.5383 33.3157 13.3952 33.2102 13.2898C33.1048 13.1843 32.9617 13.125 32.8125 13.125H27.1875Z" fill="#FF073A"/>
<path d="M28.3125 14.8125H29.4375V17.625H28.3125V14.8125Z" fill="#FF073A"/>
<path d="M30.5625 14.8125H31.6875V17.625H30.5625V14.8125Z" fill="#FF073A"/>
<path d="M30 46.875C26.9962 46.875 24.0599 45.9843 21.5623 44.3155C19.0647 42.6466 17.1181 40.2747 15.9686 37.4995C14.8191 34.7244 14.5183 31.6707 15.1043 28.7246C15.6903 25.7785 17.1368 23.0723 19.2608 20.9483C21.3848 18.8243 24.091 17.3778 27.0371 16.7918C29.9832 16.2058 33.0369 16.5066 35.812 17.6561C38.5872 18.8056 40.9591 20.7522 42.628 23.2498C44.2968 25.7474 45.1875 28.6837 45.1875 31.6875C45.183 35.7141 43.5815 39.5745 40.7343 42.4218C37.887 45.269 34.0266 46.8705 30 46.875ZM30 17.625C27.2187 17.625 24.4999 18.4498 22.1873 19.995C19.8747 21.5402 18.0723 23.7364 17.008 26.306C15.9436 28.8756 15.6651 31.7031 16.2077 34.431C16.7503 37.1588 18.0896 39.6645 20.0563 41.6312C22.023 43.5979 24.5287 44.9372 27.2565 45.4798C29.9844 46.0224 32.8119 45.7439 35.3815 44.6796C37.9511 43.6152 40.1473 41.8128 41.6925 39.5002C43.2378 37.1876 44.0625 34.4688 44.0625 31.6875C44.0583 27.9592 42.5754 24.3847 39.9391 21.7484C37.3028 19.1121 33.7283 17.6292 30 17.625Z" fill="#FF073A"/>
<path d="M30 43.5C27.6637 43.5 25.3799 42.8072 23.4373 41.5092C21.4948 40.2113 19.9807 38.3664 19.0867 36.208C18.1926 34.0495 17.9587 31.6744 18.4145 29.383C18.8703 27.0916 19.9953 24.9868 21.6473 23.3348C23.2993 21.6828 25.4041 20.5578 27.6955 20.102C29.9869 19.6462 32.362 19.8801 34.5205 20.7742C36.6789 21.6682 38.5238 23.1823 39.8217 25.1248C41.1197 27.0674 41.8125 29.3512 41.8125 31.6875C41.8089 34.8193 40.5633 37.8218 38.3488 40.0363C36.1343 42.2508 33.1318 43.4964 30 43.5ZM30 21C27.8862 21 25.8199 21.6268 24.0623 22.8012C22.3048 23.9755 20.935 25.6447 20.126 27.5976C19.3171 29.5505 19.1055 31.6994 19.5179 33.7725C19.9302 35.8457 20.9481 37.75 22.4428 39.2447C23.9375 40.7394 25.8418 41.7573 27.915 42.1696C29.9881 42.582 32.137 42.3704 34.0899 41.5615C36.0428 40.7526 37.712 39.3827 38.8863 37.6252C40.0607 35.8676 40.6875 33.8013 40.6875 31.6875C40.6844 28.854 39.5574 26.1374 37.5538 24.1338C35.5501 22.1301 32.8335 21.0031 30 21Z" fill="#FF073A"/>
<path d="M30 33.9375C29.555 33.9375 29.12 33.8055 28.75 33.5583C28.38 33.3111 28.0916 32.9597 27.9213 32.5485C27.751 32.1374 27.7064 31.685 27.7932 31.2485C27.8801 30.8121 28.0943 30.4112 28.409 30.0965C28.7237 29.7818 29.1246 29.5676 29.561 29.4807C29.9975 29.3939 30.4499 29.4385 30.861 29.6088C31.2722 29.7791 31.6236 30.0675 31.8708 30.4375C32.118 30.8075 32.25 31.2425 32.25 31.6875C32.25 32.2842 32.0129 32.8565 31.591 33.2785C31.169 33.7004 30.5967 33.9375 30 33.9375ZM30 30.5625C29.7775 30.5625 29.56 30.6285 29.375 30.7521C29.19 30.8757 29.0458 31.0514 28.9606 31.257C28.8755 31.4625 28.8532 31.6888 28.8966 31.907C28.94 32.1252 29.0472 32.3257 29.2045 32.483C29.3618 32.6403 29.5623 32.7475 29.7805 32.7909C29.9988 32.8343 30.225 32.812 30.4305 32.7269C30.6361 32.6417 30.8118 32.4975 30.9354 32.3125C31.059 32.1275 31.125 31.91 31.125 31.6875C31.125 31.3891 31.0065 31.103 30.7955 30.892C30.5845 30.681 30.2984 30.5625 30 30.5625Z" fill="#FF073A"/>
<path d="M31.6875 30.5625H30.5625V25.5C30.5625 25.3508 30.5032 25.2077 30.3977 25.1023C30.2923 24.9968 30.1492 24.9375 30 24.9375C29.8508 24.9375 29.7077 24.9968 29.6023 25.1023C29.4968 25.2077 29.4375 25.3508 29.4375 25.5V30.5625H28.3125V25.5C28.3125 25.0524 28.4903 24.6232 28.8068 24.3068C29.1232 23.9903 29.5524 23.8125 30 23.8125C30.4476 23.8125 30.8768 23.9903 31.1932 24.3068C31.5097 24.6232 31.6875 25.0524 31.6875 25.5V30.5625Z" fill="#FF073A"/>
<path d="M33.9377 37.3797C33.7072 37.3801 33.4789 37.335 33.2658 37.247C33.0528 37.1589 32.8592 37.0297 32.6963 36.8667L29.6025 33.7729L30.3979 32.9775L33.4917 36.0713C33.5502 36.1299 33.6198 36.1763 33.6963 36.208C33.7729 36.2397 33.8549 36.2561 33.9377 36.2561C34.0206 36.2561 34.1026 36.2397 34.1791 36.208C34.2557 36.1763 34.3252 36.1299 34.3838 36.0713C34.4424 36.0127 34.4888 35.9432 34.5205 35.8666C34.5522 35.7901 34.5686 35.7081 34.5686 35.6252C34.5686 35.5424 34.5522 35.4604 34.5205 35.3838C34.4888 35.3073 34.4424 35.2377 34.3838 35.1792L31.29 32.0854L32.0854 31.29L35.1792 34.3838C35.4249 34.6292 35.5922 34.9419 35.6601 35.2825C35.7279 35.623 35.6932 35.9761 35.5602 36.2969C35.4273 36.6177 35.2022 36.8918 34.9133 37.0845C34.6245 37.2773 34.285 37.38 33.9377 37.3797Z" fill="#FF073A"/>
<path d="M29.4375 20.4375H30.5625V22.6875H29.4375V20.4375Z" fill="#FF073A"/>
<path d="M29.4375 40.6875H30.5625V42.9375H29.4375V40.6875Z" fill="#FF073A"/>
<path d="M39 31.125H41.25V32.25H39V31.125Z" fill="#FF073A"/>
<path d="M18.75 31.125H21V32.25H18.75V31.125Z" fill="#FF073A"/>
<path d="M35.9619 24.9277L37.5533 23.3363L38.3488 24.1318L36.7574 25.7232L35.9619 24.9277Z" fill="#FF073A"/>
<path d="M21.6436 39.2432L23.2349 37.6518L24.0304 38.4473L22.439 40.0387L21.6436 39.2432Z" fill="#FF073A"/>
<path d="M35.9609 38.4463L36.7564 37.6508L38.3478 39.2422L37.5523 40.0377L35.9609 38.4463Z" fill="#FF073A"/>
<path d="M21.6445 24.1289L22.44 23.3334L24.0314 24.9248L23.2359 25.7203L21.6445 24.1289Z" fill="#FF073A"/>
<path d="M45.7897 24.415C45.6405 24.4149 45.4975 24.3556 45.392 24.2501L37.4372 16.2953C37.3317 16.1898 37.2725 16.0467 37.2725 15.8976C37.2725 15.7484 37.3317 15.6054 37.4372 15.4999C38.0103 14.919 38.6927 14.4572 39.445 14.1412C40.1974 13.8251 41.0048 13.661 41.8209 13.6582C42.6369 13.6555 43.4454 13.8142 44.1999 14.1252C44.9543 14.4363 45.6398 14.8935 46.2168 15.4705C46.7938 16.0475 47.251 16.733 47.5621 17.4874C47.8731 18.2419 48.0318 19.0504 48.0291 19.8664C48.0263 20.6825 47.8622 21.4899 47.5461 22.2423C47.2301 22.9946 46.7683 23.677 46.1874 24.2501C46.1353 24.3026 46.0733 24.3441 46.0051 24.3724C45.9368 24.4007 45.8636 24.4152 45.7897 24.415ZM38.6522 15.9195L45.7683 23.0351C46.547 22.0623 46.9396 20.8364 46.8708 19.5922C46.802 18.348 46.2768 17.1728 45.3956 16.2917C44.5144 15.4106 43.3392 14.8854 42.095 14.8168C40.8508 14.7481 39.6249 15.1407 38.6522 15.9195Z" fill="#FF073A"/>
<path d="M14.2101 24.415C14.1362 24.4152 14.063 24.4007 13.9947 24.3724C13.9265 24.3441 13.8645 24.3026 13.8124 24.2501C13.2315 23.677 12.7697 22.9946 12.4537 22.2423C12.1376 21.4899 11.9735 20.6825 11.9707 19.8664C11.968 19.0504 12.1267 18.2419 12.4377 17.4874C12.7488 16.733 13.206 16.0475 13.783 15.4705C14.36 14.8935 15.0455 14.4363 15.7999 14.1252C16.5544 13.8142 17.3629 13.6555 18.1789 13.6582C18.995 13.661 19.8024 13.8251 20.5548 14.1412C21.3071 14.4572 21.9895 14.919 22.5626 15.4999C22.6681 15.6054 22.7273 15.7484 22.7273 15.8976C22.7273 16.0467 22.6681 16.1898 22.5626 16.2953L14.6078 24.2501C14.5023 24.3556 14.3593 24.4149 14.2101 24.415ZM18.1875 14.8125C17.2341 14.8123 16.3 15.0814 15.4927 15.5887C14.6855 16.096 14.0379 16.821 13.6246 17.6802C13.2112 18.5393 13.0489 19.4978 13.1562 20.4451C13.2636 21.3925 13.6363 22.2903 14.2315 23.0351L21.3476 15.9195C20.4519 15.1999 19.3365 14.8091 18.1875 14.8125Z" fill="#FF073A"/>
<path d="M16.6631 21.3975L17.4586 20.602L19.1462 22.2896L18.3507 23.0851L16.6631 21.3975Z" fill="#FF073A"/>
<path d="M18.9141 19.1475L19.7096 18.352L21.3972 20.0396L20.6017 20.8351L18.9141 19.1475Z" fill="#FF073A"/>
<path d="M38.5986 20.042L40.2863 18.3543L41.0818 19.1498L39.3941 20.8375L38.5986 20.042Z" fill="#FF073A"/>
<path d="M40.8477 22.292L42.5353 20.6043L43.3308 21.3998L41.6432 23.0875L40.8477 22.292Z" fill="#FF073A"/>
<path d="M46.7104 16.8976L45.915 16.1022L46.6424 15.3749L46.3127 15.0453L45.5854 15.7726L44.79 14.9772L45.915 13.8522C46.0205 13.7467 46.1636 13.6875 46.3127 13.6875C46.4619 13.6875 46.6049 13.7467 46.7104 13.8522L47.8354 14.9772C47.9409 15.0827 48.0001 15.2257 48.0001 15.3749C48.0001 15.524 47.9409 15.6671 47.8354 15.7726L46.7104 16.8976Z" fill="#FF073A"/>
<path d="M13.2897 16.8976L12.1647 15.7726C12.0592 15.6671 12 15.524 12 15.3749C12 15.2257 12.0592 15.0827 12.1647 14.9772L13.2897 13.8522C13.3952 13.7467 13.5382 13.6875 13.6874 13.6875C13.8365 13.6875 13.9796 13.7467 14.0851 13.8522L15.2101 14.9772L14.4147 15.7726L13.6874 15.0453L13.3578 15.3749L14.0851 16.1022L13.2897 16.8976Z" fill="#FF073A"/>
<path d="M18.7503 48.0005H16.5003C16.4044 48.0005 16.3101 47.976 16.2263 47.9294C16.1425 47.8827 16.0721 47.8154 16.0216 47.7339C15.9712 47.6523 15.9424 47.5592 15.9381 47.4634C15.9337 47.3676 15.954 47.2723 15.9968 47.1865L18.8093 41.5615L19.8162 42.0644L17.4104 46.8755H18.5421L22.3216 43.636L23.0528 44.4899L19.1153 47.8649C19.0137 47.9521 18.8842 48.0002 18.7503 48.0005Z" fill="#FF073A"/>
<path d="M43.5 48.0005H41.25C41.1156 48.0004 40.9857 47.9524 40.8838 47.8649L36.9463 44.4899L37.6775 43.636L41.4581 46.8755H42.5899L40.184 42.0644L41.1909 41.5615L44.0034 47.1865C44.0463 47.2723 44.0665 47.3676 44.0622 47.4634C44.0578 47.5592 44.0291 47.6523 43.9786 47.7339C43.9282 47.8154 43.8577 47.8827 43.774 47.9294C43.6902 47.976 43.5959 48.0005 43.5 48.0005Z" fill="#FF073A"/>
</g>
<defs>
<clipPath id="clip0_680_4871">
<rect width="36" height="36" fill="white" transform="translate(12 12)"/>
</clipPath>
</defs>
</svg>
