<svg width="80" height="70" viewBox="0 0 80 70" fill="none" xmlns="http://www.w3.org/2000/svg">
<rect opacity="0.2" width="80" height="70" rx="12" fill="#0A5FFF"/>
<path d="M45.7656 50.2891L36.375 40.8984C35.9297 40.4531 35.6875 39.8672 35.6875 39.2422C35.6875 38.6172 35.9297 38.0312 36.375 37.5859C37.2578 36.7031 38.8047 36.7031 39.6875 37.5859L46.8672 44.7656L45.7656 45.8672L38.5859 38.6875C38.2891 38.3906 37.7734 38.3906 37.4844 38.6875C37.3359 38.8359 37.2578 39.0312 37.2578 39.2422C37.2578 39.4531 37.3359 39.6484 37.4844 39.7969L46.875 49.1875L45.7734 50.2891H45.7656Z" fill="#0A5FFF"/>
<path d="M45.7656 45.8672L44.1094 44.2109C43.6641 43.7656 43.4219 43.1797 43.4219 42.5547C43.4219 41.9297 43.6641 41.3359 44.1094 40.8984C44.9922 40.0156 46.5391 40.0156 47.4219 40.8984L49.0781 42.5547L47.9766 43.6563L46.3203 42C46.0234 41.7031 45.5078 41.7031 45.2187 42C45.0703 42.1484 44.9922 42.3437 44.9922 42.5547C44.9922 42.7656 45.0703 42.9609 45.2187 43.1094L46.875 44.7656L45.7734 45.8672H45.7656Z" fill="#0A5FFF"/>
<path d="M47.9766 43.6641L46.875 42.5625C45.9609 41.6484 45.9609 40.1641 46.875 39.25C47.7891 38.3359 49.2734 38.3359 50.1875 39.25L51.2891 40.3516L50.1875 41.4531L49.0859 40.3516C48.7813 40.0469 48.2891 40.0469 47.9844 40.3516C47.6797 40.6562 47.6797 41.1484 47.9844 41.4531L49.0859 42.5547L47.9844 43.6563L47.9766 43.6641Z" fill="#0A5FFF"/>
<path d="M50.1875 56.5078C47.8828 56.5078 45.5859 55.6328 43.8359 53.8828L41.0703 51.1172C40 50.0547 40 48.3125 41.0703 47.25C42.1406 46.1875 43.8672 46.1875 44.9375 47.25L46.8672 49.1875L45.7656 50.2891L43.8359 48.3516C43.375 47.8984 42.6328 47.8984 42.1797 48.3516C41.7266 48.8047 41.7266 49.5547 42.1797 50.0078L44.9453 52.7734C47.8359 55.6641 52.5469 55.6641 55.4375 52.7734C56.8359 51.375 57.6094 49.5078 57.6094 47.5234C57.6094 45.5391 56.8359 43.6797 55.4375 42.2734L51.8438 38.6797C51.5391 38.375 51.0391 38.375 50.7344 38.6797C50.4297 38.9844 50.4297 39.4766 50.7344 39.7812L51.2891 40.3359L50.1875 41.4375L49.6328 40.8828C48.7188 39.9687 48.7188 38.4844 49.6328 37.5703C50.5469 36.6562 52.0313 36.6562 52.9453 37.5703L56.5391 41.1641C58.2344 42.8594 59.1719 45.1172 59.1719 47.5156C59.1719 49.9141 58.2344 52.1719 56.5391 53.8672C54.8437 55.5625 52.4844 56.4922 50.1875 56.4922V56.5078Z" fill="#0A5FFF"/>
<path d="M42.3438 57.6562H25.1562C23 57.6562 21.25 55.9062 21.25 53.75V17.8125C21.25 15.6562 23 13.9062 25.1562 13.9062H42.3438C44.5 13.9062 46.25 15.6562 46.25 17.8125V38.125H44.6875V17.8125C44.6875 16.5234 43.6328 15.4688 42.3438 15.4688H25.1562C23.8672 15.4688 22.8125 16.5234 22.8125 17.8125V53.75C22.8125 55.0391 23.8672 56.0938 25.1562 56.0938H42.3438C42.7578 56.0938 43.1641 55.9844 43.5156 55.7812L44.2969 57.1328C43.7031 57.4766 43.0312 57.6562 42.3438 57.6562Z" fill="#0A5FFF"/>
<path d="M31.4062 17.8125H36.0938V19.375H31.4062V17.8125Z" fill="#0A5FFF"/>
<path d="M33.75 54.5312C34.1815 54.5312 34.5312 54.1815 34.5312 53.75C34.5312 53.3185 34.1815 52.9688 33.75 52.9688C33.3185 52.9688 32.9688 53.3185 32.9688 53.75C32.9688 54.1815 33.3185 54.5312 33.75 54.5312Z" fill="#0A5FFF"/>
<path d="M33.75 42.8125C29.4453 42.8125 25.9375 39.3047 25.9375 35C25.9375 30.6953 29.4453 27.1875 33.75 27.1875C38.0547 27.1875 41.5625 30.6953 41.5625 35C41.5625 35.5859 41.5 36.1719 41.3672 36.7344L39.8437 36.3906C39.9453 35.9375 40 35.4688 40 35C40 31.5547 37.1953 28.75 33.75 28.75C30.3047 28.75 27.5 31.5547 27.5 35C27.5 38.4453 30.3047 41.25 33.75 41.25C34.2188 41.25 34.6875 41.1953 35.1406 41.0937L35.4844 42.6172C34.9141 42.7422 34.3359 42.8125 33.75 42.8125Z" fill="#0A5FFF"/>
<path d="M32.9687 37.3438C32.7656 37.3438 32.5703 37.2656 32.4141 37.1172L30.0703 34.7734L31.1719 33.6719L32.9609 35.4609L36.7031 31.7188L37.8047 32.8203L33.5078 37.1172C33.3516 37.2734 33.1562 37.3438 32.9531 37.3438H32.9687Z" fill="#0A5FFF"/>
</svg>
