<svg width="46" height="46" viewBox="0 0 46 46" fill="none" xmlns="http://www.w3.org/2000/svg">
<g opacity="0.3" clip-path="url(#clip0_415_24162)">
<path d="M13.0168 11.3373C13.4342 10.9304 13.5816 10.3332 13.4015 9.77882C13.2214 9.22449 12.751 8.82802 12.1743 8.7442L10.6166 8.51779C10.5603 8.50962 10.5118 8.47431 10.4867 8.42337L9.79002 7.01186C9.25447 5.8891 7.59876 5.88946 7.06348 7.01186L6.36685 8.42337C6.34169 8.47431 6.29318 8.50953 6.23684 8.51779L4.67925 8.7442C4.10237 8.82802 3.63214 9.2244 3.452 9.77882C3.27187 10.3332 3.4193 10.9304 3.83671 11.3373L4.96378 12.436C5.00448 12.4757 5.02307 12.5328 5.01346 12.5888L4.74735 14.1402C4.64879 14.7148 4.88058 15.2844 5.35217 15.6271C5.82384 15.9698 6.43737 16.0141 6.95316 15.7428L8.34643 15.0103C8.39683 14.984 8.45676 14.9839 8.50707 15.0103L9.90026 15.7427C10.4142 16.0132 11.0284 15.9707 11.5012 15.627C11.9728 15.2845 12.2046 14.7147 12.1061 14.1401L11.84 12.5888C11.8303 12.5328 11.8489 12.4756 11.8895 12.4359L13.0168 11.3373ZM10.949 11.471C10.5907 11.8203 10.4272 12.3233 10.5118 12.8167L10.7779 14.368C10.7929 14.4554 10.7488 14.508 10.7092 14.5368C10.6696 14.5655 10.6059 14.5911 10.5274 14.5499L9.13426 13.8175C8.69134 13.5845 8.16235 13.5845 7.71942 13.8175L6.32624 14.5499C6.24763 14.5912 6.18393 14.5655 6.1444 14.5368C6.10478 14.508 6.06066 14.4554 6.07567 14.368L6.34178 12.8165C6.42632 12.3232 6.2629 11.8203 5.90452 11.4709L4.77736 10.3722C4.71384 10.3103 4.7186 10.2418 4.73369 10.1952C4.74879 10.1487 4.78526 10.0905 4.87304 10.0777L6.43063 9.85132C6.92594 9.77936 7.35385 9.46851 7.57532 9.01974L8.27195 7.60823C8.34185 7.4767 8.51156 7.47661 8.58155 7.60823L9.27819 9.01965C9.49965 9.46851 9.92757 9.77936 10.4229 9.85132L11.9806 10.0777C12.0683 10.0905 12.1048 10.1487 12.1199 10.1952C12.135 10.2418 12.1398 10.3103 12.0762 10.3722L10.949 11.471Z" fill="white"/>
<path d="M3.83665 22.4055L4.96381 23.5042C5.00451 23.5438 5.02302 23.6009 5.01341 23.6569L4.74729 25.2084C4.64874 25.7829 4.88053 26.3526 5.35211 26.6953C5.82379 27.0379 6.43723 27.0822 6.95319 26.811L8.34638 26.0785C8.39678 26.0521 8.45679 26.052 8.50702 26.0785L9.90029 26.811C10.1247 26.929 10.3676 26.9873 10.6091 26.9873C10.9231 26.9873 11.2348 26.8889 11.5013 26.6953C11.9729 26.3527 12.2047 25.7829 12.1061 25.2084L11.84 23.6571C11.8304 23.601 11.849 23.5439 11.8897 23.5043L13.0167 22.4056C13.4342 21.9987 13.5816 21.4016 13.4014 20.8472C13.2213 20.2928 12.7511 19.8964 12.1742 19.8125L10.6165 19.5861C10.5603 19.5779 10.5118 19.5426 10.4866 19.4916L9.78997 18.0802C9.25442 16.9575 7.59871 16.9578 7.06343 18.0802L6.36679 19.4917C6.34164 19.5427 6.29312 19.5779 6.23679 19.5862L4.67919 19.8126C4.10232 19.8964 3.63208 20.2929 3.45195 20.8473C3.2719 21.4015 3.41933 21.9986 3.83665 22.4055ZM4.73373 21.2636C4.74882 21.217 4.7853 21.1588 4.87307 21.1461L6.43067 20.9197C6.92597 20.8477 7.35389 20.5369 7.57535 20.0881L8.27199 18.6767C8.34189 18.5451 8.5116 18.5451 8.58159 18.6767L9.27822 20.0881C9.49968 20.537 9.9276 20.8478 10.4229 20.9198L11.9805 21.1462C12.0683 21.1589 12.1048 21.2172 12.1198 21.2637C12.1349 21.3102 12.1397 21.3787 12.0762 21.4406L10.9491 22.5393C10.5907 22.8886 10.4273 23.3915 10.5118 23.8849L10.778 25.4363C10.793 25.5237 10.7489 25.5764 10.7092 25.6051C10.6696 25.6339 10.6059 25.6595 10.5275 25.6183L9.13421 24.8858C8.69128 24.6529 8.16229 24.6529 7.71937 24.8858L6.32618 25.6183C6.24757 25.6595 6.18387 25.6339 6.14434 25.6051C6.10472 25.5764 6.06061 25.5237 6.07561 25.4363L6.34173 23.8848C6.42627 23.3916 6.26284 22.8886 5.90455 22.5393L4.77739 21.4406C4.71387 21.3786 4.71854 21.3101 4.73373 21.2636Z" fill="white"/>
<path d="M13.0169 33.472C13.9192 32.6158 13.4072 31.0411 12.1743 30.8789L10.6166 30.6526C10.5605 30.6444 10.5119 30.6091 10.4867 30.5581L9.79008 29.1466C9.25453 28.0239 7.59882 28.0242 7.06354 29.1466L6.36691 30.5581C6.34175 30.6091 6.29324 30.6444 6.2369 30.6526L4.67931 30.8789C3.44604 31.0412 2.93475 32.6161 3.83677 33.472L4.96384 34.5707C5.00454 34.6104 5.02313 34.6675 5.01352 34.7235L4.74741 36.2749C4.64885 36.8494 4.88064 37.4191 5.35223 37.7618C5.8239 38.1044 6.43734 38.1487 6.95331 37.8775L8.34649 37.145C8.39689 37.1186 8.45691 37.1185 8.50713 37.145L9.90041 37.8775C10.4143 38.1479 11.0286 38.1054 11.5014 37.7618C11.973 37.4192 12.2048 36.8494 12.1062 36.2749L11.8401 34.7236C11.8305 34.6675 11.8491 34.6104 11.8897 34.5707L13.0169 33.472ZM10.949 33.6058C10.5908 33.9551 10.4273 34.4581 10.5119 34.9514L10.778 36.5027C10.793 36.5901 10.7489 36.6428 10.7093 36.6715C10.6696 36.7003 10.6059 36.7259 10.5275 36.6847L9.13423 35.9522C8.69131 35.7193 8.16232 35.7193 7.71939 35.9522L6.32621 36.6847C6.2476 36.7259 6.1839 36.7003 6.14437 36.6715C6.10475 36.6428 6.06063 36.5901 6.07564 36.5027L6.34175 34.9512C6.42629 34.458 6.26287 33.955 5.90449 33.6057L4.77733 32.507C4.71381 32.4451 4.71857 32.3765 4.73366 32.33C4.74876 32.2834 4.78523 32.2253 4.87301 32.2125L6.4306 31.9862C6.92591 31.9142 7.35383 31.6034 7.57529 31.1546L8.27192 29.7431C8.34182 29.6116 8.51153 29.6115 8.58152 29.7431L9.27816 31.1545C9.49962 31.6034 9.92754 31.9142 10.4228 31.9862L11.9804 32.2125C12.0682 32.2253 12.1047 32.2835 12.1198 32.33C12.1349 32.3765 12.1396 32.4451 12.0761 32.507L10.949 33.6058Z" fill="white"/>
<path d="M16.6762 24.4941H20.2914C21.1823 24.4666 21.1816 23.1738 20.2914 23.1465H16.6762C15.7853 23.1742 15.786 24.4668 16.6762 24.4941Z" fill="white"/>
<path d="M20.2914 35.4844C21.1823 35.4568 21.1816 34.164 20.2914 34.1367H16.6762C15.7853 34.1643 15.786 35.4571 16.6762 35.4844H20.2914Z" fill="white"/>
<path d="M45.9318 40.0701L45.1129 37.0842C44.9341 36.432 44.4312 35.9554 43.8259 35.7761C44.5732 34.4394 44.7757 32.8591 44.3575 31.3339L43.0623 26.6112C42.9638 26.2523 42.5928 26.0411 42.2342 26.1395C41.8753 26.238 41.6642 26.6087 41.7625 26.9675L43.0577 31.6902C43.4754 33.213 43.0909 34.8064 42.0322 35.9731L30.1183 39.2404C27.6096 38.5558 25.3022 36.4092 25.2792 36.3876C25.2627 36.3721 25.2456 36.3575 25.2277 36.3437C24.2271 35.5749 23.5122 34.5278 23.1604 33.3153L22.0921 29.6335C22.0212 29.3894 22.0977 29.1228 22.2866 28.9544C22.5885 28.6854 23.1229 28.2263 23.8798 27.5862L24.8858 31.2546C24.983 31.6165 25.3647 31.825 25.7139 31.7263C26.0728 31.6279 26.284 31.2571 26.1856 30.8983L24.5322 24.8693C24.5322 24.8692 24.5321 24.869 24.5321 24.8689L22.1631 16.2302C21.9439 15.4311 22.4158 14.6026 23.2149 14.3835C24.014 14.1641 24.8425 14.6362 25.0616 15.4353L27.0612 22.727L27.8865 25.7367C27.9837 26.0986 28.3653 26.3071 28.7146 26.2084C29.0735 26.11 29.2846 25.7392 29.1862 25.3804L28.3612 22.3719C28.146 21.5752 28.6182 20.7495 29.4142 20.5312C30.2134 20.3121 31.0416 20.784 31.2607 21.5829L31.4662 22.3326L32.1905 24.9737C32.2877 25.3356 32.6693 25.5442 33.0185 25.4454C33.3775 25.347 33.5886 24.9763 33.4902 24.6174L32.7698 21.9902C32.3639 20.0673 35.1003 19.3699 35.6785 21.2401L35.9826 22.3491L36.6032 24.6119C36.7004 24.9737 37.082 25.1823 37.4312 25.0835C37.7902 24.9851 38.0013 24.6144 37.9029 24.2555L37.2824 21.9928C37.0632 21.1937 37.535 20.3654 38.3341 20.1462C38.721 20.0401 39.1262 20.091 39.4751 20.2896C39.8238 20.4883 40.0744 20.8108 40.1804 21.1979L40.9487 23.9991C41.0471 24.358 41.4174 24.5692 41.7767 24.4708C42.1356 24.3724 42.3467 24.0017 42.2483 23.6428L41.4802 20.8416C41.2788 20.1074 40.8036 19.4955 40.142 19.1187C39.4806 18.7418 38.7117 18.6452 37.9777 18.8467C37.3509 19.0185 36.8305 19.3879 36.4647 19.8693C35.776 19.0009 34.6101 18.5777 33.4757 18.8888C32.7973 19.0749 32.2449 19.4846 31.8775 20.0174C31.0133 19.069 29.4199 18.8322 28.3006 19.5645V4.62688C28.3006 2.07563 26.2251 0 23.6739 0H4.62737C2.07612 0 0.000488281 2.07563 0.000488281 4.62688V14.9042C0.0280699 15.7951 1.32081 15.7945 1.34812 14.9042V4.62688C1.34812 2.81871 2.8192 1.34764 4.62737 1.34764H7.38661L7.85505 2.66113C8.11146 3.38014 8.79668 3.86322 9.55998 3.86322H18.741C19.5044 3.86322 20.1896 3.38014 20.446 2.66113L20.9144 1.34764H23.6737C25.4818 1.34764 26.9529 2.81871 26.9529 4.62688V17.237L26.361 15.0787C25.9453 13.5629 24.3737 12.668 22.8584 13.0837C21.3426 13.4993 20.4476 15.0706 20.8633 16.5864L21.9746 20.6388H16.6761C15.7852 20.6663 15.7859 21.9591 16.6761 21.9864H22.3442L23.4871 26.1539C22.4652 27.0151 21.7606 27.6179 21.39 27.9483C20.8156 28.4603 20.5833 29.2691 20.798 30.009L21.2682 31.6296H16.6762C15.7853 31.6572 15.786 32.95 16.6762 32.9773H21.6593L21.8664 33.6909C22.2957 35.1702 23.1648 36.4495 24.3809 37.3924C24.561 37.5589 25.562 38.4619 26.9531 39.2957V39.5528H1.34812V18.0465C1.32054 17.1557 0.0278004 17.1563 0.000488281 18.0465V41.3724C0.000488281 43.9237 2.07603 45.9993 4.62728 45.9993H23.6737C26.2249 45.9993 28.3005 43.9237 28.3005 41.3724V40.006C28.4433 40.0707 28.5882 40.1328 28.7349 40.1918C28.4951 40.6119 28.4152 41.1234 28.5529 41.6256L29.3718 44.6115C29.6435 45.6228 30.7131 46.2076 31.6898 45.9317L44.6114 42.3881C45.0973 42.2548 45.5023 41.9403 45.7516 41.5025C46.0011 41.0648 46.0651 40.556 45.9318 40.0701ZM19.1767 2.20841C19.1112 2.39214 18.936 2.51559 18.741 2.51559H9.55998C9.36494 2.51559 9.18983 2.39214 9.12425 2.20841L8.81735 1.34764H19.4837L19.1767 2.20841ZM23.6737 44.6516H4.62737C2.8192 44.6516 1.34812 43.1806 1.34812 41.3724V40.9005H26.9529V41.3724C26.9529 43.1806 25.4818 44.6516 23.6737 44.6516ZM44.5807 40.8356C44.5095 40.9607 44.3938 41.0505 44.2551 41.0885L31.3335 44.6322C31.0472 44.7108 30.75 44.5415 30.6715 44.2551L29.8527 41.2693C29.7741 40.9828 29.9432 40.6857 30.2297 40.6072L43.1513 37.0636C43.4303 36.9849 43.7357 37.1519 43.8133 37.4406L44.6321 40.4265C44.6701 40.5653 44.6519 40.7106 44.5807 40.8356Z" fill="white"/>
</g>
<defs>
<clipPath id="clip0_415_24162">
<rect width="46" height="46" fill="white"/>
</clipPath>
</defs>
</svg>
