<svg width="28" height="28" viewBox="0 0 28 28" fill="none" xmlns="http://www.w3.org/2000/svg">
<path d="M22.8987 10.8237L7.875 2.14375C7.44554 1.88967 6.95647 1.75382 6.4575 1.75C5.67312 1.75 4.92087 2.06159 4.36623 2.61623C3.81159 3.17087 3.5 3.92312 3.5 4.7075V23.3363C3.5001 23.8568 3.63963 24.3678 3.90409 24.8161C4.16855 25.2644 4.54829 25.6337 5.0038 25.8856C5.45932 26.1375 5.974 26.2627 6.49432 26.2483C7.01464 26.2339 7.5216 26.0804 7.9625 25.8037L23.0037 16.3012C23.4714 16.0086 23.8553 15.5997 24.118 15.1145C24.3807 14.6293 24.5132 14.0844 24.5026 13.5328C24.492 12.9811 24.3387 12.4417 24.0577 11.9669C23.7766 11.4922 23.3773 11.0983 22.8987 10.8237Z" fill="white"/>
</svg>
