<svg width="80" height="70" viewBox="0 0 80 70" fill="none" xmlns="http://www.w3.org/2000/svg">
<rect opacity="0.2" width="80" height="70" rx="12" fill="#0A5FFF"/>
<path fill-rule="evenodd" clip-rule="evenodd" d="M38.4681 20.8936L40.2111 20.0926L42.3585 20.5352C42.5276 20.5701 42.6957 20.5924 42.8619 20.6029L43.0696 22.6451C43.1009 22.9535 42.932 23.2725 42.8359 23.5569C42.4791 24.6125 41.4189 25.2559 40.3136 25.0843C39.1086 24.8971 38.2445 23.8066 38.3379 22.5895L38.4681 20.8936ZM44.6241 22.4871L44.4069 20.3514C45.8428 19.7688 46.8415 18.2714 46.6305 16.5752C46.5523 15.946 46.0814 15.4402 45.4607 15.3188L41.7073 14.5843C39.2898 14.1112 37.0291 15.9807 37.0291 18.453V19.2246L36.78 22.4699C36.6975 23.5445 37.0615 24.559 37.7207 25.3223L37.6894 25.6046L35.5952 25.3366C33.0104 25.0139 30.646 26.828 30.2885 29.4082C30.2448 29.7234 30.3191 30.0969 30.4927 30.3439L30.2909 32.9135C30.1942 34.145 30.7532 35.385 31.6014 36.1721C31.6014 36.1721 30.0192 40.7394 29.2533 42.8601C29.1078 43.2633 29.197 43.6903 29.446 43.9973L25.452 48.8346C25.2141 48.922 24.9927 49.0698 24.8113 49.2796L22.6777 51.7483C22.1693 52.3366 22.1707 53.2092 22.6811 53.7956L23.9358 55.2378C24.6777 56.0905 25.7526 56.5803 26.8829 56.5803H29.0161C31.4951 56.5803 32.277 53.2339 30.0547 52.1354L29.4807 51.8518L34.5972 46.9494C34.9436 46.6175 35.2135 46.2269 35.4269 45.7989C35.8874 45.8262 36.3312 45.5787 36.5441 45.153L37.5456 43.1501L39.6506 44.7289C39.8541 44.8815 40.0931 44.9587 40.332 44.9631L39.4377 47.3025C38.3607 48.1335 37.8982 49.5632 38.3216 50.8878L39.2505 53.7944C39.7955 55.4999 41.6823 56.3749 43.3363 55.6893C44.2467 55.312 44.8933 54.5342 45.1276 53.626C45.9079 54.4257 46.9974 54.9221 48.2029 54.9221C50.576 54.9221 52.4998 52.9983 52.4998 50.6253C52.4998 48.2522 50.576 46.3284 48.2029 46.3284C47.3931 46.3284 46.6357 46.5524 45.9891 46.9418L47.1127 44.8667C48.1007 43.0418 47.4893 40.7628 45.7206 39.6775L41.5479 37.1169L43.7817 32.8033C44.7309 33.1961 45.6186 33.5569 46.6259 33.762L50.4048 37.897C50.8974 38.436 51.6136 38.7138 52.3408 38.6478C54.1409 38.4846 55.0823 36.4268 54.0283 34.9583L51.1325 30.9228C50.5468 30.1066 49.7211 29.659 48.7866 29.366C48.6815 28.8589 48.327 28.41 47.7941 28.2145C46.0611 27.5791 42.3905 26.3076 42.3905 26.3076C43.2703 25.8662 43.9809 25.0491 44.3161 24.0572C44.4906 23.5412 44.6807 23.0436 44.6241 22.4871ZM41.3086 34.1812L42.5591 31.7664C42.8389 31.2261 43.4856 30.9898 44.0478 31.2225L45.9165 31.9957L47.2562 29.6815L42.1794 27.8559L42.131 28.2109C41.9721 29.376 40.977 30.2447 39.8011 30.2447C38.3995 30.2447 37.3092 29.0264 37.464 27.6335L37.5167 27.1587L35.4016 26.887C33.7875 26.6855 32.3013 27.7242 31.9068 29.2637H34.2009C34.899 29.2637 35.4422 29.8702 35.3657 30.5641L35.1995 32.0711L39.9474 33.2638C40.5235 33.4085 40.991 33.7443 41.3086 34.1812ZM39.0169 27.806L39.1758 26.3762C39.4585 26.4937 39.7591 26.5794 40.0738 26.6283C40.3056 26.6642 40.5362 26.6789 40.7637 26.6734L40.5828 27.9998C40.5295 28.3907 40.1956 28.6822 39.8011 28.6822C39.3308 28.6822 38.965 28.2734 39.0169 27.806ZM40.5341 18.5598C39.8337 18.4154 39.1995 18.8379 38.5899 19.118V18.4409C38.5899 16.9575 39.9463 15.8358 41.3968 16.1196L45.0884 16.842C45.2145 18.1785 44.0067 19.2756 42.6843 19.003L40.5341 18.5598ZM24.2312 27.8101C24.142 28.2322 24.4119 28.6468 24.834 28.736C25.2562 28.8252 25.6707 28.5553 25.7599 28.1332C26.15 26.2874 26.9732 24.6524 28.5514 23.5326C28.9033 23.2829 28.9861 22.7953 28.7365 22.4434C28.4868 22.0915 27.9991 22.0086 27.6472 22.2583C25.7487 23.6055 24.7026 25.5792 24.2312 27.8101ZM47.4729 32.4258L48.3716 30.8734C48.9619 31.0585 49.4898 31.3136 49.863 31.8337L52.7588 35.8692C53.108 36.3558 52.7961 37.0376 52.1997 37.0917C51.9587 37.1135 51.7214 37.0215 51.5582 36.8429C50.3105 35.4776 47.4729 32.4258 47.4729 32.4258ZM43.2541 40.3386L40.3171 43.2756L38.1086 41.6193C37.5237 41.1806 36.6843 41.3787 36.3574 42.0327L35.289 44.1695L30.8675 42.9904L32.9034 37.3528L40.1142 38.3201L43.2541 40.3386ZM44.8225 40.9596C45.8999 41.6208 46.3583 42.9782 45.7386 44.1228L43.1395 48.9232C42.8292 49.4964 42.1287 49.7323 41.5349 49.4635C40.9361 49.1925 40.6519 48.5021 40.8866 47.8881L42.2026 44.4457C42.308 44.1699 42.304 43.8694 42.2002 43.6023C43.0494 42.7531 44.8225 40.9596 44.8225 40.9596ZM30.8852 44.6123L33.8602 45.4056C33.8602 45.4056 30.0671 49.126 28.3171 50.8026C27.5088 51.5768 26.2214 50.2768 26.9081 49.4725L30.3356 45.4561C30.555 45.1991 30.7395 44.9153 30.8852 44.6123ZM43.3331 50.8245C42.5954 51.2046 41.6993 51.253 40.8908 50.887C40.4043 50.6671 40.0098 50.3241 39.7287 49.9108C39.7287 49.9108 40.4023 52.2659 40.7388 53.319C41.0055 54.1534 41.9286 54.5815 42.7379 54.246C43.3838 53.978 43.7583 53.2987 43.6399 52.6096L43.3331 50.8245ZM25.3131 51.0885C25.7163 52.0471 26.6991 52.6694 27.7338 52.6331C28.2213 53.0206 28.8079 53.262 29.3623 53.5362C30.1031 53.9022 29.8425 55.0178 29.0161 55.0178H26.8829C26.2047 55.0178 25.5598 54.7241 25.1146 54.2124L23.8599 52.7702L25.3131 51.0885ZM50.9373 50.6253C50.9373 49.1151 49.7131 47.8909 48.2029 47.8909C46.6928 47.8909 45.4686 49.1151 45.4686 50.6253C45.4686 52.1354 46.6928 53.3596 48.2029 53.3596C49.7131 53.3596 50.9373 52.1354 50.9373 50.6253ZM33.7648 30.8262H32.0221L31.8486 33.0358C31.7536 34.2467 32.5993 35.3296 33.7971 35.5307L39.2191 36.4409C39.5863 36.5026 39.9509 36.3179 40.1184 35.9853C40.3632 35.4993 40.0944 34.9118 39.5667 34.7792L34.4883 33.5035C33.9203 33.3608 33.5448 32.8207 33.609 32.2385L33.7648 30.8262Z" fill="#0A5FFF"/>
</svg>
