<svg width="50" height="50" viewBox="0 0 50 50" fill="none" xmlns="http://www.w3.org/2000/svg">
<path d="M19.695 11.9604L19.5 16.3604C19.4937 16.5253 19.5282 16.6893 19.6006 16.8376C19.6731 16.9859 19.7811 17.114 19.915 17.2104C20.048 17.3057 20.2023 17.367 20.3644 17.3888C20.5266 17.4106 20.6916 17.3922 20.845 17.3354L24.98 15.8354L29.115 17.3354C29.2246 17.3795 29.3418 17.4016 29.46 17.4004C29.6701 17.4001 29.8748 17.3336 30.045 17.2104C30.1789 17.114 30.2869 16.9859 30.3594 16.8376C30.4318 16.6893 30.4663 16.5253 30.46 16.3604L30.285 11.9604L33.03 8.5004C33.1316 8.37219 33.2002 8.22102 33.2298 8.06013C33.2594 7.89924 33.249 7.73356 33.1997 7.57759C33.1503 7.42163 33.0635 7.28016 32.9467 7.16558C32.8299 7.051 32.6869 6.96681 32.53 6.9204L28.29 5.7204L25.84 2.0604C25.7485 1.92428 25.625 1.81274 25.4802 1.73562C25.3355 1.6585 25.174 1.61816 25.01 1.61816C24.846 1.61816 24.6845 1.6585 24.5398 1.73562C24.395 1.81274 24.2715 1.92428 24.18 2.0604L21.73 5.7204L17.5 6.9204C17.3431 6.96681 17.2001 7.051 17.0833 7.16558C16.9666 7.28016 16.8797 7.42163 16.8303 7.57759C16.781 7.73356 16.7706 7.89924 16.8002 8.06013C16.8298 8.22102 16.8984 8.37219 17 8.5004L19.695 11.9604ZM22.62 7.5454C22.8489 7.48124 23.0474 7.33766 23.18 7.1404L25 4.4154L26.82 7.1404C26.9526 7.33766 27.1511 7.48124 27.38 7.5454L30.535 8.4354L28.5 11.0004C28.3536 11.1884 28.2791 11.4224 28.29 11.6604L28.415 14.9354L25.34 13.8004C25.1173 13.7185 24.8727 13.7185 24.65 13.8004L21.575 14.9354L21.7 11.6604C21.7137 11.4236 21.6428 11.1897 21.5 11.0004L19.47 8.4254L22.62 7.5454ZM47.5 29.6154H33.5V19.5804C33.5 19.3152 33.3946 19.0608 33.2071 18.8733C33.0196 18.6858 32.7652 18.5804 32.5 18.5804H17.5C17.2348 18.5804 16.9804 18.6858 16.7929 18.8733C16.6054 19.0608 16.5 19.3152 16.5 19.5804V25.5454H2.5C2.23478 25.5454 1.98043 25.6508 1.79289 25.8383C1.60536 26.0258 1.5 26.2802 1.5 26.5454V47.3854C1.5 47.6506 1.60536 47.905 1.79289 48.0925C1.98043 48.28 2.23478 48.3854 2.5 48.3854H47.5C47.7652 48.3854 48.0196 48.28 48.2071 48.0925C48.3946 47.905 48.5 47.6506 48.5 47.3854V30.6154C48.5 30.3502 48.3946 30.0958 48.2071 29.9083C48.0196 29.7208 47.7652 29.6154 47.5 29.6154ZM3.5 27.5454H16.5V46.3854H3.5V27.5454ZM18.5 26.5454V20.5804H31.5V46.3854H18.5V26.5454ZM46.5 46.3854H33.5V31.6154H46.5V46.3854Z" fill="#FF073A"/>
</svg>
