<svg width="55" height="55" viewBox="0 0 55 55" fill="none" xmlns="http://www.w3.org/2000/svg">
<path d="M50.875 44.9845H48.4L36.388 19.338V12.375H46.75C47.1147 12.375 47.4644 12.2301 47.7223 11.9723C47.9801 11.7144 48.125 11.3647 48.125 11V4.125C48.125 3.76033 47.9801 3.41059 47.7223 3.15273C47.4644 2.89487 47.1147 2.75 46.75 2.75H35.013C34.6483 2.75 34.2986 2.89487 34.0407 3.15273C33.7829 3.41059 33.638 3.76033 33.638 4.125V19.25L24.6015 33.704L18.2765 29.2105C18.1245 29.101 17.9516 29.024 17.7685 28.9843C17.5855 28.9446 17.3962 28.943 17.2125 28.9796C17.0288 29.0163 16.8546 29.0903 16.7008 29.1972C16.547 29.3042 16.4169 29.4416 16.3185 29.601L6.7045 45.001H4.125C3.76033 45.001 3.41059 45.1459 3.15273 45.4037C2.89487 45.6616 2.75 46.0113 2.75 46.376C2.75 46.7407 2.89487 47.0904 3.15273 47.3483C3.41059 47.6061 3.76033 47.751 4.125 47.751H50.875C51.2397 47.751 51.5894 47.6061 51.8473 47.3483C52.1051 47.0904 52.25 46.7407 52.25 46.376C52.25 46.0113 52.1051 45.6616 51.8473 45.4037C51.5894 45.1459 51.2397 45.001 50.875 45.001V44.9845ZM45.375 9.625H36.388V5.5H45.375V9.625ZM17.875 32.296L24.2 36.7895C24.3524 36.8994 24.5258 36.9767 24.7094 37.0164C24.893 37.0562 25.0828 37.0575 25.267 37.0205C25.4506 36.9826 25.6246 36.9081 25.7787 36.8013C25.9327 36.6945 26.0636 36.5576 26.1635 36.399L34.8425 22.5115L45.375 44.9845H9.944L17.875 32.296Z" fill="#FF073A"/>
</svg>
