<svg width="28" height="28" viewBox="0 0 28 28" fill="none" xmlns="http://www.w3.org/2000/svg">
<path d="M25.375 19.7663C25.375 20.93 24.43 21.875 23.2663 21.875H17.8587C16.695 21.875 15.75 20.93 15.75 19.7663C15.75 19.2063 15.9775 18.6637 16.3712 18.27C16.5287 18.1037 16.625 17.8763 16.625 17.6488V16.1875C16.625 14.0175 18.3925 12.25 20.5625 12.25C22.7325 12.25 24.5 14.0175 24.5 16.1875V17.6488C24.5 17.885 24.5963 18.1037 24.7538 18.27C25.1475 18.6637 25.375 19.2063 25.375 19.7663Z" fill="#F6921E"/>
<path d="M20.5625 26.25C19.1152 26.25 17.9375 25.0723 17.9375 23.625C17.9375 23.1411 18.3295 22.75 18.8125 22.75C19.2955 22.75 19.6875 23.1411 19.6875 23.625C19.6875 24.108 20.0804 24.5 20.5625 24.5C21.0446 24.5 21.4375 24.108 21.4375 23.625C21.4375 23.1411 21.8295 22.75 22.3125 22.75C22.7955 22.75 23.1875 23.1411 23.1875 23.625C23.1875 25.0723 22.0097 26.25 20.5625 26.25Z" fill="#F6921E"/>
<path d="M20.9912 2.625H7.00875C4.58763 2.625 2.625 4.58763 2.625 7.00875V20.9912C2.625 23.4124 4.58763 25.375 7.00875 25.375H16.9382C17.213 25.375 17.3932 25.1011 17.2935 24.8447C17.1465 24.4659 17.0625 24.0564 17.0625 23.625C17.0625 23.2838 17.1649 22.967 17.3346 22.6966C15.9399 22.4481 14.875 21.2319 14.875 19.7663C14.875 18.9805 15.1944 18.2096 15.7526 17.6514L15.75 16.4106C15.7456 13.9274 17.5289 11.6909 19.9964 11.4074C22.1086 11.165 23.9925 12.3007 24.864 14.0306C24.9926 14.287 25.375 14.196 25.375 13.909V7.00875C25.375 4.58763 23.4124 2.625 20.9912 2.625ZM13.125 19.25H7C6.517 19.25 6.125 18.8589 6.125 18.375C6.125 17.8911 6.517 17.5 7 17.5H13.125C13.608 17.5 14 17.8911 14 18.375C14 18.8589 13.608 19.25 13.125 19.25ZM14 14.875H7C6.517 14.875 6.125 14.4839 6.125 14C6.125 13.5161 6.517 13.125 7 13.125H14C14.483 13.125 14.875 13.5161 14.875 14C14.875 14.4839 14.483 14.875 14 14.875ZM21 10.5H7C6.517 10.5 6.125 10.1089 6.125 9.625C6.125 9.14113 6.517 8.75 7 8.75H21C21.483 8.75 21.875 9.14113 21.875 9.625C21.875 10.1089 21.483 10.5 21 10.5Z" fill="#F6921E"/>
</svg>
