<svg width="30" height="30" viewBox="0 0 30 30" fill="none" xmlns="http://www.w3.org/2000/svg">
<path d="M29.9289 18.6616C29.7613 17.9612 29.4368 17.3079 28.9799 16.7512C28.523 16.1944 27.9456 15.7487 27.2913 15.4477C26.637 15.1467 25.9229 14.9982 25.2028 15.0134C24.4828 15.0286 23.7755 15.2072 23.1346 15.5357C23.2279 15.2786 23.3081 15.0169 23.3748 14.7516H24.5084C24.6327 14.7516 24.7519 14.7022 24.8398 14.6143C24.9277 14.5264 24.9771 14.4072 24.9771 14.2829V11.276C24.9771 11.1517 24.9277 11.0325 24.8398 10.9445C24.7519 10.8566 24.6327 10.8073 24.5084 10.8073H23.3747C23.1818 10.032 22.8742 9.28988 22.462 8.60548L23.264 7.80356C23.3075 7.76004 23.3421 7.70836 23.3656 7.65149C23.3892 7.59461 23.4013 7.53366 23.4013 7.4721C23.4013 7.41054 23.3892 7.34958 23.3656 7.29271C23.3421 7.23584 23.3075 7.18416 23.264 7.14063L21.1379 5.01444C21.05 4.92655 20.9307 4.87717 20.8064 4.87717C20.6821 4.87717 20.5629 4.92655 20.475 5.01444L19.673 5.81647C18.9886 5.40429 18.2465 5.09664 17.4712 4.9037V3.77026C17.4712 3.64594 17.4218 3.52671 17.3339 3.43881C17.246 3.3509 17.1268 3.30151 17.0024 3.30151H13.9956C13.8713 3.30151 13.752 3.3509 13.6641 3.43881C13.5762 3.52671 13.5268 3.64594 13.5268 3.77026V4.9037C12.7516 5.09663 12.0094 5.40424 11.325 5.81636L10.5234 5.01444C10.4798 4.97091 10.4282 4.93638 10.3713 4.91282C10.3144 4.88927 10.2535 4.87714 10.1919 4.87714C10.1303 4.87714 10.0694 4.88927 10.0125 4.91282C9.95565 4.93638 9.90397 4.97091 9.86044 5.01444L7.73425 7.14058C7.64636 7.22848 7.59698 7.3477 7.59698 7.47201C7.59698 7.59632 7.64636 7.71554 7.73425 7.80345L8.53623 8.60548C8.16895 9.21563 7.88453 9.87196 7.69048 10.5572C7.19808 10.1563 6.63057 9.85785 6.02126 9.67927C5.18138 9.42768 4.28796 9.41534 3.44145 9.64363C2.59493 9.87192 1.82886 10.3318 1.22935 10.9716C1.17385 11.0306 1.1346 11.1031 1.11545 11.1818C1.0963 11.2606 1.0979 11.3429 1.12009 11.4209C1.14228 11.4988 1.1843 11.5697 1.24205 11.6266C1.29981 11.6834 1.37132 11.7244 1.4496 11.7453L4.81834 12.648L5.43943 14.4158L4.01736 15.6363L0.64857 14.734C0.570288 14.713 0.487911 14.7127 0.409476 14.7331C0.331042 14.7535 0.25923 14.7938 0.201048 14.8502C0.142867 14.9067 0.100304 14.9772 0.0775132 15.0549C0.0547223 15.1327 0.052482 15.2151 0.071011 15.294C0.241192 16.0436 0.594332 16.7395 1.09891 17.3195C1.60349 17.8994 2.24381 18.3455 2.96273 18.6177C3.52042 18.8341 4.11334 18.9453 4.71152 18.9459C5.48748 18.947 6.25155 18.7552 6.93503 18.3879C7.54593 19.3736 8.07351 20.1105 8.51859 20.7316C9.54585 22.1657 10.0621 22.8864 10.1086 24.6384L10.1112 26.2307C10.1114 26.3549 10.1608 26.4739 10.2487 26.5617C10.3366 26.6494 10.4557 26.6987 10.5799 26.6987H19.0199C19.0815 26.6987 19.1425 26.6866 19.1994 26.663C19.2563 26.6394 19.308 26.6048 19.3516 26.5612C19.3951 26.5176 19.4296 26.4658 19.4531 26.4089C19.4767 26.3519 19.4887 26.2909 19.4886 26.2293L19.4858 24.3162C20.1211 23.2594 20.4678 22.0024 20.6555 20.8718L20.7185 20.8887C20.9177 21.6894 21.3237 22.4238 21.8958 23.0183C22.468 23.6128 23.1863 24.0466 23.9788 24.2763C24.4194 24.4064 24.8764 24.4726 25.3359 24.4728C25.9799 24.4731 26.6171 24.3411 27.2079 24.0849C27.7988 23.8288 28.3308 23.454 28.7708 22.9837C28.8263 22.9247 28.8656 22.8522 28.8847 22.7735C28.9039 22.6947 28.9023 22.6123 28.8801 22.5344C28.8579 22.4564 28.8158 22.3856 28.7581 22.3287C28.7003 22.2718 28.6288 22.2309 28.5505 22.2099L25.1818 21.3073L24.5607 19.5395L25.9823 18.319L29.351 19.2217C29.4293 19.2427 29.5117 19.243 29.5902 19.2226C29.6686 19.2022 29.7405 19.1619 29.7987 19.1055C29.8569 19.049 29.8994 18.9785 29.9222 18.9007C29.945 18.8229 29.9472 18.7405 29.9287 18.6616H29.9289ZM19.9319 18.2503C19.9319 19.2927 19.8132 21.8515 18.7508 23.7149H10.9749C10.7743 22.2712 10.1766 21.4362 9.28072 20.1855C8.50436 19.1262 7.78704 18.0249 7.13203 16.8867C6.49248 15.7701 6.76201 14.7646 7.20234 14.4681C7.63201 14.1789 8.0765 14.6556 8.24765 14.8739L10.4018 17.6227C10.4619 17.6995 10.5446 17.7557 10.6381 17.7834C10.7317 17.811 10.8316 17.8087 10.9239 17.7769C11.0161 17.7451 11.0961 17.6853 11.1527 17.6058C11.2093 17.5263 11.2397 17.4311 11.2397 17.3335V14.2222C11.241 14.0284 11.3188 13.8429 11.4561 13.7062C11.5935 13.5694 11.7793 13.4925 11.9732 13.4921C12.167 13.4917 12.3531 13.5679 12.4911 13.7041C12.629 13.8403 12.7075 14.0254 12.7096 14.2192V16.0519C12.7096 16.1762 12.759 16.2954 12.8469 16.3833C12.9348 16.4712 13.0541 16.5206 13.1784 16.5206C13.3027 16.5206 13.4219 16.4712 13.5098 16.3833C13.5977 16.2954 13.6471 16.1762 13.6471 16.0519V14.6373C13.6471 14.4424 13.7246 14.2554 13.8624 14.1176C14.0002 13.9797 14.1872 13.9023 14.3821 13.9023C14.5771 13.9023 14.764 13.9797 14.9018 14.1176C15.0397 14.2554 15.1171 14.4424 15.1171 14.6373V15.0978C15.1171 15.222 15.1664 15.3411 15.2541 15.4289C15.3418 15.5168 15.4607 15.5663 15.5849 15.5666H15.5859C15.7099 15.5666 15.8288 15.5175 15.9166 15.43C16.0045 15.3425 16.0541 15.2238 16.0546 15.0998C16.0567 14.906 16.1353 14.7209 16.2732 14.5847C16.4111 14.4485 16.5972 14.3723 16.7911 14.3727C16.9849 14.3731 17.1707 14.4501 17.3081 14.5868C17.4455 14.7235 17.5233 14.909 17.5246 15.1028V15.7148C17.5246 15.8392 17.574 15.9584 17.6619 16.0463C17.7498 16.1342 17.869 16.1836 17.9933 16.1836C18.1176 16.1836 18.2369 16.1342 18.3248 16.0463C18.4127 15.9584 18.4621 15.8392 18.4621 15.7148C18.4612 15.6178 18.4796 15.5215 18.5161 15.4316C18.5527 15.3416 18.6067 15.2598 18.675 15.1909C18.7433 15.1219 18.8246 15.0672 18.9142 15.0299C19.0039 14.9925 19.1 14.9733 19.197 14.9733C19.2941 14.9733 19.3902 14.9925 19.4798 15.0299C19.5694 15.0672 19.6507 15.1219 19.7191 15.1909C19.7874 15.2598 19.8414 15.3416 19.878 15.4316C19.9145 15.5215 19.9329 15.6178 19.932 15.7148L19.9319 18.2503ZM20.3546 14.5095C20.6066 13.802 20.701 13.0479 20.6311 12.3C20.5612 11.5522 20.3286 10.8287 19.9498 10.1801C19.5709 9.53159 19.0549 8.97369 18.4378 8.54548C17.8207 8.11727 17.1175 7.82911 16.3774 7.70117C15.6372 7.57323 14.8781 7.60861 14.1531 7.80481C13.4281 8.00102 12.7547 8.35332 12.1801 8.83705C11.6055 9.32078 11.1436 9.92425 10.8267 10.6052C10.5098 11.2862 10.3455 12.0282 10.3454 12.7793C10.3459 12.9736 10.3572 13.1678 10.3794 13.3608L9.2813 13.0666C9.12707 12.446 8.84795 11.8634 8.46099 11.3543C8.64411 10.4413 9.00483 9.57317 9.52265 8.79925C9.58284 8.70905 9.6099 8.60078 9.59922 8.49287C9.58853 8.38496 9.54077 8.28409 9.46406 8.20745L8.72818 7.47157L10.1915 6.00837L10.9277 6.7446C11.0043 6.82131 11.1052 6.86907 11.2131 6.87976C11.321 6.89044 11.4293 6.86338 11.5195 6.80319C12.2971 6.28283 13.1699 5.92111 14.0876 5.73878C14.1939 5.71757 14.2896 5.66018 14.3584 5.57637C14.4271 5.49256 14.4647 5.38751 14.4647 5.27911V4.23901H16.534V5.27894C16.534 5.38735 16.5716 5.49242 16.6404 5.57625C16.7091 5.66007 16.8048 5.71747 16.9111 5.73866C17.8289 5.92099 18.7016 6.28274 19.4793 6.80313C19.5695 6.86333 19.6777 6.89038 19.7856 6.8797C19.8935 6.86902 19.9944 6.82125 20.0711 6.74454L20.8066 6.00884L22.2698 7.4721L21.534 8.20792C21.4573 8.28456 21.4095 8.38543 21.3988 8.49334C21.3881 8.60125 21.4152 8.70952 21.4754 8.79972C21.9957 9.57736 22.3575 10.4501 22.5398 11.3678C22.561 11.4741 22.6184 11.5698 22.7022 11.6385C22.7861 11.7073 22.8911 11.7449 22.9995 11.7449H24.0395V13.8142H22.9995C22.8911 13.8142 22.786 13.8518 22.7022 13.9206C22.6184 13.9893 22.561 14.085 22.5398 14.1913C22.3856 14.9675 22.1028 15.7123 21.7031 16.3952L20.8695 16.1719V15.7148C20.8696 15.4896 20.824 15.2666 20.7355 15.0594C20.647 14.8523 20.5174 14.6652 20.3546 14.5095Z" fill="#949494"/>
</svg>
