<svg width="46" height="46" viewBox="0 0 46 46" fill="none" xmlns="http://www.w3.org/2000/svg">
<g opacity="0.3">
<path d="M38.89 12.8763C38.411 11.4003 39.4946 8.73478 38.2182 6.98114C37.4363 5.9068 36.0651 5.56441 34.8552 5.26227C32.7842 4.74522 32.626 4.62708 31.5106 2.83543C30.8469 1.76935 30.0947 0.561058 28.8138 0.145176C26.7535 -0.523795 24.6059 1.33622 23 1.33622C21.3998 1.33622 19.241 -0.522088 17.1861 0.145176C15.9054 0.561058 15.1532 1.76935 14.4895 2.83534C13.3736 4.62762 13.2165 4.74486 11.1448 5.26227C9.9349 5.56441 8.56372 5.90689 7.78173 6.98114C6.50668 8.73326 7.5874 11.4055 7.10998 12.8764C6.65294 14.2837 4.18945 15.805 4.18945 18.0394C4.18945 19.4097 5.11322 20.5058 5.92827 21.4728C7.25471 23.0464 7.3335 23.2328 7.18679 25.3934C7.1027 26.6311 7.00755 28.034 7.78173 29.0977C8.94304 30.6934 11.3918 30.6721 12.7886 31.3269L8.63928 41.2872C8.35017 41.9814 8.99416 42.7039 9.71686 42.4961L14.5775 41.0989L17.008 45.5339C17.361 46.1782 18.3018 46.1489 18.6114 45.4792L23.0001 35.9856L27.3889 45.4792C27.6971 46.1462 28.6377 46.181 28.9923 45.5339L31.4227 41.0989L36.2834 42.4961C36.6152 42.5917 36.9726 42.4882 37.2023 42.2304C37.4321 41.9727 37.4938 41.6059 37.3611 41.2872L33.2115 31.3268C34.611 30.6707 37.0569 30.6934 38.2184 29.0975C39.4935 27.3454 38.4128 24.6731 38.8902 23.2023C39.3471 21.7952 41.8107 20.2737 41.8107 18.0393C41.8105 15.8099 39.344 14.2741 38.89 12.8763ZM17.7278 43.1085L15.808 39.6052C15.6061 39.2369 15.176 39.0574 14.772 39.1735L11.0168 40.2529L14.1567 32.7161C15.1028 34.1741 16.0259 36.0795 18.1328 36.0795C19.2496 36.0795 20.3642 35.5325 21.415 35.1323L17.7278 43.1085ZM31.2282 39.1735C30.8243 39.0575 30.394 39.2368 30.1921 39.6052L28.2724 43.1085L24.5851 35.1322C25.959 35.6555 27.3854 36.3975 28.8139 35.9335C30.289 35.4546 31.0473 33.9433 31.8434 32.716L34.9834 40.2528L31.2282 39.1735ZM37.1809 22.6474C36.5793 24.5008 37.5158 27.0089 36.7654 28.0401C35.9583 29.1493 33.1617 28.9025 31.5136 30.2985C30.1384 31.4916 29.4443 33.8395 28.2591 34.2245C27.0748 34.6081 24.9716 32.9455 23.0001 32.9455C21.018 32.9455 18.9286 34.6096 17.7413 34.2245C16.5415 33.8348 15.8019 31.3823 14.4775 30.2908C13.6676 29.5924 12.6244 29.3338 11.5804 29.0731C8.98113 28.4239 8.80028 28.1585 8.97987 25.515C9.04537 24.5501 9.11302 23.5523 8.81933 22.6475C8.23041 20.8341 5.98667 19.3919 5.98667 18.0393C5.98667 16.6907 8.23229 15.2388 8.81933 13.4312C9.42091 11.5779 8.48448 9.06954 9.23494 8.03841C10.002 6.98446 12.6623 7.12543 14.2394 5.97778C15.7963 4.84459 16.4875 2.26124 17.7413 1.85408C18.9241 1.47027 21.0287 3.13299 23.0002 3.13299C24.9711 3.13299 27.0758 1.46982 28.2591 1.85408C29.5188 2.26313 30.1947 4.83794 31.7612 5.97778C33.3283 7.11833 36.0018 6.98887 36.7656 8.03841C37.5199 9.07511 36.5758 11.5666 37.1812 13.4311C37.772 15.2507 40.0138 16.684 40.0138 18.0393C40.0137 19.388 37.7689 20.8369 37.1809 22.6474Z" fill="white"/>
<path d="M23.0005 4.96289C15.79 4.96289 9.92383 10.8291 9.92383 18.0396C9.92383 25.2501 15.79 31.1163 23.0005 31.1163C30.2111 31.1163 36.0773 25.2501 36.0773 18.0396C36.0773 10.8291 30.211 4.96289 23.0005 4.96289ZM23.0005 29.3194C16.7808 29.3194 11.7207 24.2593 11.7207 18.0395C11.7207 11.8198 16.7808 6.75966 23.0005 6.75966C29.2203 6.75966 34.2804 11.8198 34.2804 18.0395C34.2803 24.2593 29.2202 29.3194 23.0005 29.3194Z" fill="white"/>
<path d="M25.942 13.8511L23.8062 9.52341C23.4772 8.85687 22.5239 8.85669 22.1948 9.52341L20.0591 13.8511L15.2833 14.5451C14.5479 14.6519 14.2527 15.5584 14.7853 16.0775L18.2411 19.4462L17.4253 24.2027C17.2999 24.9354 18.0707 25.4957 18.7289 25.1499L23.0006 22.9041L27.2723 25.1499C27.9276 25.4942 28.702 24.9392 28.5759 24.2027L27.7601 19.4462L31.2159 16.0775C31.7481 15.5588 31.4539 14.6521 30.7179 14.5451L25.942 13.8511ZM26.1675 18.4892C25.9558 18.6956 25.8591 18.9929 25.9091 19.2844L26.497 22.7123L23.4186 21.0938C23.157 20.9563 22.844 20.9562 22.5824 21.0938L19.5039 22.7123L20.0919 19.2844C20.1418 18.9929 20.0451 18.6956 19.8335 18.4892L17.3429 16.0615L20.7847 15.5615C21.0774 15.519 21.3303 15.3352 21.4612 15.07L23.0004 11.9512L24.5396 15.07C24.6705 15.3352 24.9234 15.519 25.2161 15.5615L28.6579 16.0615L26.1675 18.4892Z" fill="white"/>
</g>
</svg>
