<svg width="50" height="50" viewBox="0 0 50 50" fill="none" xmlns="http://www.w3.org/2000/svg">
<mask id="mask0_258_1105" style="mask-type:luminance" maskUnits="userSpaceOnUse" x="0" y="0" width="50" height="50">
<path d="M0 3.8147e-06H50V50H0V3.8147e-06Z" fill="white"/>
</mask>
<g mask="url(#mask0_258_1105)">
<path d="M30.8187 42.89H24.9021C23.6614 42.89 22.4226 42.8001 21.195 42.6208L19.8979 42.4314" stroke="#FF073A" stroke-width="2" stroke-miterlimit="10" stroke-linecap="round" stroke-linejoin="round"/>
<path d="M8.17871 39.8807V46.6373C8.17871 47.3505 7.60049 47.9288 6.88711 47.9288H4.69346C3.98008 47.9288 3.40186 47.3505 3.40186 46.6373V32.6275C3.40186 31.9142 3.98008 31.3359 4.69346 31.3359H6.88711C7.60049 31.3359 8.17871 31.9142 8.17871 32.6275V36.4556" stroke="#FF073A" stroke-width="2" stroke-miterlimit="10" stroke-linecap="round" stroke-linejoin="round"/>
<path d="M8.17871 45.7034L16.4949 48.7988C17.3277 49.1088 18.2093 49.2676 19.0979 49.2676H29.2041C30.6184 49.2676 32.0035 48.8657 33.1981 48.1087L45.852 40.9696C46.6869 40.2284 46.8416 38.9825 46.2136 38.0595C45.5264 37.0495 44.3895 36.874 43.1386 37.4655L30.8187 42.8899L30.8334 41.7175C30.6702 40.0769 29.407 38.7602 27.7746 38.5292L20.2722 37.6653C18.5415 37.4205 17.6767 36.8405 16.168 35.958C14.1082 34.753 11.7648 34.118 9.37842 34.118H8.17871" stroke="#FF073A" stroke-width="2" stroke-miterlimit="10" stroke-linecap="round" stroke-linejoin="round"/>
<path d="M26.9222 1.65288C27.5958 2.4898 28.7337 2.79458 29.7356 2.40669C31.2046 1.83784 32.8232 2.77241 33.0651 4.32896C33.23 5.39058 34.0629 6.22358 35.1247 6.38853C36.6812 6.63042 37.6158 8.24897 37.0469 9.71802C36.6589 10.72 36.9638 11.8577 37.8007 12.5314C39.0279 13.5192 39.0279 15.3881 37.8007 16.3759C36.9638 17.0496 36.6589 18.1874 37.0469 19.1893C37.6158 20.6583 36.6812 22.2769 35.1247 22.5188C34.0629 22.6837 33.23 23.5167 33.0651 24.5784C32.8232 26.1349 31.2046 27.0695 29.7356 26.5005C28.7337 26.1126 27.5958 26.4175 26.9222 27.2544C25.9344 28.4816 24.0655 28.4816 23.0777 27.2544C22.404 26.4175 21.2663 26.1126 20.2643 26.5005C18.7953 27.0695 17.1767 26.1349 16.9348 24.5784C16.7699 23.5167 15.937 22.6837 14.8752 22.5188C13.3187 22.2769 12.3841 20.6583 12.953 19.1893C13.341 18.1874 13.0361 17.0496 12.1992 16.3759C10.972 15.3881 10.972 13.5192 12.1992 12.5314C13.0361 11.8577 13.341 10.72 12.953 9.71802C12.3841 8.24897 13.3187 6.63042 14.8752 6.38853C15.937 6.22358 16.7699 5.39058 16.9348 4.32896C17.1767 2.77241 18.7953 1.83784 20.2643 2.40669C21.2663 2.79458 22.404 2.4898 23.0777 1.65288C24.0655 0.425734 25.9344 0.425734 26.9222 1.65288Z" stroke="#FF073A" stroke-width="2" stroke-miterlimit="10" stroke-linecap="round" stroke-linejoin="round"/>
<path d="M15.9045 12.7402C16.708 8.4479 20.4748 5.19937 25.0004 5.19937C30.1113 5.19937 34.2545 9.34263 34.2545 14.4536C34.2545 19.5645 30.1113 23.7078 25.0004 23.7078C20.4743 23.7078 16.7072 20.4585 15.9043 16.1655" stroke="#FF073A" stroke-width="2" stroke-miterlimit="10" stroke-linecap="round" stroke-linejoin="round"/>
<path d="M25.18 17.4005L28.1242 19.3467C28.376 19.513 28.6993 19.2781 28.6189 18.9873L27.6778 15.5858C27.6429 15.4597 27.6866 15.3249 27.7891 15.2434L30.5497 13.0446C30.7858 12.8567 30.6622 12.4765 30.3609 12.4631L26.835 12.307C26.7042 12.3012 26.5897 12.218 26.5437 12.0954L25.3057 8.79034C25.1998 8.50782 24.8001 8.50782 24.6943 8.79034L23.4563 12.0954C23.4104 12.218 23.2957 12.3012 23.1651 12.307L19.6392 12.4631C19.3377 12.4765 19.2143 12.8567 19.4502 13.0446L22.211 15.2434C22.3133 15.3249 22.357 15.4597 22.3222 15.5858L21.3812 18.9873C21.3007 19.2781 21.624 19.513 21.8758 19.3467L24.8199 17.4005C24.9291 17.3284 25.0708 17.3284 25.18 17.4005Z" stroke="#FF073A" stroke-width="2" stroke-miterlimit="10" stroke-linecap="round" stroke-linejoin="round"/>
<path d="M16.7659 23.9891L13.1608 30.9795C13.0023 31.2869 13.277 31.6385 13.6135 31.5593L17.6269 30.6139C17.8211 30.5682 18.0194 30.6706 18.0947 30.8551L19.6516 34.6732C19.7821 34.9934 20.2279 35.0132 20.3864 34.7059L23.8904 27.9116" stroke="#FF073A" stroke-width="2" stroke-miterlimit="10" stroke-linecap="round" stroke-linejoin="round"/>
<path d="M26.1099 27.9117L29.6139 34.7059C29.7723 35.0132 30.2181 34.9934 30.3486 34.6732L31.9055 30.8551C31.9808 30.6706 32.1792 30.5682 32.3732 30.6139L36.3867 31.5593C36.7232 31.6385 36.9979 31.2869 36.8395 30.9795L33.2344 23.9891" stroke="#FF073A" stroke-width="2" stroke-miterlimit="10" stroke-linecap="round" stroke-linejoin="round"/>
</g>
</svg>
