<svg width="46" height="46" viewBox="0 0 46 46" fill="none" xmlns="http://www.w3.org/2000/svg">
<g opacity="0.3">
<path fill-rule="evenodd" clip-rule="evenodd" d="M30.5467 12.0388C30.4843 12.452 30.3536 12.8394 30.1673 13.1908L34.1661 14.9236C34.5184 15.0762 34.7744 15.3492 34.9132 15.6699L36.5786 16.4031C37.6007 16.8531 38.3554 17.7526 38.621 18.8373L39.459 22.2589C39.795 23.6306 38.8707 24.9917 37.4717 25.185C36.34 25.3414 35.2568 24.6723 34.8899 23.5905L33.7079 20.1053L32.7296 19.7757C32.4093 19.9507 32.0262 20.0015 31.658 19.8999L30.1101 19.4729L27.5642 24.4193C27.5642 24.4193 29.2053 26.2535 29.9468 27.101C30.3063 27.5119 30.2973 28.117 29.9511 28.5162C30.6069 29.5934 31.1624 30.644 30.8664 31.9601L29.5955 37.6099C31.3649 38.3197 31.8982 39.9948 31.8195 41.7363C31.7934 42.312 31.319 42.7655 30.7424 42.7655H25.226C24.3797 42.7655 23.7165 42.0382 23.7947 41.1954L24.0301 38.6575C24.0632 38.3003 24.2253 37.9833 24.4677 37.7515L25.0588 31.7571L24.4961 31.0416C24.2257 31.3212 23.8099 31.4502 23.4056 31.326L22.5792 33.1722C21.7857 34.9445 19.7279 35.766 17.9321 35.0274L13.5537 33.2265C12.4916 34.8682 10.7218 35.0122 9.00094 34.6046C8.43464 34.4704 8.07699 33.9111 8.19289 33.3407L9.34062 27.6933C9.3766 27.5162 9.44301 27.3546 9.53289 27.212C7.77774 26.8087 6.46875 25.2369 6.46875 23.3593C6.46875 21.1761 8.23864 19.4062 10.4219 19.4062C12.6051 19.4062 14.375 21.1761 14.375 23.3593C14.375 24.9703 13.4113 26.3563 12.0289 26.9721C14.0128 27.8451 16.0342 28.5451 18.0684 29.2912L18.1301 29.0099C17.7882 28.7875 17.5963 28.3859 17.6487 27.9712C17.8531 26.3543 18.3503 22.6994 18.3503 22.6994C18.2625 22.448 18.2665 22.1628 18.3875 21.8975L20.6383 16.9602L17.8944 16.2882C17.2078 16.12 16.7713 15.4928 16.7994 14.8312L15.6375 14.4381L12.3 15.9644C11.3632 16.3928 10.2554 16.1412 9.59556 15.3502C8.68793 14.262 8.97949 12.6187 10.206 11.9092L13.5798 9.95777C14.4615 9.44774 15.5182 9.33587 16.4872 9.64992L19.1839 10.524C19.3943 10.4812 19.617 10.4852 19.8367 10.5433L23.3201 11.4646C23.3204 11.2369 23.3568 11.01 23.4283 10.7925L24.1516 8.59372C22.9787 7.77665 22.3882 6.22393 22.9288 4.74313C23.1289 4.19512 23.6555 3.8389 24.237 3.85817L28.0046 3.98291C30.1635 4.05435 31.781 6.01474 31.4498 8.15838L30.5467 12.0388ZM29.2062 14.341L33.5946 16.2426L32.0403 18.5142L30.2109 18.0096C29.7189 17.8738 29.1991 18.1017 28.9656 18.5555L26.2228 23.8844L19.8697 22.1115L22.1263 17.1616C22.4067 16.5464 22.0584 15.828 21.4018 15.6672L18.2363 14.8919L19.4692 11.933L23.6742 13.0451C24.2077 14.1993 25.3348 15.0087 26.6581 15.1045C27.5743 15.1708 28.4816 14.9117 29.2062 14.341ZM29.8736 8.9614C29.3369 8.51329 28.7633 7.82355 28.0162 7.78419C27.3382 7.72828 26.6458 7.75009 25.9656 7.73438C24.7237 7.70574 23.8673 6.47287 24.2563 5.30066L27.9661 5.4235C29.2614 5.46637 30.2319 6.6426 30.0332 7.92877L29.8736 8.9614ZM25.4872 9.1339L24.7938 11.2417C24.7285 11.4402 24.7751 11.6418 24.8032 11.8425C24.9426 12.8377 25.7553 13.5979 26.7619 13.6708C27.9004 13.7532 28.9522 12.9716 29.1253 11.8244L29.4688 10.6015L27.9075 9.22072C27.1106 9.20236 25.4872 9.1339 25.4872 9.1339ZM15.9632 13.0307L17.2703 13.473L18.0258 11.6598L16.044 11.0174C15.4626 10.829 14.8285 10.8961 14.2995 11.2021L10.9258 13.1535C10.471 13.4166 10.3629 14.0259 10.6994 14.4293C10.9441 14.7226 11.3548 14.8159 11.7022 14.6571L15.1693 13.0715C15.4191 12.9573 15.703 12.9427 15.9632 13.0307ZM33.7269 18.5948L34.7136 17.1527L35.9993 17.7187C36.6128 17.9887 37.0656 18.5284 37.2248 19.1792L38.0628 22.6009C38.1962 23.1447 37.8296 23.6844 37.2747 23.761C36.8262 23.823 36.3968 23.5578 36.2512 23.1288L35.0122 19.4752C34.8151 18.894 34.2429 18.7686 33.7269 18.5948ZM12.9375 23.3593C12.9375 21.9699 11.8112 20.8437 10.4219 20.8437C9.03253 20.8437 7.90625 21.9699 7.90625 23.3593C7.90625 24.7486 9.03253 25.8749 10.4219 25.8749C11.8112 25.8749 12.9375 24.7486 12.9375 23.3593ZM22.0857 30.7563L19.4697 29.6119L19.3843 30.0014C19.2444 30.6396 18.5734 31.0076 17.9599 30.7826L14.5632 29.5367L14.1127 31.902L18.4788 33.6979C19.5564 34.1411 20.7911 33.6482 21.2671 32.5848L22.0857 30.7563ZM26.4636 31.34C26.5033 31.473 26.5174 31.6137 26.5035 31.7543L25.9515 37.353H28.18L29.4639 31.6446C29.6537 30.8007 29.2591 30.144 28.8418 29.4583C28.1477 30.0362 26.4636 31.34 26.4636 31.34ZM12.6524 31.681C12.3695 33.1555 10.9604 33.5914 9.67093 33.286L10.7493 27.9796L13.1592 29.04L12.6524 31.681ZM28.5678 38.8124H25.4594L25.226 41.328H30.399C30.4528 40.1381 29.8548 38.9975 28.5678 38.8124ZM26.2005 29.7869L28.6225 27.7704L26.7307 25.6085L19.6546 23.5642L19.1086 27.8848L23.3594 29.7446V29.1256C23.3594 28.0668 24.7261 27.6423 25.3259 28.5148L26.2005 29.7869ZM20.517 39.028C20.591 39.4183 20.3349 39.7942 19.9449 39.8683L18.3232 40.1762C16.4323 40.5353 14.494 39.8539 13.2442 38.3901C12.9864 38.0883 13.0221 37.6347 13.324 37.3767C13.6258 37.119 14.0795 37.1546 14.3373 37.4565C15.2522 38.5278 16.6709 39.027 18.055 38.7643L19.6768 38.4563C20.0667 38.3822 20.4429 38.6381 20.517 39.028Z" fill="white"/>
</g>
</svg>
