<svg width="50" height="50" viewBox="0 0 50 50" fill="none" xmlns="http://www.w3.org/2000/svg">
<g clip-path="url(#clip0_227_2281)">
<path d="M31.6417 16.9406L27.6661 16.3633L25.8879 12.7598C25.7918 12.565 25.6342 12.4075 25.4395 12.3113C24.9503 12.0697 24.3579 12.2705 24.1164 12.7598L22.3382 16.3633L18.3615 16.9406C18.1462 16.9717 17.9472 17.0728 17.7954 17.2285C17.4144 17.619 17.4222 18.2445 17.8127 18.6254L20.6896 21.4299L20.0101 25.3901C20.0006 25.4451 19.996 25.501 19.996 25.5568C19.996 26.1024 20.4382 26.5447 20.9837 26.5447C21.1443 26.5435 21.3021 26.5033 21.4437 26.4272L25 24.5613L28.5563 26.4272C28.7485 26.5291 28.969 26.5647 29.1835 26.5286C29.7215 26.4377 30.0839 25.9281 29.9932 25.3901L29.3137 21.4299L32.1906 18.6254C32.3462 18.4736 32.4474 18.2746 32.4785 18.0594C32.5562 17.5193 32.1817 17.0184 31.6417 16.9406ZM27.5608 20.3695C27.3267 20.5972 27.2203 20.9259 27.2765 21.2476L27.7046 23.7469L25.46 22.5669C25.3178 22.4937 25.16 22.456 25 22.4571C24.8395 22.4583 24.6816 22.4986 24.5401 22.5746L22.2955 23.7546L22.7247 21.2553C22.7809 20.9336 22.6745 20.6049 22.4404 20.3772L20.6249 18.6067L23.134 18.2423C23.4559 18.1957 23.7341 17.9938 23.8782 17.7023L25 15.4281L26.1218 17.7023C26.2658 17.9938 26.5442 18.1958 26.866 18.2423L29.3763 18.6001L27.5608 20.3695Z" fill="#FF073A"/>
<path d="M24.9998 6.74048C17.9001 6.74048 12.1445 12.496 12.1445 19.5957C12.1445 26.6954 17.9001 32.451 24.9998 32.451C32.0963 32.4431 37.8472 26.6922 37.855 19.5957C37.855 12.496 32.0995 6.74048 24.9998 6.74048ZM24.9998 30.4753C18.9912 30.4753 14.1202 25.6043 14.1202 19.5957C14.1202 13.5871 18.9912 8.71618 24.9998 8.71618C31.0057 8.72287 35.8726 13.5899 35.8793 19.5957C35.8793 25.6044 31.0084 30.4753 24.9998 30.4753Z" fill="#FF073A"/>
<path d="M43.0931 22.2596L41.2447 22.9588C41.5323 23.7194 41.8901 24.6656 41.7672 25.0443C41.6288 25.4702 40.7914 26.0157 40.0515 26.4975C39.1734 27.0705 38.1746 27.7203 37.4886 28.6642C36.8026 29.6082 36.4788 30.7771 36.201 31.7979C35.9815 32.6003 35.7115 33.5991 35.3614 33.8537C35.0112 34.1084 33.997 34.0524 33.1662 34.0129C32.1048 33.9624 30.9018 33.9031 29.7702 34.2741C28.6726 34.6297 27.7605 35.3717 26.9526 36.0226C26.26 36.5825 25.4741 37.2169 25.0011 37.2169C24.5281 37.2169 23.7421 36.5825 23.0485 36.0205C22.2406 35.3674 21.3253 34.6276 20.232 34.2731C19.6064 34.07 18.905 33.9757 18.0237 33.9757C17.6165 33.9757 17.218 33.9943 16.8339 34.013C16.0096 34.0525 14.9844 34.1009 14.6453 33.8539C14.3062 33.6069 14.024 32.5982 13.8045 31.7958C13.5268 30.7739 13.2129 29.617 12.5181 28.6621C11.8232 27.7072 10.8343 27.0694 9.954 26.4954C9.21536 26.0136 8.37784 25.468 8.2395 25.0422C8.11654 24.6657 8.47549 23.7185 8.7631 22.9567C9.14402 21.9502 9.5742 20.8098 9.5742 19.5958C9.5742 18.3818 9.14279 17.2414 8.76199 16.2349C8.47438 15.4743 8.11654 14.5269 8.23838 14.1494C8.37672 13.7235 9.21413 13.178 9.954 12.6951C10.8321 12.1221 11.8298 11.4723 12.517 10.5295C13.2041 9.58665 13.5267 8.41659 13.8045 7.3958C14.024 6.59339 14.294 5.59456 14.6442 5.33995C14.9943 5.08534 16.0085 5.1413 16.8339 5.18076C17.8953 5.23126 19.0994 5.29056 20.2365 4.91957C21.3341 4.56396 22.2451 3.82197 23.0541 3.17106C23.7412 2.60911 24.5271 1.9757 25.0001 1.9757C25.4731 1.9757 26.2591 2.609 26.9516 3.17095C27.7595 3.82398 28.6748 4.56385 29.7692 4.91946C30.9019 5.28711 32.1059 5.23003 33.1718 5.18065C33.996 5.14219 35.0213 5.09392 35.3604 5.33984C35.6995 5.58575 35.9762 6.59216 36.1957 7.39569C36.4734 8.41759 36.7873 9.57449 37.4821 10.5294C38.177 11.4843 39.1659 12.1232 40.0462 12.6961C40.785 13.1779 41.6224 13.7234 41.7618 14.1493C41.8848 14.5268 41.5258 15.4741 41.2382 16.2348C40.8573 17.2413 40.426 18.3828 40.426 19.5957C40.426 20.8085 40.8574 21.9501 41.2382 22.9566L42.1624 22.6075L43.0865 22.2585C42.7341 21.3278 42.4016 20.4486 42.4016 19.5957C42.4016 18.7428 42.7309 17.8637 43.0854 16.9328C43.5431 15.7254 43.9766 14.5762 43.6396 13.539C43.2851 12.4491 42.1864 11.7335 41.124 11.0409C40.3557 10.5371 39.5521 10.0168 39.0791 9.36704C38.606 8.71724 38.346 7.7766 38.1012 6.87765C37.7554 5.6066 37.4294 4.40577 36.5173 3.74282C35.6052 3.07987 34.3813 3.14576 33.073 3.20718C32.1367 3.2511 31.1675 3.29714 30.3784 3.0403C29.6321 2.79773 28.8999 2.20612 28.193 1.63425C27.1952 0.830946 26.1722 0 25 0C23.8278 0 22.8048 0.830946 21.806 1.63547C21.0991 2.20735 20.367 2.79784 19.6206 3.04041C18.8314 3.29614 17.905 3.25333 16.926 3.20729C15.6176 3.14587 14.3817 3.08768 13.4806 3.74294C12.5794 4.39819 12.2425 5.60883 11.8967 6.87877C11.6519 7.77772 11.3995 8.70743 10.9187 9.36815C10.4379 10.0289 9.64767 10.5382 8.87391 11.042C7.81143 11.7346 6.71271 12.4503 6.35822 13.5402C6.02122 14.5774 6.45476 15.7222 6.91248 16.9351C7.26374 17.8659 7.59628 18.745 7.59628 19.5968C7.59628 20.4486 7.26697 21.3277 6.91248 22.2596C6.45476 23.467 6.02122 24.6174 6.35822 25.6534C6.71271 26.7444 7.81143 27.4601 8.87391 28.1527C9.6422 28.6565 10.4457 29.1767 10.9176 29.8265C11.3896 30.4763 11.6508 31.417 11.8956 32.3159C12.1063 33.093 12.3116 33.8438 12.6475 34.4617L8.6456 44.6959C8.44718 45.2042 8.69833 45.777 9.20655 45.9755C9.35794 46.0346 9.52159 46.0554 9.68289 46.0361L15.2807 45.3666L18.9369 49.6539C19.2913 50.0687 19.9149 50.1176 20.3297 49.7631C20.4544 49.6565 20.5506 49.5205 20.6097 49.3674L24.5996 39.1596C24.8652 39.2038 25.1363 39.2038 25.402 39.1596L29.3907 49.3674C29.5895 49.8755 30.1625 50.1262 30.6706 49.9274C30.8222 49.8681 30.9567 49.7723 31.0624 49.6484L34.7186 45.3611L40.3164 46.0307C40.8582 46.0948 41.3494 45.7074 41.4135 45.1656C41.4323 45.0066 41.4121 44.8454 41.3548 44.6959L37.3514 34.4596C37.6872 33.8417 37.8914 33.0909 38.1033 32.3138C38.347 31.4149 38.5993 30.4851 39.0813 29.8244C39.5631 29.1637 40.3523 28.6544 41.1261 28.1506C42.1885 27.458 43.2884 26.7423 43.6418 25.6524C43.9788 24.6151 43.5463 23.4714 43.0931 22.2596ZM19.3659 47.1162L16.4385 43.6817C16.2238 43.4304 15.8975 43.303 15.5692 43.3426L11.0865 43.8794L14.2356 35.8251C15.0204 36.0754 15.9522 36.0314 16.9247 35.9854C17.2869 35.9678 17.6613 35.9503 18.0223 35.9503C18.6896 35.9503 19.1979 36.0139 19.6205 36.1512C20.3668 36.3937 21.0979 36.9842 21.8059 37.5572C22.1352 37.8218 22.4645 38.0885 22.8025 38.3255L19.3659 47.1162ZM38.9133 43.8794L34.4317 43.3426C34.1033 43.3034 33.7769 43.431 33.5624 43.6828L30.6339 47.1173L27.1951 38.3276C27.5332 38.0884 27.8646 37.8216 28.1917 37.5593C28.8985 36.9875 29.6306 36.397 30.3771 36.1544C31.1652 35.8987 32.0904 35.9415 33.0728 35.9875C34.0551 36.0337 34.9771 36.0764 35.7619 35.8272L38.9133 43.8794Z" fill="#FF073A"/>
</g>
<defs>
<clipPath id="clip0_227_2281">
<rect width="50" height="50" fill="white"/>
</clipPath>
</defs>
</svg>
