<svg width="1087" height="266" viewBox="0 0 1087 266" fill="none" xmlns="http://www.w3.org/2000/svg">
<path d="M22.5438 0.5H1057.54C1078.21 2.14149 1084.79 8.42571 1085.54 31.5V103.5C1085.43 130.381 1078.28 136.784 1057.54 138.5H22.5438C8.66149 142.111 0.0179599 148.368 0.543804 166.5V209.5C-0.158362 232.417 7.5987 241.129 22.5438 243.5H1066.54" stroke="#949494" stroke-dasharray="6 6"/>
<g clip-path="url(#clip0_670_4737)">
<path fill-rule="evenodd" clip-rule="evenodd" d="M1080.27 243.462C1080.31 243.343 1080.31 243.217 1080.27 243.097C1079.41 240.272 1064.96 232.661 1060.46 231.454C1059.29 231.139 1058.45 231.312 1057.98 231.965C1056.62 233.855 1059.77 239.476 1061.6 242.409L1070.54 242.41C1071.06 242.41 1071.47 242.829 1071.47 243.347C1071.47 243.865 1071.06 244.285 1070.54 244.285L1061.51 244.283C1059.67 247.255 1056.64 252.732 1057.98 254.592C1058.03 254.662 1058.09 254.727 1058.15 254.787C1058.64 255.276 1059.42 255.382 1060.46 255.102C1064.96 253.897 1079.41 246.291 1080.27 243.462Z" fill="#FF073A"/>
</g>
<defs>
<clipPath id="clip0_670_4737">
<rect width="31.25" height="30" fill="white" transform="translate(1063.5 221.845) rotate(45)"/>
</clipPath>
</defs>
</svg>
