<svg width="24" height="24" viewBox="0 0 24 24" fill="none" xmlns="http://www.w3.org/2000/svg">
<path d="M16.4759 3.52344H4.65625C4.22128 3.52393 3.80427 3.69694 3.4967 4.00451C3.18913 4.31208 3.01612 4.72909 3.01562 5.16406V21.7049C3.01612 22.1398 3.18913 22.5569 3.4967 22.8644C3.80427 23.172 4.22128 23.345 4.65625 23.3455H16.4759C16.9109 23.345 17.3279 23.172 17.6355 22.8644C17.943 22.5569 18.116 22.1398 18.1165 21.7049V5.16406C18.116 4.72909 17.943 4.31208 17.6355 4.00451C17.3279 3.69694 16.9109 3.52393 16.4759 3.52344ZM17.179 21.7049C17.1788 21.8913 17.1047 22.07 16.9729 22.2018C16.841 22.3336 16.6623 22.4078 16.4759 22.408H4.65625C4.46984 22.4078 4.29112 22.3336 4.1593 22.2018C4.02749 22.07 3.95334 21.8913 3.95312 21.7049V5.16406C3.95334 4.97765 4.02748 4.79893 4.1593 4.66711C4.29111 4.5353 4.46983 4.46115 4.65625 4.46094H16.4759C16.6623 4.46114 16.8411 4.53529 16.9729 4.66711C17.1047 4.79892 17.1788 4.97765 17.179 5.16406V21.7049Z" fill="white"/>
<path d="M10.1062 9.77055C9.87166 9.87015 9.67189 10.037 9.53204 10.2499C9.3922 10.4629 9.31853 10.7125 9.32035 10.9673C9.32035 11.6777 9.87953 12.2556 10.5669 12.2556C10.7372 12.2556 10.8759 12.413 10.8759 12.6065C10.8759 12.7999 10.7372 12.9573 10.5669 12.9573C10.3965 12.9573 10.2578 12.7999 10.2578 12.6065C10.2578 12.4821 10.2085 12.3629 10.1206 12.275C10.0326 12.1871 9.91342 12.1377 9.7891 12.1377C9.66478 12.1377 9.54555 12.1871 9.45764 12.275C9.36973 12.3629 9.32035 12.4821 9.32035 12.6065C9.31853 12.8612 9.39219 13.1109 9.53204 13.3238C9.67189 13.5368 9.87167 13.7036 10.1062 13.8032C10.126 13.9109 10.1829 14.0083 10.2671 14.0785C10.3512 14.1486 10.4573 14.187 10.5669 14.187C10.6764 14.187 10.7825 14.1486 10.8666 14.0785C10.9508 14.0083 11.0077 13.9109 11.0275 13.8032C11.262 13.7036 11.4618 13.5368 11.6017 13.3238C11.7415 13.1109 11.8152 12.8612 11.8134 12.6064C11.8134 11.8961 11.2542 11.3181 10.5669 11.3181C10.3965 11.3181 10.2578 11.1607 10.2578 10.9673C10.2578 10.7738 10.3965 10.6165 10.5669 10.6165C10.7372 10.6165 10.8759 10.7738 10.8759 10.9673C10.8759 11.0916 10.9253 11.2108 11.0132 11.2987C11.1011 11.3867 11.2203 11.436 11.3446 11.436C11.4689 11.436 11.5882 11.3867 11.6761 11.2987C11.764 11.2108 11.8134 11.0916 11.8134 10.9673C11.8152 10.7125 11.7415 10.4629 11.6017 10.2499C11.4618 10.0369 11.262 9.87014 11.0275 9.77054C11.0078 9.66279 10.9508 9.56538 10.8667 9.49525C10.7825 9.42512 10.6764 9.38672 10.5669 9.38672C10.4573 9.38672 10.3512 9.42512 10.267 9.49525C10.1829 9.56538 10.126 9.66279 10.1062 9.77055Z" fill="white"/>
<path d="M13.4498 8.7877C13.4024 8.82701 13.3633 8.87526 13.3345 8.92971C13.3058 8.98415 13.2881 9.04373 13.2824 9.10502C13.2767 9.16631 13.2831 9.22813 13.3013 9.28694C13.3195 9.34575 13.3491 9.4004 13.3884 9.44777C13.7316 9.86222 13.9795 10.3471 14.1144 10.868C14.2494 11.3889 14.2681 11.9331 14.1693 12.462C14.0705 12.991 13.8566 13.4918 13.5427 13.9288C13.2288 14.3659 12.8227 14.7286 12.353 14.9912C12.3945 14.9246 12.4164 14.8476 12.416 14.769C12.4156 14.6905 12.3931 14.6137 12.351 14.5475C12.3088 14.4812 12.2488 14.4282 12.1779 14.3946C12.1069 14.361 12.0279 14.3481 11.95 14.3574C11.8957 14.3639 11.8432 14.3811 11.7955 14.4079C11.7478 14.4347 11.7059 14.4706 11.6721 14.5136L10.8234 15.5939C10.7551 15.6808 10.7242 15.7912 10.7373 15.9009C10.7505 16.0106 10.8067 16.1105 10.8936 16.1788L11.9739 17.0275C12.0169 17.0614 12.0661 17.0865 12.1188 17.1013C12.1716 17.1162 12.2267 17.1205 12.2811 17.114C12.3354 17.1075 12.388 17.0904 12.4357 17.0635C12.4835 17.0367 12.5255 17.0007 12.5593 16.9577C12.5931 16.9146 12.6181 16.8653 12.6329 16.8125C12.6476 16.7598 12.6518 16.7047 12.6452 16.6503C12.6386 16.5959 12.6214 16.5434 12.5945 16.4957C12.5676 16.448 12.5315 16.4061 12.4884 16.3724L12.1527 16.1088C12.8442 15.8548 13.4646 15.4386 13.9619 14.8951C14.4592 14.3516 14.8188 13.6968 15.0105 12.9855C15.2022 12.2743 15.2205 11.5274 15.0638 10.8077C14.9071 10.0879 14.5799 9.41622 14.1098 8.84908C14.0304 8.75342 13.9163 8.69321 13.7925 8.6817C13.6687 8.67019 13.5455 8.70832 13.4498 8.7877Z" fill="white"/>
<path d="M7.74173 14.1296C7.39852 13.7152 7.15067 13.2304 7.01572 12.7094C6.88076 12.1885 6.86202 11.6443 6.96082 11.1154C7.05962 10.5864 7.27353 10.0857 7.58741 9.6486C7.90129 9.21153 8.30745 8.84883 8.77712 8.58621C8.7356 8.65285 8.71376 8.72987 8.71412 8.80838C8.71449 8.8869 8.73704 8.96371 8.77917 9.02996C8.8213 9.09621 8.8813 9.14921 8.95225 9.18283C9.0232 9.21646 9.10221 9.22934 9.18017 9.22C9.23448 9.21348 9.28697 9.19633 9.33465 9.16952C9.38233 9.14272 9.42426 9.10678 9.45805 9.06377L10.3068 7.98349C10.375 7.89663 10.406 7.78621 10.3928 7.67653C10.3796 7.56685 10.3234 7.46689 10.2366 7.39865L9.15628 6.54993C9.11327 6.51614 9.06402 6.49115 9.01135 6.47639C8.95868 6.46163 8.90362 6.45739 8.84931 6.46391C8.76751 6.47373 8.69046 6.50759 8.6279 6.5612C8.56535 6.61482 8.5201 6.68579 8.49788 6.76512C8.47566 6.84446 8.47746 6.9286 8.50307 7.00691C8.52868 7.08522 8.57694 7.15418 8.64174 7.20506L8.97742 7.46863C8.28596 7.72262 7.66554 8.13883 7.16827 8.68229C6.67099 9.22576 6.31138 9.88061 6.11964 10.5919C5.9279 11.3031 5.90962 12.05 6.06634 12.7697C6.22306 13.4895 6.5502 14.1612 7.02029 14.7283C7.05944 14.7762 7.10767 14.8158 7.16221 14.845C7.21675 14.8741 7.27652 14.8922 7.33808 14.8982C7.39963 14.9041 7.46176 14.8978 7.52087 14.8796C7.57998 14.8615 7.63492 14.8318 7.68251 14.7923C7.7301 14.7528 7.7694 14.7043 7.79816 14.6495C7.82691 14.5948 7.84455 14.5349 7.85006 14.4733C7.85556 14.4117 7.84882 14.3496 7.83023 14.2907C7.81164 14.2317 7.78156 14.177 7.74173 14.1296Z" fill="white"/>
<path d="M12.4069 18.0039H8.73145C8.42153 18.0043 8.1244 18.1275 7.90526 18.3467C7.68612 18.5658 7.56285 18.8629 7.5625 19.1729V19.7079C7.56285 20.0179 7.68612 20.315 7.90526 20.5341C8.12441 20.7533 8.42153 20.8765 8.73145 20.8769H12.4069C12.7169 20.8765 13.014 20.7533 13.2331 20.5341C13.4523 20.315 13.5755 20.0179 13.5759 19.7079V19.1729C13.5755 18.8629 13.4523 18.5658 13.2331 18.3467C13.014 18.1275 12.7169 18.0042 12.4069 18.0039ZM12.6384 19.7079C12.6383 19.7693 12.6139 19.8281 12.5705 19.8715C12.5271 19.9149 12.4683 19.9393 12.4069 19.9394H8.73145C8.67008 19.9393 8.61125 19.9149 8.56786 19.8715C8.52447 19.8281 8.50007 19.7693 8.5 19.7079V19.1729C8.50007 19.1115 8.52447 19.0527 8.56786 19.0093C8.61125 18.9659 8.67008 18.9415 8.73145 18.9414H12.4069C12.4683 18.9415 12.5271 18.9659 12.5705 19.0093C12.6139 19.0527 12.6383 19.1115 12.6384 19.1729V19.7079Z" fill="white"/>
<path d="M19.3431 0.65625H7.52344C7.08847 0.656746 6.67146 0.829757 6.36389 1.13733C6.05632 1.4449 5.88331 1.86191 5.88281 2.29688V2.54407C5.88281 2.66839 5.9322 2.78761 6.02011 2.87552C6.10801 2.96343 6.22724 3.01282 6.35156 3.01282C6.47588 3.01282 6.59511 2.96343 6.68302 2.87552C6.77093 2.78761 6.82031 2.66839 6.82031 2.54407V2.29688C6.82052 2.11046 6.89467 1.93174 7.02649 1.79992C7.1583 1.66811 7.33702 1.59396 7.52344 1.59375H19.3431C19.5295 1.59396 19.7083 1.6681 19.8401 1.79992C19.9719 1.93174 20.046 2.11046 20.0462 2.29688V18.8377C20.046 19.0241 19.9719 19.2028 19.8401 19.3347C19.7083 19.4665 19.5295 19.5406 19.3431 19.5408H19.0822C18.9579 19.5408 18.8387 19.5902 18.7508 19.6781C18.6629 19.766 18.6135 19.8853 18.6135 20.0096C18.6135 20.1339 18.6629 20.2531 18.7508 20.341C18.8387 20.4289 18.9579 20.4783 19.0822 20.4783H19.3431C19.7781 20.4778 20.1951 20.3048 20.5027 19.9973C20.8102 19.6897 20.9833 19.2727 20.9837 18.8377V2.29688C20.9833 1.86191 20.8102 1.4449 20.5027 1.13733C20.1951 0.829757 19.7781 0.656746 19.3431 0.65625Z" fill="white"/>
</svg>
