<svg width="24" height="24" viewBox="0 0 24 24" fill="none" xmlns="http://www.w3.org/2000/svg">
<path d="M20.6719 9.92079H20.6125V8.46534C20.6125 3.79007 16.8225 0 12.1472 0C7.47184 0 3.68183 3.79007 3.68183 8.46534V9.92079H3.32541C2.01847 9.92079 1.00858 11.0792 1.00858 12.4159V16.1287C0.975667 17.4242 1.99925 18.5011 3.29477 18.5341C3.305 18.5343 3.31518 18.5345 3.32541 18.5346H5.52342C5.83475 18.52 6.07529 18.2557 6.06063 17.9444C6.06011 17.9332 6.05926 17.922 6.05807 17.9108V10.6336C6.05807 10.2772 5.85016 9.92073 5.52342 9.92073H4.86995V8.46529C4.86995 4.44621 8.1281 1.18806 12.1472 1.18806C16.1662 1.18806 19.4244 4.44621 19.4244 8.46529V9.92073H18.7709C18.4442 9.92073 18.2363 10.2771 18.2363 10.6336V17.9108C18.2031 18.2207 18.4275 18.4989 18.7374 18.532C18.7485 18.5332 18.7597 18.5341 18.7709 18.5346H19.4541L19.3947 18.6237C18.5034 19.8082 17.1048 20.502 15.6224 20.4949C15.2979 18.9037 13.7447 17.8767 12.1535 18.2013C10.7927 18.4788 9.81158 19.6706 9.80061 21.0593C9.81687 22.6882 11.142 24 12.7709 23.9999C13.5773 23.9868 14.3459 23.6559 14.9095 23.0791C15.2898 22.6896 15.539 22.1912 15.6224 21.6533C17.4788 21.6604 19.2294 20.7905 20.3451 19.3068L20.9095 18.4751C22.1867 18.386 22.9887 17.584 22.9887 16.4256V12.7127C22.9888 11.4356 22.0383 9.92079 20.6719 9.92079ZM4.86995 17.3465H3.32541C2.68581 17.3309 2.17993 16.7999 2.19551 16.1603C2.1958 16.1498 2.19619 16.1392 2.19671 16.1287V12.4158C2.19671 11.7326 2.67194 11.1089 3.32541 11.1089H4.86995V17.3465ZM14.0482 22.2475C13.719 22.6044 13.2565 22.8088 12.771 22.8119C11.8046 22.7965 11.0203 22.0254 10.9888 21.0594C10.9884 20.0915 11.7727 19.3066 12.7405 19.3062C13.7084 19.3058 14.4933 20.0901 14.4937 21.058C14.4937 21.0584 14.4937 21.0589 14.4937 21.0594C14.5185 21.5004 14.3568 21.9315 14.0482 22.2475ZM21.8006 16.4257C21.8006 17.2277 21.0283 17.3465 20.6719 17.3465H19.4244V11.1089H20.6719C21.3254 11.1089 21.8006 12.0297 21.8006 12.7129V16.4257Z" fill="white"/>
</svg>
