<svg width="48" height="48" viewBox="0 0 48 48" fill="none" xmlns="http://www.w3.org/2000/svg">
<g opacity="0.3" clip-path="url(#clip0_415_24098)">
<path d="M24.0025 23.0831C19.4489 23.0831 15.7441 19.3783 15.7441 14.8247C15.7441 10.2711 19.4489 6.56641 24.0025 6.56641C28.5565 6.56641 32.2608 10.2711 32.2608 14.8247C32.2608 19.3783 28.5561 23.0831 24.0025 23.0831ZM24.0025 8.54975C20.5422 8.54975 17.7274 11.365 17.7274 14.8248C17.7274 18.2847 20.5427 21.0999 24.0025 21.0999C27.4623 21.0999 30.2776 18.2847 30.2776 14.8248C30.2776 11.365 27.4623 8.54975 24.0025 8.54975Z" fill="white"/>
<path d="M23.9992 41.4329C18.9107 41.4329 14.1161 39.467 10.4982 35.8977C10.3063 35.7082 10.1997 35.4489 10.2032 35.1793C10.2295 33.0775 10.7159 31.064 11.649 29.1952C14.0027 24.481 18.7347 21.5527 23.9993 21.5527C31.5158 21.5527 37.7076 27.6657 37.8013 35.1793C37.8047 35.449 37.6981 35.7083 37.5057 35.8977C33.8883 39.4675 29.0917 41.4329 23.9992 41.4329ZM12.1988 34.782C15.4048 37.7951 19.5781 39.4496 23.9992 39.4496C28.4239 39.4496 32.5996 37.7956 35.8056 34.7825C35.5046 28.5432 30.2946 23.5354 23.9992 23.5354C19.4913 23.5354 15.4385 26.0432 13.4234 30.0806C12.6872 31.5553 12.2762 33.1344 12.1988 34.782Z" fill="white"/>
<path d="M39.1381 21.2093C36.1295 21.2093 33.6816 18.7614 33.6816 15.7528C33.6816 12.7442 36.1295 10.2969 39.1381 10.2969C42.1467 10.2969 44.5946 12.7448 44.5946 15.7534C44.5946 18.762 42.1472 21.2093 39.1381 21.2093ZM39.1381 12.2801C37.2233 12.2801 35.665 13.8384 35.665 15.7533C35.665 17.6681 37.2233 19.2264 39.1381 19.2264C41.053 19.2264 42.6113 17.6681 42.6113 15.7533C42.6113 13.8384 41.0534 12.2801 39.1381 12.2801Z" fill="white"/>
<path d="M39.1346 32.485C37.9997 32.485 36.8771 32.3289 35.7983 32.0204C35.2713 31.8701 34.9663 31.3213 35.117 30.7947C35.2677 30.2677 35.8151 29.9618 36.3427 30.1134C37.2445 30.3707 38.1841 30.5012 39.1346 30.5012C41.698 30.5012 44.1191 29.5651 45.9987 27.8565C45.7354 24.3075 42.7407 21.4873 39.1346 21.4873C36.5118 21.4873 34.1542 22.947 32.9821 25.2966C32.9216 25.4161 32.4075 26.6536 31.5214 26.1915C30.5645 25.6922 31.1282 24.5691 31.2086 24.4085C32.7179 21.384 35.7552 19.5039 39.1346 19.5039C43.9614 19.5039 47.9388 23.4283 48.0003 28.2526C48.0037 28.5217 47.8972 28.7811 47.7053 28.9705C45.4121 31.237 42.3678 32.485 39.1346 32.485Z" fill="white"/>
<path d="M8.86079 21.2093C5.85218 21.2093 3.4043 18.7614 3.4043 15.7528C3.4043 12.7442 5.85218 10.2969 8.86079 10.2969C11.8694 10.2969 14.3173 12.7448 14.3173 15.7534C14.3173 18.762 11.8694 21.2093 8.86079 21.2093ZM8.86079 12.2801C6.94547 12.2801 5.38765 13.8384 5.38765 15.7533C5.38765 17.6681 6.94595 19.2264 8.86079 19.2264C10.7756 19.2264 12.3339 17.6681 12.3339 15.7533C12.3339 13.8384 10.7756 12.2801 8.86079 12.2801Z" fill="white"/>
<path d="M8.86025 32.4844C5.62509 32.4844 2.5827 31.2359 0.2941 28.9695C0.102749 28.7801 -0.00334502 28.5218 8.04473e-05 28.2526C0.0615486 23.4287 4.03652 19.5039 8.86025 19.5039C12.2427 19.5039 15.2825 21.384 16.7933 24.411C16.8711 24.5662 17.3094 25.8221 16.4908 26.1816C15.6821 26.5366 15.0802 25.419 15.0197 25.298C13.8461 22.9469 11.4865 21.4872 8.86073 21.4872C5.25761 21.4872 2.26489 24.3074 2.00208 27.8569C3.87772 29.565 6.29629 30.5011 8.86073 30.5011C9.81815 30.5011 10.7597 30.3687 11.6592 30.1089C12.1852 29.9557 12.735 30.2596 12.8873 30.7857C13.0395 31.3118 12.7366 31.8616 12.2105 32.0138C11.1316 32.3256 10.0042 32.4844 8.86025 32.4844Z" fill="white"/>
</g>
<defs>
<clipPath id="clip0_415_24098">
<rect width="48" height="48" fill="white"/>
</clipPath>
</defs>
</svg>
