<svg width="24" height="24" viewBox="0 0 24 24" fill="none" xmlns="http://www.w3.org/2000/svg">
<path d="M21.9539 9.14972C23.3521 7.22125 21.9324 4.44287 19.5325 4.45628C17.1298 4.44287 15.7107 7.22777 17.115 9.15506C16.6238 9.32401 16.1762 9.62038 15.823 10.0127C15.5264 9.84826 15.2083 9.71831 14.874 9.62802C17.1724 7.17592 15.3983 3.05746 12.003 3.06838C8.60783 3.05741 6.83337 7.17663 9.13199 9.62802C8.79202 9.71981 8.46879 9.85271 8.16792 10.0211C7.81764 9.63018 7.37238 9.34005 6.8757 9.1778C8.26679 7.24854 6.84589 4.47728 4.44976 4.49074C2.04735 4.47733 0.628085 7.26166 2.03188 9.18905C0.851651 9.5909 0 10.7094 0 12.0238V17.7963C0 18.1846 0.31484 18.4995 0.703185 18.4995H5.98111V20.2269C5.98111 20.6152 6.29595 20.9301 6.68429 20.9301H17.3218C17.7101 20.9301 18.0249 20.6152 18.0249 20.2269V18.465H23.2968C23.6852 18.465 24 18.1502 24 17.7619V11.9894C24 10.6696 23.1415 9.54739 21.9539 9.14972ZM19.5325 5.86265C20.3961 5.86265 21.0987 6.56523 21.0987 7.42879C21.0126 9.50647 18.0521 9.5059 17.9664 7.42879C17.9664 6.56523 18.669 5.86265 19.5325 5.86265ZM20.5147 10.4013L20.3965 10.6061C20.0429 11.2425 19.0877 11.2424 18.7342 10.6061L18.616 10.4013H20.5147ZM12.003 4.47471C13.3833 4.47471 14.5062 5.5976 14.5062 6.97786C14.3687 10.2987 9.63678 10.2977 9.49975 6.97786C9.4998 5.5976 10.6227 4.47471 12.003 4.47471ZM13.0514 10.8875L12.8312 11.2689C12.4777 11.9054 11.5222 11.9052 11.1688 11.2689L10.9486 10.8875H13.0514ZM4.44976 5.89711C5.31332 5.89711 6.01589 6.59968 6.01589 7.46324C5.92982 9.54092 2.96936 9.54036 2.88362 7.46324C2.88362 6.59968 3.5862 5.89711 4.44976 5.89711ZM5.35977 10.4357L5.26147 10.6061C4.90786 11.2425 3.95261 11.2423 3.59914 10.6061L3.50083 10.4357H5.35977ZM5.98111 13.7418V17.0931H1.40637V12.0238C1.40637 11.4994 1.662 11.0337 2.05508 10.7444L2.38117 11.3092C3.2528 12.8783 5.60804 12.878 6.47939 11.3092L6.82756 10.7062C6.91325 10.7639 6.99327 10.8301 7.06659 10.9041C6.392 11.6581 5.98111 12.6528 5.98111 13.7418ZM16.6186 19.5237H7.38748V13.7418C7.38748 12.4615 8.23486 11.3754 9.39821 11.0148L9.95087 11.9721C10.8224 13.5412 13.1777 13.5408 14.0491 11.9721L14.6026 11.0133C15.7686 11.3724 16.6186 12.4597 16.6186 13.7418V19.5237ZM22.5936 17.0587H18.0249V13.7418C18.0249 12.647 17.6097 11.6473 16.9286 10.8918C17.0008 10.8196 17.079 10.7539 17.1622 10.6959L17.5163 11.3093C18.3879 12.8784 20.7431 12.878 21.6145 11.3093L21.9559 10.7179C22.3428 11.0078 22.5937 11.4699 22.5937 11.9894V17.0587H22.5936Z" fill="white"/>
<path d="M9.50006 14.6855C9.11171 14.6855 8.79688 15.0004 8.79688 15.3887C8.83391 16.3215 10.1664 16.3212 10.2032 15.3887C10.2032 15.0004 9.88841 14.6855 9.50006 14.6855Z" fill="white"/>
<path d="M3.1524 13.0605C2.76406 13.0605 2.44922 13.3754 2.44922 13.7637C2.48625 14.6965 3.8187 14.6962 3.85559 13.7637C3.85559 13.3754 3.5408 13.0605 3.1524 13.0605Z" fill="white"/>
<path d="M20.8067 13.0605C20.4184 13.0605 20.1035 13.3754 20.1035 13.7637C20.1406 14.6965 21.473 14.6962 21.5099 13.7637C21.5099 13.3754 21.1951 13.0605 20.8067 13.0605Z" fill="white"/>
</svg>
