<svg width="50" height="50" viewBox="0 0 50 50" fill="none" xmlns="http://www.w3.org/2000/svg">
<g opacity="0.3">
<path fill-rule="evenodd" clip-rule="evenodd" d="M23.4681 10.8926L25.2111 10.0916L27.3585 10.5342C27.5276 10.5691 27.6957 10.5914 27.8619 10.6019L28.0696 12.6442C28.1009 12.9526 27.932 13.2715 27.8359 13.5559C27.4791 14.6116 26.4189 15.2549 25.3136 15.0833C24.1086 14.8962 23.2445 13.8056 23.3379 12.5885L23.4681 10.8926ZM29.6241 12.4861L29.4069 10.3504C30.8428 9.76784 31.8415 8.27042 31.6305 6.57425C31.5523 5.94499 31.0814 5.43925 30.4607 5.3178L26.7073 4.58331C24.2898 4.11026 22.0291 5.97972 22.0291 8.45206V9.22366L21.78 12.4689C21.6975 13.5435 22.0615 14.558 22.7207 15.3213L22.6894 15.6037L20.5952 15.3356C18.0104 15.0129 15.646 16.827 15.2885 19.4072C15.2448 19.7225 15.3191 20.0959 15.4927 20.3429L15.2909 22.9125C15.1942 24.1441 15.7532 25.384 16.6014 26.1712C16.6014 26.1712 15.0192 30.7384 14.2533 32.8592C14.1078 33.2623 14.197 33.6893 14.446 33.9964L10.452 38.8336C10.2141 38.921 9.99266 39.0688 9.8113 39.2786L7.6777 41.7473C7.1693 42.3356 7.17075 43.2083 7.68106 43.7946L8.93583 45.2368C9.6777 46.0895 10.7526 46.5794 11.8829 46.5794H14.0161C16.4951 46.5794 17.277 43.2329 15.0547 42.1344L14.4807 41.8508L19.5972 36.9484C19.9436 36.6165 20.2135 36.2259 20.4269 35.7979C20.8874 35.8253 21.3312 35.5778 21.5441 35.1521L22.5456 33.1491L24.6506 34.7279C24.8541 34.8805 25.0931 34.9578 25.332 34.9621L24.4377 37.3015C23.3607 38.1326 22.8982 39.5622 23.3216 40.8868L24.2505 43.7934C24.7955 45.4989 26.6823 46.3739 28.3363 45.6884C29.2467 45.311 29.8933 44.5333 30.1276 43.6251C30.9079 44.4247 31.9974 44.9212 33.2029 44.9212C35.576 44.9212 37.4998 42.9973 37.4998 40.6243C37.4998 38.2512 35.576 36.3274 33.2029 36.3274C32.3931 36.3274 31.6357 36.5514 30.9891 36.9408L32.1127 34.8657C33.1007 33.0408 32.4893 30.7619 30.7206 29.6765L26.5479 27.116L28.7817 22.8023C29.7309 23.1951 30.6186 23.556 31.6259 23.761L35.4048 27.896C35.8974 28.435 36.6136 28.7128 37.3408 28.6469C39.1409 28.4836 40.0823 26.4259 39.0283 24.9573L36.1325 20.9218C35.5468 20.1057 34.7211 19.658 33.7866 19.3651C33.6815 18.8579 33.327 18.409 32.7941 18.2135C31.0611 17.5781 27.3905 16.3066 27.3905 16.3066C28.2703 15.8652 28.9809 15.0481 29.3161 14.0562C29.4906 13.5402 29.6807 13.0426 29.6241 12.4861ZM26.3086 24.1802L27.5591 21.7654C27.8389 21.2251 28.4856 20.9888 29.0478 21.2215L30.9165 21.9947L32.2562 19.6805L27.1794 17.8549L27.131 18.2099C26.9721 19.375 25.977 20.2437 24.8011 20.2437C23.3995 20.2437 22.3092 19.0255 22.464 17.6325L22.5167 17.1577L20.4016 16.886C18.7875 16.6846 17.3013 17.7233 16.9068 19.2628H19.2009C19.899 19.2628 20.4422 19.8692 20.3657 20.5631L20.1995 22.0701L24.9474 23.2628C25.5235 23.4076 25.991 23.7433 26.3086 24.1802ZM24.0169 17.8051L24.1758 16.3753C24.4585 16.4928 24.7591 16.5784 25.0738 16.6273C25.3056 16.6633 25.5362 16.6779 25.7637 16.6724L25.5828 17.9988C25.5295 18.3898 25.1956 18.6812 24.8011 18.6812C24.3308 18.6812 23.965 18.2725 24.0169 17.8051ZM25.5341 8.55878C24.8337 8.4144 24.1995 8.83694 23.5899 9.11706V8.43991C23.5899 6.95651 24.9463 5.83483 26.3968 6.11866L30.0884 6.84105C30.2145 8.17757 29.0067 9.2746 27.6843 9.00198L25.5341 8.55878ZM9.23118 17.8091C9.142 18.2312 9.41188 18.6458 9.83403 18.735C10.2562 18.8242 10.6707 18.5543 10.7599 18.1322C11.15 16.2864 11.9732 14.6514 13.5514 13.5316C13.9033 13.2819 13.9861 12.7943 13.7365 12.4424C13.4868 12.0905 12.9991 12.0076 12.6472 12.2573C10.7487 13.6045 9.70262 15.5782 9.23118 17.8091ZM32.4729 22.4248L33.3716 20.8724C33.9619 21.0575 34.4898 21.3126 34.863 21.8328L37.7588 25.8682C38.108 26.3548 37.7961 27.0366 37.1997 27.0907C36.9587 27.1126 36.7214 27.0205 36.5582 26.8419C35.3105 25.4766 32.4729 22.4248 32.4729 22.4248ZM28.2541 30.3376L25.3171 33.2746L23.1086 31.6183C22.5237 31.1796 21.6843 31.3778 21.3574 32.0317L20.289 34.1685L15.8675 32.9894L17.9034 27.3518L25.1142 28.3191L28.2541 30.3376ZM29.8225 30.9586C30.8999 31.6198 31.3583 32.9773 30.7386 34.1218L28.1395 38.9223C27.8292 39.4954 27.1287 39.7313 26.5349 39.4626C25.9361 39.1915 25.6519 38.5011 25.8866 37.8871L27.2026 34.4447C27.308 34.1689 27.304 33.8684 27.2002 33.6013C28.0494 32.7521 29.8225 30.9586 29.8225 30.9586ZM15.8852 34.6113L18.8602 35.4046C18.8602 35.4046 15.0671 39.1251 13.3171 40.8016C12.5088 41.5759 11.2214 40.2759 11.9081 39.4716L15.3356 35.4551C15.555 35.1981 15.7395 34.9143 15.8852 34.6113ZM28.3331 40.8235C27.5954 41.2036 26.6993 41.252 25.8908 40.886C25.4043 40.6661 25.0098 40.3231 24.7287 39.9098C24.7287 39.9098 25.4023 42.2649 25.7388 43.318C26.0055 44.1524 26.9286 44.5805 27.7379 44.245C28.3838 43.977 28.7583 43.2977 28.6399 42.6087L28.3331 40.8235ZM10.3131 41.0876C10.7163 42.0462 11.6991 42.6684 12.7338 42.6321C13.2213 43.0196 13.8079 43.261 14.3623 43.5352C15.1031 43.9012 14.8425 45.0169 14.0161 45.0169H11.8829C11.2047 45.0169 10.5598 44.7231 10.1146 44.2114L8.85985 42.7692L10.3131 41.0876ZM35.9373 40.6243C35.9373 39.1141 34.7131 37.8899 33.2029 37.8899C31.6928 37.8899 30.4686 39.1141 30.4686 40.6243C30.4686 42.1344 31.6928 43.3587 33.2029 43.3587C34.7131 43.3587 35.9373 42.1344 35.9373 40.6243ZM18.7648 20.8253H17.0221L16.8486 23.0348C16.7536 24.2457 17.5993 25.3286 18.7971 25.5297L24.2191 26.44C24.5863 26.5016 24.9509 26.3169 25.1184 25.9843C25.3632 25.4984 25.0944 24.9108 24.5667 24.7782L19.4883 23.5025C18.9203 23.3598 18.5448 22.8197 18.609 22.2375L18.7648 20.8253Z" fill="white"/>
</g>
</svg>
