<svg width="36" height="36" viewBox="0 0 36 36" fill="none" xmlns="http://www.w3.org/2000/svg">
<path d="M29.9945 13.2332C28.3307 6.60498 21.6088 2.58059 14.9806 4.24442C9.80078 5.54471 6.03968 10.0215 5.65216 15.3479C1.97431 15.9544 -0.515536 19.4275 0.0909836 23.1054C0.630151 26.375 3.46329 28.7696 6.77704 28.7564H12.4014V26.5067H6.77704C4.29205 26.5067 2.27753 24.4921 2.27753 22.0071C2.27753 19.5222 4.29205 17.5076 6.77704 17.5076C7.39832 17.5076 7.90192 17.004 7.90192 16.3828C7.89629 10.7915 12.4244 6.2543 18.0157 6.24874C22.8557 6.24389 27.0222 9.66563 27.9585 14.4142C28.0509 14.8884 28.4357 15.2506 28.9146 15.3141C31.9899 15.7521 34.1278 18.6 33.6899 21.6752C33.2967 24.4367 30.939 26.4927 28.1497 26.5067H23.6502V28.7564H28.1497C32.4985 28.7433 36.0132 25.2072 35.9999 20.8584C35.989 17.2384 33.5111 14.0922 29.9945 13.2332Z" fill="#03202F"/>
<path d="M17.227 17.834L12.7275 22.3335L14.3136 23.9195L16.9008 21.3436V32.1311H19.1506V21.3436L21.7266 23.9195L23.3126 22.3335L18.8131 17.834C18.3744 17.3978 17.6658 17.3978 17.227 17.834Z" fill="#03202F"/>
</svg>
