<svg width="50" height="50" viewBox="0 0 50 50" fill="none" xmlns="http://www.w3.org/2000/svg">
<g clip-path="url(#clip0_227_2234)">
<path d="M40.2493 15.814V11.683C40.2493 5.63516 35.3466 0.732422 29.2987 0.732422C26.5446 0.732422 24.0283 1.74941 22.104 3.42793" stroke="#FF073A" stroke-width="1.8" stroke-miterlimit="10" stroke-linecap="round" stroke-linejoin="round"/>
<path d="M19.9083 6.04736C18.9181 7.69385 18.3481 9.62178 18.3481 11.683V15.814" stroke="#FF073A" stroke-width="1.8" stroke-miterlimit="10" stroke-linecap="round" stroke-linejoin="round"/>
<path d="M21.3596 14.9648H20.3774C18.8031 14.9648 17.5269 16.2411 17.5269 17.8154C17.5269 19.3897 18.8031 20.666 20.3774 20.666H21.8088" stroke="#FF073A" stroke-width="1.8" stroke-miterlimit="10" stroke-linecap="round" stroke-linejoin="round"/>
<path d="M36.7891 20.666H38.2204C39.7947 20.666 41.071 19.3897 41.071 17.8154C41.071 16.2411 39.7947 14.9648 38.2204 14.9648H37.2383" stroke="#FF073A" stroke-width="1.8" stroke-miterlimit="10" stroke-linecap="round" stroke-linejoin="round"/>
<path d="M24.9187 24.9023H33.6795C35.8584 23.2401 37.2383 20.8792 37.2383 17.7734V14.1223C37.2383 12.5252 35.9436 11.2305 34.3465 11.2305C33.5323 11.2305 32.7517 11.5697 32.2084 12.1762C31.4934 12.9742 30.4551 13.4766 29.2991 13.4766C28.1432 13.4766 27.1048 12.9742 26.3897 12.1762C25.8465 11.5698 25.0658 11.2305 24.2517 11.2305C22.6546 11.2305 21.3599 12.5252 21.3599 14.1223V17.7734C21.3599 20.8792 22.7397 23.2401 24.9187 24.9023Z" stroke="#FF073A" stroke-width="1.8" stroke-miterlimit="10" stroke-linecap="round" stroke-linejoin="round"/>
<path d="M13.1753 49.2676H45.9803C46.5196 49.2676 46.9568 48.8304 46.9568 48.291V43.1641" stroke="#FF073A" stroke-width="1.8" stroke-miterlimit="10" stroke-linecap="round" stroke-linejoin="round"/>
<path d="M46.9567 39.7461V34.537C46.9567 32.3248 45.4695 30.3891 43.332 29.819L36.8184 28.082V25.8789C36.8184 25.3396 36.3812 24.9023 35.8418 24.9023H22.7559C22.2165 24.9023 21.7793 25.3396 21.7793 25.8789V28.0821L16.3804 29.5219" stroke="#FF073A" stroke-width="1.8" stroke-miterlimit="10" stroke-linecap="round" stroke-linejoin="round"/>
<path d="M30.2754 31.0547H28.3223C28.0526 31.0547 27.834 30.836 27.834 30.5664V24.9023H30.7637V30.5664C30.7637 30.836 30.545 31.0547 30.2754 31.0547Z" stroke="#FF073A" stroke-width="1.8" stroke-miterlimit="10" stroke-linecap="round" stroke-linejoin="round"/>
<path d="M25.6851 16.3228V17.2645" stroke="#FF073A" stroke-width="1.8" stroke-miterlimit="10" stroke-linecap="round" stroke-linejoin="round"/>
<path d="M32.9126 16.3228V17.2645" stroke="#FF073A" stroke-width="1.8" stroke-miterlimit="10" stroke-linecap="round" stroke-linejoin="round"/>
<path d="M29.2988 16.3228L28.5322 18.0665L29.2988 18.9758" stroke="#FF073A" stroke-width="1.8" stroke-miterlimit="10" stroke-linecap="round" stroke-linejoin="round"/>
<path d="M27.2856 21.7241C28.3984 22.8369 30.1993 22.8369 31.3121 21.7241" stroke="#FF073A" stroke-width="1.8" stroke-miterlimit="10" stroke-linecap="round" stroke-linejoin="round"/>
<path d="M29.2444 38.0865C27.8499 38.115 26.7104 39.3313 26.7104 40.7261V45.1172C26.7104 45.279 26.8416 45.4101 27.0034 45.4101H28.8956C29.0574 45.4101 29.1886 45.279 29.1886 45.1172V43.3267C29.1886 43.2912 29.2174 43.2624 29.2529 43.2624C30.5783 43.2624 31.7271 42.2833 31.871 40.9657C32.0435 39.3873 30.7952 38.0548 29.2444 38.0865Z" stroke="#FF073A" stroke-width="1.8" stroke-miterlimit="10" stroke-linecap="round" stroke-linejoin="round"/>
<path d="M21.7793 28.082L29.3174 38.0859L36.8184 28.082" stroke="#FF073A" stroke-width="1.8" stroke-miterlimit="10" stroke-linecap="round" stroke-linejoin="round"/>
<path d="M39.1133 45.2148C41.2706 45.2148 43.0195 43.466 43.0195 41.3086C43.0195 39.1512 41.2706 37.4023 39.1133 37.4023C36.9559 37.4023 35.207 39.1512 35.207 41.3086C35.207 43.466 36.9559 45.2148 39.1133 45.2148Z" stroke="#FF073A" stroke-width="1.8" stroke-miterlimit="10" stroke-linecap="round" stroke-linejoin="round"/>
<path d="M4.09199 43.6278C5.74785 46.9697 9.19297 49.2676 13.1753 49.2676C18.7709 49.2676 23.3071 44.7314 23.3071 39.1357C23.3071 33.5401 18.7709 29.0039 13.1753 29.0039C7.57959 29.0039 3.04346 33.5401 3.04346 39.1357C3.04346 39.5475 3.06865 39.9532 3.11641 40.352" stroke="#FF073A" stroke-width="1.8" stroke-miterlimit="10" stroke-linecap="round" stroke-linejoin="round"/>
<path d="M17.228 37.7604L19.6849 37.0205" stroke="#FF073A" stroke-width="1.8" stroke-miterlimit="10" stroke-linecap="round" stroke-linejoin="round"/>
<path d="M13.1753 34.8159V32.291" stroke="#FF073A" stroke-width="1.8" stroke-miterlimit="10" stroke-linecap="round" stroke-linejoin="round"/>
<path d="M9.12246 37.7604L6.66553 37.0205" stroke="#FF073A" stroke-width="1.8" stroke-miterlimit="10" stroke-linecap="round" stroke-linejoin="round"/>
<path d="M9.15186 44.6732L10.6703 42.5249" stroke="#FF073A" stroke-width="1.8" stroke-miterlimit="10" stroke-linecap="round" stroke-linejoin="round"/>
<path d="M15.6802 42.5249L17.1986 44.6732" stroke="#FF073A" stroke-width="1.8" stroke-miterlimit="10" stroke-linecap="round" stroke-linejoin="round"/>
<path d="M13.1753 34.8159L9.12256 37.7605L10.6705 42.5247H15.68L17.228 37.7605L13.1753 34.8159Z" stroke="#FF073A" stroke-width="1.8" stroke-miterlimit="10" stroke-linecap="round" stroke-linejoin="round"/>
<path d="M9.61963 29.646L13.1755 32.291L16.7312 29.646" stroke="#FF073A" stroke-width="1.8" stroke-miterlimit="10" stroke-linecap="round" stroke-linejoin="round"/>
<path d="M10.4738 48.9028L9.15186 44.6731" stroke="#FF073A" stroke-width="1.8" stroke-miterlimit="10" stroke-linecap="round" stroke-linejoin="round"/>
<path d="M9.15205 44.6731L4.72266 44.7229" stroke="#FF073A" stroke-width="1.8" stroke-miterlimit="10" stroke-linecap="round" stroke-linejoin="round"/>
<path d="M21.6276 44.7229L17.1982 44.6731" stroke="#FF073A" stroke-width="1.8" stroke-miterlimit="10" stroke-linecap="round" stroke-linejoin="round"/>
<path d="M17.1984 44.6731L15.8765 48.9028" stroke="#FF073A" stroke-width="1.8" stroke-miterlimit="10" stroke-linecap="round" stroke-linejoin="round"/>
<path d="M21.101 32.8242L19.6851 37.0207" stroke="#FF073A" stroke-width="1.8" stroke-miterlimit="10" stroke-linecap="round" stroke-linejoin="round"/>
<path d="M19.6851 37.0205L23.2969 39.5832" stroke="#FF073A" stroke-width="1.8" stroke-miterlimit="10" stroke-linecap="round" stroke-linejoin="round"/>
<path d="M3.05371 39.5834L6.66553 37.0207L5.24971 32.8242" stroke="#FF073A" stroke-width="1.8" stroke-miterlimit="10" stroke-linecap="round" stroke-linejoin="round"/>
<path d="M35.4302 42.6106H42.7964" stroke="#FF073A" stroke-width="1.8" stroke-miterlimit="10" stroke-linecap="round" stroke-linejoin="round"/>
<path d="M42.7964 40.0066H35.4302" stroke="#FF073A" stroke-width="1.8" stroke-miterlimit="10" stroke-linecap="round" stroke-linejoin="round"/>
</g>
<defs>
<clipPath id="clip0_227_2234">
<rect width="50" height="50" fill="white"/>
</clipPath>
</defs>
</svg>
